G04 #@! TF.GenerationSoftware,KiCad,Pcbnew,(2016-12-18 revision 3ffa37c)-makepkg*
G04 #@! TF.CreationDate,2017-05-18T23:21:56-04:00*
G04 #@! TF.ProjectId,TS65,545336352E6B696361645F7063620000,0.7*
G04 #@! TF.FileFunction,Legend,Top*
G04 #@! TF.FilePolarity,Positive*
%FSLAX46Y46*%
G04 Gerber Fmt 4.6, Leading zero omitted, Abs format (unit mm)*
G04 Created by KiCad (PCBNEW (2016-12-18 revision 3ffa37c)-makepkg) date 05/18/17 23:21:56*
%MOMM*%
%LPD*%
G01*
G04 APERTURE LIST*
%ADD10C,0.150000*%
%ADD11C,0.200000*%
%ADD12C,0.127000*%
%ADD13C,0.010000*%
%ADD14C,0.002540*%
%ADD15O,2.003200X3.703200*%
%ADD16R,2.235200X2.235200*%
%ADD17O,2.235200X2.235200*%
%ADD18C,4.191010*%
%ADD19C,1.905010*%
%ADD20C,2.703200*%
%ADD21O,2.703200X2.703200*%
%ADD22O,2.403200X2.703200*%
%ADD23C,2.103200*%
%ADD24C,2.103200*%
%ADD25C,2.540000*%
%ADD26C,3.479800*%
%ADD27O,1.603200X1.603200*%
%ADD28R,1.603200X1.603200*%
%ADD29C,6.203200*%
%ADD30O,1.253200X2.103200*%
%ADD31C,1.191260*%
%ADD32C,1.188720*%
%ADD33C,2.575560*%
%ADD34C,2.573020*%
%ADD35C,2.235200*%
%ADD36R,1.930400X2.235200*%
%ADD37O,1.930400X2.235200*%
%ADD38R,2.235200X1.930400*%
%ADD39O,2.235200X1.930400*%
%ADD40R,1.903200X1.903200*%
%ADD41C,1.903200*%
%ADD42C,1.003200*%
%ADD43O,1.503200X2.003200*%
%ADD44O,1.203200X1.603200*%
G04 APERTURE END LIST*
D10*
D11*
X124302047Y-116331380D02*
X124873476Y-116331380D01*
X124587761Y-117331380D02*
X124587761Y-116331380D01*
X125159190Y-117283761D02*
X125302047Y-117331380D01*
X125540142Y-117331380D01*
X125635380Y-117283761D01*
X125683000Y-117236142D01*
X125730619Y-117140904D01*
X125730619Y-117045666D01*
X125683000Y-116950428D01*
X125635380Y-116902809D01*
X125540142Y-116855190D01*
X125349666Y-116807571D01*
X125254428Y-116759952D01*
X125206809Y-116712333D01*
X125159190Y-116617095D01*
X125159190Y-116521857D01*
X125206809Y-116426619D01*
X125254428Y-116379000D01*
X125349666Y-116331380D01*
X125587761Y-116331380D01*
X125730619Y-116379000D01*
X126587761Y-116331380D02*
X126397285Y-116331380D01*
X126302047Y-116379000D01*
X126254428Y-116426619D01*
X126159190Y-116569476D01*
X126111571Y-116759952D01*
X126111571Y-117140904D01*
X126159190Y-117236142D01*
X126206809Y-117283761D01*
X126302047Y-117331380D01*
X126492523Y-117331380D01*
X126587761Y-117283761D01*
X126635380Y-117236142D01*
X126683000Y-117140904D01*
X126683000Y-116902809D01*
X126635380Y-116807571D01*
X126587761Y-116759952D01*
X126492523Y-116712333D01*
X126302047Y-116712333D01*
X126206809Y-116759952D01*
X126159190Y-116807571D01*
X126111571Y-116902809D01*
X127587761Y-116331380D02*
X127111571Y-116331380D01*
X127063952Y-116807571D01*
X127111571Y-116759952D01*
X127206809Y-116712333D01*
X127444904Y-116712333D01*
X127540142Y-116759952D01*
X127587761Y-116807571D01*
X127635380Y-116902809D01*
X127635380Y-117140904D01*
X127587761Y-117236142D01*
X127540142Y-117283761D01*
X127444904Y-117331380D01*
X127206809Y-117331380D01*
X127111571Y-117283761D01*
X127063952Y-117236142D01*
X128063952Y-116950428D02*
X128825857Y-116950428D01*
X129778238Y-117331380D02*
X129302047Y-117331380D01*
X129302047Y-116331380D01*
X132206809Y-117331380D02*
X131873476Y-116855190D01*
X131635380Y-117331380D02*
X131635380Y-116331380D01*
X132016333Y-116331380D01*
X132111571Y-116379000D01*
X132159190Y-116426619D01*
X132206809Y-116521857D01*
X132206809Y-116664714D01*
X132159190Y-116759952D01*
X132111571Y-116807571D01*
X132016333Y-116855190D01*
X131635380Y-116855190D01*
X133016333Y-117283761D02*
X132921095Y-117331380D01*
X132730619Y-117331380D01*
X132635380Y-117283761D01*
X132587761Y-117188523D01*
X132587761Y-116807571D01*
X132635380Y-116712333D01*
X132730619Y-116664714D01*
X132921095Y-116664714D01*
X133016333Y-116712333D01*
X133063952Y-116807571D01*
X133063952Y-116902809D01*
X132587761Y-116998047D01*
X133397285Y-116664714D02*
X133635380Y-117331380D01*
X133873476Y-116664714D01*
X135206809Y-116331380D02*
X135302047Y-116331380D01*
X135397285Y-116379000D01*
X135444904Y-116426619D01*
X135492523Y-116521857D01*
X135540142Y-116712333D01*
X135540142Y-116950428D01*
X135492523Y-117140904D01*
X135444904Y-117236142D01*
X135397285Y-117283761D01*
X135302047Y-117331380D01*
X135206809Y-117331380D01*
X135111571Y-117283761D01*
X135063952Y-117236142D01*
X135016333Y-117140904D01*
X134968714Y-116950428D01*
X134968714Y-116712333D01*
X135016333Y-116521857D01*
X135063952Y-116426619D01*
X135111571Y-116379000D01*
X135206809Y-116331380D01*
X135968714Y-117236142D02*
X136016333Y-117283761D01*
X135968714Y-117331380D01*
X135921095Y-117283761D01*
X135968714Y-117236142D01*
X135968714Y-117331380D01*
X136349666Y-116331380D02*
X137016333Y-116331380D01*
X136587761Y-117331380D01*
X112206809Y-119031380D02*
X112206809Y-118031380D01*
X112444904Y-118031380D01*
X112587761Y-118079000D01*
X112683000Y-118174238D01*
X112730619Y-118269476D01*
X112778238Y-118459952D01*
X112778238Y-118602809D01*
X112730619Y-118793285D01*
X112683000Y-118888523D01*
X112587761Y-118983761D01*
X112444904Y-119031380D01*
X112206809Y-119031380D01*
X113587761Y-118983761D02*
X113492523Y-119031380D01*
X113302047Y-119031380D01*
X113206809Y-118983761D01*
X113159190Y-118888523D01*
X113159190Y-118507571D01*
X113206809Y-118412333D01*
X113302047Y-118364714D01*
X113492523Y-118364714D01*
X113587761Y-118412333D01*
X113635380Y-118507571D01*
X113635380Y-118602809D01*
X113159190Y-118698047D01*
X114016333Y-118983761D02*
X114111571Y-119031380D01*
X114302047Y-119031380D01*
X114397285Y-118983761D01*
X114444904Y-118888523D01*
X114444904Y-118840904D01*
X114397285Y-118745666D01*
X114302047Y-118698047D01*
X114159190Y-118698047D01*
X114063952Y-118650428D01*
X114016333Y-118555190D01*
X114016333Y-118507571D01*
X114063952Y-118412333D01*
X114159190Y-118364714D01*
X114302047Y-118364714D01*
X114397285Y-118412333D01*
X114873476Y-119031380D02*
X114873476Y-118364714D01*
X114873476Y-118031380D02*
X114825857Y-118079000D01*
X114873476Y-118126619D01*
X114921095Y-118079000D01*
X114873476Y-118031380D01*
X114873476Y-118126619D01*
X115778238Y-118364714D02*
X115778238Y-119174238D01*
X115730619Y-119269476D01*
X115683000Y-119317095D01*
X115587761Y-119364714D01*
X115444904Y-119364714D01*
X115349666Y-119317095D01*
X115778238Y-118983761D02*
X115683000Y-119031380D01*
X115492523Y-119031380D01*
X115397285Y-118983761D01*
X115349666Y-118936142D01*
X115302047Y-118840904D01*
X115302047Y-118555190D01*
X115349666Y-118459952D01*
X115397285Y-118412333D01*
X115492523Y-118364714D01*
X115683000Y-118364714D01*
X115778238Y-118412333D01*
X116254428Y-118364714D02*
X116254428Y-119031380D01*
X116254428Y-118459952D02*
X116302047Y-118412333D01*
X116397285Y-118364714D01*
X116540142Y-118364714D01*
X116635380Y-118412333D01*
X116683000Y-118507571D01*
X116683000Y-119031380D01*
X117540142Y-118983761D02*
X117444904Y-119031380D01*
X117254428Y-119031380D01*
X117159190Y-118983761D01*
X117111571Y-118888523D01*
X117111571Y-118507571D01*
X117159190Y-118412333D01*
X117254428Y-118364714D01*
X117444904Y-118364714D01*
X117540142Y-118412333D01*
X117587761Y-118507571D01*
X117587761Y-118602809D01*
X117111571Y-118698047D01*
X118444904Y-119031380D02*
X118444904Y-118031380D01*
X118444904Y-118983761D02*
X118349666Y-119031380D01*
X118159190Y-119031380D01*
X118063952Y-118983761D01*
X118016333Y-118936142D01*
X117968714Y-118840904D01*
X117968714Y-118555190D01*
X118016333Y-118459952D01*
X118063952Y-118412333D01*
X118159190Y-118364714D01*
X118349666Y-118364714D01*
X118444904Y-118412333D01*
X120492523Y-119031380D02*
X120444904Y-119031380D01*
X120349666Y-118983761D01*
X120206809Y-118840904D01*
X119968714Y-118555190D01*
X119873476Y-118412333D01*
X119825857Y-118269476D01*
X119825857Y-118174238D01*
X119873476Y-118079000D01*
X119968714Y-118031380D01*
X120016333Y-118031380D01*
X120111571Y-118079000D01*
X120159190Y-118174238D01*
X120159190Y-118221857D01*
X120111571Y-118317095D01*
X120063952Y-118364714D01*
X119778238Y-118555190D01*
X119730619Y-118602809D01*
X119683000Y-118698047D01*
X119683000Y-118840904D01*
X119730619Y-118936142D01*
X119778238Y-118983761D01*
X119873476Y-119031380D01*
X120016333Y-119031380D01*
X120111571Y-118983761D01*
X120159190Y-118936142D01*
X120302047Y-118745666D01*
X120349666Y-118602809D01*
X120349666Y-118507571D01*
X121683000Y-119031380D02*
X121683000Y-118031380D01*
X121921095Y-118031380D01*
X122063952Y-118079000D01*
X122159190Y-118174238D01*
X122206809Y-118269476D01*
X122254428Y-118459952D01*
X122254428Y-118602809D01*
X122206809Y-118793285D01*
X122159190Y-118888523D01*
X122063952Y-118983761D01*
X121921095Y-119031380D01*
X121683000Y-119031380D01*
X122683000Y-119031380D02*
X122683000Y-118364714D01*
X122683000Y-118555190D02*
X122730619Y-118459952D01*
X122778238Y-118412333D01*
X122873476Y-118364714D01*
X122968714Y-118364714D01*
X123730619Y-119031380D02*
X123730619Y-118507571D01*
X123683000Y-118412333D01*
X123587761Y-118364714D01*
X123397285Y-118364714D01*
X123302047Y-118412333D01*
X123730619Y-118983761D02*
X123635380Y-119031380D01*
X123397285Y-119031380D01*
X123302047Y-118983761D01*
X123254428Y-118888523D01*
X123254428Y-118793285D01*
X123302047Y-118698047D01*
X123397285Y-118650428D01*
X123635380Y-118650428D01*
X123730619Y-118602809D01*
X124111571Y-118364714D02*
X124302047Y-119031380D01*
X124492523Y-118555190D01*
X124683000Y-119031380D01*
X124873476Y-118364714D01*
X125254428Y-118364714D02*
X125254428Y-119031380D01*
X125254428Y-118459952D02*
X125302047Y-118412333D01*
X125397285Y-118364714D01*
X125540142Y-118364714D01*
X125635380Y-118412333D01*
X125683000Y-118507571D01*
X125683000Y-119031380D01*
X126921095Y-119031380D02*
X126921095Y-118364714D01*
X126921095Y-118031380D02*
X126873476Y-118079000D01*
X126921095Y-118126619D01*
X126968714Y-118079000D01*
X126921095Y-118031380D01*
X126921095Y-118126619D01*
X127397285Y-118364714D02*
X127397285Y-119031380D01*
X127397285Y-118459952D02*
X127444904Y-118412333D01*
X127540142Y-118364714D01*
X127683000Y-118364714D01*
X127778238Y-118412333D01*
X127825857Y-118507571D01*
X127825857Y-119031380D01*
X129063952Y-119031380D02*
X129063952Y-118031380D01*
X129635380Y-119031380D02*
X129206809Y-118459952D01*
X129635380Y-118031380D02*
X129063952Y-118602809D01*
X130063952Y-119031380D02*
X130063952Y-118364714D01*
X130063952Y-118031380D02*
X130016333Y-118079000D01*
X130063952Y-118126619D01*
X130111571Y-118079000D01*
X130063952Y-118031380D01*
X130063952Y-118126619D01*
X131111571Y-118936142D02*
X131063952Y-118983761D01*
X130921095Y-119031380D01*
X130825857Y-119031380D01*
X130683000Y-118983761D01*
X130587761Y-118888523D01*
X130540142Y-118793285D01*
X130492523Y-118602809D01*
X130492523Y-118459952D01*
X130540142Y-118269476D01*
X130587761Y-118174238D01*
X130683000Y-118079000D01*
X130825857Y-118031380D01*
X130921095Y-118031380D01*
X131063952Y-118079000D01*
X131111571Y-118126619D01*
X131492523Y-118745666D02*
X131968714Y-118745666D01*
X131397285Y-119031380D02*
X131730619Y-118031380D01*
X132063952Y-119031380D01*
X132397285Y-119031380D02*
X132397285Y-118031380D01*
X132635380Y-118031380D01*
X132778238Y-118079000D01*
X132873476Y-118174238D01*
X132921095Y-118269476D01*
X132968714Y-118459952D01*
X132968714Y-118602809D01*
X132921095Y-118793285D01*
X132873476Y-118888523D01*
X132778238Y-118983761D01*
X132635380Y-119031380D01*
X132397285Y-119031380D01*
X134159190Y-119031380D02*
X134159190Y-118031380D01*
X134159190Y-118412333D02*
X134254428Y-118364714D01*
X134444904Y-118364714D01*
X134540142Y-118412333D01*
X134587761Y-118459952D01*
X134635380Y-118555190D01*
X134635380Y-118840904D01*
X134587761Y-118936142D01*
X134540142Y-118983761D01*
X134444904Y-119031380D01*
X134254428Y-119031380D01*
X134159190Y-118983761D01*
X134968714Y-118364714D02*
X135206809Y-119031380D01*
X135444904Y-118364714D02*
X135206809Y-119031380D01*
X135111571Y-119269476D01*
X135063952Y-119317095D01*
X134968714Y-119364714D01*
X136587761Y-119031380D02*
X136587761Y-118031380D01*
X136921095Y-118745666D01*
X137254428Y-118031380D01*
X137254428Y-119031380D01*
X137873476Y-119031380D02*
X137778238Y-118983761D01*
X137730619Y-118936142D01*
X137683000Y-118840904D01*
X137683000Y-118555190D01*
X137730619Y-118459952D01*
X137778238Y-118412333D01*
X137873476Y-118364714D01*
X138016333Y-118364714D01*
X138111571Y-118412333D01*
X138159190Y-118459952D01*
X138206809Y-118555190D01*
X138206809Y-118840904D01*
X138159190Y-118936142D01*
X138111571Y-118983761D01*
X138016333Y-119031380D01*
X137873476Y-119031380D01*
X138635380Y-119031380D02*
X138635380Y-118031380D01*
X139063952Y-119031380D02*
X139063952Y-118507571D01*
X139016333Y-118412333D01*
X138921095Y-118364714D01*
X138778238Y-118364714D01*
X138683000Y-118412333D01*
X138635380Y-118459952D01*
X139540142Y-119031380D02*
X139540142Y-118364714D01*
X139540142Y-118031380D02*
X139492523Y-118079000D01*
X139540142Y-118126619D01*
X139587761Y-118079000D01*
X139540142Y-118031380D01*
X139540142Y-118126619D01*
X139873476Y-118364714D02*
X140254428Y-118364714D01*
X140016333Y-118031380D02*
X140016333Y-118888523D01*
X140063952Y-118983761D01*
X140159190Y-119031380D01*
X140254428Y-119031380D01*
X141397285Y-118031380D02*
X141302047Y-118221857D01*
X141825857Y-119031380D02*
X141825857Y-118031380D01*
X142159190Y-118745666D01*
X142492523Y-118031380D01*
X142492523Y-119031380D01*
X143159190Y-118031380D02*
X143349666Y-118031380D01*
X143444904Y-118079000D01*
X143540142Y-118174238D01*
X143587761Y-118364714D01*
X143587761Y-118698047D01*
X143540142Y-118888523D01*
X143444904Y-118983761D01*
X143349666Y-119031380D01*
X143159190Y-119031380D01*
X143063952Y-118983761D01*
X142968714Y-118888523D01*
X142921095Y-118698047D01*
X142921095Y-118364714D01*
X142968714Y-118174238D01*
X143063952Y-118079000D01*
X143159190Y-118031380D01*
X143921095Y-118031380D02*
X144587761Y-118031380D01*
X143921095Y-119031380D01*
X144587761Y-119031380D01*
X145016333Y-118031380D02*
X144921095Y-118221857D01*
X146730619Y-118079000D02*
X146635380Y-118031380D01*
X146492523Y-118031380D01*
X146349666Y-118079000D01*
X146254428Y-118174238D01*
X146206809Y-118269476D01*
X146159190Y-118459952D01*
X146159190Y-118602809D01*
X146206809Y-118793285D01*
X146254428Y-118888523D01*
X146349666Y-118983761D01*
X146492523Y-119031380D01*
X146587761Y-119031380D01*
X146730619Y-118983761D01*
X146778238Y-118936142D01*
X146778238Y-118602809D01*
X146587761Y-118602809D01*
X147635380Y-119031380D02*
X147635380Y-118507571D01*
X147587761Y-118412333D01*
X147492523Y-118364714D01*
X147302047Y-118364714D01*
X147206809Y-118412333D01*
X147635380Y-118983761D02*
X147540142Y-119031380D01*
X147302047Y-119031380D01*
X147206809Y-118983761D01*
X147159190Y-118888523D01*
X147159190Y-118793285D01*
X147206809Y-118698047D01*
X147302047Y-118650428D01*
X147540142Y-118650428D01*
X147635380Y-118602809D01*
X148111571Y-119031380D02*
X148111571Y-118364714D01*
X148111571Y-118555190D02*
X148159190Y-118459952D01*
X148206809Y-118412333D01*
X148302047Y-118364714D01*
X148397285Y-118364714D01*
X149159190Y-118364714D02*
X149159190Y-119174238D01*
X149111571Y-119269476D01*
X149063952Y-119317095D01*
X148968714Y-119364714D01*
X148825857Y-119364714D01*
X148730619Y-119317095D01*
X149159190Y-118983761D02*
X149063952Y-119031380D01*
X148873476Y-119031380D01*
X148778238Y-118983761D01*
X148730619Y-118936142D01*
X148683000Y-118840904D01*
X148683000Y-118555190D01*
X148730619Y-118459952D01*
X148778238Y-118412333D01*
X148873476Y-118364714D01*
X149063952Y-118364714D01*
X149159190Y-118412333D01*
X323730909Y-70357580D02*
X324302338Y-70357580D01*
X324016623Y-71357580D02*
X324016623Y-70357580D01*
X324588052Y-71309961D02*
X324730909Y-71357580D01*
X324969004Y-71357580D01*
X325064242Y-71309961D01*
X325111861Y-71262342D01*
X325159480Y-71167104D01*
X325159480Y-71071866D01*
X325111861Y-70976628D01*
X325064242Y-70929009D01*
X324969004Y-70881390D01*
X324778528Y-70833771D01*
X324683290Y-70786152D01*
X324635671Y-70738533D01*
X324588052Y-70643295D01*
X324588052Y-70548057D01*
X324635671Y-70452819D01*
X324683290Y-70405200D01*
X324778528Y-70357580D01*
X325016623Y-70357580D01*
X325159480Y-70405200D01*
X326016623Y-70357580D02*
X325826147Y-70357580D01*
X325730909Y-70405200D01*
X325683290Y-70452819D01*
X325588052Y-70595676D01*
X325540433Y-70786152D01*
X325540433Y-71167104D01*
X325588052Y-71262342D01*
X325635671Y-71309961D01*
X325730909Y-71357580D01*
X325921385Y-71357580D01*
X326016623Y-71309961D01*
X326064242Y-71262342D01*
X326111861Y-71167104D01*
X326111861Y-70929009D01*
X326064242Y-70833771D01*
X326016623Y-70786152D01*
X325921385Y-70738533D01*
X325730909Y-70738533D01*
X325635671Y-70786152D01*
X325588052Y-70833771D01*
X325540433Y-70929009D01*
X327016623Y-70357580D02*
X326540433Y-70357580D01*
X326492814Y-70833771D01*
X326540433Y-70786152D01*
X326635671Y-70738533D01*
X326873766Y-70738533D01*
X326969004Y-70786152D01*
X327016623Y-70833771D01*
X327064242Y-70929009D01*
X327064242Y-71167104D01*
X327016623Y-71262342D01*
X326969004Y-71309961D01*
X326873766Y-71357580D01*
X326635671Y-71357580D01*
X326540433Y-71309961D01*
X326492814Y-71262342D01*
X327492814Y-70976628D02*
X328254719Y-70976628D01*
X329302338Y-71357580D02*
X328969004Y-70881390D01*
X328730909Y-71357580D02*
X328730909Y-70357580D01*
X329111861Y-70357580D01*
X329207100Y-70405200D01*
X329254719Y-70452819D01*
X329302338Y-70548057D01*
X329302338Y-70690914D01*
X329254719Y-70786152D01*
X329207100Y-70833771D01*
X329111861Y-70881390D01*
X328730909Y-70881390D01*
X331826147Y-71357580D02*
X331492814Y-70881390D01*
X331254719Y-71357580D02*
X331254719Y-70357580D01*
X331635671Y-70357580D01*
X331730909Y-70405200D01*
X331778528Y-70452819D01*
X331826147Y-70548057D01*
X331826147Y-70690914D01*
X331778528Y-70786152D01*
X331730909Y-70833771D01*
X331635671Y-70881390D01*
X331254719Y-70881390D01*
X332635671Y-71309961D02*
X332540433Y-71357580D01*
X332349957Y-71357580D01*
X332254719Y-71309961D01*
X332207100Y-71214723D01*
X332207100Y-70833771D01*
X332254719Y-70738533D01*
X332349957Y-70690914D01*
X332540433Y-70690914D01*
X332635671Y-70738533D01*
X332683290Y-70833771D01*
X332683290Y-70929009D01*
X332207100Y-71024247D01*
X333016623Y-70690914D02*
X333254719Y-71357580D01*
X333492814Y-70690914D01*
X334826147Y-70357580D02*
X334921385Y-70357580D01*
X335016623Y-70405200D01*
X335064242Y-70452819D01*
X335111861Y-70548057D01*
X335159480Y-70738533D01*
X335159480Y-70976628D01*
X335111861Y-71167104D01*
X335064242Y-71262342D01*
X335016623Y-71309961D01*
X334921385Y-71357580D01*
X334826147Y-71357580D01*
X334730909Y-71309961D01*
X334683290Y-71262342D01*
X334635671Y-71167104D01*
X334588052Y-70976628D01*
X334588052Y-70738533D01*
X334635671Y-70548057D01*
X334683290Y-70452819D01*
X334730909Y-70405200D01*
X334826147Y-70357580D01*
X335588052Y-71262342D02*
X335635671Y-71309961D01*
X335588052Y-71357580D01*
X335540433Y-71309961D01*
X335588052Y-71262342D01*
X335588052Y-71357580D01*
X335969004Y-70357580D02*
X336635671Y-70357580D01*
X336207100Y-71357580D01*
X311730909Y-73057580D02*
X311730909Y-72057580D01*
X311969004Y-72057580D01*
X312111861Y-72105200D01*
X312207100Y-72200438D01*
X312254719Y-72295676D01*
X312302338Y-72486152D01*
X312302338Y-72629009D01*
X312254719Y-72819485D01*
X312207100Y-72914723D01*
X312111861Y-73009961D01*
X311969004Y-73057580D01*
X311730909Y-73057580D01*
X313111861Y-73009961D02*
X313016623Y-73057580D01*
X312826147Y-73057580D01*
X312730909Y-73009961D01*
X312683290Y-72914723D01*
X312683290Y-72533771D01*
X312730909Y-72438533D01*
X312826147Y-72390914D01*
X313016623Y-72390914D01*
X313111861Y-72438533D01*
X313159480Y-72533771D01*
X313159480Y-72629009D01*
X312683290Y-72724247D01*
X313540433Y-73009961D02*
X313635671Y-73057580D01*
X313826147Y-73057580D01*
X313921385Y-73009961D01*
X313969004Y-72914723D01*
X313969004Y-72867104D01*
X313921385Y-72771866D01*
X313826147Y-72724247D01*
X313683290Y-72724247D01*
X313588052Y-72676628D01*
X313540433Y-72581390D01*
X313540433Y-72533771D01*
X313588052Y-72438533D01*
X313683290Y-72390914D01*
X313826147Y-72390914D01*
X313921385Y-72438533D01*
X314397576Y-73057580D02*
X314397576Y-72390914D01*
X314397576Y-72057580D02*
X314349957Y-72105200D01*
X314397576Y-72152819D01*
X314445195Y-72105200D01*
X314397576Y-72057580D01*
X314397576Y-72152819D01*
X315302338Y-72390914D02*
X315302338Y-73200438D01*
X315254719Y-73295676D01*
X315207100Y-73343295D01*
X315111861Y-73390914D01*
X314969004Y-73390914D01*
X314873766Y-73343295D01*
X315302338Y-73009961D02*
X315207100Y-73057580D01*
X315016623Y-73057580D01*
X314921385Y-73009961D01*
X314873766Y-72962342D01*
X314826147Y-72867104D01*
X314826147Y-72581390D01*
X314873766Y-72486152D01*
X314921385Y-72438533D01*
X315016623Y-72390914D01*
X315207100Y-72390914D01*
X315302338Y-72438533D01*
X315778528Y-72390914D02*
X315778528Y-73057580D01*
X315778528Y-72486152D02*
X315826147Y-72438533D01*
X315921385Y-72390914D01*
X316064242Y-72390914D01*
X316159480Y-72438533D01*
X316207100Y-72533771D01*
X316207100Y-73057580D01*
X317064242Y-73009961D02*
X316969004Y-73057580D01*
X316778528Y-73057580D01*
X316683290Y-73009961D01*
X316635671Y-72914723D01*
X316635671Y-72533771D01*
X316683290Y-72438533D01*
X316778528Y-72390914D01*
X316969004Y-72390914D01*
X317064242Y-72438533D01*
X317111861Y-72533771D01*
X317111861Y-72629009D01*
X316635671Y-72724247D01*
X317969004Y-73057580D02*
X317969004Y-72057580D01*
X317969004Y-73009961D02*
X317873766Y-73057580D01*
X317683290Y-73057580D01*
X317588052Y-73009961D01*
X317540433Y-72962342D01*
X317492814Y-72867104D01*
X317492814Y-72581390D01*
X317540433Y-72486152D01*
X317588052Y-72438533D01*
X317683290Y-72390914D01*
X317873766Y-72390914D01*
X317969004Y-72438533D01*
X320016623Y-73057580D02*
X319969004Y-73057580D01*
X319873766Y-73009961D01*
X319730909Y-72867104D01*
X319492814Y-72581390D01*
X319397576Y-72438533D01*
X319349957Y-72295676D01*
X319349957Y-72200438D01*
X319397576Y-72105200D01*
X319492814Y-72057580D01*
X319540433Y-72057580D01*
X319635671Y-72105200D01*
X319683290Y-72200438D01*
X319683290Y-72248057D01*
X319635671Y-72343295D01*
X319588052Y-72390914D01*
X319302338Y-72581390D01*
X319254719Y-72629009D01*
X319207100Y-72724247D01*
X319207100Y-72867104D01*
X319254719Y-72962342D01*
X319302338Y-73009961D01*
X319397576Y-73057580D01*
X319540433Y-73057580D01*
X319635671Y-73009961D01*
X319683290Y-72962342D01*
X319826147Y-72771866D01*
X319873766Y-72629009D01*
X319873766Y-72533771D01*
X321207100Y-73057580D02*
X321207100Y-72057580D01*
X321445195Y-72057580D01*
X321588052Y-72105200D01*
X321683290Y-72200438D01*
X321730909Y-72295676D01*
X321778528Y-72486152D01*
X321778528Y-72629009D01*
X321730909Y-72819485D01*
X321683290Y-72914723D01*
X321588052Y-73009961D01*
X321445195Y-73057580D01*
X321207100Y-73057580D01*
X322207100Y-73057580D02*
X322207100Y-72390914D01*
X322207100Y-72581390D02*
X322254719Y-72486152D01*
X322302338Y-72438533D01*
X322397576Y-72390914D01*
X322492814Y-72390914D01*
X323254719Y-73057580D02*
X323254719Y-72533771D01*
X323207100Y-72438533D01*
X323111861Y-72390914D01*
X322921385Y-72390914D01*
X322826147Y-72438533D01*
X323254719Y-73009961D02*
X323159480Y-73057580D01*
X322921385Y-73057580D01*
X322826147Y-73009961D01*
X322778528Y-72914723D01*
X322778528Y-72819485D01*
X322826147Y-72724247D01*
X322921385Y-72676628D01*
X323159480Y-72676628D01*
X323254719Y-72629009D01*
X323635671Y-72390914D02*
X323826147Y-73057580D01*
X324016623Y-72581390D01*
X324207100Y-73057580D01*
X324397576Y-72390914D01*
X324778528Y-72390914D02*
X324778528Y-73057580D01*
X324778528Y-72486152D02*
X324826147Y-72438533D01*
X324921385Y-72390914D01*
X325064242Y-72390914D01*
X325159480Y-72438533D01*
X325207100Y-72533771D01*
X325207100Y-73057580D01*
X326445195Y-73057580D02*
X326445195Y-72390914D01*
X326445195Y-72057580D02*
X326397576Y-72105200D01*
X326445195Y-72152819D01*
X326492814Y-72105200D01*
X326445195Y-72057580D01*
X326445195Y-72152819D01*
X326921385Y-72390914D02*
X326921385Y-73057580D01*
X326921385Y-72486152D02*
X326969004Y-72438533D01*
X327064242Y-72390914D01*
X327207100Y-72390914D01*
X327302338Y-72438533D01*
X327349957Y-72533771D01*
X327349957Y-73057580D01*
X328588052Y-73057580D02*
X328588052Y-72057580D01*
X329159480Y-73057580D02*
X328730909Y-72486152D01*
X329159480Y-72057580D02*
X328588052Y-72629009D01*
X329588052Y-73057580D02*
X329588052Y-72390914D01*
X329588052Y-72057580D02*
X329540433Y-72105200D01*
X329588052Y-72152819D01*
X329635671Y-72105200D01*
X329588052Y-72057580D01*
X329588052Y-72152819D01*
X330635671Y-72962342D02*
X330588052Y-73009961D01*
X330445195Y-73057580D01*
X330349957Y-73057580D01*
X330207100Y-73009961D01*
X330111861Y-72914723D01*
X330064242Y-72819485D01*
X330016623Y-72629009D01*
X330016623Y-72486152D01*
X330064242Y-72295676D01*
X330111861Y-72200438D01*
X330207100Y-72105200D01*
X330349957Y-72057580D01*
X330445195Y-72057580D01*
X330588052Y-72105200D01*
X330635671Y-72152819D01*
X331016623Y-72771866D02*
X331492814Y-72771866D01*
X330921385Y-73057580D02*
X331254719Y-72057580D01*
X331588052Y-73057580D01*
X331921385Y-73057580D02*
X331921385Y-72057580D01*
X332159480Y-72057580D01*
X332302338Y-72105200D01*
X332397576Y-72200438D01*
X332445195Y-72295676D01*
X332492814Y-72486152D01*
X332492814Y-72629009D01*
X332445195Y-72819485D01*
X332397576Y-72914723D01*
X332302338Y-73009961D01*
X332159480Y-73057580D01*
X331921385Y-73057580D01*
X333683290Y-73057580D02*
X333683290Y-72057580D01*
X333683290Y-72438533D02*
X333778528Y-72390914D01*
X333969004Y-72390914D01*
X334064242Y-72438533D01*
X334111861Y-72486152D01*
X334159480Y-72581390D01*
X334159480Y-72867104D01*
X334111861Y-72962342D01*
X334064242Y-73009961D01*
X333969004Y-73057580D01*
X333778528Y-73057580D01*
X333683290Y-73009961D01*
X334492814Y-72390914D02*
X334730909Y-73057580D01*
X334969004Y-72390914D02*
X334730909Y-73057580D01*
X334635671Y-73295676D01*
X334588052Y-73343295D01*
X334492814Y-73390914D01*
X336111861Y-73057580D02*
X336111861Y-72057580D01*
X336445195Y-72771866D01*
X336778528Y-72057580D01*
X336778528Y-73057580D01*
X337397576Y-73057580D02*
X337302338Y-73009961D01*
X337254719Y-72962342D01*
X337207100Y-72867104D01*
X337207100Y-72581390D01*
X337254719Y-72486152D01*
X337302338Y-72438533D01*
X337397576Y-72390914D01*
X337540433Y-72390914D01*
X337635671Y-72438533D01*
X337683290Y-72486152D01*
X337730909Y-72581390D01*
X337730909Y-72867104D01*
X337683290Y-72962342D01*
X337635671Y-73009961D01*
X337540433Y-73057580D01*
X337397576Y-73057580D01*
X338159480Y-73057580D02*
X338159480Y-72057580D01*
X338588052Y-73057580D02*
X338588052Y-72533771D01*
X338540433Y-72438533D01*
X338445195Y-72390914D01*
X338302338Y-72390914D01*
X338207100Y-72438533D01*
X338159480Y-72486152D01*
X339064242Y-73057580D02*
X339064242Y-72390914D01*
X339064242Y-72057580D02*
X339016623Y-72105200D01*
X339064242Y-72152819D01*
X339111861Y-72105200D01*
X339064242Y-72057580D01*
X339064242Y-72152819D01*
X339397576Y-72390914D02*
X339778528Y-72390914D01*
X339540433Y-72057580D02*
X339540433Y-72914723D01*
X339588052Y-73009961D01*
X339683290Y-73057580D01*
X339778528Y-73057580D01*
X340921385Y-72057580D02*
X340826147Y-72248057D01*
X341349957Y-73057580D02*
X341349957Y-72057580D01*
X341683290Y-72771866D01*
X342016623Y-72057580D01*
X342016623Y-73057580D01*
X342683290Y-72057580D02*
X342873766Y-72057580D01*
X342969004Y-72105200D01*
X343064242Y-72200438D01*
X343111861Y-72390914D01*
X343111861Y-72724247D01*
X343064242Y-72914723D01*
X342969004Y-73009961D01*
X342873766Y-73057580D01*
X342683290Y-73057580D01*
X342588052Y-73009961D01*
X342492814Y-72914723D01*
X342445195Y-72724247D01*
X342445195Y-72390914D01*
X342492814Y-72200438D01*
X342588052Y-72105200D01*
X342683290Y-72057580D01*
X343445195Y-72057580D02*
X344111861Y-72057580D01*
X343445195Y-73057580D01*
X344111861Y-73057580D01*
X344540433Y-72057580D02*
X344445195Y-72248057D01*
X346254719Y-72105200D02*
X346159480Y-72057580D01*
X346016623Y-72057580D01*
X345873766Y-72105200D01*
X345778528Y-72200438D01*
X345730909Y-72295676D01*
X345683290Y-72486152D01*
X345683290Y-72629009D01*
X345730909Y-72819485D01*
X345778528Y-72914723D01*
X345873766Y-73009961D01*
X346016623Y-73057580D01*
X346111861Y-73057580D01*
X346254719Y-73009961D01*
X346302338Y-72962342D01*
X346302338Y-72629009D01*
X346111861Y-72629009D01*
X347159480Y-73057580D02*
X347159480Y-72533771D01*
X347111861Y-72438533D01*
X347016623Y-72390914D01*
X346826147Y-72390914D01*
X346730909Y-72438533D01*
X347159480Y-73009961D02*
X347064242Y-73057580D01*
X346826147Y-73057580D01*
X346730909Y-73009961D01*
X346683290Y-72914723D01*
X346683290Y-72819485D01*
X346730909Y-72724247D01*
X346826147Y-72676628D01*
X347064242Y-72676628D01*
X347159480Y-72629009D01*
X347635671Y-73057580D02*
X347635671Y-72390914D01*
X347635671Y-72581390D02*
X347683290Y-72486152D01*
X347730909Y-72438533D01*
X347826147Y-72390914D01*
X347921385Y-72390914D01*
X348683290Y-72390914D02*
X348683290Y-73200438D01*
X348635671Y-73295676D01*
X348588052Y-73343295D01*
X348492814Y-73390914D01*
X348349957Y-73390914D01*
X348254719Y-73343295D01*
X348683290Y-73009961D02*
X348588052Y-73057580D01*
X348397576Y-73057580D01*
X348302338Y-73009961D01*
X348254719Y-72962342D01*
X348207100Y-72867104D01*
X348207100Y-72581390D01*
X348254719Y-72486152D01*
X348302338Y-72438533D01*
X348397576Y-72390914D01*
X348588052Y-72390914D01*
X348683290Y-72438533D01*
D12*
X109867700Y-134388860D02*
X109867700Y-133172200D01*
X108320840Y-134388860D02*
X108320840Y-133172200D01*
X106692700Y-134388860D02*
X106692700Y-133172200D01*
X105143300Y-134388860D02*
X105143300Y-133172200D01*
X109867700Y-125199140D02*
X109867700Y-126415800D01*
X108320840Y-125199140D02*
X108320840Y-126415800D01*
X106819700Y-125199140D02*
X106819700Y-126415800D01*
X105270300Y-125199140D02*
X105270300Y-126415800D01*
X105143300Y-134393940D02*
X106692700Y-134393940D01*
X108320840Y-134393940D02*
X109867700Y-134393940D01*
X109867700Y-125199140D02*
X108320840Y-125199140D01*
X106819700Y-125199140D02*
X105270300Y-125199140D01*
%LPC*%
D13*
G36*
X144149420Y-135072560D02*
X141751660Y-135072560D01*
X141751660Y-135804080D01*
X144149420Y-135804080D01*
X144149420Y-137135040D01*
X144149478Y-137297721D01*
X144149647Y-137454699D01*
X144149922Y-137604785D01*
X144150294Y-137746789D01*
X144150757Y-137879525D01*
X144151304Y-138001802D01*
X144151928Y-138112433D01*
X144152622Y-138210230D01*
X144153379Y-138294004D01*
X144154192Y-138362566D01*
X144155055Y-138414728D01*
X144155960Y-138449302D01*
X144156900Y-138465099D01*
X144157186Y-138466000D01*
X144166497Y-138459138D01*
X144187668Y-138440068D01*
X144218302Y-138411056D01*
X144256000Y-138374374D01*
X144296739Y-138333920D01*
X144428526Y-138201840D01*
X146679260Y-138201840D01*
X146679260Y-137480480D01*
X144281500Y-137480480D01*
X144281500Y-133406320D01*
X149884693Y-133406320D01*
X149051619Y-134239440D01*
X148218546Y-135072560D01*
X145957900Y-135072560D01*
X145957900Y-135804080D01*
X146483708Y-135804079D01*
X147009517Y-135804079D01*
X147682588Y-136477208D01*
X148355660Y-137150336D01*
X148355659Y-137841217D01*
X148355659Y-138532097D01*
X147682531Y-139205168D01*
X147009403Y-139878240D01*
X140085261Y-139878240D01*
X140087733Y-137480480D01*
X141751660Y-137480480D01*
X141751660Y-138201840D01*
X142031229Y-138201840D01*
X142257204Y-137975697D01*
X142483180Y-137749554D01*
X142483180Y-137480480D01*
X141751660Y-137480480D01*
X140087733Y-137480480D01*
X140087880Y-137338404D01*
X140090500Y-134798569D01*
X139983820Y-134904452D01*
X139940165Y-134947181D01*
X139906427Y-134978178D01*
X139878533Y-135000448D01*
X139852409Y-135016995D01*
X139823984Y-135030826D01*
X139798135Y-135041447D01*
X139719131Y-135072559D01*
X138868389Y-135072559D01*
X138017648Y-135072560D01*
X137834979Y-135255440D01*
X137652311Y-135438319D01*
X137834980Y-135621199D01*
X138017648Y-135804080D01*
X139953340Y-135804080D01*
X139953340Y-139878240D01*
X134985100Y-139878240D01*
X134985100Y-138201840D01*
X138287100Y-138201840D01*
X138287100Y-137480480D01*
X137756211Y-137480480D01*
X137225322Y-137480479D01*
X136552102Y-136807202D01*
X135878881Y-136133924D01*
X135881570Y-135483862D01*
X135882176Y-135370299D01*
X135883015Y-135262415D01*
X135884056Y-135161983D01*
X135885269Y-135070775D01*
X135886622Y-134990563D01*
X135888084Y-134923119D01*
X135889625Y-134870215D01*
X135891215Y-134833623D01*
X135892821Y-134815116D01*
X135893240Y-134813480D01*
X135889263Y-134813940D01*
X135872948Y-134827033D01*
X135846272Y-134850972D01*
X135811216Y-134883972D01*
X135769757Y-134924245D01*
X135761029Y-134932860D01*
X135619836Y-135072560D01*
X134853020Y-135072560D01*
X134853020Y-139878240D01*
X133186780Y-139878240D01*
X133186780Y-135072560D01*
X132419653Y-135072560D01*
X131586579Y-134239440D01*
X130753506Y-133406320D01*
X144149420Y-133406320D01*
X144149420Y-135072560D01*
X144149420Y-135072560D01*
G37*
X144149420Y-135072560D02*
X141751660Y-135072560D01*
X141751660Y-135804080D01*
X144149420Y-135804080D01*
X144149420Y-137135040D01*
X144149478Y-137297721D01*
X144149647Y-137454699D01*
X144149922Y-137604785D01*
X144150294Y-137746789D01*
X144150757Y-137879525D01*
X144151304Y-138001802D01*
X144151928Y-138112433D01*
X144152622Y-138210230D01*
X144153379Y-138294004D01*
X144154192Y-138362566D01*
X144155055Y-138414728D01*
X144155960Y-138449302D01*
X144156900Y-138465099D01*
X144157186Y-138466000D01*
X144166497Y-138459138D01*
X144187668Y-138440068D01*
X144218302Y-138411056D01*
X144256000Y-138374374D01*
X144296739Y-138333920D01*
X144428526Y-138201840D01*
X146679260Y-138201840D01*
X146679260Y-137480480D01*
X144281500Y-137480480D01*
X144281500Y-133406320D01*
X149884693Y-133406320D01*
X149051619Y-134239440D01*
X148218546Y-135072560D01*
X145957900Y-135072560D01*
X145957900Y-135804080D01*
X146483708Y-135804079D01*
X147009517Y-135804079D01*
X147682588Y-136477208D01*
X148355660Y-137150336D01*
X148355659Y-137841217D01*
X148355659Y-138532097D01*
X147682531Y-139205168D01*
X147009403Y-139878240D01*
X140085261Y-139878240D01*
X140087733Y-137480480D01*
X141751660Y-137480480D01*
X141751660Y-138201840D01*
X142031229Y-138201840D01*
X142257204Y-137975697D01*
X142483180Y-137749554D01*
X142483180Y-137480480D01*
X141751660Y-137480480D01*
X140087733Y-137480480D01*
X140087880Y-137338404D01*
X140090500Y-134798569D01*
X139983820Y-134904452D01*
X139940165Y-134947181D01*
X139906427Y-134978178D01*
X139878533Y-135000448D01*
X139852409Y-135016995D01*
X139823984Y-135030826D01*
X139798135Y-135041447D01*
X139719131Y-135072559D01*
X138868389Y-135072559D01*
X138017648Y-135072560D01*
X137834979Y-135255440D01*
X137652311Y-135438319D01*
X137834980Y-135621199D01*
X138017648Y-135804080D01*
X139953340Y-135804080D01*
X139953340Y-139878240D01*
X134985100Y-139878240D01*
X134985100Y-138201840D01*
X138287100Y-138201840D01*
X138287100Y-137480480D01*
X137756211Y-137480480D01*
X137225322Y-137480479D01*
X136552102Y-136807202D01*
X135878881Y-136133924D01*
X135881570Y-135483862D01*
X135882176Y-135370299D01*
X135883015Y-135262415D01*
X135884056Y-135161983D01*
X135885269Y-135070775D01*
X135886622Y-134990563D01*
X135888084Y-134923119D01*
X135889625Y-134870215D01*
X135891215Y-134833623D01*
X135892821Y-134815116D01*
X135893240Y-134813480D01*
X135889263Y-134813940D01*
X135872948Y-134827033D01*
X135846272Y-134850972D01*
X135811216Y-134883972D01*
X135769757Y-134924245D01*
X135761029Y-134932860D01*
X135619836Y-135072560D01*
X134853020Y-135072560D01*
X134853020Y-139878240D01*
X133186780Y-139878240D01*
X133186780Y-135072560D01*
X132419653Y-135072560D01*
X131586579Y-134239440D01*
X130753506Y-133406320D01*
X144149420Y-133406320D01*
X144149420Y-135072560D01*
D14*
G36*
X126899800Y-137129960D02*
X126899800Y-137267120D01*
X126899800Y-137378880D01*
X126897260Y-137467780D01*
X126897260Y-137538900D01*
X126894720Y-137592240D01*
X126892180Y-137630340D01*
X126889640Y-137658280D01*
X126884560Y-137673520D01*
X126879480Y-137678600D01*
X126861700Y-137686220D01*
X126818520Y-137696380D01*
X126755020Y-137711620D01*
X126673740Y-137726860D01*
X126577220Y-137747180D01*
X126468000Y-137767500D01*
X126353700Y-137790360D01*
X126226700Y-137813220D01*
X126112400Y-137836080D01*
X126013340Y-137856400D01*
X125932060Y-137874180D01*
X125871100Y-137886880D01*
X125835540Y-137897040D01*
X125825380Y-137902120D01*
X125815220Y-137919900D01*
X125794900Y-137958000D01*
X125769500Y-138016420D01*
X125739020Y-138085000D01*
X125706000Y-138161200D01*
X125672980Y-138245020D01*
X125639960Y-138326300D01*
X125609480Y-138402500D01*
X125584080Y-138471080D01*
X125563760Y-138526960D01*
X125551060Y-138565060D01*
X125548520Y-138580300D01*
X125556140Y-138593000D01*
X125579000Y-138628560D01*
X125614560Y-138681900D01*
X125660280Y-138747940D01*
X125713620Y-138826680D01*
X125772040Y-138913040D01*
X125810140Y-138966380D01*
X126066680Y-139342300D01*
X126066680Y-139509940D01*
X126066680Y-139677580D01*
X125675520Y-140068740D01*
X125284360Y-140459900D01*
X125119260Y-140459900D01*
X124956700Y-140459900D01*
X124585860Y-140205900D01*
X124217560Y-139951900D01*
X124098180Y-140015400D01*
X123981340Y-140081440D01*
X123808620Y-140076360D01*
X123635900Y-140071280D01*
X123257440Y-139161960D01*
X122878980Y-138252640D01*
X122878980Y-138107860D01*
X122878980Y-138044360D01*
X122881520Y-137991020D01*
X122884060Y-137955460D01*
X122886600Y-137942760D01*
X122901840Y-137924980D01*
X122934860Y-137897040D01*
X122980580Y-137861480D01*
X123023760Y-137831000D01*
X123140600Y-137744640D01*
X123237120Y-137663360D01*
X123315860Y-137582080D01*
X123381900Y-137495720D01*
X123440320Y-137396660D01*
X123478420Y-137323000D01*
X123536840Y-137190920D01*
X123569860Y-137071540D01*
X123577480Y-136962320D01*
X123572400Y-136893740D01*
X123526680Y-136728640D01*
X123455560Y-136573700D01*
X123364120Y-136428920D01*
X123247280Y-136296840D01*
X123112660Y-136182540D01*
X122962800Y-136088560D01*
X122942480Y-136078400D01*
X122835800Y-136030140D01*
X122731660Y-135997120D01*
X122632600Y-135976800D01*
X122574180Y-135971720D01*
X122467500Y-135984420D01*
X122348120Y-136017440D01*
X122223660Y-136070780D01*
X122101740Y-136141900D01*
X121987440Y-136225720D01*
X121883300Y-136319700D01*
X121817260Y-136390820D01*
X121756300Y-136479720D01*
X121695340Y-136586400D01*
X121644540Y-136700700D01*
X121603900Y-136809920D01*
X121593740Y-136845480D01*
X121581040Y-136919140D01*
X121575960Y-136987720D01*
X121581040Y-137053760D01*
X121601360Y-137129960D01*
X121631840Y-137223940D01*
X121639460Y-137244260D01*
X121713120Y-137399200D01*
X121809640Y-137541440D01*
X121931560Y-137673520D01*
X122076340Y-137792900D01*
X122175400Y-137861480D01*
X122216040Y-137889420D01*
X122249060Y-137912280D01*
X122264300Y-137924980D01*
X122266840Y-137945300D01*
X122271920Y-137988480D01*
X122271920Y-138044360D01*
X122274460Y-138097700D01*
X122274460Y-138252640D01*
X121906160Y-139136560D01*
X121845200Y-139288960D01*
X121786780Y-139431200D01*
X121730900Y-139565820D01*
X121680100Y-139687740D01*
X121634380Y-139794420D01*
X121596280Y-139885860D01*
X121565800Y-139962060D01*
X121542940Y-140015400D01*
X121527700Y-140045880D01*
X121525160Y-140050960D01*
X121517540Y-140063660D01*
X121502300Y-140071280D01*
X121476900Y-140076360D01*
X121436260Y-140078900D01*
X121375300Y-140078900D01*
X121344820Y-140078900D01*
X121177180Y-140078900D01*
X121057800Y-140015400D01*
X120938420Y-139951900D01*
X120707280Y-140111920D01*
X120623460Y-140167800D01*
X120537100Y-140228760D01*
X120453280Y-140284640D01*
X120382160Y-140332900D01*
X120336440Y-140365920D01*
X120196740Y-140459900D01*
X120031640Y-140459900D01*
X119869080Y-140459900D01*
X119475380Y-140068740D01*
X119084220Y-139677580D01*
X119084220Y-139512480D01*
X119084220Y-139441360D01*
X119086760Y-139393100D01*
X119091840Y-139357540D01*
X119099460Y-139332140D01*
X119114700Y-139306740D01*
X119132480Y-139281340D01*
X119152800Y-139250860D01*
X119185820Y-139200060D01*
X119231540Y-139134020D01*
X119282340Y-139057820D01*
X119340760Y-138974000D01*
X119391560Y-138897800D01*
X119449980Y-138813980D01*
X119500780Y-138737780D01*
X119543960Y-138671740D01*
X119576980Y-138618400D01*
X119599840Y-138582840D01*
X119607460Y-138567600D01*
X119602380Y-138549820D01*
X119587140Y-138509180D01*
X119566820Y-138450760D01*
X119536340Y-138377100D01*
X119503320Y-138293280D01*
X119477920Y-138227240D01*
X119434740Y-138118020D01*
X119399180Y-138034200D01*
X119371240Y-137970700D01*
X119348380Y-137927520D01*
X119333140Y-137902120D01*
X119320440Y-137891960D01*
X119297580Y-137886880D01*
X119254400Y-137876720D01*
X119188360Y-137864020D01*
X119104540Y-137846240D01*
X119005480Y-137828460D01*
X118896260Y-137805600D01*
X118789580Y-137787820D01*
X118675280Y-137764960D01*
X118566060Y-137744640D01*
X118472080Y-137724320D01*
X118390800Y-137709080D01*
X118327300Y-137693840D01*
X118286660Y-137683680D01*
X118271420Y-137678600D01*
X118266340Y-137670980D01*
X118263800Y-137653200D01*
X118261260Y-137622720D01*
X118258720Y-137579540D01*
X118256180Y-137521120D01*
X118253640Y-137442380D01*
X118253640Y-137345860D01*
X118253640Y-137226480D01*
X118251100Y-137079160D01*
X118251100Y-136967400D01*
X118251100Y-136271440D01*
X118284120Y-136253660D01*
X118304440Y-136246040D01*
X118350160Y-136233340D01*
X118416200Y-136220640D01*
X118500020Y-136202860D01*
X118599080Y-136182540D01*
X118710840Y-136162220D01*
X118827680Y-136139360D01*
X118830220Y-136139360D01*
X118947060Y-136116500D01*
X119056280Y-136096180D01*
X119155340Y-136075860D01*
X119236620Y-136058080D01*
X119300120Y-136045380D01*
X119343300Y-136032680D01*
X119363620Y-136027600D01*
X119363620Y-136027600D01*
X119373780Y-136009820D01*
X119391560Y-135971720D01*
X119416960Y-135915840D01*
X119449980Y-135847260D01*
X119483000Y-135771060D01*
X119516020Y-135692320D01*
X119551580Y-135616120D01*
X119582060Y-135545000D01*
X119607460Y-135481500D01*
X119625240Y-135435780D01*
X119635400Y-135407840D01*
X119635400Y-135405300D01*
X119627780Y-135390060D01*
X119604920Y-135354500D01*
X119571900Y-135301160D01*
X119526180Y-135232580D01*
X119472840Y-135153840D01*
X119411880Y-135064940D01*
X119361080Y-134988740D01*
X119084220Y-134587420D01*
X119084220Y-134424860D01*
X119084220Y-134262300D01*
X119475380Y-133868600D01*
X119866540Y-133477440D01*
X120034180Y-133477440D01*
X120201820Y-133477440D01*
X120557420Y-133721280D01*
X120648860Y-133782240D01*
X120735220Y-133843200D01*
X120813960Y-133896540D01*
X120880000Y-133942260D01*
X120930800Y-133977820D01*
X120963820Y-134000680D01*
X120968900Y-134003220D01*
X121027320Y-134043860D01*
X121294020Y-133934640D01*
X121398160Y-133894000D01*
X121476900Y-133860980D01*
X121537860Y-133835580D01*
X121581040Y-133815260D01*
X121608980Y-133800020D01*
X121626760Y-133787320D01*
X121639460Y-133777160D01*
X121644540Y-133764460D01*
X121644540Y-133761920D01*
X121649620Y-133741600D01*
X121659780Y-133695880D01*
X121672480Y-133632380D01*
X121687720Y-133548560D01*
X121708040Y-133449500D01*
X121728360Y-133340280D01*
X121748680Y-133220900D01*
X121751220Y-133208200D01*
X121774080Y-133091360D01*
X121796940Y-132979600D01*
X121814720Y-132880540D01*
X121832500Y-132796720D01*
X121847740Y-132730680D01*
X121857900Y-132684960D01*
X121865520Y-132664640D01*
X121865520Y-132664640D01*
X121873140Y-132659560D01*
X121890920Y-132657020D01*
X121916320Y-132651940D01*
X121956960Y-132649400D01*
X122012840Y-132649400D01*
X122086500Y-132646860D01*
X122177940Y-132646860D01*
X122292240Y-132644320D01*
X122431940Y-132644320D01*
X122574180Y-132644320D01*
X122711340Y-132644320D01*
X122840880Y-132646860D01*
X122957720Y-132646860D01*
X123061860Y-132649400D01*
X123150760Y-132649400D01*
X123216800Y-132651940D01*
X123262520Y-132654480D01*
X123285380Y-132657020D01*
X123285380Y-132657020D01*
X123293000Y-132674800D01*
X123303160Y-132715440D01*
X123318400Y-132784020D01*
X123338720Y-132870380D01*
X123359040Y-132979600D01*
X123384440Y-133106600D01*
X123402220Y-133203120D01*
X123425080Y-133322500D01*
X123445400Y-133436800D01*
X123465720Y-133538400D01*
X123480960Y-133624760D01*
X123496200Y-133693340D01*
X123506360Y-133741600D01*
X123511440Y-133767000D01*
X123511440Y-133767000D01*
X123524140Y-133782240D01*
X123554620Y-133800020D01*
X123600340Y-133822880D01*
X123668920Y-133853360D01*
X123757820Y-133894000D01*
X123823860Y-133919400D01*
X123920380Y-133960040D01*
X123994040Y-133987980D01*
X124047380Y-134010840D01*
X124088020Y-134023540D01*
X124113420Y-134028620D01*
X124133740Y-134031160D01*
X124146440Y-134026080D01*
X124159140Y-134021000D01*
X124161680Y-134018460D01*
X124182000Y-134005760D01*
X124222640Y-133977820D01*
X124278520Y-133937180D01*
X124352180Y-133888920D01*
X124433460Y-133833040D01*
X124524900Y-133772080D01*
X124575700Y-133736520D01*
X124951620Y-133477440D01*
X125119260Y-133477440D01*
X125284360Y-133477440D01*
X125675520Y-133868600D01*
X126066680Y-134259760D01*
X126066680Y-134427400D01*
X126066680Y-134595040D01*
X125789820Y-134996360D01*
X125512960Y-135397680D01*
X125645040Y-135710100D01*
X125685680Y-135799000D01*
X125721240Y-135880280D01*
X125754260Y-135946320D01*
X125779660Y-135997120D01*
X125797440Y-136027600D01*
X125802520Y-136032680D01*
X125822840Y-136037760D01*
X125866020Y-136047920D01*
X125929520Y-136063160D01*
X126013340Y-136078400D01*
X126112400Y-136098720D01*
X126221620Y-136119040D01*
X126338460Y-136141900D01*
X126351160Y-136144440D01*
X126488320Y-136169840D01*
X126607700Y-136192700D01*
X126706760Y-136213020D01*
X126788040Y-136230800D01*
X126846460Y-136246040D01*
X126879480Y-136256200D01*
X126887100Y-136261280D01*
X126889640Y-136276520D01*
X126892180Y-136319700D01*
X126894720Y-136385740D01*
X126897260Y-136472100D01*
X126897260Y-136573700D01*
X126899800Y-136688000D01*
X126899800Y-136815000D01*
X126899800Y-136952160D01*
X126899800Y-136969940D01*
X126899800Y-137129960D01*
X126899800Y-137129960D01*
X126899800Y-137129960D01*
G37*
X126899800Y-137129960D02*
X126899800Y-137267120D01*
X126899800Y-137378880D01*
X126897260Y-137467780D01*
X126897260Y-137538900D01*
X126894720Y-137592240D01*
X126892180Y-137630340D01*
X126889640Y-137658280D01*
X126884560Y-137673520D01*
X126879480Y-137678600D01*
X126861700Y-137686220D01*
X126818520Y-137696380D01*
X126755020Y-137711620D01*
X126673740Y-137726860D01*
X126577220Y-137747180D01*
X126468000Y-137767500D01*
X126353700Y-137790360D01*
X126226700Y-137813220D01*
X126112400Y-137836080D01*
X126013340Y-137856400D01*
X125932060Y-137874180D01*
X125871100Y-137886880D01*
X125835540Y-137897040D01*
X125825380Y-137902120D01*
X125815220Y-137919900D01*
X125794900Y-137958000D01*
X125769500Y-138016420D01*
X125739020Y-138085000D01*
X125706000Y-138161200D01*
X125672980Y-138245020D01*
X125639960Y-138326300D01*
X125609480Y-138402500D01*
X125584080Y-138471080D01*
X125563760Y-138526960D01*
X125551060Y-138565060D01*
X125548520Y-138580300D01*
X125556140Y-138593000D01*
X125579000Y-138628560D01*
X125614560Y-138681900D01*
X125660280Y-138747940D01*
X125713620Y-138826680D01*
X125772040Y-138913040D01*
X125810140Y-138966380D01*
X126066680Y-139342300D01*
X126066680Y-139509940D01*
X126066680Y-139677580D01*
X125675520Y-140068740D01*
X125284360Y-140459900D01*
X125119260Y-140459900D01*
X124956700Y-140459900D01*
X124585860Y-140205900D01*
X124217560Y-139951900D01*
X124098180Y-140015400D01*
X123981340Y-140081440D01*
X123808620Y-140076360D01*
X123635900Y-140071280D01*
X123257440Y-139161960D01*
X122878980Y-138252640D01*
X122878980Y-138107860D01*
X122878980Y-138044360D01*
X122881520Y-137991020D01*
X122884060Y-137955460D01*
X122886600Y-137942760D01*
X122901840Y-137924980D01*
X122934860Y-137897040D01*
X122980580Y-137861480D01*
X123023760Y-137831000D01*
X123140600Y-137744640D01*
X123237120Y-137663360D01*
X123315860Y-137582080D01*
X123381900Y-137495720D01*
X123440320Y-137396660D01*
X123478420Y-137323000D01*
X123536840Y-137190920D01*
X123569860Y-137071540D01*
X123577480Y-136962320D01*
X123572400Y-136893740D01*
X123526680Y-136728640D01*
X123455560Y-136573700D01*
X123364120Y-136428920D01*
X123247280Y-136296840D01*
X123112660Y-136182540D01*
X122962800Y-136088560D01*
X122942480Y-136078400D01*
X122835800Y-136030140D01*
X122731660Y-135997120D01*
X122632600Y-135976800D01*
X122574180Y-135971720D01*
X122467500Y-135984420D01*
X122348120Y-136017440D01*
X122223660Y-136070780D01*
X122101740Y-136141900D01*
X121987440Y-136225720D01*
X121883300Y-136319700D01*
X121817260Y-136390820D01*
X121756300Y-136479720D01*
X121695340Y-136586400D01*
X121644540Y-136700700D01*
X121603900Y-136809920D01*
X121593740Y-136845480D01*
X121581040Y-136919140D01*
X121575960Y-136987720D01*
X121581040Y-137053760D01*
X121601360Y-137129960D01*
X121631840Y-137223940D01*
X121639460Y-137244260D01*
X121713120Y-137399200D01*
X121809640Y-137541440D01*
X121931560Y-137673520D01*
X122076340Y-137792900D01*
X122175400Y-137861480D01*
X122216040Y-137889420D01*
X122249060Y-137912280D01*
X122264300Y-137924980D01*
X122266840Y-137945300D01*
X122271920Y-137988480D01*
X122271920Y-138044360D01*
X122274460Y-138097700D01*
X122274460Y-138252640D01*
X121906160Y-139136560D01*
X121845200Y-139288960D01*
X121786780Y-139431200D01*
X121730900Y-139565820D01*
X121680100Y-139687740D01*
X121634380Y-139794420D01*
X121596280Y-139885860D01*
X121565800Y-139962060D01*
X121542940Y-140015400D01*
X121527700Y-140045880D01*
X121525160Y-140050960D01*
X121517540Y-140063660D01*
X121502300Y-140071280D01*
X121476900Y-140076360D01*
X121436260Y-140078900D01*
X121375300Y-140078900D01*
X121344820Y-140078900D01*
X121177180Y-140078900D01*
X121057800Y-140015400D01*
X120938420Y-139951900D01*
X120707280Y-140111920D01*
X120623460Y-140167800D01*
X120537100Y-140228760D01*
X120453280Y-140284640D01*
X120382160Y-140332900D01*
X120336440Y-140365920D01*
X120196740Y-140459900D01*
X120031640Y-140459900D01*
X119869080Y-140459900D01*
X119475380Y-140068740D01*
X119084220Y-139677580D01*
X119084220Y-139512480D01*
X119084220Y-139441360D01*
X119086760Y-139393100D01*
X119091840Y-139357540D01*
X119099460Y-139332140D01*
X119114700Y-139306740D01*
X119132480Y-139281340D01*
X119152800Y-139250860D01*
X119185820Y-139200060D01*
X119231540Y-139134020D01*
X119282340Y-139057820D01*
X119340760Y-138974000D01*
X119391560Y-138897800D01*
X119449980Y-138813980D01*
X119500780Y-138737780D01*
X119543960Y-138671740D01*
X119576980Y-138618400D01*
X119599840Y-138582840D01*
X119607460Y-138567600D01*
X119602380Y-138549820D01*
X119587140Y-138509180D01*
X119566820Y-138450760D01*
X119536340Y-138377100D01*
X119503320Y-138293280D01*
X119477920Y-138227240D01*
X119434740Y-138118020D01*
X119399180Y-138034200D01*
X119371240Y-137970700D01*
X119348380Y-137927520D01*
X119333140Y-137902120D01*
X119320440Y-137891960D01*
X119297580Y-137886880D01*
X119254400Y-137876720D01*
X119188360Y-137864020D01*
X119104540Y-137846240D01*
X119005480Y-137828460D01*
X118896260Y-137805600D01*
X118789580Y-137787820D01*
X118675280Y-137764960D01*
X118566060Y-137744640D01*
X118472080Y-137724320D01*
X118390800Y-137709080D01*
X118327300Y-137693840D01*
X118286660Y-137683680D01*
X118271420Y-137678600D01*
X118266340Y-137670980D01*
X118263800Y-137653200D01*
X118261260Y-137622720D01*
X118258720Y-137579540D01*
X118256180Y-137521120D01*
X118253640Y-137442380D01*
X118253640Y-137345860D01*
X118253640Y-137226480D01*
X118251100Y-137079160D01*
X118251100Y-136967400D01*
X118251100Y-136271440D01*
X118284120Y-136253660D01*
X118304440Y-136246040D01*
X118350160Y-136233340D01*
X118416200Y-136220640D01*
X118500020Y-136202860D01*
X118599080Y-136182540D01*
X118710840Y-136162220D01*
X118827680Y-136139360D01*
X118830220Y-136139360D01*
X118947060Y-136116500D01*
X119056280Y-136096180D01*
X119155340Y-136075860D01*
X119236620Y-136058080D01*
X119300120Y-136045380D01*
X119343300Y-136032680D01*
X119363620Y-136027600D01*
X119363620Y-136027600D01*
X119373780Y-136009820D01*
X119391560Y-135971720D01*
X119416960Y-135915840D01*
X119449980Y-135847260D01*
X119483000Y-135771060D01*
X119516020Y-135692320D01*
X119551580Y-135616120D01*
X119582060Y-135545000D01*
X119607460Y-135481500D01*
X119625240Y-135435780D01*
X119635400Y-135407840D01*
X119635400Y-135405300D01*
X119627780Y-135390060D01*
X119604920Y-135354500D01*
X119571900Y-135301160D01*
X119526180Y-135232580D01*
X119472840Y-135153840D01*
X119411880Y-135064940D01*
X119361080Y-134988740D01*
X119084220Y-134587420D01*
X119084220Y-134424860D01*
X119084220Y-134262300D01*
X119475380Y-133868600D01*
X119866540Y-133477440D01*
X120034180Y-133477440D01*
X120201820Y-133477440D01*
X120557420Y-133721280D01*
X120648860Y-133782240D01*
X120735220Y-133843200D01*
X120813960Y-133896540D01*
X120880000Y-133942260D01*
X120930800Y-133977820D01*
X120963820Y-134000680D01*
X120968900Y-134003220D01*
X121027320Y-134043860D01*
X121294020Y-133934640D01*
X121398160Y-133894000D01*
X121476900Y-133860980D01*
X121537860Y-133835580D01*
X121581040Y-133815260D01*
X121608980Y-133800020D01*
X121626760Y-133787320D01*
X121639460Y-133777160D01*
X121644540Y-133764460D01*
X121644540Y-133761920D01*
X121649620Y-133741600D01*
X121659780Y-133695880D01*
X121672480Y-133632380D01*
X121687720Y-133548560D01*
X121708040Y-133449500D01*
X121728360Y-133340280D01*
X121748680Y-133220900D01*
X121751220Y-133208200D01*
X121774080Y-133091360D01*
X121796940Y-132979600D01*
X121814720Y-132880540D01*
X121832500Y-132796720D01*
X121847740Y-132730680D01*
X121857900Y-132684960D01*
X121865520Y-132664640D01*
X121865520Y-132664640D01*
X121873140Y-132659560D01*
X121890920Y-132657020D01*
X121916320Y-132651940D01*
X121956960Y-132649400D01*
X122012840Y-132649400D01*
X122086500Y-132646860D01*
X122177940Y-132646860D01*
X122292240Y-132644320D01*
X122431940Y-132644320D01*
X122574180Y-132644320D01*
X122711340Y-132644320D01*
X122840880Y-132646860D01*
X122957720Y-132646860D01*
X123061860Y-132649400D01*
X123150760Y-132649400D01*
X123216800Y-132651940D01*
X123262520Y-132654480D01*
X123285380Y-132657020D01*
X123285380Y-132657020D01*
X123293000Y-132674800D01*
X123303160Y-132715440D01*
X123318400Y-132784020D01*
X123338720Y-132870380D01*
X123359040Y-132979600D01*
X123384440Y-133106600D01*
X123402220Y-133203120D01*
X123425080Y-133322500D01*
X123445400Y-133436800D01*
X123465720Y-133538400D01*
X123480960Y-133624760D01*
X123496200Y-133693340D01*
X123506360Y-133741600D01*
X123511440Y-133767000D01*
X123511440Y-133767000D01*
X123524140Y-133782240D01*
X123554620Y-133800020D01*
X123600340Y-133822880D01*
X123668920Y-133853360D01*
X123757820Y-133894000D01*
X123823860Y-133919400D01*
X123920380Y-133960040D01*
X123994040Y-133987980D01*
X124047380Y-134010840D01*
X124088020Y-134023540D01*
X124113420Y-134028620D01*
X124133740Y-134031160D01*
X124146440Y-134026080D01*
X124159140Y-134021000D01*
X124161680Y-134018460D01*
X124182000Y-134005760D01*
X124222640Y-133977820D01*
X124278520Y-133937180D01*
X124352180Y-133888920D01*
X124433460Y-133833040D01*
X124524900Y-133772080D01*
X124575700Y-133736520D01*
X124951620Y-133477440D01*
X125119260Y-133477440D01*
X125284360Y-133477440D01*
X125675520Y-133868600D01*
X126066680Y-134259760D01*
X126066680Y-134427400D01*
X126066680Y-134595040D01*
X125789820Y-134996360D01*
X125512960Y-135397680D01*
X125645040Y-135710100D01*
X125685680Y-135799000D01*
X125721240Y-135880280D01*
X125754260Y-135946320D01*
X125779660Y-135997120D01*
X125797440Y-136027600D01*
X125802520Y-136032680D01*
X125822840Y-136037760D01*
X125866020Y-136047920D01*
X125929520Y-136063160D01*
X126013340Y-136078400D01*
X126112400Y-136098720D01*
X126221620Y-136119040D01*
X126338460Y-136141900D01*
X126351160Y-136144440D01*
X126488320Y-136169840D01*
X126607700Y-136192700D01*
X126706760Y-136213020D01*
X126788040Y-136230800D01*
X126846460Y-136246040D01*
X126879480Y-136256200D01*
X126887100Y-136261280D01*
X126889640Y-136276520D01*
X126892180Y-136319700D01*
X126894720Y-136385740D01*
X126897260Y-136472100D01*
X126897260Y-136573700D01*
X126899800Y-136688000D01*
X126899800Y-136815000D01*
X126899800Y-136952160D01*
X126899800Y-136969940D01*
X126899800Y-137129960D01*
X126899800Y-137129960D01*
D13*
G36*
X317973020Y-135072560D02*
X315575260Y-135072560D01*
X315575260Y-135804080D01*
X317973020Y-135804080D01*
X317973020Y-137135040D01*
X317973078Y-137297721D01*
X317973247Y-137454699D01*
X317973522Y-137604785D01*
X317973894Y-137746789D01*
X317974357Y-137879525D01*
X317974904Y-138001802D01*
X317975528Y-138112433D01*
X317976222Y-138210230D01*
X317976979Y-138294004D01*
X317977792Y-138362566D01*
X317978655Y-138414728D01*
X317979560Y-138449302D01*
X317980500Y-138465099D01*
X317980786Y-138466000D01*
X317990097Y-138459138D01*
X318011268Y-138440068D01*
X318041902Y-138411056D01*
X318079600Y-138374374D01*
X318120339Y-138333920D01*
X318252126Y-138201840D01*
X320502860Y-138201840D01*
X320502860Y-137480480D01*
X318105100Y-137480480D01*
X318105100Y-133406320D01*
X323708293Y-133406320D01*
X322875219Y-134239440D01*
X322042146Y-135072560D01*
X319781500Y-135072560D01*
X319781500Y-135804080D01*
X320307308Y-135804079D01*
X320833117Y-135804079D01*
X321506188Y-136477208D01*
X322179260Y-137150336D01*
X322179259Y-137841217D01*
X322179259Y-138532097D01*
X321506131Y-139205168D01*
X320833003Y-139878240D01*
X313908861Y-139878240D01*
X313911333Y-137480480D01*
X315575260Y-137480480D01*
X315575260Y-138201840D01*
X315854829Y-138201840D01*
X316080804Y-137975697D01*
X316306780Y-137749554D01*
X316306780Y-137480480D01*
X315575260Y-137480480D01*
X313911333Y-137480480D01*
X313911480Y-137338404D01*
X313914100Y-134798569D01*
X313807420Y-134904452D01*
X313763765Y-134947181D01*
X313730027Y-134978178D01*
X313702133Y-135000448D01*
X313676009Y-135016995D01*
X313647584Y-135030826D01*
X313621735Y-135041447D01*
X313542731Y-135072559D01*
X312691989Y-135072559D01*
X311841248Y-135072560D01*
X311658579Y-135255440D01*
X311475911Y-135438319D01*
X311658580Y-135621199D01*
X311841248Y-135804080D01*
X313776940Y-135804080D01*
X313776940Y-139878240D01*
X308808700Y-139878240D01*
X308808700Y-138201840D01*
X312110700Y-138201840D01*
X312110700Y-137480480D01*
X311579811Y-137480480D01*
X311048922Y-137480479D01*
X310375702Y-136807202D01*
X309702481Y-136133924D01*
X309705170Y-135483862D01*
X309705776Y-135370299D01*
X309706615Y-135262415D01*
X309707656Y-135161983D01*
X309708869Y-135070775D01*
X309710222Y-134990563D01*
X309711684Y-134923119D01*
X309713225Y-134870215D01*
X309714815Y-134833623D01*
X309716421Y-134815116D01*
X309716840Y-134813480D01*
X309712863Y-134813940D01*
X309696548Y-134827033D01*
X309669872Y-134850972D01*
X309634816Y-134883972D01*
X309593357Y-134924245D01*
X309584629Y-134932860D01*
X309443436Y-135072560D01*
X308676620Y-135072560D01*
X308676620Y-139878240D01*
X307010380Y-139878240D01*
X307010380Y-135072560D01*
X306243253Y-135072560D01*
X305410179Y-134239440D01*
X304577106Y-133406320D01*
X317973020Y-133406320D01*
X317973020Y-135072560D01*
X317973020Y-135072560D01*
G37*
X317973020Y-135072560D02*
X315575260Y-135072560D01*
X315575260Y-135804080D01*
X317973020Y-135804080D01*
X317973020Y-137135040D01*
X317973078Y-137297721D01*
X317973247Y-137454699D01*
X317973522Y-137604785D01*
X317973894Y-137746789D01*
X317974357Y-137879525D01*
X317974904Y-138001802D01*
X317975528Y-138112433D01*
X317976222Y-138210230D01*
X317976979Y-138294004D01*
X317977792Y-138362566D01*
X317978655Y-138414728D01*
X317979560Y-138449302D01*
X317980500Y-138465099D01*
X317980786Y-138466000D01*
X317990097Y-138459138D01*
X318011268Y-138440068D01*
X318041902Y-138411056D01*
X318079600Y-138374374D01*
X318120339Y-138333920D01*
X318252126Y-138201840D01*
X320502860Y-138201840D01*
X320502860Y-137480480D01*
X318105100Y-137480480D01*
X318105100Y-133406320D01*
X323708293Y-133406320D01*
X322875219Y-134239440D01*
X322042146Y-135072560D01*
X319781500Y-135072560D01*
X319781500Y-135804080D01*
X320307308Y-135804079D01*
X320833117Y-135804079D01*
X321506188Y-136477208D01*
X322179260Y-137150336D01*
X322179259Y-137841217D01*
X322179259Y-138532097D01*
X321506131Y-139205168D01*
X320833003Y-139878240D01*
X313908861Y-139878240D01*
X313911333Y-137480480D01*
X315575260Y-137480480D01*
X315575260Y-138201840D01*
X315854829Y-138201840D01*
X316080804Y-137975697D01*
X316306780Y-137749554D01*
X316306780Y-137480480D01*
X315575260Y-137480480D01*
X313911333Y-137480480D01*
X313911480Y-137338404D01*
X313914100Y-134798569D01*
X313807420Y-134904452D01*
X313763765Y-134947181D01*
X313730027Y-134978178D01*
X313702133Y-135000448D01*
X313676009Y-135016995D01*
X313647584Y-135030826D01*
X313621735Y-135041447D01*
X313542731Y-135072559D01*
X312691989Y-135072559D01*
X311841248Y-135072560D01*
X311658579Y-135255440D01*
X311475911Y-135438319D01*
X311658580Y-135621199D01*
X311841248Y-135804080D01*
X313776940Y-135804080D01*
X313776940Y-139878240D01*
X308808700Y-139878240D01*
X308808700Y-138201840D01*
X312110700Y-138201840D01*
X312110700Y-137480480D01*
X311579811Y-137480480D01*
X311048922Y-137480479D01*
X310375702Y-136807202D01*
X309702481Y-136133924D01*
X309705170Y-135483862D01*
X309705776Y-135370299D01*
X309706615Y-135262415D01*
X309707656Y-135161983D01*
X309708869Y-135070775D01*
X309710222Y-134990563D01*
X309711684Y-134923119D01*
X309713225Y-134870215D01*
X309714815Y-134833623D01*
X309716421Y-134815116D01*
X309716840Y-134813480D01*
X309712863Y-134813940D01*
X309696548Y-134827033D01*
X309669872Y-134850972D01*
X309634816Y-134883972D01*
X309593357Y-134924245D01*
X309584629Y-134932860D01*
X309443436Y-135072560D01*
X308676620Y-135072560D01*
X308676620Y-139878240D01*
X307010380Y-139878240D01*
X307010380Y-135072560D01*
X306243253Y-135072560D01*
X305410179Y-134239440D01*
X304577106Y-133406320D01*
X317973020Y-133406320D01*
X317973020Y-135072560D01*
D14*
G36*
X299473400Y-137129960D02*
X299473400Y-137267120D01*
X299473400Y-137378880D01*
X299470860Y-137467780D01*
X299470860Y-137538900D01*
X299468320Y-137592240D01*
X299465780Y-137630340D01*
X299463240Y-137658280D01*
X299458160Y-137673520D01*
X299453080Y-137678600D01*
X299435300Y-137686220D01*
X299392120Y-137696380D01*
X299328620Y-137711620D01*
X299247340Y-137726860D01*
X299150820Y-137747180D01*
X299041600Y-137767500D01*
X298927300Y-137790360D01*
X298800300Y-137813220D01*
X298686000Y-137836080D01*
X298586940Y-137856400D01*
X298505660Y-137874180D01*
X298444700Y-137886880D01*
X298409140Y-137897040D01*
X298398980Y-137902120D01*
X298388820Y-137919900D01*
X298368500Y-137958000D01*
X298343100Y-138016420D01*
X298312620Y-138085000D01*
X298279600Y-138161200D01*
X298246580Y-138245020D01*
X298213560Y-138326300D01*
X298183080Y-138402500D01*
X298157680Y-138471080D01*
X298137360Y-138526960D01*
X298124660Y-138565060D01*
X298122120Y-138580300D01*
X298129740Y-138593000D01*
X298152600Y-138628560D01*
X298188160Y-138681900D01*
X298233880Y-138747940D01*
X298287220Y-138826680D01*
X298345640Y-138913040D01*
X298383740Y-138966380D01*
X298640280Y-139342300D01*
X298640280Y-139509940D01*
X298640280Y-139677580D01*
X298249120Y-140068740D01*
X297857960Y-140459900D01*
X297692860Y-140459900D01*
X297530300Y-140459900D01*
X297159460Y-140205900D01*
X296791160Y-139951900D01*
X296671780Y-140015400D01*
X296554940Y-140081440D01*
X296382220Y-140076360D01*
X296209500Y-140071280D01*
X295831040Y-139161960D01*
X295452580Y-138252640D01*
X295452580Y-138107860D01*
X295452580Y-138044360D01*
X295455120Y-137991020D01*
X295457660Y-137955460D01*
X295460200Y-137942760D01*
X295475440Y-137924980D01*
X295508460Y-137897040D01*
X295554180Y-137861480D01*
X295597360Y-137831000D01*
X295714200Y-137744640D01*
X295810720Y-137663360D01*
X295889460Y-137582080D01*
X295955500Y-137495720D01*
X296013920Y-137396660D01*
X296052020Y-137323000D01*
X296110440Y-137190920D01*
X296143460Y-137071540D01*
X296151080Y-136962320D01*
X296146000Y-136893740D01*
X296100280Y-136728640D01*
X296029160Y-136573700D01*
X295937720Y-136428920D01*
X295820880Y-136296840D01*
X295686260Y-136182540D01*
X295536400Y-136088560D01*
X295516080Y-136078400D01*
X295409400Y-136030140D01*
X295305260Y-135997120D01*
X295206200Y-135976800D01*
X295147780Y-135971720D01*
X295041100Y-135984420D01*
X294921720Y-136017440D01*
X294797260Y-136070780D01*
X294675340Y-136141900D01*
X294561040Y-136225720D01*
X294456900Y-136319700D01*
X294390860Y-136390820D01*
X294329900Y-136479720D01*
X294268940Y-136586400D01*
X294218140Y-136700700D01*
X294177500Y-136809920D01*
X294167340Y-136845480D01*
X294154640Y-136919140D01*
X294149560Y-136987720D01*
X294154640Y-137053760D01*
X294174960Y-137129960D01*
X294205440Y-137223940D01*
X294213060Y-137244260D01*
X294286720Y-137399200D01*
X294383240Y-137541440D01*
X294505160Y-137673520D01*
X294649940Y-137792900D01*
X294749000Y-137861480D01*
X294789640Y-137889420D01*
X294822660Y-137912280D01*
X294837900Y-137924980D01*
X294840440Y-137945300D01*
X294845520Y-137988480D01*
X294845520Y-138044360D01*
X294848060Y-138097700D01*
X294848060Y-138252640D01*
X294479760Y-139136560D01*
X294418800Y-139288960D01*
X294360380Y-139431200D01*
X294304500Y-139565820D01*
X294253700Y-139687740D01*
X294207980Y-139794420D01*
X294169880Y-139885860D01*
X294139400Y-139962060D01*
X294116540Y-140015400D01*
X294101300Y-140045880D01*
X294098760Y-140050960D01*
X294091140Y-140063660D01*
X294075900Y-140071280D01*
X294050500Y-140076360D01*
X294009860Y-140078900D01*
X293948900Y-140078900D01*
X293918420Y-140078900D01*
X293750780Y-140078900D01*
X293631400Y-140015400D01*
X293512020Y-139951900D01*
X293280880Y-140111920D01*
X293197060Y-140167800D01*
X293110700Y-140228760D01*
X293026880Y-140284640D01*
X292955760Y-140332900D01*
X292910040Y-140365920D01*
X292770340Y-140459900D01*
X292605240Y-140459900D01*
X292442680Y-140459900D01*
X292048980Y-140068740D01*
X291657820Y-139677580D01*
X291657820Y-139512480D01*
X291657820Y-139441360D01*
X291660360Y-139393100D01*
X291665440Y-139357540D01*
X291673060Y-139332140D01*
X291688300Y-139306740D01*
X291706080Y-139281340D01*
X291726400Y-139250860D01*
X291759420Y-139200060D01*
X291805140Y-139134020D01*
X291855940Y-139057820D01*
X291914360Y-138974000D01*
X291965160Y-138897800D01*
X292023580Y-138813980D01*
X292074380Y-138737780D01*
X292117560Y-138671740D01*
X292150580Y-138618400D01*
X292173440Y-138582840D01*
X292181060Y-138567600D01*
X292175980Y-138549820D01*
X292160740Y-138509180D01*
X292140420Y-138450760D01*
X292109940Y-138377100D01*
X292076920Y-138293280D01*
X292051520Y-138227240D01*
X292008340Y-138118020D01*
X291972780Y-138034200D01*
X291944840Y-137970700D01*
X291921980Y-137927520D01*
X291906740Y-137902120D01*
X291894040Y-137891960D01*
X291871180Y-137886880D01*
X291828000Y-137876720D01*
X291761960Y-137864020D01*
X291678140Y-137846240D01*
X291579080Y-137828460D01*
X291469860Y-137805600D01*
X291363180Y-137787820D01*
X291248880Y-137764960D01*
X291139660Y-137744640D01*
X291045680Y-137724320D01*
X290964400Y-137709080D01*
X290900900Y-137693840D01*
X290860260Y-137683680D01*
X290845020Y-137678600D01*
X290839940Y-137670980D01*
X290837400Y-137653200D01*
X290834860Y-137622720D01*
X290832320Y-137579540D01*
X290829780Y-137521120D01*
X290827240Y-137442380D01*
X290827240Y-137345860D01*
X290827240Y-137226480D01*
X290824700Y-137079160D01*
X290824700Y-136967400D01*
X290824700Y-136271440D01*
X290857720Y-136253660D01*
X290878040Y-136246040D01*
X290923760Y-136233340D01*
X290989800Y-136220640D01*
X291073620Y-136202860D01*
X291172680Y-136182540D01*
X291284440Y-136162220D01*
X291401280Y-136139360D01*
X291403820Y-136139360D01*
X291520660Y-136116500D01*
X291629880Y-136096180D01*
X291728940Y-136075860D01*
X291810220Y-136058080D01*
X291873720Y-136045380D01*
X291916900Y-136032680D01*
X291937220Y-136027600D01*
X291937220Y-136027600D01*
X291947380Y-136009820D01*
X291965160Y-135971720D01*
X291990560Y-135915840D01*
X292023580Y-135847260D01*
X292056600Y-135771060D01*
X292089620Y-135692320D01*
X292125180Y-135616120D01*
X292155660Y-135545000D01*
X292181060Y-135481500D01*
X292198840Y-135435780D01*
X292209000Y-135407840D01*
X292209000Y-135405300D01*
X292201380Y-135390060D01*
X292178520Y-135354500D01*
X292145500Y-135301160D01*
X292099780Y-135232580D01*
X292046440Y-135153840D01*
X291985480Y-135064940D01*
X291934680Y-134988740D01*
X291657820Y-134587420D01*
X291657820Y-134424860D01*
X291657820Y-134262300D01*
X292048980Y-133868600D01*
X292440140Y-133477440D01*
X292607780Y-133477440D01*
X292775420Y-133477440D01*
X293131020Y-133721280D01*
X293222460Y-133782240D01*
X293308820Y-133843200D01*
X293387560Y-133896540D01*
X293453600Y-133942260D01*
X293504400Y-133977820D01*
X293537420Y-134000680D01*
X293542500Y-134003220D01*
X293600920Y-134043860D01*
X293867620Y-133934640D01*
X293971760Y-133894000D01*
X294050500Y-133860980D01*
X294111460Y-133835580D01*
X294154640Y-133815260D01*
X294182580Y-133800020D01*
X294200360Y-133787320D01*
X294213060Y-133777160D01*
X294218140Y-133764460D01*
X294218140Y-133761920D01*
X294223220Y-133741600D01*
X294233380Y-133695880D01*
X294246080Y-133632380D01*
X294261320Y-133548560D01*
X294281640Y-133449500D01*
X294301960Y-133340280D01*
X294322280Y-133220900D01*
X294324820Y-133208200D01*
X294347680Y-133091360D01*
X294370540Y-132979600D01*
X294388320Y-132880540D01*
X294406100Y-132796720D01*
X294421340Y-132730680D01*
X294431500Y-132684960D01*
X294439120Y-132664640D01*
X294439120Y-132664640D01*
X294446740Y-132659560D01*
X294464520Y-132657020D01*
X294489920Y-132651940D01*
X294530560Y-132649400D01*
X294586440Y-132649400D01*
X294660100Y-132646860D01*
X294751540Y-132646860D01*
X294865840Y-132644320D01*
X295005540Y-132644320D01*
X295147780Y-132644320D01*
X295284940Y-132644320D01*
X295414480Y-132646860D01*
X295531320Y-132646860D01*
X295635460Y-132649400D01*
X295724360Y-132649400D01*
X295790400Y-132651940D01*
X295836120Y-132654480D01*
X295858980Y-132657020D01*
X295858980Y-132657020D01*
X295866600Y-132674800D01*
X295876760Y-132715440D01*
X295892000Y-132784020D01*
X295912320Y-132870380D01*
X295932640Y-132979600D01*
X295958040Y-133106600D01*
X295975820Y-133203120D01*
X295998680Y-133322500D01*
X296019000Y-133436800D01*
X296039320Y-133538400D01*
X296054560Y-133624760D01*
X296069800Y-133693340D01*
X296079960Y-133741600D01*
X296085040Y-133767000D01*
X296085040Y-133767000D01*
X296097740Y-133782240D01*
X296128220Y-133800020D01*
X296173940Y-133822880D01*
X296242520Y-133853360D01*
X296331420Y-133894000D01*
X296397460Y-133919400D01*
X296493980Y-133960040D01*
X296567640Y-133987980D01*
X296620980Y-134010840D01*
X296661620Y-134023540D01*
X296687020Y-134028620D01*
X296707340Y-134031160D01*
X296720040Y-134026080D01*
X296732740Y-134021000D01*
X296735280Y-134018460D01*
X296755600Y-134005760D01*
X296796240Y-133977820D01*
X296852120Y-133937180D01*
X296925780Y-133888920D01*
X297007060Y-133833040D01*
X297098500Y-133772080D01*
X297149300Y-133736520D01*
X297525220Y-133477440D01*
X297692860Y-133477440D01*
X297857960Y-133477440D01*
X298249120Y-133868600D01*
X298640280Y-134259760D01*
X298640280Y-134427400D01*
X298640280Y-134595040D01*
X298363420Y-134996360D01*
X298086560Y-135397680D01*
X298218640Y-135710100D01*
X298259280Y-135799000D01*
X298294840Y-135880280D01*
X298327860Y-135946320D01*
X298353260Y-135997120D01*
X298371040Y-136027600D01*
X298376120Y-136032680D01*
X298396440Y-136037760D01*
X298439620Y-136047920D01*
X298503120Y-136063160D01*
X298586940Y-136078400D01*
X298686000Y-136098720D01*
X298795220Y-136119040D01*
X298912060Y-136141900D01*
X298924760Y-136144440D01*
X299061920Y-136169840D01*
X299181300Y-136192700D01*
X299280360Y-136213020D01*
X299361640Y-136230800D01*
X299420060Y-136246040D01*
X299453080Y-136256200D01*
X299460700Y-136261280D01*
X299463240Y-136276520D01*
X299465780Y-136319700D01*
X299468320Y-136385740D01*
X299470860Y-136472100D01*
X299470860Y-136573700D01*
X299473400Y-136688000D01*
X299473400Y-136815000D01*
X299473400Y-136952160D01*
X299473400Y-136969940D01*
X299473400Y-137129960D01*
X299473400Y-137129960D01*
X299473400Y-137129960D01*
G37*
X299473400Y-137129960D02*
X299473400Y-137267120D01*
X299473400Y-137378880D01*
X299470860Y-137467780D01*
X299470860Y-137538900D01*
X299468320Y-137592240D01*
X299465780Y-137630340D01*
X299463240Y-137658280D01*
X299458160Y-137673520D01*
X299453080Y-137678600D01*
X299435300Y-137686220D01*
X299392120Y-137696380D01*
X299328620Y-137711620D01*
X299247340Y-137726860D01*
X299150820Y-137747180D01*
X299041600Y-137767500D01*
X298927300Y-137790360D01*
X298800300Y-137813220D01*
X298686000Y-137836080D01*
X298586940Y-137856400D01*
X298505660Y-137874180D01*
X298444700Y-137886880D01*
X298409140Y-137897040D01*
X298398980Y-137902120D01*
X298388820Y-137919900D01*
X298368500Y-137958000D01*
X298343100Y-138016420D01*
X298312620Y-138085000D01*
X298279600Y-138161200D01*
X298246580Y-138245020D01*
X298213560Y-138326300D01*
X298183080Y-138402500D01*
X298157680Y-138471080D01*
X298137360Y-138526960D01*
X298124660Y-138565060D01*
X298122120Y-138580300D01*
X298129740Y-138593000D01*
X298152600Y-138628560D01*
X298188160Y-138681900D01*
X298233880Y-138747940D01*
X298287220Y-138826680D01*
X298345640Y-138913040D01*
X298383740Y-138966380D01*
X298640280Y-139342300D01*
X298640280Y-139509940D01*
X298640280Y-139677580D01*
X298249120Y-140068740D01*
X297857960Y-140459900D01*
X297692860Y-140459900D01*
X297530300Y-140459900D01*
X297159460Y-140205900D01*
X296791160Y-139951900D01*
X296671780Y-140015400D01*
X296554940Y-140081440D01*
X296382220Y-140076360D01*
X296209500Y-140071280D01*
X295831040Y-139161960D01*
X295452580Y-138252640D01*
X295452580Y-138107860D01*
X295452580Y-138044360D01*
X295455120Y-137991020D01*
X295457660Y-137955460D01*
X295460200Y-137942760D01*
X295475440Y-137924980D01*
X295508460Y-137897040D01*
X295554180Y-137861480D01*
X295597360Y-137831000D01*
X295714200Y-137744640D01*
X295810720Y-137663360D01*
X295889460Y-137582080D01*
X295955500Y-137495720D01*
X296013920Y-137396660D01*
X296052020Y-137323000D01*
X296110440Y-137190920D01*
X296143460Y-137071540D01*
X296151080Y-136962320D01*
X296146000Y-136893740D01*
X296100280Y-136728640D01*
X296029160Y-136573700D01*
X295937720Y-136428920D01*
X295820880Y-136296840D01*
X295686260Y-136182540D01*
X295536400Y-136088560D01*
X295516080Y-136078400D01*
X295409400Y-136030140D01*
X295305260Y-135997120D01*
X295206200Y-135976800D01*
X295147780Y-135971720D01*
X295041100Y-135984420D01*
X294921720Y-136017440D01*
X294797260Y-136070780D01*
X294675340Y-136141900D01*
X294561040Y-136225720D01*
X294456900Y-136319700D01*
X294390860Y-136390820D01*
X294329900Y-136479720D01*
X294268940Y-136586400D01*
X294218140Y-136700700D01*
X294177500Y-136809920D01*
X294167340Y-136845480D01*
X294154640Y-136919140D01*
X294149560Y-136987720D01*
X294154640Y-137053760D01*
X294174960Y-137129960D01*
X294205440Y-137223940D01*
X294213060Y-137244260D01*
X294286720Y-137399200D01*
X294383240Y-137541440D01*
X294505160Y-137673520D01*
X294649940Y-137792900D01*
X294749000Y-137861480D01*
X294789640Y-137889420D01*
X294822660Y-137912280D01*
X294837900Y-137924980D01*
X294840440Y-137945300D01*
X294845520Y-137988480D01*
X294845520Y-138044360D01*
X294848060Y-138097700D01*
X294848060Y-138252640D01*
X294479760Y-139136560D01*
X294418800Y-139288960D01*
X294360380Y-139431200D01*
X294304500Y-139565820D01*
X294253700Y-139687740D01*
X294207980Y-139794420D01*
X294169880Y-139885860D01*
X294139400Y-139962060D01*
X294116540Y-140015400D01*
X294101300Y-140045880D01*
X294098760Y-140050960D01*
X294091140Y-140063660D01*
X294075900Y-140071280D01*
X294050500Y-140076360D01*
X294009860Y-140078900D01*
X293948900Y-140078900D01*
X293918420Y-140078900D01*
X293750780Y-140078900D01*
X293631400Y-140015400D01*
X293512020Y-139951900D01*
X293280880Y-140111920D01*
X293197060Y-140167800D01*
X293110700Y-140228760D01*
X293026880Y-140284640D01*
X292955760Y-140332900D01*
X292910040Y-140365920D01*
X292770340Y-140459900D01*
X292605240Y-140459900D01*
X292442680Y-140459900D01*
X292048980Y-140068740D01*
X291657820Y-139677580D01*
X291657820Y-139512480D01*
X291657820Y-139441360D01*
X291660360Y-139393100D01*
X291665440Y-139357540D01*
X291673060Y-139332140D01*
X291688300Y-139306740D01*
X291706080Y-139281340D01*
X291726400Y-139250860D01*
X291759420Y-139200060D01*
X291805140Y-139134020D01*
X291855940Y-139057820D01*
X291914360Y-138974000D01*
X291965160Y-138897800D01*
X292023580Y-138813980D01*
X292074380Y-138737780D01*
X292117560Y-138671740D01*
X292150580Y-138618400D01*
X292173440Y-138582840D01*
X292181060Y-138567600D01*
X292175980Y-138549820D01*
X292160740Y-138509180D01*
X292140420Y-138450760D01*
X292109940Y-138377100D01*
X292076920Y-138293280D01*
X292051520Y-138227240D01*
X292008340Y-138118020D01*
X291972780Y-138034200D01*
X291944840Y-137970700D01*
X291921980Y-137927520D01*
X291906740Y-137902120D01*
X291894040Y-137891960D01*
X291871180Y-137886880D01*
X291828000Y-137876720D01*
X291761960Y-137864020D01*
X291678140Y-137846240D01*
X291579080Y-137828460D01*
X291469860Y-137805600D01*
X291363180Y-137787820D01*
X291248880Y-137764960D01*
X291139660Y-137744640D01*
X291045680Y-137724320D01*
X290964400Y-137709080D01*
X290900900Y-137693840D01*
X290860260Y-137683680D01*
X290845020Y-137678600D01*
X290839940Y-137670980D01*
X290837400Y-137653200D01*
X290834860Y-137622720D01*
X290832320Y-137579540D01*
X290829780Y-137521120D01*
X290827240Y-137442380D01*
X290827240Y-137345860D01*
X290827240Y-137226480D01*
X290824700Y-137079160D01*
X290824700Y-136967400D01*
X290824700Y-136271440D01*
X290857720Y-136253660D01*
X290878040Y-136246040D01*
X290923760Y-136233340D01*
X290989800Y-136220640D01*
X291073620Y-136202860D01*
X291172680Y-136182540D01*
X291284440Y-136162220D01*
X291401280Y-136139360D01*
X291403820Y-136139360D01*
X291520660Y-136116500D01*
X291629880Y-136096180D01*
X291728940Y-136075860D01*
X291810220Y-136058080D01*
X291873720Y-136045380D01*
X291916900Y-136032680D01*
X291937220Y-136027600D01*
X291937220Y-136027600D01*
X291947380Y-136009820D01*
X291965160Y-135971720D01*
X291990560Y-135915840D01*
X292023580Y-135847260D01*
X292056600Y-135771060D01*
X292089620Y-135692320D01*
X292125180Y-135616120D01*
X292155660Y-135545000D01*
X292181060Y-135481500D01*
X292198840Y-135435780D01*
X292209000Y-135407840D01*
X292209000Y-135405300D01*
X292201380Y-135390060D01*
X292178520Y-135354500D01*
X292145500Y-135301160D01*
X292099780Y-135232580D01*
X292046440Y-135153840D01*
X291985480Y-135064940D01*
X291934680Y-134988740D01*
X291657820Y-134587420D01*
X291657820Y-134424860D01*
X291657820Y-134262300D01*
X292048980Y-133868600D01*
X292440140Y-133477440D01*
X292607780Y-133477440D01*
X292775420Y-133477440D01*
X293131020Y-133721280D01*
X293222460Y-133782240D01*
X293308820Y-133843200D01*
X293387560Y-133896540D01*
X293453600Y-133942260D01*
X293504400Y-133977820D01*
X293537420Y-134000680D01*
X293542500Y-134003220D01*
X293600920Y-134043860D01*
X293867620Y-133934640D01*
X293971760Y-133894000D01*
X294050500Y-133860980D01*
X294111460Y-133835580D01*
X294154640Y-133815260D01*
X294182580Y-133800020D01*
X294200360Y-133787320D01*
X294213060Y-133777160D01*
X294218140Y-133764460D01*
X294218140Y-133761920D01*
X294223220Y-133741600D01*
X294233380Y-133695880D01*
X294246080Y-133632380D01*
X294261320Y-133548560D01*
X294281640Y-133449500D01*
X294301960Y-133340280D01*
X294322280Y-133220900D01*
X294324820Y-133208200D01*
X294347680Y-133091360D01*
X294370540Y-132979600D01*
X294388320Y-132880540D01*
X294406100Y-132796720D01*
X294421340Y-132730680D01*
X294431500Y-132684960D01*
X294439120Y-132664640D01*
X294439120Y-132664640D01*
X294446740Y-132659560D01*
X294464520Y-132657020D01*
X294489920Y-132651940D01*
X294530560Y-132649400D01*
X294586440Y-132649400D01*
X294660100Y-132646860D01*
X294751540Y-132646860D01*
X294865840Y-132644320D01*
X295005540Y-132644320D01*
X295147780Y-132644320D01*
X295284940Y-132644320D01*
X295414480Y-132646860D01*
X295531320Y-132646860D01*
X295635460Y-132649400D01*
X295724360Y-132649400D01*
X295790400Y-132651940D01*
X295836120Y-132654480D01*
X295858980Y-132657020D01*
X295858980Y-132657020D01*
X295866600Y-132674800D01*
X295876760Y-132715440D01*
X295892000Y-132784020D01*
X295912320Y-132870380D01*
X295932640Y-132979600D01*
X295958040Y-133106600D01*
X295975820Y-133203120D01*
X295998680Y-133322500D01*
X296019000Y-133436800D01*
X296039320Y-133538400D01*
X296054560Y-133624760D01*
X296069800Y-133693340D01*
X296079960Y-133741600D01*
X296085040Y-133767000D01*
X296085040Y-133767000D01*
X296097740Y-133782240D01*
X296128220Y-133800020D01*
X296173940Y-133822880D01*
X296242520Y-133853360D01*
X296331420Y-133894000D01*
X296397460Y-133919400D01*
X296493980Y-133960040D01*
X296567640Y-133987980D01*
X296620980Y-134010840D01*
X296661620Y-134023540D01*
X296687020Y-134028620D01*
X296707340Y-134031160D01*
X296720040Y-134026080D01*
X296732740Y-134021000D01*
X296735280Y-134018460D01*
X296755600Y-134005760D01*
X296796240Y-133977820D01*
X296852120Y-133937180D01*
X296925780Y-133888920D01*
X297007060Y-133833040D01*
X297098500Y-133772080D01*
X297149300Y-133736520D01*
X297525220Y-133477440D01*
X297692860Y-133477440D01*
X297857960Y-133477440D01*
X298249120Y-133868600D01*
X298640280Y-134259760D01*
X298640280Y-134427400D01*
X298640280Y-134595040D01*
X298363420Y-134996360D01*
X298086560Y-135397680D01*
X298218640Y-135710100D01*
X298259280Y-135799000D01*
X298294840Y-135880280D01*
X298327860Y-135946320D01*
X298353260Y-135997120D01*
X298371040Y-136027600D01*
X298376120Y-136032680D01*
X298396440Y-136037760D01*
X298439620Y-136047920D01*
X298503120Y-136063160D01*
X298586940Y-136078400D01*
X298686000Y-136098720D01*
X298795220Y-136119040D01*
X298912060Y-136141900D01*
X298924760Y-136144440D01*
X299061920Y-136169840D01*
X299181300Y-136192700D01*
X299280360Y-136213020D01*
X299361640Y-136230800D01*
X299420060Y-136246040D01*
X299453080Y-136256200D01*
X299460700Y-136261280D01*
X299463240Y-136276520D01*
X299465780Y-136319700D01*
X299468320Y-136385740D01*
X299470860Y-136472100D01*
X299470860Y-136573700D01*
X299473400Y-136688000D01*
X299473400Y-136815000D01*
X299473400Y-136952160D01*
X299473400Y-136969940D01*
X299473400Y-137129960D01*
X299473400Y-137129960D01*
D15*
X199600000Y-80700000D03*
X183800000Y-80700000D03*
D16*
X193548000Y-93472000D03*
D17*
X191008000Y-93472000D03*
D18*
X288201100Y-107518200D03*
D19*
X293281100Y-107518200D03*
X283121100Y-107518200D03*
D20*
X292119100Y-110058200D03*
X290809100Y-111518200D03*
X285768100Y-112598200D03*
X285808100Y-112018200D03*
D18*
X259626100Y-88468200D03*
D19*
X264706100Y-88468200D03*
X254546100Y-88468200D03*
D20*
X263544100Y-91008200D03*
X262234100Y-92468200D03*
X257193100Y-93548200D03*
X257233100Y-92968200D03*
D18*
X281057100Y-164668200D03*
D19*
X286137100Y-164668200D03*
X275977100Y-164668200D03*
D21*
X284575100Y-166808200D03*
X283465100Y-168668200D03*
X278424100Y-169748200D03*
X278464100Y-169168200D03*
D18*
X278676100Y-164668200D03*
D19*
X283756100Y-164668200D03*
X273596100Y-164668200D03*
D20*
X282594100Y-167208200D03*
X281284100Y-168668200D03*
X276243100Y-169748200D03*
X276283100Y-169168200D03*
D18*
X316776100Y-164668200D03*
D19*
X321856100Y-164668200D03*
X311696100Y-164668200D03*
D20*
X320694100Y-167208200D03*
D21*
X319684100Y-168968200D03*
X314543100Y-169748200D03*
X314583100Y-169168200D03*
D18*
X197713100Y-164668200D03*
D19*
X202793100Y-164668200D03*
X192633100Y-164668200D03*
D20*
X201631100Y-167208200D03*
X200321100Y-168668200D03*
X195280100Y-169748200D03*
X195320100Y-169168200D03*
D18*
X164376100Y-164668200D03*
D19*
X169456100Y-164668200D03*
D20*
X168294100Y-167208200D03*
D21*
X167284100Y-168968200D03*
X162143100Y-169748200D03*
X162183100Y-169168200D03*
D18*
X161995100Y-164668200D03*
D19*
X156915100Y-164668200D03*
D21*
X165613100Y-166908200D03*
D20*
X164603100Y-168668200D03*
D21*
X159362100Y-169748200D03*
X159402100Y-169168200D03*
D18*
X159614100Y-164668200D03*
D19*
X154534100Y-164668200D03*
D20*
X163532100Y-167208200D03*
X162222100Y-168668200D03*
X157181100Y-169748200D03*
X157221100Y-169168200D03*
D18*
X154851100Y-164668200D03*
D19*
X149771100Y-164668200D03*
D20*
X158769100Y-167208200D03*
X157459100Y-168668200D03*
X152418100Y-169748200D03*
X152458100Y-169168200D03*
D18*
X166757100Y-164668200D03*
D19*
X171837100Y-164668200D03*
D20*
X170675100Y-167208200D03*
X169365100Y-168668200D03*
X164324100Y-169748200D03*
X164364100Y-169168200D03*
D18*
X140564100Y-164668200D03*
D19*
X145644100Y-164668200D03*
D20*
X144482100Y-167208200D03*
D21*
X143472100Y-168968200D03*
X138331100Y-169748200D03*
X138371100Y-169168200D03*
D18*
X190570100Y-164668200D03*
D19*
X195650100Y-164668200D03*
X185490100Y-164668200D03*
D20*
X194488100Y-167208200D03*
X193178100Y-168668200D03*
X188137100Y-169748200D03*
X188177100Y-169168200D03*
D18*
X195332100Y-164668200D03*
D19*
X200412100Y-164668200D03*
D20*
X199250100Y-167208200D03*
X197940100Y-168668200D03*
X192899100Y-169748200D03*
X192939100Y-169168200D03*
D18*
X164376100Y-88468200D03*
D19*
X169456100Y-88468200D03*
X159296100Y-88468200D03*
D20*
X168294100Y-91008200D03*
X166984100Y-92468200D03*
X161943100Y-93548200D03*
X161983100Y-92968200D03*
D18*
X154851100Y-107518200D03*
D19*
X159931100Y-107518200D03*
X149771100Y-107518200D03*
D20*
X158769100Y-110058200D03*
X157459100Y-111518200D03*
X152418100Y-112598200D03*
X152458100Y-112018200D03*
D18*
X131038100Y-164668200D03*
D19*
X125958100Y-164668200D03*
D20*
X134956100Y-167208200D03*
X133646100Y-168668200D03*
X128605100Y-169748200D03*
X128645100Y-169168200D03*
D18*
X90557100Y-164668200D03*
D19*
X95637100Y-164668200D03*
X85477100Y-164668200D03*
D20*
X94475100Y-167208200D03*
X93165100Y-168668200D03*
X88124100Y-169748200D03*
X88164100Y-169168200D03*
D18*
X92939100Y-164668200D03*
D19*
X98019100Y-164668200D03*
X87859100Y-164668200D03*
D20*
X96857100Y-167208200D03*
X95547100Y-168668200D03*
X90506100Y-169748200D03*
X90546100Y-169168200D03*
D18*
X92939100Y-107518200D03*
D19*
X98019100Y-107518200D03*
X87859100Y-107518200D03*
D20*
X96857100Y-110058200D03*
X95547100Y-111518200D03*
X90506100Y-112598200D03*
X90546100Y-112018200D03*
D18*
X183426100Y-88468200D03*
D19*
X188506100Y-88468200D03*
X178346100Y-88468200D03*
D20*
X187344100Y-91008200D03*
X186034100Y-92468200D03*
X180993100Y-93548200D03*
X181033100Y-92968200D03*
D18*
X207238100Y-145618200D03*
D19*
X212318100Y-145618200D03*
X202158100Y-145618200D03*
D20*
X211156100Y-148158200D03*
X209846100Y-149618200D03*
X204805100Y-150698200D03*
X204845100Y-150118200D03*
D18*
X152470100Y-164668200D03*
D19*
X157550100Y-164668200D03*
X147390100Y-164668200D03*
D20*
X156388100Y-167208200D03*
X155078100Y-168668200D03*
X150037100Y-169748200D03*
X150077100Y-169168200D03*
D18*
X188188100Y-145618200D03*
D19*
X193268100Y-145618200D03*
X183108100Y-145618200D03*
D20*
X192106100Y-148158200D03*
X190796100Y-149618200D03*
X185755100Y-150698200D03*
X185795100Y-150118200D03*
D18*
X169139100Y-145618200D03*
D19*
X174219100Y-145618200D03*
X164059100Y-145618200D03*
D20*
X173057100Y-148158200D03*
X171747100Y-149618200D03*
X166706100Y-150698200D03*
X166746100Y-150118200D03*
D18*
X111989100Y-145618200D03*
D19*
X117069100Y-145618200D03*
X106909100Y-145618200D03*
D20*
X115907100Y-148158200D03*
X114597100Y-149618200D03*
X109556100Y-150698200D03*
X109596100Y-150118200D03*
D18*
X100082100Y-145618200D03*
D19*
X105162100Y-145618200D03*
X95002100Y-145618200D03*
D20*
X104000100Y-148158200D03*
X102690100Y-149618200D03*
X97649100Y-150698200D03*
X97689100Y-150118200D03*
D18*
X90557100Y-145618200D03*
D19*
X95637100Y-145618200D03*
X85477100Y-145618200D03*
D20*
X94475100Y-148158200D03*
X93165100Y-149618200D03*
X88124100Y-150698200D03*
X88164100Y-150118200D03*
D18*
X131038100Y-145618200D03*
D19*
X136118100Y-145618200D03*
X125958100Y-145618200D03*
D20*
X134956100Y-148158200D03*
X133646100Y-149618200D03*
X128605100Y-150698200D03*
X128645100Y-150118200D03*
D18*
X150088100Y-145618200D03*
D19*
X155168100Y-145618200D03*
X145008100Y-145618200D03*
D20*
X154006100Y-148158200D03*
X152696100Y-149618200D03*
X147655100Y-150698200D03*
X147695100Y-150118200D03*
D18*
X121514100Y-126568200D03*
D19*
X126594100Y-126568200D03*
X116434100Y-126568200D03*
D20*
X125432100Y-129108200D03*
X124122100Y-130568200D03*
X119081100Y-131648200D03*
X119121100Y-131068200D03*
D18*
X95320100Y-126568200D03*
D19*
X100400100Y-126568200D03*
D20*
X99238100Y-129108200D03*
X97928100Y-130568200D03*
X92887100Y-131648200D03*
X92927100Y-131068200D03*
D18*
X140564100Y-126568200D03*
D19*
X145644100Y-126568200D03*
X135484100Y-126568200D03*
D20*
X144482100Y-129108200D03*
X143172100Y-130568200D03*
X138131100Y-131648200D03*
X138171100Y-131068200D03*
D18*
X159614100Y-126568200D03*
D19*
X164694100Y-126568200D03*
X154534100Y-126568200D03*
D20*
X163532100Y-129108200D03*
X162222100Y-130568200D03*
X157181100Y-131648200D03*
X157221100Y-131068200D03*
D18*
X197713100Y-126568200D03*
D19*
X202793100Y-126568200D03*
X192633100Y-126568200D03*
D20*
X201631100Y-129108200D03*
X200321100Y-130568200D03*
X195280100Y-131648200D03*
X195320100Y-131068200D03*
D18*
X135801100Y-107518200D03*
D19*
X140881100Y-107518200D03*
X130721100Y-107518200D03*
D20*
X139719100Y-110058200D03*
X138409100Y-111518200D03*
X133368100Y-112598200D03*
X133408100Y-112018200D03*
D18*
X173901100Y-107518200D03*
D19*
X178981100Y-107518200D03*
X168821100Y-107518200D03*
D20*
X177819100Y-110058200D03*
X176509100Y-111518200D03*
X171468100Y-112598200D03*
X171508100Y-112018200D03*
D18*
X202476100Y-88468200D03*
D19*
X207556100Y-88468200D03*
X197396100Y-88468200D03*
D20*
X206394100Y-91008200D03*
X205084100Y-92468200D03*
X200043100Y-93548200D03*
X200083100Y-92968200D03*
D18*
X192951100Y-107518200D03*
D19*
X198031100Y-107518200D03*
X187871100Y-107518200D03*
D20*
X196869100Y-110058200D03*
X195559100Y-111518200D03*
X190518100Y-112598200D03*
X190558100Y-112018200D03*
D18*
X178663100Y-126568200D03*
D19*
X183743100Y-126568200D03*
X173583100Y-126568200D03*
D20*
X182581100Y-129108200D03*
X181271100Y-130568200D03*
X176230100Y-131648200D03*
X176270100Y-131068200D03*
D18*
X116751100Y-107448200D03*
D19*
X121831100Y-107448200D03*
X111671100Y-107448200D03*
D20*
X120669100Y-109988200D03*
X119359100Y-111448200D03*
X114318100Y-112528200D03*
X114358100Y-111948200D03*
D18*
X176282100Y-164668200D03*
D19*
X181362100Y-164668200D03*
X171202100Y-164668200D03*
D20*
X180200100Y-167208200D03*
X178890100Y-168668200D03*
X173849100Y-169748200D03*
X173889100Y-169168200D03*
D18*
X207238100Y-164668200D03*
D19*
X212318100Y-164668200D03*
X202158100Y-164668200D03*
D20*
X211156100Y-167208200D03*
X209846100Y-168668200D03*
X204805100Y-169748200D03*
X204845100Y-169168200D03*
D18*
X138182100Y-164668200D03*
D19*
X143262100Y-164668200D03*
X133102100Y-164668200D03*
D21*
X141800100Y-166908200D03*
D20*
X140790100Y-168668200D03*
D21*
X135549100Y-169748200D03*
X135589100Y-169168200D03*
D18*
X135801100Y-164668200D03*
D20*
X139719100Y-167208200D03*
X138409100Y-168668200D03*
X133368100Y-169748200D03*
X133408100Y-169168200D03*
D18*
X111989100Y-164668200D03*
D19*
X106909100Y-164668200D03*
D20*
X115907100Y-167208200D03*
X114597100Y-168668200D03*
X109556100Y-169748200D03*
X109596100Y-169168200D03*
D18*
X116751100Y-164668200D03*
D19*
X121831100Y-164668200D03*
D20*
X120669100Y-167208200D03*
D21*
X119659100Y-168968200D03*
X114518100Y-169748200D03*
X114558100Y-169168200D03*
D18*
X114370100Y-164668200D03*
D19*
X119450100Y-164668200D03*
X109290100Y-164668200D03*
D21*
X117988100Y-166908200D03*
D20*
X116978100Y-168668200D03*
D21*
X111737100Y-169748200D03*
X111777100Y-169168200D03*
D18*
X295345100Y-164668200D03*
D19*
X300425100Y-164668200D03*
X290265100Y-164668200D03*
D20*
X299263100Y-167208200D03*
X297953100Y-168668200D03*
X292912100Y-169748200D03*
X292952100Y-169168200D03*
D18*
X290582100Y-164668200D03*
D19*
X285502100Y-164668200D03*
D20*
X294500100Y-167208200D03*
X293190100Y-168668200D03*
D21*
X288349100Y-169748200D03*
X288389100Y-169368200D03*
D18*
X302489100Y-164668200D03*
D19*
X307569100Y-164668200D03*
X297409100Y-164668200D03*
D20*
X306407100Y-167208200D03*
X305097100Y-168668200D03*
X300056100Y-169748200D03*
X300096100Y-169168200D03*
D18*
X235814100Y-164668200D03*
D19*
X240894100Y-164668200D03*
X230734100Y-164668200D03*
D20*
X239732100Y-167208200D03*
X238422100Y-168668200D03*
X233381100Y-169748200D03*
X233421100Y-169168200D03*
D18*
X269151100Y-164668200D03*
D19*
X274231100Y-164668200D03*
X264071100Y-164668200D03*
D21*
X272769100Y-166908200D03*
D20*
X271759100Y-168668200D03*
D21*
X266518100Y-169748200D03*
X266558100Y-169168200D03*
D18*
X283438100Y-164668200D03*
D22*
X287256100Y-166908200D03*
D23*
X285996100Y-168841405D03*
D24*
X285846100Y-169101213D02*
X286146100Y-168581597D01*
D21*
X281205100Y-169748200D03*
X281245100Y-169168200D03*
D18*
X312013100Y-164668200D03*
D19*
X306933100Y-164668200D03*
D20*
X315931100Y-167208200D03*
X314621100Y-168668200D03*
D21*
X309780100Y-169748200D03*
X309820100Y-169368200D03*
D18*
X328682100Y-164668200D03*
D19*
X333762100Y-164668200D03*
X323602100Y-164668200D03*
D20*
X332600100Y-167208200D03*
X331290100Y-168668200D03*
X326249100Y-169748200D03*
X326289100Y-169168200D03*
D18*
X352495100Y-164668200D03*
D19*
X357575100Y-164668200D03*
X347415100Y-164668200D03*
D20*
X356413100Y-167208200D03*
X355103100Y-168668200D03*
X350062100Y-169748200D03*
X350102100Y-169168200D03*
D18*
X242957100Y-164668200D03*
D19*
X248037100Y-164668200D03*
X237877100Y-164668200D03*
D20*
X246875100Y-167208200D03*
X245565100Y-168668200D03*
X240524100Y-169748200D03*
X240564100Y-169168200D03*
D18*
X297726100Y-164668200D03*
D19*
X292646100Y-164668200D03*
D20*
X301644100Y-167208200D03*
X300334100Y-168668200D03*
X295293100Y-169748200D03*
X295333100Y-169168200D03*
D18*
X297726100Y-88468200D03*
D19*
X302806100Y-88468200D03*
X292646100Y-88468200D03*
D20*
X301644100Y-91008200D03*
X300334100Y-92468200D03*
X295293100Y-93548200D03*
X295333100Y-92968200D03*
D18*
X269151100Y-107518200D03*
D19*
X274231100Y-107518200D03*
X264071100Y-107518200D03*
D20*
X273069100Y-110058200D03*
X271759100Y-111518200D03*
X266718100Y-112598200D03*
X266758100Y-112018200D03*
D18*
X212001100Y-107518200D03*
D19*
X217081100Y-107518200D03*
X206921100Y-107518200D03*
D20*
X215919100Y-110058200D03*
X214609100Y-111518200D03*
X209568100Y-112598200D03*
X209608100Y-112018200D03*
D18*
X278676100Y-88468200D03*
D19*
X283756100Y-88468200D03*
X273596100Y-88468200D03*
D20*
X282594100Y-91008200D03*
X281284100Y-92468200D03*
X276243100Y-93548200D03*
X276283100Y-92968200D03*
D18*
X316776100Y-88468200D03*
D19*
X321856100Y-88468200D03*
X311696100Y-88468200D03*
D20*
X320694100Y-91008200D03*
X319384100Y-92468200D03*
X314343100Y-93548200D03*
X314383100Y-92968200D03*
D18*
X354876100Y-145618200D03*
D19*
X359956100Y-145618200D03*
X349796100Y-145618200D03*
D20*
X358794100Y-148158200D03*
X357484100Y-149618200D03*
X352443100Y-150698200D03*
X352483100Y-150118200D03*
D18*
X328682100Y-145618200D03*
D19*
X333762100Y-145618200D03*
X323602100Y-145618200D03*
D20*
X332600100Y-148158200D03*
X331290100Y-149618200D03*
X326249100Y-150698200D03*
X326289100Y-150118200D03*
D18*
X302489100Y-145618200D03*
D19*
X307569100Y-145618200D03*
X297409100Y-145618200D03*
D20*
X306407100Y-148158200D03*
X305097100Y-149618200D03*
X300056100Y-150698200D03*
X300096100Y-150118200D03*
D18*
X245339100Y-145618200D03*
D19*
X250419100Y-145618200D03*
X240259100Y-145618200D03*
D20*
X249257100Y-148158200D03*
X247947100Y-149618200D03*
X242906100Y-150698200D03*
X242946100Y-150118200D03*
D18*
X226289100Y-145618200D03*
D19*
X231369100Y-145618200D03*
X221209100Y-145618200D03*
D20*
X230207100Y-148158200D03*
X228897100Y-149618200D03*
X223856100Y-150698200D03*
X223896100Y-150118200D03*
D18*
X264388100Y-145618200D03*
D19*
X269468100Y-145618200D03*
X259308100Y-145618200D03*
D20*
X268306100Y-148158200D03*
X266996100Y-149618200D03*
X261955100Y-150698200D03*
X261995100Y-150118200D03*
D18*
X283438100Y-145618200D03*
D19*
X288518100Y-145618200D03*
X278358100Y-145618200D03*
D20*
X287356100Y-148158200D03*
X286046100Y-149618200D03*
X281005100Y-150698200D03*
X281045100Y-150118200D03*
D18*
X235814100Y-126568200D03*
D19*
X240894100Y-126568200D03*
X230734100Y-126568200D03*
D20*
X239732100Y-129108200D03*
X238422100Y-130568200D03*
X233381100Y-131648200D03*
X233421100Y-131068200D03*
D18*
X254864100Y-126568200D03*
D19*
X259944100Y-126568200D03*
X249784100Y-126568200D03*
D20*
X258782100Y-129108200D03*
X257472100Y-130568200D03*
X252431100Y-131648200D03*
X252471100Y-131068200D03*
D18*
X273914100Y-126568200D03*
D19*
X278994100Y-126568200D03*
X268834100Y-126568200D03*
D20*
X277832100Y-129108200D03*
X276522100Y-130568200D03*
X271481100Y-131648200D03*
X271521100Y-131068200D03*
D18*
X312013100Y-126568200D03*
D19*
X317093100Y-126568200D03*
X306933100Y-126568200D03*
D20*
X315931100Y-129108200D03*
X314621100Y-130568200D03*
X309580100Y-131648200D03*
X309620100Y-131068200D03*
D18*
X250101100Y-107518200D03*
D19*
X255181100Y-107518200D03*
X245021100Y-107518200D03*
D20*
X254019100Y-110058200D03*
X252709100Y-111518200D03*
X247668100Y-112598200D03*
X247708100Y-112018200D03*
D18*
X335826100Y-88468200D03*
D19*
X340906100Y-88468200D03*
X330746100Y-88468200D03*
D20*
X339744100Y-91008200D03*
X338434100Y-92468200D03*
X333393100Y-93548200D03*
X333433100Y-92968200D03*
D18*
X307251100Y-107518200D03*
D19*
X312331100Y-107518200D03*
X302171100Y-107518200D03*
D20*
X311169100Y-110058200D03*
X309859100Y-111518200D03*
X304818100Y-112598200D03*
X304858100Y-112018200D03*
D18*
X221526100Y-88468200D03*
D19*
X226606100Y-88468200D03*
X216446100Y-88468200D03*
D20*
X225444100Y-91008200D03*
X224134100Y-92468200D03*
X219093100Y-93548200D03*
X219133100Y-92968200D03*
D18*
X240576100Y-88468200D03*
D19*
X245656100Y-88468200D03*
X235496100Y-88468200D03*
D20*
X244494100Y-91008200D03*
X243184100Y-92468200D03*
X238143100Y-93548200D03*
X238183100Y-92968200D03*
D18*
X292964100Y-126568200D03*
D19*
X298044100Y-126568200D03*
X287884100Y-126568200D03*
D20*
X296882100Y-129108200D03*
X295572100Y-130568200D03*
X290531100Y-131648200D03*
X290571100Y-131068200D03*
D18*
X231051100Y-107448200D03*
D19*
X236131100Y-107448200D03*
X225971100Y-107448200D03*
D20*
X234969100Y-109988200D03*
X233659100Y-111448200D03*
X228618100Y-112528200D03*
X228658100Y-111948200D03*
D18*
X326301100Y-107518200D03*
D19*
X331381100Y-107518200D03*
X321221100Y-107518200D03*
D20*
X330219100Y-110058200D03*
X328909100Y-111518200D03*
X323868100Y-112598200D03*
X323908100Y-112018200D03*
D18*
X373926100Y-145618200D03*
D19*
X379006100Y-145618200D03*
X368846100Y-145618200D03*
D20*
X377844100Y-148158200D03*
X376534100Y-149618200D03*
X371493100Y-150698200D03*
X371533100Y-150118200D03*
D18*
X373926100Y-88468200D03*
D19*
X379006100Y-88468200D03*
X368846100Y-88468200D03*
D20*
X377844100Y-91008200D03*
X376534100Y-92468200D03*
X371493100Y-93548200D03*
X371533100Y-92968200D03*
D18*
X354876100Y-88468200D03*
D19*
X359956100Y-88468200D03*
X349796100Y-88468200D03*
D20*
X358794100Y-91008200D03*
X357484100Y-92468200D03*
X352443100Y-93548200D03*
X352483100Y-92968200D03*
D18*
X373926100Y-107518200D03*
D19*
X379006100Y-107518200D03*
X368846100Y-107518200D03*
D20*
X377844100Y-110058200D03*
X376534100Y-111518200D03*
X371493100Y-112598200D03*
X371533100Y-112018200D03*
D18*
X350113100Y-107645200D03*
D19*
X355193100Y-107645200D03*
X345033100Y-107645200D03*
D20*
X354031100Y-110185200D03*
X352721100Y-111645200D03*
X347680100Y-112725200D03*
X347720100Y-112145200D03*
D18*
X373926100Y-126568200D03*
D19*
X379006100Y-126568200D03*
X368846100Y-126568200D03*
D20*
X377844100Y-129108200D03*
X376534100Y-130568200D03*
X371493100Y-131648200D03*
X371533100Y-131068200D03*
D18*
X342970100Y-126568200D03*
D19*
X348050100Y-126568200D03*
X337890100Y-126568200D03*
D20*
X346888100Y-129108200D03*
X345578100Y-130568200D03*
X340537100Y-131648200D03*
X340577100Y-131068200D03*
D18*
X216763100Y-126568200D03*
D19*
X221843100Y-126568200D03*
X211683100Y-126568200D03*
D20*
X220681100Y-129108200D03*
X219371100Y-130568200D03*
X214330100Y-131648200D03*
X214370100Y-131068200D03*
D18*
X373926100Y-164668200D03*
D19*
X379006100Y-164668200D03*
X368846100Y-164668200D03*
D20*
X377844100Y-167208200D03*
X376534100Y-168668200D03*
X371493100Y-169748200D03*
X371533100Y-169168200D03*
D18*
X354876100Y-164668200D03*
D19*
X359956100Y-164668200D03*
X349796100Y-164668200D03*
D20*
X358794100Y-167208200D03*
X357484100Y-168668200D03*
X352443100Y-169748200D03*
X352483100Y-169168200D03*
D18*
X335826100Y-164668200D03*
D19*
X340906100Y-164668200D03*
X330746100Y-164668200D03*
D20*
X339744100Y-167208200D03*
X338434100Y-168668200D03*
X333393100Y-169748200D03*
X333433100Y-169168200D03*
D18*
X273914100Y-164668200D03*
D20*
X277832100Y-167208200D03*
X276522100Y-168668200D03*
X271481100Y-169748200D03*
X271521100Y-169168200D03*
D18*
X238195100Y-164668200D03*
D19*
X233115100Y-164668200D03*
D20*
X242113100Y-167208200D03*
X240803100Y-168668200D03*
X235762100Y-169748200D03*
X235802100Y-169168200D03*
D18*
X345351100Y-88468200D03*
D19*
X350431100Y-88468200D03*
X340271100Y-88468200D03*
D20*
X349269100Y-91008200D03*
X347959100Y-92468200D03*
X342918100Y-93548200D03*
X342958100Y-92968200D03*
D18*
X331063100Y-126568200D03*
D19*
X336143100Y-126568200D03*
X325983100Y-126568200D03*
D20*
X334981100Y-129108200D03*
X333671100Y-130568200D03*
X328630100Y-131648200D03*
X328670100Y-131068200D03*
D18*
X352495100Y-117043200D03*
D19*
X352495100Y-122123200D03*
D20*
X355035100Y-113125200D03*
X356495100Y-114435200D03*
X357575100Y-119476200D03*
X356995100Y-119436200D03*
D18*
X338207100Y-145618200D03*
D19*
X343287100Y-145618200D03*
X333127100Y-145618200D03*
D20*
X342125100Y-148158200D03*
X340815100Y-149618200D03*
X335774100Y-150698200D03*
X335814100Y-150118200D03*
D18*
X352495100Y-126568200D03*
D19*
X357575100Y-126568200D03*
X347415100Y-126568200D03*
D20*
X356413100Y-129108200D03*
X355103100Y-130568200D03*
X350062100Y-131648200D03*
X350102100Y-131068200D03*
D18*
X266770100Y-164668200D03*
D19*
X271850100Y-164668200D03*
X261690100Y-164668200D03*
D20*
X270688100Y-167208200D03*
X269378100Y-168668200D03*
X264337100Y-169748200D03*
X264377100Y-169168200D03*
D18*
X271532100Y-164668200D03*
D19*
X276612100Y-164668200D03*
D20*
X275450100Y-167208200D03*
D21*
X274440100Y-168968200D03*
X269299100Y-169748200D03*
X269339100Y-169168200D03*
D18*
X145326100Y-88468200D03*
D19*
X150406100Y-88468200D03*
X140246100Y-88468200D03*
D20*
X149244100Y-91008200D03*
X147934100Y-92468200D03*
X142893100Y-93548200D03*
X142933100Y-92968200D03*
D18*
X126276100Y-88468200D03*
D19*
X131356100Y-88468200D03*
X121196100Y-88468200D03*
D20*
X130194100Y-91008200D03*
X128884100Y-92468200D03*
X123843100Y-93548200D03*
X123883100Y-92968200D03*
D18*
X107226100Y-88468200D03*
D19*
X112306100Y-88468200D03*
X102146100Y-88468200D03*
D20*
X111144100Y-91008200D03*
X109834100Y-92468200D03*
X104793100Y-93548200D03*
X104833100Y-92968200D03*
D18*
X88176100Y-88468200D03*
D19*
X93256100Y-88468200D03*
X83096100Y-88468200D03*
D20*
X92094100Y-91008200D03*
X90784100Y-92468200D03*
X85743100Y-93548200D03*
X85783100Y-92968200D03*
D18*
X90557100Y-126568200D03*
D19*
X85477100Y-126568200D03*
D20*
X94475100Y-129108200D03*
X93165100Y-130568200D03*
X88124100Y-131648200D03*
X88164100Y-131068200D03*
D25*
X359480100Y-105105200D03*
X359480100Y-128981200D03*
D26*
X344240100Y-105105200D03*
X344240100Y-128981200D03*
D25*
X188220100Y-171653200D03*
X164344100Y-171653200D03*
D26*
X188220100Y-156413200D03*
X164344100Y-156413200D03*
D25*
X88144100Y-138633200D03*
X112020100Y-138633200D03*
D26*
X88144100Y-153873200D03*
X112020100Y-153873200D03*
D27*
X196443100Y-159588200D03*
D28*
X198983100Y-159588200D03*
D27*
X165487100Y-159588200D03*
D28*
X168027100Y-159588200D03*
D27*
X165646100Y-159588200D03*
D28*
X163106100Y-159588200D03*
D27*
X160725100Y-159588200D03*
D28*
X163265100Y-159588200D03*
D27*
X160884100Y-159588200D03*
D28*
X158344100Y-159588200D03*
D27*
X153581100Y-159588200D03*
D28*
X156121100Y-159588200D03*
D27*
X139294100Y-159588200D03*
D28*
X141834100Y-159588200D03*
D27*
X184696100Y-83388200D03*
D28*
X182156100Y-83388200D03*
D27*
X118021100Y-102438200D03*
D28*
X115481100Y-102438200D03*
D27*
X113259100Y-140538200D03*
D28*
X110719100Y-140538200D03*
D27*
X137071100Y-102438200D03*
D28*
X134531100Y-102438200D03*
D27*
X132308100Y-140538200D03*
D28*
X129768100Y-140538200D03*
D27*
X156121100Y-102438200D03*
D28*
X153581100Y-102438200D03*
D27*
X151358100Y-140538200D03*
D28*
X148818100Y-140538200D03*
D27*
X175171100Y-102438200D03*
D28*
X172631100Y-102438200D03*
D27*
X101352100Y-140538200D03*
D28*
X98812100Y-140538200D03*
D27*
X94209100Y-102438200D03*
D28*
X91669100Y-102438200D03*
D27*
X198983100Y-121488200D03*
D28*
X196443100Y-121488200D03*
D27*
X170409100Y-140538200D03*
D28*
X167869100Y-140538200D03*
D27*
X179933100Y-121488200D03*
D28*
X177393100Y-121488200D03*
D27*
X127546100Y-83388200D03*
D28*
X125006100Y-83388200D03*
D27*
X160884100Y-121488200D03*
D28*
X158344100Y-121488200D03*
D27*
X141834100Y-121488200D03*
D28*
X139294100Y-121488200D03*
D27*
X196602100Y-159588200D03*
D28*
X194062100Y-159588200D03*
D27*
X165646100Y-83388200D03*
D28*
X163106100Y-83388200D03*
D27*
X122784100Y-121488200D03*
D28*
X120244100Y-121488200D03*
D27*
X153740100Y-159588200D03*
D28*
X151200100Y-159588200D03*
D27*
X146596100Y-83388200D03*
D28*
X144056100Y-83388200D03*
D27*
X132308100Y-159588200D03*
D28*
X129768100Y-159588200D03*
D27*
X203746100Y-83388200D03*
D28*
X201206100Y-83388200D03*
D27*
X113100100Y-159588200D03*
D28*
X115640100Y-159588200D03*
D27*
X108496600Y-83388200D03*
D28*
X105956600Y-83388200D03*
D27*
X89287100Y-159588200D03*
D28*
X91827100Y-159588200D03*
D27*
X89446100Y-83388200D03*
D28*
X86906100Y-83388200D03*
D27*
X189458100Y-140538200D03*
D28*
X186918100Y-140538200D03*
D27*
X194221100Y-102438200D03*
D28*
X191681100Y-102438200D03*
D27*
X91827100Y-140538200D03*
D28*
X89287100Y-140538200D03*
D27*
X208508100Y-140538200D03*
D28*
X205968100Y-140538200D03*
D27*
X191840100Y-159588200D03*
D28*
X189300100Y-159588200D03*
D27*
X177552100Y-159588200D03*
D28*
X175012100Y-159588200D03*
D27*
X208508100Y-159588200D03*
D28*
X205968100Y-159588200D03*
D27*
X139452100Y-159588200D03*
D28*
X136912100Y-159588200D03*
D27*
X134531100Y-159588200D03*
D28*
X137071100Y-159588200D03*
D27*
X113259100Y-159588200D03*
D28*
X110719100Y-159588200D03*
D27*
X94209100Y-159588200D03*
D28*
X91669100Y-159588200D03*
D27*
X118021100Y-159588200D03*
D28*
X115481100Y-159588200D03*
D29*
X107939100Y-121018200D03*
D27*
X268040100Y-159588200D03*
D28*
X265500100Y-159588200D03*
D27*
X267881100Y-159588200D03*
D28*
X270421100Y-159588200D03*
D27*
X272644100Y-159588200D03*
D28*
X275184100Y-159588200D03*
D27*
X237084100Y-159588200D03*
D28*
X234544100Y-159588200D03*
D27*
X291852100Y-159588200D03*
D28*
X289312100Y-159588200D03*
D27*
X313283100Y-159588200D03*
D28*
X310743100Y-159588200D03*
D27*
X313125100Y-159588200D03*
D28*
X315665100Y-159588200D03*
D27*
X329952100Y-159588200D03*
D28*
X327412100Y-159588200D03*
D27*
X351225100Y-159588200D03*
D28*
X353765100Y-159588200D03*
D27*
X375196100Y-102438200D03*
D28*
X372656100Y-102438200D03*
D27*
X313283100Y-121488200D03*
D28*
X310743100Y-121488200D03*
D27*
X256134100Y-121488200D03*
D28*
X253594100Y-121488200D03*
D27*
X327571100Y-102438200D03*
D28*
X325031100Y-102438200D03*
D27*
X270421100Y-102438200D03*
D28*
X267881100Y-102438200D03*
D27*
X337096100Y-83388200D03*
D28*
X334556100Y-83388200D03*
D27*
X279946100Y-83388200D03*
D28*
X277406100Y-83388200D03*
D27*
X356146100Y-159588200D03*
D28*
X353606100Y-159588200D03*
D27*
X265658100Y-140538200D03*
D28*
X263118100Y-140538200D03*
D27*
X329952100Y-140538200D03*
D28*
X327412100Y-140538200D03*
D27*
X337096100Y-159588200D03*
D28*
X334556100Y-159588200D03*
D27*
X306140100Y-159588200D03*
D28*
X303600100Y-159588200D03*
D27*
X318046100Y-83388200D03*
D28*
X315506100Y-83388200D03*
D27*
X375196100Y-159588200D03*
D28*
X372656100Y-159588200D03*
D27*
X308521100Y-102438200D03*
D28*
X305981100Y-102438200D03*
D27*
X294234100Y-121488200D03*
D28*
X291694100Y-121488200D03*
D27*
X246609100Y-140538200D03*
D28*
X244069100Y-140538200D03*
D27*
X375196100Y-121488200D03*
D28*
X372656100Y-121488200D03*
D27*
X303759100Y-140538200D03*
D28*
X301219100Y-140538200D03*
D27*
X241846100Y-83388200D03*
D28*
X239306100Y-83388200D03*
D27*
X375196100Y-140538200D03*
D28*
X372656100Y-140538200D03*
D27*
X318046100Y-159588200D03*
D28*
X315506100Y-159588200D03*
D27*
X232321100Y-102438200D03*
D28*
X229781100Y-102438200D03*
D27*
X375196100Y-83388200D03*
D28*
X372656100Y-83388200D03*
D27*
X218033100Y-121488200D03*
D28*
X215493100Y-121488200D03*
D27*
X356146100Y-83388200D03*
D28*
X353606100Y-83388200D03*
D27*
X227559100Y-140538200D03*
D28*
X225019100Y-140538200D03*
D27*
X351383100Y-102438200D03*
D28*
X348843100Y-102438200D03*
D27*
X284708100Y-140538200D03*
D28*
X282168100Y-140538200D03*
D27*
X356146100Y-140538200D03*
D28*
X353606100Y-140538200D03*
D27*
X275184100Y-121488200D03*
D28*
X272644100Y-121488200D03*
D27*
X344240100Y-121488200D03*
D28*
X341700100Y-121488200D03*
D27*
X298996100Y-83388200D03*
D28*
X296456100Y-83388200D03*
D27*
X289471100Y-102438200D03*
D28*
X286931100Y-102438200D03*
D27*
X284708100Y-159588200D03*
D28*
X282168100Y-159588200D03*
D27*
X260896100Y-83388200D03*
D28*
X258356100Y-83388200D03*
D27*
X251371100Y-102438200D03*
D28*
X248831100Y-102438200D03*
D27*
X237084100Y-121488200D03*
D28*
X234544100Y-121488200D03*
D27*
X244227100Y-159588200D03*
D28*
X241687100Y-159588200D03*
D27*
X213271100Y-102438200D03*
D28*
X210731100Y-102438200D03*
D27*
X222796100Y-83388200D03*
D28*
X220256100Y-83388200D03*
D27*
X346621100Y-83388200D03*
D28*
X344081100Y-83388200D03*
D27*
X332333100Y-121488200D03*
D28*
X329793100Y-121488200D03*
D27*
X347415100Y-118313200D03*
D28*
X347415100Y-115773200D03*
D27*
X301219100Y-159588200D03*
D28*
X303759100Y-159588200D03*
D27*
X298996100Y-159588200D03*
D28*
X296456100Y-159588200D03*
D27*
X279946100Y-159588200D03*
D28*
X277406100Y-159588200D03*
D27*
X279787100Y-159588200D03*
D28*
X282327100Y-159588200D03*
D27*
X236925100Y-159588200D03*
D28*
X239465100Y-159588200D03*
D27*
X339477100Y-140538200D03*
D28*
X336937100Y-140538200D03*
D29*
X363462100Y-117043200D03*
D27*
X353765100Y-121488200D03*
D28*
X351225100Y-121488200D03*
D27*
X294075100Y-159588200D03*
D28*
X296615100Y-159588200D03*
D27*
X272802100Y-159588200D03*
D28*
X270262100Y-159588200D03*
D25*
X207270100Y-171653200D03*
X183394100Y-171653200D03*
D26*
X207270100Y-156413200D03*
X183394100Y-156413200D03*
D25*
X202508100Y-171653200D03*
X178632100Y-171653200D03*
D26*
X202508100Y-156413200D03*
X178632100Y-156413200D03*
D25*
X209651100Y-171653200D03*
X185775100Y-171653200D03*
D26*
X209651100Y-156413200D03*
X185775100Y-156413200D03*
D25*
X354908100Y-133553200D03*
X331032100Y-133553200D03*
D26*
X354908100Y-118313200D03*
X331032100Y-118313200D03*
D25*
X333413100Y-81483200D03*
X357289100Y-81483200D03*
D26*
X333413100Y-96723200D03*
X357289100Y-96723200D03*
D25*
X326269100Y-138633200D03*
X350145100Y-138633200D03*
D26*
X326269100Y-153873200D03*
X350145100Y-153873200D03*
D25*
X250133100Y-171653200D03*
X226257100Y-171653200D03*
D26*
X250133100Y-156413200D03*
X226257100Y-156413200D03*
D25*
X247752100Y-171653200D03*
X223876100Y-171653200D03*
D26*
X247752100Y-156413200D03*
X223876100Y-156413200D03*
D25*
X254895100Y-171653200D03*
X231019100Y-171653200D03*
D26*
X254895100Y-156413200D03*
X231019100Y-156413200D03*
D18*
X304870100Y-164668200D03*
D19*
X309950100Y-164668200D03*
X299790100Y-164668200D03*
D21*
X308588100Y-167008200D03*
X307278100Y-168468200D03*
D20*
X302437100Y-169748200D03*
X302477100Y-169168200D03*
D18*
X314395100Y-164668200D03*
D19*
X319475100Y-164668200D03*
X309315100Y-164668200D03*
D21*
X318013100Y-166908200D03*
D20*
X317003100Y-168668200D03*
D21*
X311762100Y-169748200D03*
X311802100Y-169168200D03*
D27*
X96590100Y-121488200D03*
D28*
X94050100Y-121488200D03*
D27*
X91827100Y-121488200D03*
D28*
X89287100Y-121488200D03*
D30*
X224550000Y-69540000D03*
X237100000Y-69540000D03*
D31*
X105918000Y-129794000D03*
D32*
X110998000Y-130810000D03*
X110998000Y-128778000D03*
D33*
X105918000Y-132334000D03*
D34*
X109093000Y-132334000D03*
X106045000Y-127254000D03*
X109093000Y-127254000D03*
D20*
X104914000Y-73025000D03*
X93714000Y-73025000D03*
D35*
X99314000Y-80525000D03*
X96814000Y-80525000D03*
X101814000Y-80525000D03*
D36*
X225298000Y-78486000D03*
D37*
X227838000Y-78486000D03*
X230378000Y-78486000D03*
X232918000Y-78486000D03*
X235458000Y-78486000D03*
X237998000Y-78486000D03*
D38*
X188214000Y-134493000D03*
D39*
X188214000Y-131953000D03*
X188214000Y-129413000D03*
X188214000Y-126873000D03*
X188214000Y-124333000D03*
D38*
X226314000Y-136271000D03*
D39*
X226314000Y-133731000D03*
X226314000Y-131191000D03*
X226314000Y-128651000D03*
X226314000Y-126111000D03*
D16*
X169545000Y-75311000D03*
D17*
X169545000Y-77851000D03*
D16*
X172339000Y-93726000D03*
D17*
X172339000Y-91186000D03*
D16*
X191389000Y-89789000D03*
D17*
X193929000Y-89789000D03*
D38*
X102362000Y-122936000D03*
D39*
X102362000Y-120396000D03*
X102362000Y-117856000D03*
X102362000Y-115316000D03*
X102362000Y-112776000D03*
X102362000Y-110236000D03*
D40*
X102000000Y-72000000D03*
D41*
X102000000Y-69460000D03*
D40*
X98000000Y-72000000D03*
D41*
X98000000Y-69460000D03*
D40*
X94000000Y-72000000D03*
D41*
X94000000Y-69460000D03*
D40*
X119000000Y-72000000D03*
D41*
X119000000Y-69460000D03*
D40*
X115000000Y-72000000D03*
D41*
X115000000Y-69460000D03*
D40*
X111000000Y-72000000D03*
D41*
X111000000Y-69460000D03*
D42*
X208750000Y-82600000D03*
X208750000Y-81330000D03*
X208750000Y-80060000D03*
X208750000Y-83870000D03*
X208750000Y-85140000D03*
X214750000Y-82600000D03*
X214750000Y-81330000D03*
X214750000Y-80060000D03*
X214750000Y-83870000D03*
X214750000Y-85140000D03*
X213750000Y-170800000D03*
X213750000Y-169530000D03*
X213750000Y-168260000D03*
X213750000Y-172070000D03*
X213750000Y-173340000D03*
X221650000Y-170800000D03*
X221650000Y-169530000D03*
X221650000Y-168260000D03*
X221650000Y-172070000D03*
X221650000Y-173340000D03*
D43*
X178425000Y-69600000D03*
X172975000Y-69600000D03*
D44*
X178125000Y-72600000D03*
X173275000Y-72600000D03*
D42*
X231250000Y-183663501D03*
X231250000Y-182393501D03*
X231250000Y-181123501D03*
X231250000Y-184933501D03*
X231250000Y-186203501D03*
X231250000Y-183663501D03*
X231250000Y-182393501D03*
X231250000Y-181123501D03*
X231250000Y-184933501D03*
X231250000Y-186203501D03*
M02*
