G04 #@! TF.GenerationSoftware,KiCad,Pcbnew,(2016-12-18 revision 3ffa37c)-makepkg*
G04 #@! TF.CreationDate,2017-05-18T23:21:56-04:00*
G04 #@! TF.ProjectId,TS65,545336352E6B696361645F7063620000,0.7*
G04 #@! TF.FileFunction,Soldermask,Bot*
G04 #@! TF.FilePolarity,Negative*
%FSLAX46Y46*%
G04 Gerber Fmt 4.6, Leading zero omitted, Abs format (unit mm)*
G04 Created by KiCad (PCBNEW (2016-12-18 revision 3ffa37c)-makepkg) date 05/18/17 23:21:56*
%MOMM*%
%LPD*%
G01*
G04 APERTURE LIST*
%ADD10C,0.150000*%
%ADD11C,0.002540*%
%ADD12C,0.010000*%
%ADD13O,2.003200X3.703200*%
%ADD14R,0.903200X2.003200*%
%ADD15R,1.843200X2.403200*%
%ADD16C,0.609600*%
%ADD17C,0.609600*%
%ADD18R,2.235200X2.235200*%
%ADD19O,2.235200X2.235200*%
%ADD20R,1.203200X1.453200*%
%ADD21C,4.191010*%
%ADD22C,1.905010*%
%ADD23C,2.703200*%
%ADD24O,2.703200X2.703200*%
%ADD25O,2.403200X2.703200*%
%ADD26C,2.103200*%
%ADD27C,2.103200*%
%ADD28C,2.540000*%
%ADD29C,3.479800*%
%ADD30O,1.603200X1.603200*%
%ADD31R,1.603200X1.603200*%
%ADD32R,1.054100X1.203960*%
%ADD33C,6.203200*%
%ADD34R,1.203960X1.054100*%
%ADD35C,3.000000*%
%ADD36R,1.400000X2.051000*%
%ADD37R,2.051000X1.400000*%
%ADD38R,1.453200X1.203200*%
%ADD39R,2.003200X2.103200*%
%ADD40R,0.603200X1.553200*%
%ADD41R,2.103200X2.103200*%
%ADD42O,1.253200X2.103200*%
%ADD43R,2.854960X2.232660*%
%ADD44R,1.703200X3.803200*%
%ADD45R,1.402080X1.402080*%
%ADD46C,0.988060*%
%ADD47C,1.191260*%
%ADD48C,1.188720*%
%ADD49C,2.575560*%
%ADD50C,2.573020*%
%ADD51R,2.003200X1.303200*%
%ADD52C,2.235200*%
%ADD53R,1.953200X0.653200*%
%ADD54R,1.003200X0.753200*%
%ADD55R,1.603200X1.403200*%
%ADD56R,1.930400X2.235200*%
%ADD57O,1.930400X2.235200*%
%ADD58R,2.235200X1.930400*%
%ADD59O,2.235200X1.930400*%
%ADD60R,1.346200X0.711200*%
%ADD61R,0.853200X1.263200*%
%ADD62R,1.903200X1.903200*%
%ADD63C,1.903200*%
%ADD64R,1.203200X1.703200*%
%ADD65C,1.003200*%
%ADD66R,0.603200X1.953200*%
%ADD67R,2.203200X1.603200*%
%ADD68R,1.503200X3.453200*%
%ADD69R,2.028200X0.903200*%
%ADD70O,1.503200X2.003200*%
%ADD71R,1.628200X2.703200*%
%ADD72O,1.203200X1.603200*%
G04 APERTURE END LIST*
D10*
D11*
G36*
X118238400Y-137129960D02*
X118238400Y-137267120D01*
X118238400Y-137378880D01*
X118240940Y-137467780D01*
X118240940Y-137538900D01*
X118243480Y-137592240D01*
X118246020Y-137630340D01*
X118248560Y-137658280D01*
X118253640Y-137673520D01*
X118258720Y-137678600D01*
X118276500Y-137686220D01*
X118319680Y-137696380D01*
X118383180Y-137711620D01*
X118464460Y-137726860D01*
X118560980Y-137747180D01*
X118670200Y-137767500D01*
X118784500Y-137790360D01*
X118911500Y-137813220D01*
X119025800Y-137836080D01*
X119124860Y-137856400D01*
X119206140Y-137874180D01*
X119267100Y-137886880D01*
X119302660Y-137897040D01*
X119312820Y-137902120D01*
X119322980Y-137919900D01*
X119343300Y-137958000D01*
X119368700Y-138016420D01*
X119399180Y-138085000D01*
X119432200Y-138161200D01*
X119465220Y-138245020D01*
X119498240Y-138326300D01*
X119528720Y-138402500D01*
X119554120Y-138471080D01*
X119574440Y-138526960D01*
X119587140Y-138565060D01*
X119589680Y-138580300D01*
X119582060Y-138593000D01*
X119559200Y-138628560D01*
X119523640Y-138681900D01*
X119477920Y-138747940D01*
X119424580Y-138826680D01*
X119366160Y-138913040D01*
X119328060Y-138966380D01*
X119071520Y-139342300D01*
X119071520Y-139509940D01*
X119071520Y-139677580D01*
X119462680Y-140068740D01*
X119853840Y-140459900D01*
X120018940Y-140459900D01*
X120181500Y-140459900D01*
X120552340Y-140205900D01*
X120920640Y-139951900D01*
X121040020Y-140015400D01*
X121156860Y-140081440D01*
X121329580Y-140076360D01*
X121502300Y-140071280D01*
X121880760Y-139161960D01*
X122259220Y-138252640D01*
X122259220Y-138107860D01*
X122259220Y-138044360D01*
X122256680Y-137991020D01*
X122254140Y-137955460D01*
X122251600Y-137942760D01*
X122236360Y-137924980D01*
X122203340Y-137897040D01*
X122157620Y-137861480D01*
X122114440Y-137831000D01*
X121997600Y-137744640D01*
X121901080Y-137663360D01*
X121822340Y-137582080D01*
X121756300Y-137495720D01*
X121697880Y-137396660D01*
X121659780Y-137323000D01*
X121601360Y-137190920D01*
X121568340Y-137071540D01*
X121560720Y-136962320D01*
X121565800Y-136893740D01*
X121611520Y-136728640D01*
X121682640Y-136573700D01*
X121774080Y-136428920D01*
X121890920Y-136296840D01*
X122025540Y-136182540D01*
X122175400Y-136088560D01*
X122195720Y-136078400D01*
X122302400Y-136030140D01*
X122406540Y-135997120D01*
X122505600Y-135976800D01*
X122564020Y-135971720D01*
X122670700Y-135984420D01*
X122790080Y-136017440D01*
X122914540Y-136070780D01*
X123036460Y-136141900D01*
X123150760Y-136225720D01*
X123254900Y-136319700D01*
X123320940Y-136390820D01*
X123381900Y-136479720D01*
X123442860Y-136586400D01*
X123493660Y-136700700D01*
X123534300Y-136809920D01*
X123544460Y-136845480D01*
X123557160Y-136919140D01*
X123562240Y-136987720D01*
X123557160Y-137053760D01*
X123536840Y-137129960D01*
X123506360Y-137223940D01*
X123498740Y-137244260D01*
X123425080Y-137399200D01*
X123328560Y-137541440D01*
X123206640Y-137673520D01*
X123061860Y-137792900D01*
X122962800Y-137861480D01*
X122922160Y-137889420D01*
X122889140Y-137912280D01*
X122873900Y-137924980D01*
X122871360Y-137945300D01*
X122866280Y-137988480D01*
X122866280Y-138044360D01*
X122863740Y-138097700D01*
X122863740Y-138252640D01*
X123232040Y-139136560D01*
X123293000Y-139288960D01*
X123351420Y-139431200D01*
X123407300Y-139565820D01*
X123458100Y-139687740D01*
X123503820Y-139794420D01*
X123541920Y-139885860D01*
X123572400Y-139962060D01*
X123595260Y-140015400D01*
X123610500Y-140045880D01*
X123613040Y-140050960D01*
X123620660Y-140063660D01*
X123635900Y-140071280D01*
X123661300Y-140076360D01*
X123701940Y-140078900D01*
X123762900Y-140078900D01*
X123793380Y-140078900D01*
X123961020Y-140078900D01*
X124080400Y-140015400D01*
X124199780Y-139951900D01*
X124430920Y-140111920D01*
X124514740Y-140167800D01*
X124601100Y-140228760D01*
X124684920Y-140284640D01*
X124756040Y-140332900D01*
X124801760Y-140365920D01*
X124941460Y-140459900D01*
X125106560Y-140459900D01*
X125269120Y-140459900D01*
X125662820Y-140068740D01*
X126053980Y-139677580D01*
X126053980Y-139512480D01*
X126053980Y-139441360D01*
X126051440Y-139393100D01*
X126046360Y-139357540D01*
X126038740Y-139332140D01*
X126023500Y-139306740D01*
X126005720Y-139281340D01*
X125985400Y-139250860D01*
X125952380Y-139200060D01*
X125906660Y-139134020D01*
X125855860Y-139057820D01*
X125797440Y-138974000D01*
X125746640Y-138897800D01*
X125688220Y-138813980D01*
X125637420Y-138737780D01*
X125594240Y-138671740D01*
X125561220Y-138618400D01*
X125538360Y-138582840D01*
X125530740Y-138567600D01*
X125535820Y-138549820D01*
X125551060Y-138509180D01*
X125571380Y-138450760D01*
X125601860Y-138377100D01*
X125634880Y-138293280D01*
X125660280Y-138227240D01*
X125703460Y-138118020D01*
X125739020Y-138034200D01*
X125766960Y-137970700D01*
X125789820Y-137927520D01*
X125805060Y-137902120D01*
X125817760Y-137891960D01*
X125840620Y-137886880D01*
X125883800Y-137876720D01*
X125949840Y-137864020D01*
X126033660Y-137846240D01*
X126132720Y-137828460D01*
X126241940Y-137805600D01*
X126348620Y-137787820D01*
X126462920Y-137764960D01*
X126572140Y-137744640D01*
X126666120Y-137724320D01*
X126747400Y-137709080D01*
X126810900Y-137693840D01*
X126851540Y-137683680D01*
X126866780Y-137678600D01*
X126871860Y-137670980D01*
X126874400Y-137653200D01*
X126876940Y-137622720D01*
X126879480Y-137579540D01*
X126882020Y-137521120D01*
X126884560Y-137442380D01*
X126884560Y-137345860D01*
X126884560Y-137226480D01*
X126887100Y-137079160D01*
X126887100Y-136967400D01*
X126887100Y-136271440D01*
X126854080Y-136253660D01*
X126833760Y-136246040D01*
X126788040Y-136233340D01*
X126722000Y-136220640D01*
X126638180Y-136202860D01*
X126539120Y-136182540D01*
X126427360Y-136162220D01*
X126310520Y-136139360D01*
X126307980Y-136139360D01*
X126191140Y-136116500D01*
X126081920Y-136096180D01*
X125982860Y-136075860D01*
X125901580Y-136058080D01*
X125838080Y-136045380D01*
X125794900Y-136032680D01*
X125774580Y-136027600D01*
X125774580Y-136027600D01*
X125764420Y-136009820D01*
X125746640Y-135971720D01*
X125721240Y-135915840D01*
X125688220Y-135847260D01*
X125655200Y-135771060D01*
X125622180Y-135692320D01*
X125586620Y-135616120D01*
X125556140Y-135545000D01*
X125530740Y-135481500D01*
X125512960Y-135435780D01*
X125502800Y-135407840D01*
X125502800Y-135405300D01*
X125510420Y-135390060D01*
X125533280Y-135354500D01*
X125566300Y-135301160D01*
X125612020Y-135232580D01*
X125665360Y-135153840D01*
X125726320Y-135064940D01*
X125777120Y-134988740D01*
X126053980Y-134587420D01*
X126053980Y-134424860D01*
X126053980Y-134262300D01*
X125662820Y-133868600D01*
X125271660Y-133477440D01*
X125104020Y-133477440D01*
X124936380Y-133477440D01*
X124580780Y-133721280D01*
X124489340Y-133782240D01*
X124402980Y-133843200D01*
X124324240Y-133896540D01*
X124258200Y-133942260D01*
X124207400Y-133977820D01*
X124174380Y-134000680D01*
X124169300Y-134003220D01*
X124110880Y-134043860D01*
X123844180Y-133934640D01*
X123740040Y-133894000D01*
X123661300Y-133860980D01*
X123600340Y-133835580D01*
X123557160Y-133815260D01*
X123529220Y-133800020D01*
X123511440Y-133787320D01*
X123498740Y-133777160D01*
X123493660Y-133764460D01*
X123493660Y-133761920D01*
X123488580Y-133741600D01*
X123478420Y-133695880D01*
X123465720Y-133632380D01*
X123450480Y-133548560D01*
X123430160Y-133449500D01*
X123409840Y-133340280D01*
X123389520Y-133220900D01*
X123386980Y-133208200D01*
X123364120Y-133091360D01*
X123341260Y-132979600D01*
X123323480Y-132880540D01*
X123305700Y-132796720D01*
X123290460Y-132730680D01*
X123280300Y-132684960D01*
X123272680Y-132664640D01*
X123272680Y-132664640D01*
X123265060Y-132659560D01*
X123247280Y-132657020D01*
X123221880Y-132651940D01*
X123181240Y-132649400D01*
X123125360Y-132649400D01*
X123051700Y-132646860D01*
X122960260Y-132646860D01*
X122845960Y-132644320D01*
X122706260Y-132644320D01*
X122564020Y-132644320D01*
X122426860Y-132644320D01*
X122297320Y-132646860D01*
X122180480Y-132646860D01*
X122076340Y-132649400D01*
X121987440Y-132649400D01*
X121921400Y-132651940D01*
X121875680Y-132654480D01*
X121852820Y-132657020D01*
X121852820Y-132657020D01*
X121845200Y-132674800D01*
X121835040Y-132715440D01*
X121819800Y-132784020D01*
X121799480Y-132870380D01*
X121779160Y-132979600D01*
X121753760Y-133106600D01*
X121735980Y-133203120D01*
X121713120Y-133322500D01*
X121692800Y-133436800D01*
X121672480Y-133538400D01*
X121657240Y-133624760D01*
X121642000Y-133693340D01*
X121631840Y-133741600D01*
X121626760Y-133767000D01*
X121626760Y-133767000D01*
X121614060Y-133782240D01*
X121583580Y-133800020D01*
X121537860Y-133822880D01*
X121469280Y-133853360D01*
X121380380Y-133894000D01*
X121314340Y-133919400D01*
X121217820Y-133960040D01*
X121144160Y-133987980D01*
X121090820Y-134010840D01*
X121050180Y-134023540D01*
X121024780Y-134028620D01*
X121004460Y-134031160D01*
X120991760Y-134026080D01*
X120979060Y-134021000D01*
X120976520Y-134018460D01*
X120956200Y-134005760D01*
X120915560Y-133977820D01*
X120859680Y-133937180D01*
X120786020Y-133888920D01*
X120704740Y-133833040D01*
X120613300Y-133772080D01*
X120562500Y-133736520D01*
X120186580Y-133477440D01*
X120018940Y-133477440D01*
X119853840Y-133477440D01*
X119462680Y-133868600D01*
X119071520Y-134259760D01*
X119071520Y-134427400D01*
X119071520Y-134595040D01*
X119348380Y-134996360D01*
X119625240Y-135397680D01*
X119493160Y-135710100D01*
X119452520Y-135799000D01*
X119416960Y-135880280D01*
X119383940Y-135946320D01*
X119358540Y-135997120D01*
X119340760Y-136027600D01*
X119335680Y-136032680D01*
X119315360Y-136037760D01*
X119272180Y-136047920D01*
X119208680Y-136063160D01*
X119124860Y-136078400D01*
X119025800Y-136098720D01*
X118916580Y-136119040D01*
X118799740Y-136141900D01*
X118787040Y-136144440D01*
X118649880Y-136169840D01*
X118530500Y-136192700D01*
X118431440Y-136213020D01*
X118350160Y-136230800D01*
X118291740Y-136246040D01*
X118258720Y-136256200D01*
X118251100Y-136261280D01*
X118248560Y-136276520D01*
X118246020Y-136319700D01*
X118243480Y-136385740D01*
X118240940Y-136472100D01*
X118240940Y-136573700D01*
X118238400Y-136688000D01*
X118238400Y-136815000D01*
X118238400Y-136952160D01*
X118238400Y-136969940D01*
X118238400Y-137129960D01*
X118238400Y-137129960D01*
X118238400Y-137129960D01*
G37*
X118238400Y-137129960D02*
X118238400Y-137267120D01*
X118238400Y-137378880D01*
X118240940Y-137467780D01*
X118240940Y-137538900D01*
X118243480Y-137592240D01*
X118246020Y-137630340D01*
X118248560Y-137658280D01*
X118253640Y-137673520D01*
X118258720Y-137678600D01*
X118276500Y-137686220D01*
X118319680Y-137696380D01*
X118383180Y-137711620D01*
X118464460Y-137726860D01*
X118560980Y-137747180D01*
X118670200Y-137767500D01*
X118784500Y-137790360D01*
X118911500Y-137813220D01*
X119025800Y-137836080D01*
X119124860Y-137856400D01*
X119206140Y-137874180D01*
X119267100Y-137886880D01*
X119302660Y-137897040D01*
X119312820Y-137902120D01*
X119322980Y-137919900D01*
X119343300Y-137958000D01*
X119368700Y-138016420D01*
X119399180Y-138085000D01*
X119432200Y-138161200D01*
X119465220Y-138245020D01*
X119498240Y-138326300D01*
X119528720Y-138402500D01*
X119554120Y-138471080D01*
X119574440Y-138526960D01*
X119587140Y-138565060D01*
X119589680Y-138580300D01*
X119582060Y-138593000D01*
X119559200Y-138628560D01*
X119523640Y-138681900D01*
X119477920Y-138747940D01*
X119424580Y-138826680D01*
X119366160Y-138913040D01*
X119328060Y-138966380D01*
X119071520Y-139342300D01*
X119071520Y-139509940D01*
X119071520Y-139677580D01*
X119462680Y-140068740D01*
X119853840Y-140459900D01*
X120018940Y-140459900D01*
X120181500Y-140459900D01*
X120552340Y-140205900D01*
X120920640Y-139951900D01*
X121040020Y-140015400D01*
X121156860Y-140081440D01*
X121329580Y-140076360D01*
X121502300Y-140071280D01*
X121880760Y-139161960D01*
X122259220Y-138252640D01*
X122259220Y-138107860D01*
X122259220Y-138044360D01*
X122256680Y-137991020D01*
X122254140Y-137955460D01*
X122251600Y-137942760D01*
X122236360Y-137924980D01*
X122203340Y-137897040D01*
X122157620Y-137861480D01*
X122114440Y-137831000D01*
X121997600Y-137744640D01*
X121901080Y-137663360D01*
X121822340Y-137582080D01*
X121756300Y-137495720D01*
X121697880Y-137396660D01*
X121659780Y-137323000D01*
X121601360Y-137190920D01*
X121568340Y-137071540D01*
X121560720Y-136962320D01*
X121565800Y-136893740D01*
X121611520Y-136728640D01*
X121682640Y-136573700D01*
X121774080Y-136428920D01*
X121890920Y-136296840D01*
X122025540Y-136182540D01*
X122175400Y-136088560D01*
X122195720Y-136078400D01*
X122302400Y-136030140D01*
X122406540Y-135997120D01*
X122505600Y-135976800D01*
X122564020Y-135971720D01*
X122670700Y-135984420D01*
X122790080Y-136017440D01*
X122914540Y-136070780D01*
X123036460Y-136141900D01*
X123150760Y-136225720D01*
X123254900Y-136319700D01*
X123320940Y-136390820D01*
X123381900Y-136479720D01*
X123442860Y-136586400D01*
X123493660Y-136700700D01*
X123534300Y-136809920D01*
X123544460Y-136845480D01*
X123557160Y-136919140D01*
X123562240Y-136987720D01*
X123557160Y-137053760D01*
X123536840Y-137129960D01*
X123506360Y-137223940D01*
X123498740Y-137244260D01*
X123425080Y-137399200D01*
X123328560Y-137541440D01*
X123206640Y-137673520D01*
X123061860Y-137792900D01*
X122962800Y-137861480D01*
X122922160Y-137889420D01*
X122889140Y-137912280D01*
X122873900Y-137924980D01*
X122871360Y-137945300D01*
X122866280Y-137988480D01*
X122866280Y-138044360D01*
X122863740Y-138097700D01*
X122863740Y-138252640D01*
X123232040Y-139136560D01*
X123293000Y-139288960D01*
X123351420Y-139431200D01*
X123407300Y-139565820D01*
X123458100Y-139687740D01*
X123503820Y-139794420D01*
X123541920Y-139885860D01*
X123572400Y-139962060D01*
X123595260Y-140015400D01*
X123610500Y-140045880D01*
X123613040Y-140050960D01*
X123620660Y-140063660D01*
X123635900Y-140071280D01*
X123661300Y-140076360D01*
X123701940Y-140078900D01*
X123762900Y-140078900D01*
X123793380Y-140078900D01*
X123961020Y-140078900D01*
X124080400Y-140015400D01*
X124199780Y-139951900D01*
X124430920Y-140111920D01*
X124514740Y-140167800D01*
X124601100Y-140228760D01*
X124684920Y-140284640D01*
X124756040Y-140332900D01*
X124801760Y-140365920D01*
X124941460Y-140459900D01*
X125106560Y-140459900D01*
X125269120Y-140459900D01*
X125662820Y-140068740D01*
X126053980Y-139677580D01*
X126053980Y-139512480D01*
X126053980Y-139441360D01*
X126051440Y-139393100D01*
X126046360Y-139357540D01*
X126038740Y-139332140D01*
X126023500Y-139306740D01*
X126005720Y-139281340D01*
X125985400Y-139250860D01*
X125952380Y-139200060D01*
X125906660Y-139134020D01*
X125855860Y-139057820D01*
X125797440Y-138974000D01*
X125746640Y-138897800D01*
X125688220Y-138813980D01*
X125637420Y-138737780D01*
X125594240Y-138671740D01*
X125561220Y-138618400D01*
X125538360Y-138582840D01*
X125530740Y-138567600D01*
X125535820Y-138549820D01*
X125551060Y-138509180D01*
X125571380Y-138450760D01*
X125601860Y-138377100D01*
X125634880Y-138293280D01*
X125660280Y-138227240D01*
X125703460Y-138118020D01*
X125739020Y-138034200D01*
X125766960Y-137970700D01*
X125789820Y-137927520D01*
X125805060Y-137902120D01*
X125817760Y-137891960D01*
X125840620Y-137886880D01*
X125883800Y-137876720D01*
X125949840Y-137864020D01*
X126033660Y-137846240D01*
X126132720Y-137828460D01*
X126241940Y-137805600D01*
X126348620Y-137787820D01*
X126462920Y-137764960D01*
X126572140Y-137744640D01*
X126666120Y-137724320D01*
X126747400Y-137709080D01*
X126810900Y-137693840D01*
X126851540Y-137683680D01*
X126866780Y-137678600D01*
X126871860Y-137670980D01*
X126874400Y-137653200D01*
X126876940Y-137622720D01*
X126879480Y-137579540D01*
X126882020Y-137521120D01*
X126884560Y-137442380D01*
X126884560Y-137345860D01*
X126884560Y-137226480D01*
X126887100Y-137079160D01*
X126887100Y-136967400D01*
X126887100Y-136271440D01*
X126854080Y-136253660D01*
X126833760Y-136246040D01*
X126788040Y-136233340D01*
X126722000Y-136220640D01*
X126638180Y-136202860D01*
X126539120Y-136182540D01*
X126427360Y-136162220D01*
X126310520Y-136139360D01*
X126307980Y-136139360D01*
X126191140Y-136116500D01*
X126081920Y-136096180D01*
X125982860Y-136075860D01*
X125901580Y-136058080D01*
X125838080Y-136045380D01*
X125794900Y-136032680D01*
X125774580Y-136027600D01*
X125774580Y-136027600D01*
X125764420Y-136009820D01*
X125746640Y-135971720D01*
X125721240Y-135915840D01*
X125688220Y-135847260D01*
X125655200Y-135771060D01*
X125622180Y-135692320D01*
X125586620Y-135616120D01*
X125556140Y-135545000D01*
X125530740Y-135481500D01*
X125512960Y-135435780D01*
X125502800Y-135407840D01*
X125502800Y-135405300D01*
X125510420Y-135390060D01*
X125533280Y-135354500D01*
X125566300Y-135301160D01*
X125612020Y-135232580D01*
X125665360Y-135153840D01*
X125726320Y-135064940D01*
X125777120Y-134988740D01*
X126053980Y-134587420D01*
X126053980Y-134424860D01*
X126053980Y-134262300D01*
X125662820Y-133868600D01*
X125271660Y-133477440D01*
X125104020Y-133477440D01*
X124936380Y-133477440D01*
X124580780Y-133721280D01*
X124489340Y-133782240D01*
X124402980Y-133843200D01*
X124324240Y-133896540D01*
X124258200Y-133942260D01*
X124207400Y-133977820D01*
X124174380Y-134000680D01*
X124169300Y-134003220D01*
X124110880Y-134043860D01*
X123844180Y-133934640D01*
X123740040Y-133894000D01*
X123661300Y-133860980D01*
X123600340Y-133835580D01*
X123557160Y-133815260D01*
X123529220Y-133800020D01*
X123511440Y-133787320D01*
X123498740Y-133777160D01*
X123493660Y-133764460D01*
X123493660Y-133761920D01*
X123488580Y-133741600D01*
X123478420Y-133695880D01*
X123465720Y-133632380D01*
X123450480Y-133548560D01*
X123430160Y-133449500D01*
X123409840Y-133340280D01*
X123389520Y-133220900D01*
X123386980Y-133208200D01*
X123364120Y-133091360D01*
X123341260Y-132979600D01*
X123323480Y-132880540D01*
X123305700Y-132796720D01*
X123290460Y-132730680D01*
X123280300Y-132684960D01*
X123272680Y-132664640D01*
X123272680Y-132664640D01*
X123265060Y-132659560D01*
X123247280Y-132657020D01*
X123221880Y-132651940D01*
X123181240Y-132649400D01*
X123125360Y-132649400D01*
X123051700Y-132646860D01*
X122960260Y-132646860D01*
X122845960Y-132644320D01*
X122706260Y-132644320D01*
X122564020Y-132644320D01*
X122426860Y-132644320D01*
X122297320Y-132646860D01*
X122180480Y-132646860D01*
X122076340Y-132649400D01*
X121987440Y-132649400D01*
X121921400Y-132651940D01*
X121875680Y-132654480D01*
X121852820Y-132657020D01*
X121852820Y-132657020D01*
X121845200Y-132674800D01*
X121835040Y-132715440D01*
X121819800Y-132784020D01*
X121799480Y-132870380D01*
X121779160Y-132979600D01*
X121753760Y-133106600D01*
X121735980Y-133203120D01*
X121713120Y-133322500D01*
X121692800Y-133436800D01*
X121672480Y-133538400D01*
X121657240Y-133624760D01*
X121642000Y-133693340D01*
X121631840Y-133741600D01*
X121626760Y-133767000D01*
X121626760Y-133767000D01*
X121614060Y-133782240D01*
X121583580Y-133800020D01*
X121537860Y-133822880D01*
X121469280Y-133853360D01*
X121380380Y-133894000D01*
X121314340Y-133919400D01*
X121217820Y-133960040D01*
X121144160Y-133987980D01*
X121090820Y-134010840D01*
X121050180Y-134023540D01*
X121024780Y-134028620D01*
X121004460Y-134031160D01*
X120991760Y-134026080D01*
X120979060Y-134021000D01*
X120976520Y-134018460D01*
X120956200Y-134005760D01*
X120915560Y-133977820D01*
X120859680Y-133937180D01*
X120786020Y-133888920D01*
X120704740Y-133833040D01*
X120613300Y-133772080D01*
X120562500Y-133736520D01*
X120186580Y-133477440D01*
X120018940Y-133477440D01*
X119853840Y-133477440D01*
X119462680Y-133868600D01*
X119071520Y-134259760D01*
X119071520Y-134427400D01*
X119071520Y-134595040D01*
X119348380Y-134996360D01*
X119625240Y-135397680D01*
X119493160Y-135710100D01*
X119452520Y-135799000D01*
X119416960Y-135880280D01*
X119383940Y-135946320D01*
X119358540Y-135997120D01*
X119340760Y-136027600D01*
X119335680Y-136032680D01*
X119315360Y-136037760D01*
X119272180Y-136047920D01*
X119208680Y-136063160D01*
X119124860Y-136078400D01*
X119025800Y-136098720D01*
X118916580Y-136119040D01*
X118799740Y-136141900D01*
X118787040Y-136144440D01*
X118649880Y-136169840D01*
X118530500Y-136192700D01*
X118431440Y-136213020D01*
X118350160Y-136230800D01*
X118291740Y-136246040D01*
X118258720Y-136256200D01*
X118251100Y-136261280D01*
X118248560Y-136276520D01*
X118246020Y-136319700D01*
X118243480Y-136385740D01*
X118240940Y-136472100D01*
X118240940Y-136573700D01*
X118238400Y-136688000D01*
X118238400Y-136815000D01*
X118238400Y-136952160D01*
X118238400Y-136969940D01*
X118238400Y-137129960D01*
X118238400Y-137129960D01*
D12*
G36*
X136488780Y-135072560D02*
X138886540Y-135072560D01*
X138886540Y-135804080D01*
X136488780Y-135804080D01*
X136488780Y-137135040D01*
X136488722Y-137297721D01*
X136488553Y-137454699D01*
X136488278Y-137604785D01*
X136487906Y-137746789D01*
X136487443Y-137879525D01*
X136486896Y-138001802D01*
X136486272Y-138112433D01*
X136485578Y-138210230D01*
X136484821Y-138294004D01*
X136484008Y-138362566D01*
X136483145Y-138414728D01*
X136482240Y-138449302D01*
X136481300Y-138465099D01*
X136481014Y-138466000D01*
X136471703Y-138459138D01*
X136450532Y-138440068D01*
X136419898Y-138411056D01*
X136382200Y-138374374D01*
X136341461Y-138333920D01*
X136209674Y-138201840D01*
X133958940Y-138201840D01*
X133958940Y-137480480D01*
X136356700Y-137480480D01*
X136356700Y-133406320D01*
X130753507Y-133406320D01*
X131586581Y-134239440D01*
X132419654Y-135072560D01*
X134680300Y-135072560D01*
X134680300Y-135804080D01*
X134154492Y-135804079D01*
X133628683Y-135804079D01*
X132955612Y-136477208D01*
X132282540Y-137150336D01*
X132282541Y-137841217D01*
X132282541Y-138532097D01*
X132955669Y-139205168D01*
X133628797Y-139878240D01*
X140552939Y-139878240D01*
X140550467Y-137480480D01*
X138886540Y-137480480D01*
X138886540Y-138201840D01*
X138606971Y-138201840D01*
X138380996Y-137975697D01*
X138155020Y-137749554D01*
X138155020Y-137480480D01*
X138886540Y-137480480D01*
X140550467Y-137480480D01*
X140550320Y-137338404D01*
X140547700Y-134798569D01*
X140654380Y-134904452D01*
X140698035Y-134947181D01*
X140731773Y-134978178D01*
X140759667Y-135000448D01*
X140785791Y-135016995D01*
X140814216Y-135030826D01*
X140840065Y-135041447D01*
X140919069Y-135072559D01*
X141769811Y-135072559D01*
X142620552Y-135072560D01*
X142803221Y-135255440D01*
X142985889Y-135438319D01*
X142803220Y-135621199D01*
X142620552Y-135804080D01*
X140684860Y-135804080D01*
X140684860Y-139878240D01*
X145653100Y-139878240D01*
X145653100Y-138201840D01*
X142351100Y-138201840D01*
X142351100Y-137480480D01*
X142881989Y-137480480D01*
X143412878Y-137480479D01*
X144086098Y-136807202D01*
X144759319Y-136133924D01*
X144756630Y-135483862D01*
X144756024Y-135370299D01*
X144755185Y-135262415D01*
X144754144Y-135161983D01*
X144752931Y-135070775D01*
X144751578Y-134990563D01*
X144750116Y-134923119D01*
X144748575Y-134870215D01*
X144746985Y-134833623D01*
X144745379Y-134815116D01*
X144744960Y-134813480D01*
X144748937Y-134813940D01*
X144765252Y-134827033D01*
X144791928Y-134850972D01*
X144826984Y-134883972D01*
X144868443Y-134924245D01*
X144877171Y-134932860D01*
X145018364Y-135072560D01*
X145785180Y-135072560D01*
X145785180Y-139878240D01*
X147451420Y-139878240D01*
X147451420Y-135072560D01*
X148218547Y-135072560D01*
X149051621Y-134239440D01*
X149884694Y-133406320D01*
X136488780Y-133406320D01*
X136488780Y-135072560D01*
X136488780Y-135072560D01*
G37*
X136488780Y-135072560D02*
X138886540Y-135072560D01*
X138886540Y-135804080D01*
X136488780Y-135804080D01*
X136488780Y-137135040D01*
X136488722Y-137297721D01*
X136488553Y-137454699D01*
X136488278Y-137604785D01*
X136487906Y-137746789D01*
X136487443Y-137879525D01*
X136486896Y-138001802D01*
X136486272Y-138112433D01*
X136485578Y-138210230D01*
X136484821Y-138294004D01*
X136484008Y-138362566D01*
X136483145Y-138414728D01*
X136482240Y-138449302D01*
X136481300Y-138465099D01*
X136481014Y-138466000D01*
X136471703Y-138459138D01*
X136450532Y-138440068D01*
X136419898Y-138411056D01*
X136382200Y-138374374D01*
X136341461Y-138333920D01*
X136209674Y-138201840D01*
X133958940Y-138201840D01*
X133958940Y-137480480D01*
X136356700Y-137480480D01*
X136356700Y-133406320D01*
X130753507Y-133406320D01*
X131586581Y-134239440D01*
X132419654Y-135072560D01*
X134680300Y-135072560D01*
X134680300Y-135804080D01*
X134154492Y-135804079D01*
X133628683Y-135804079D01*
X132955612Y-136477208D01*
X132282540Y-137150336D01*
X132282541Y-137841217D01*
X132282541Y-138532097D01*
X132955669Y-139205168D01*
X133628797Y-139878240D01*
X140552939Y-139878240D01*
X140550467Y-137480480D01*
X138886540Y-137480480D01*
X138886540Y-138201840D01*
X138606971Y-138201840D01*
X138380996Y-137975697D01*
X138155020Y-137749554D01*
X138155020Y-137480480D01*
X138886540Y-137480480D01*
X140550467Y-137480480D01*
X140550320Y-137338404D01*
X140547700Y-134798569D01*
X140654380Y-134904452D01*
X140698035Y-134947181D01*
X140731773Y-134978178D01*
X140759667Y-135000448D01*
X140785791Y-135016995D01*
X140814216Y-135030826D01*
X140840065Y-135041447D01*
X140919069Y-135072559D01*
X141769811Y-135072559D01*
X142620552Y-135072560D01*
X142803221Y-135255440D01*
X142985889Y-135438319D01*
X142803220Y-135621199D01*
X142620552Y-135804080D01*
X140684860Y-135804080D01*
X140684860Y-139878240D01*
X145653100Y-139878240D01*
X145653100Y-138201840D01*
X142351100Y-138201840D01*
X142351100Y-137480480D01*
X142881989Y-137480480D01*
X143412878Y-137480479D01*
X144086098Y-136807202D01*
X144759319Y-136133924D01*
X144756630Y-135483862D01*
X144756024Y-135370299D01*
X144755185Y-135262415D01*
X144754144Y-135161983D01*
X144752931Y-135070775D01*
X144751578Y-134990563D01*
X144750116Y-134923119D01*
X144748575Y-134870215D01*
X144746985Y-134833623D01*
X144745379Y-134815116D01*
X144744960Y-134813480D01*
X144748937Y-134813940D01*
X144765252Y-134827033D01*
X144791928Y-134850972D01*
X144826984Y-134883972D01*
X144868443Y-134924245D01*
X144877171Y-134932860D01*
X145018364Y-135072560D01*
X145785180Y-135072560D01*
X145785180Y-139878240D01*
X147451420Y-139878240D01*
X147451420Y-135072560D01*
X148218547Y-135072560D01*
X149051621Y-134239440D01*
X149884694Y-133406320D01*
X136488780Y-133406320D01*
X136488780Y-135072560D01*
D11*
G36*
X290812000Y-137129960D02*
X290812000Y-137267120D01*
X290812000Y-137378880D01*
X290814540Y-137467780D01*
X290814540Y-137538900D01*
X290817080Y-137592240D01*
X290819620Y-137630340D01*
X290822160Y-137658280D01*
X290827240Y-137673520D01*
X290832320Y-137678600D01*
X290850100Y-137686220D01*
X290893280Y-137696380D01*
X290956780Y-137711620D01*
X291038060Y-137726860D01*
X291134580Y-137747180D01*
X291243800Y-137767500D01*
X291358100Y-137790360D01*
X291485100Y-137813220D01*
X291599400Y-137836080D01*
X291698460Y-137856400D01*
X291779740Y-137874180D01*
X291840700Y-137886880D01*
X291876260Y-137897040D01*
X291886420Y-137902120D01*
X291896580Y-137919900D01*
X291916900Y-137958000D01*
X291942300Y-138016420D01*
X291972780Y-138085000D01*
X292005800Y-138161200D01*
X292038820Y-138245020D01*
X292071840Y-138326300D01*
X292102320Y-138402500D01*
X292127720Y-138471080D01*
X292148040Y-138526960D01*
X292160740Y-138565060D01*
X292163280Y-138580300D01*
X292155660Y-138593000D01*
X292132800Y-138628560D01*
X292097240Y-138681900D01*
X292051520Y-138747940D01*
X291998180Y-138826680D01*
X291939760Y-138913040D01*
X291901660Y-138966380D01*
X291645120Y-139342300D01*
X291645120Y-139509940D01*
X291645120Y-139677580D01*
X292036280Y-140068740D01*
X292427440Y-140459900D01*
X292592540Y-140459900D01*
X292755100Y-140459900D01*
X293125940Y-140205900D01*
X293494240Y-139951900D01*
X293613620Y-140015400D01*
X293730460Y-140081440D01*
X293903180Y-140076360D01*
X294075900Y-140071280D01*
X294454360Y-139161960D01*
X294832820Y-138252640D01*
X294832820Y-138107860D01*
X294832820Y-138044360D01*
X294830280Y-137991020D01*
X294827740Y-137955460D01*
X294825200Y-137942760D01*
X294809960Y-137924980D01*
X294776940Y-137897040D01*
X294731220Y-137861480D01*
X294688040Y-137831000D01*
X294571200Y-137744640D01*
X294474680Y-137663360D01*
X294395940Y-137582080D01*
X294329900Y-137495720D01*
X294271480Y-137396660D01*
X294233380Y-137323000D01*
X294174960Y-137190920D01*
X294141940Y-137071540D01*
X294134320Y-136962320D01*
X294139400Y-136893740D01*
X294185120Y-136728640D01*
X294256240Y-136573700D01*
X294347680Y-136428920D01*
X294464520Y-136296840D01*
X294599140Y-136182540D01*
X294749000Y-136088560D01*
X294769320Y-136078400D01*
X294876000Y-136030140D01*
X294980140Y-135997120D01*
X295079200Y-135976800D01*
X295137620Y-135971720D01*
X295244300Y-135984420D01*
X295363680Y-136017440D01*
X295488140Y-136070780D01*
X295610060Y-136141900D01*
X295724360Y-136225720D01*
X295828500Y-136319700D01*
X295894540Y-136390820D01*
X295955500Y-136479720D01*
X296016460Y-136586400D01*
X296067260Y-136700700D01*
X296107900Y-136809920D01*
X296118060Y-136845480D01*
X296130760Y-136919140D01*
X296135840Y-136987720D01*
X296130760Y-137053760D01*
X296110440Y-137129960D01*
X296079960Y-137223940D01*
X296072340Y-137244260D01*
X295998680Y-137399200D01*
X295902160Y-137541440D01*
X295780240Y-137673520D01*
X295635460Y-137792900D01*
X295536400Y-137861480D01*
X295495760Y-137889420D01*
X295462740Y-137912280D01*
X295447500Y-137924980D01*
X295444960Y-137945300D01*
X295439880Y-137988480D01*
X295439880Y-138044360D01*
X295437340Y-138097700D01*
X295437340Y-138252640D01*
X295805640Y-139136560D01*
X295866600Y-139288960D01*
X295925020Y-139431200D01*
X295980900Y-139565820D01*
X296031700Y-139687740D01*
X296077420Y-139794420D01*
X296115520Y-139885860D01*
X296146000Y-139962060D01*
X296168860Y-140015400D01*
X296184100Y-140045880D01*
X296186640Y-140050960D01*
X296194260Y-140063660D01*
X296209500Y-140071280D01*
X296234900Y-140076360D01*
X296275540Y-140078900D01*
X296336500Y-140078900D01*
X296366980Y-140078900D01*
X296534620Y-140078900D01*
X296654000Y-140015400D01*
X296773380Y-139951900D01*
X297004520Y-140111920D01*
X297088340Y-140167800D01*
X297174700Y-140228760D01*
X297258520Y-140284640D01*
X297329640Y-140332900D01*
X297375360Y-140365920D01*
X297515060Y-140459900D01*
X297680160Y-140459900D01*
X297842720Y-140459900D01*
X298236420Y-140068740D01*
X298627580Y-139677580D01*
X298627580Y-139512480D01*
X298627580Y-139441360D01*
X298625040Y-139393100D01*
X298619960Y-139357540D01*
X298612340Y-139332140D01*
X298597100Y-139306740D01*
X298579320Y-139281340D01*
X298559000Y-139250860D01*
X298525980Y-139200060D01*
X298480260Y-139134020D01*
X298429460Y-139057820D01*
X298371040Y-138974000D01*
X298320240Y-138897800D01*
X298261820Y-138813980D01*
X298211020Y-138737780D01*
X298167840Y-138671740D01*
X298134820Y-138618400D01*
X298111960Y-138582840D01*
X298104340Y-138567600D01*
X298109420Y-138549820D01*
X298124660Y-138509180D01*
X298144980Y-138450760D01*
X298175460Y-138377100D01*
X298208480Y-138293280D01*
X298233880Y-138227240D01*
X298277060Y-138118020D01*
X298312620Y-138034200D01*
X298340560Y-137970700D01*
X298363420Y-137927520D01*
X298378660Y-137902120D01*
X298391360Y-137891960D01*
X298414220Y-137886880D01*
X298457400Y-137876720D01*
X298523440Y-137864020D01*
X298607260Y-137846240D01*
X298706320Y-137828460D01*
X298815540Y-137805600D01*
X298922220Y-137787820D01*
X299036520Y-137764960D01*
X299145740Y-137744640D01*
X299239720Y-137724320D01*
X299321000Y-137709080D01*
X299384500Y-137693840D01*
X299425140Y-137683680D01*
X299440380Y-137678600D01*
X299445460Y-137670980D01*
X299448000Y-137653200D01*
X299450540Y-137622720D01*
X299453080Y-137579540D01*
X299455620Y-137521120D01*
X299458160Y-137442380D01*
X299458160Y-137345860D01*
X299458160Y-137226480D01*
X299460700Y-137079160D01*
X299460700Y-136967400D01*
X299460700Y-136271440D01*
X299427680Y-136253660D01*
X299407360Y-136246040D01*
X299361640Y-136233340D01*
X299295600Y-136220640D01*
X299211780Y-136202860D01*
X299112720Y-136182540D01*
X299000960Y-136162220D01*
X298884120Y-136139360D01*
X298881580Y-136139360D01*
X298764740Y-136116500D01*
X298655520Y-136096180D01*
X298556460Y-136075860D01*
X298475180Y-136058080D01*
X298411680Y-136045380D01*
X298368500Y-136032680D01*
X298348180Y-136027600D01*
X298348180Y-136027600D01*
X298338020Y-136009820D01*
X298320240Y-135971720D01*
X298294840Y-135915840D01*
X298261820Y-135847260D01*
X298228800Y-135771060D01*
X298195780Y-135692320D01*
X298160220Y-135616120D01*
X298129740Y-135545000D01*
X298104340Y-135481500D01*
X298086560Y-135435780D01*
X298076400Y-135407840D01*
X298076400Y-135405300D01*
X298084020Y-135390060D01*
X298106880Y-135354500D01*
X298139900Y-135301160D01*
X298185620Y-135232580D01*
X298238960Y-135153840D01*
X298299920Y-135064940D01*
X298350720Y-134988740D01*
X298627580Y-134587420D01*
X298627580Y-134424860D01*
X298627580Y-134262300D01*
X298236420Y-133868600D01*
X297845260Y-133477440D01*
X297677620Y-133477440D01*
X297509980Y-133477440D01*
X297154380Y-133721280D01*
X297062940Y-133782240D01*
X296976580Y-133843200D01*
X296897840Y-133896540D01*
X296831800Y-133942260D01*
X296781000Y-133977820D01*
X296747980Y-134000680D01*
X296742900Y-134003220D01*
X296684480Y-134043860D01*
X296417780Y-133934640D01*
X296313640Y-133894000D01*
X296234900Y-133860980D01*
X296173940Y-133835580D01*
X296130760Y-133815260D01*
X296102820Y-133800020D01*
X296085040Y-133787320D01*
X296072340Y-133777160D01*
X296067260Y-133764460D01*
X296067260Y-133761920D01*
X296062180Y-133741600D01*
X296052020Y-133695880D01*
X296039320Y-133632380D01*
X296024080Y-133548560D01*
X296003760Y-133449500D01*
X295983440Y-133340280D01*
X295963120Y-133220900D01*
X295960580Y-133208200D01*
X295937720Y-133091360D01*
X295914860Y-132979600D01*
X295897080Y-132880540D01*
X295879300Y-132796720D01*
X295864060Y-132730680D01*
X295853900Y-132684960D01*
X295846280Y-132664640D01*
X295846280Y-132664640D01*
X295838660Y-132659560D01*
X295820880Y-132657020D01*
X295795480Y-132651940D01*
X295754840Y-132649400D01*
X295698960Y-132649400D01*
X295625300Y-132646860D01*
X295533860Y-132646860D01*
X295419560Y-132644320D01*
X295279860Y-132644320D01*
X295137620Y-132644320D01*
X295000460Y-132644320D01*
X294870920Y-132646860D01*
X294754080Y-132646860D01*
X294649940Y-132649400D01*
X294561040Y-132649400D01*
X294495000Y-132651940D01*
X294449280Y-132654480D01*
X294426420Y-132657020D01*
X294426420Y-132657020D01*
X294418800Y-132674800D01*
X294408640Y-132715440D01*
X294393400Y-132784020D01*
X294373080Y-132870380D01*
X294352760Y-132979600D01*
X294327360Y-133106600D01*
X294309580Y-133203120D01*
X294286720Y-133322500D01*
X294266400Y-133436800D01*
X294246080Y-133538400D01*
X294230840Y-133624760D01*
X294215600Y-133693340D01*
X294205440Y-133741600D01*
X294200360Y-133767000D01*
X294200360Y-133767000D01*
X294187660Y-133782240D01*
X294157180Y-133800020D01*
X294111460Y-133822880D01*
X294042880Y-133853360D01*
X293953980Y-133894000D01*
X293887940Y-133919400D01*
X293791420Y-133960040D01*
X293717760Y-133987980D01*
X293664420Y-134010840D01*
X293623780Y-134023540D01*
X293598380Y-134028620D01*
X293578060Y-134031160D01*
X293565360Y-134026080D01*
X293552660Y-134021000D01*
X293550120Y-134018460D01*
X293529800Y-134005760D01*
X293489160Y-133977820D01*
X293433280Y-133937180D01*
X293359620Y-133888920D01*
X293278340Y-133833040D01*
X293186900Y-133772080D01*
X293136100Y-133736520D01*
X292760180Y-133477440D01*
X292592540Y-133477440D01*
X292427440Y-133477440D01*
X292036280Y-133868600D01*
X291645120Y-134259760D01*
X291645120Y-134427400D01*
X291645120Y-134595040D01*
X291921980Y-134996360D01*
X292198840Y-135397680D01*
X292066760Y-135710100D01*
X292026120Y-135799000D01*
X291990560Y-135880280D01*
X291957540Y-135946320D01*
X291932140Y-135997120D01*
X291914360Y-136027600D01*
X291909280Y-136032680D01*
X291888960Y-136037760D01*
X291845780Y-136047920D01*
X291782280Y-136063160D01*
X291698460Y-136078400D01*
X291599400Y-136098720D01*
X291490180Y-136119040D01*
X291373340Y-136141900D01*
X291360640Y-136144440D01*
X291223480Y-136169840D01*
X291104100Y-136192700D01*
X291005040Y-136213020D01*
X290923760Y-136230800D01*
X290865340Y-136246040D01*
X290832320Y-136256200D01*
X290824700Y-136261280D01*
X290822160Y-136276520D01*
X290819620Y-136319700D01*
X290817080Y-136385740D01*
X290814540Y-136472100D01*
X290814540Y-136573700D01*
X290812000Y-136688000D01*
X290812000Y-136815000D01*
X290812000Y-136952160D01*
X290812000Y-136969940D01*
X290812000Y-137129960D01*
X290812000Y-137129960D01*
X290812000Y-137129960D01*
G37*
X290812000Y-137129960D02*
X290812000Y-137267120D01*
X290812000Y-137378880D01*
X290814540Y-137467780D01*
X290814540Y-137538900D01*
X290817080Y-137592240D01*
X290819620Y-137630340D01*
X290822160Y-137658280D01*
X290827240Y-137673520D01*
X290832320Y-137678600D01*
X290850100Y-137686220D01*
X290893280Y-137696380D01*
X290956780Y-137711620D01*
X291038060Y-137726860D01*
X291134580Y-137747180D01*
X291243800Y-137767500D01*
X291358100Y-137790360D01*
X291485100Y-137813220D01*
X291599400Y-137836080D01*
X291698460Y-137856400D01*
X291779740Y-137874180D01*
X291840700Y-137886880D01*
X291876260Y-137897040D01*
X291886420Y-137902120D01*
X291896580Y-137919900D01*
X291916900Y-137958000D01*
X291942300Y-138016420D01*
X291972780Y-138085000D01*
X292005800Y-138161200D01*
X292038820Y-138245020D01*
X292071840Y-138326300D01*
X292102320Y-138402500D01*
X292127720Y-138471080D01*
X292148040Y-138526960D01*
X292160740Y-138565060D01*
X292163280Y-138580300D01*
X292155660Y-138593000D01*
X292132800Y-138628560D01*
X292097240Y-138681900D01*
X292051520Y-138747940D01*
X291998180Y-138826680D01*
X291939760Y-138913040D01*
X291901660Y-138966380D01*
X291645120Y-139342300D01*
X291645120Y-139509940D01*
X291645120Y-139677580D01*
X292036280Y-140068740D01*
X292427440Y-140459900D01*
X292592540Y-140459900D01*
X292755100Y-140459900D01*
X293125940Y-140205900D01*
X293494240Y-139951900D01*
X293613620Y-140015400D01*
X293730460Y-140081440D01*
X293903180Y-140076360D01*
X294075900Y-140071280D01*
X294454360Y-139161960D01*
X294832820Y-138252640D01*
X294832820Y-138107860D01*
X294832820Y-138044360D01*
X294830280Y-137991020D01*
X294827740Y-137955460D01*
X294825200Y-137942760D01*
X294809960Y-137924980D01*
X294776940Y-137897040D01*
X294731220Y-137861480D01*
X294688040Y-137831000D01*
X294571200Y-137744640D01*
X294474680Y-137663360D01*
X294395940Y-137582080D01*
X294329900Y-137495720D01*
X294271480Y-137396660D01*
X294233380Y-137323000D01*
X294174960Y-137190920D01*
X294141940Y-137071540D01*
X294134320Y-136962320D01*
X294139400Y-136893740D01*
X294185120Y-136728640D01*
X294256240Y-136573700D01*
X294347680Y-136428920D01*
X294464520Y-136296840D01*
X294599140Y-136182540D01*
X294749000Y-136088560D01*
X294769320Y-136078400D01*
X294876000Y-136030140D01*
X294980140Y-135997120D01*
X295079200Y-135976800D01*
X295137620Y-135971720D01*
X295244300Y-135984420D01*
X295363680Y-136017440D01*
X295488140Y-136070780D01*
X295610060Y-136141900D01*
X295724360Y-136225720D01*
X295828500Y-136319700D01*
X295894540Y-136390820D01*
X295955500Y-136479720D01*
X296016460Y-136586400D01*
X296067260Y-136700700D01*
X296107900Y-136809920D01*
X296118060Y-136845480D01*
X296130760Y-136919140D01*
X296135840Y-136987720D01*
X296130760Y-137053760D01*
X296110440Y-137129960D01*
X296079960Y-137223940D01*
X296072340Y-137244260D01*
X295998680Y-137399200D01*
X295902160Y-137541440D01*
X295780240Y-137673520D01*
X295635460Y-137792900D01*
X295536400Y-137861480D01*
X295495760Y-137889420D01*
X295462740Y-137912280D01*
X295447500Y-137924980D01*
X295444960Y-137945300D01*
X295439880Y-137988480D01*
X295439880Y-138044360D01*
X295437340Y-138097700D01*
X295437340Y-138252640D01*
X295805640Y-139136560D01*
X295866600Y-139288960D01*
X295925020Y-139431200D01*
X295980900Y-139565820D01*
X296031700Y-139687740D01*
X296077420Y-139794420D01*
X296115520Y-139885860D01*
X296146000Y-139962060D01*
X296168860Y-140015400D01*
X296184100Y-140045880D01*
X296186640Y-140050960D01*
X296194260Y-140063660D01*
X296209500Y-140071280D01*
X296234900Y-140076360D01*
X296275540Y-140078900D01*
X296336500Y-140078900D01*
X296366980Y-140078900D01*
X296534620Y-140078900D01*
X296654000Y-140015400D01*
X296773380Y-139951900D01*
X297004520Y-140111920D01*
X297088340Y-140167800D01*
X297174700Y-140228760D01*
X297258520Y-140284640D01*
X297329640Y-140332900D01*
X297375360Y-140365920D01*
X297515060Y-140459900D01*
X297680160Y-140459900D01*
X297842720Y-140459900D01*
X298236420Y-140068740D01*
X298627580Y-139677580D01*
X298627580Y-139512480D01*
X298627580Y-139441360D01*
X298625040Y-139393100D01*
X298619960Y-139357540D01*
X298612340Y-139332140D01*
X298597100Y-139306740D01*
X298579320Y-139281340D01*
X298559000Y-139250860D01*
X298525980Y-139200060D01*
X298480260Y-139134020D01*
X298429460Y-139057820D01*
X298371040Y-138974000D01*
X298320240Y-138897800D01*
X298261820Y-138813980D01*
X298211020Y-138737780D01*
X298167840Y-138671740D01*
X298134820Y-138618400D01*
X298111960Y-138582840D01*
X298104340Y-138567600D01*
X298109420Y-138549820D01*
X298124660Y-138509180D01*
X298144980Y-138450760D01*
X298175460Y-138377100D01*
X298208480Y-138293280D01*
X298233880Y-138227240D01*
X298277060Y-138118020D01*
X298312620Y-138034200D01*
X298340560Y-137970700D01*
X298363420Y-137927520D01*
X298378660Y-137902120D01*
X298391360Y-137891960D01*
X298414220Y-137886880D01*
X298457400Y-137876720D01*
X298523440Y-137864020D01*
X298607260Y-137846240D01*
X298706320Y-137828460D01*
X298815540Y-137805600D01*
X298922220Y-137787820D01*
X299036520Y-137764960D01*
X299145740Y-137744640D01*
X299239720Y-137724320D01*
X299321000Y-137709080D01*
X299384500Y-137693840D01*
X299425140Y-137683680D01*
X299440380Y-137678600D01*
X299445460Y-137670980D01*
X299448000Y-137653200D01*
X299450540Y-137622720D01*
X299453080Y-137579540D01*
X299455620Y-137521120D01*
X299458160Y-137442380D01*
X299458160Y-137345860D01*
X299458160Y-137226480D01*
X299460700Y-137079160D01*
X299460700Y-136967400D01*
X299460700Y-136271440D01*
X299427680Y-136253660D01*
X299407360Y-136246040D01*
X299361640Y-136233340D01*
X299295600Y-136220640D01*
X299211780Y-136202860D01*
X299112720Y-136182540D01*
X299000960Y-136162220D01*
X298884120Y-136139360D01*
X298881580Y-136139360D01*
X298764740Y-136116500D01*
X298655520Y-136096180D01*
X298556460Y-136075860D01*
X298475180Y-136058080D01*
X298411680Y-136045380D01*
X298368500Y-136032680D01*
X298348180Y-136027600D01*
X298348180Y-136027600D01*
X298338020Y-136009820D01*
X298320240Y-135971720D01*
X298294840Y-135915840D01*
X298261820Y-135847260D01*
X298228800Y-135771060D01*
X298195780Y-135692320D01*
X298160220Y-135616120D01*
X298129740Y-135545000D01*
X298104340Y-135481500D01*
X298086560Y-135435780D01*
X298076400Y-135407840D01*
X298076400Y-135405300D01*
X298084020Y-135390060D01*
X298106880Y-135354500D01*
X298139900Y-135301160D01*
X298185620Y-135232580D01*
X298238960Y-135153840D01*
X298299920Y-135064940D01*
X298350720Y-134988740D01*
X298627580Y-134587420D01*
X298627580Y-134424860D01*
X298627580Y-134262300D01*
X298236420Y-133868600D01*
X297845260Y-133477440D01*
X297677620Y-133477440D01*
X297509980Y-133477440D01*
X297154380Y-133721280D01*
X297062940Y-133782240D01*
X296976580Y-133843200D01*
X296897840Y-133896540D01*
X296831800Y-133942260D01*
X296781000Y-133977820D01*
X296747980Y-134000680D01*
X296742900Y-134003220D01*
X296684480Y-134043860D01*
X296417780Y-133934640D01*
X296313640Y-133894000D01*
X296234900Y-133860980D01*
X296173940Y-133835580D01*
X296130760Y-133815260D01*
X296102820Y-133800020D01*
X296085040Y-133787320D01*
X296072340Y-133777160D01*
X296067260Y-133764460D01*
X296067260Y-133761920D01*
X296062180Y-133741600D01*
X296052020Y-133695880D01*
X296039320Y-133632380D01*
X296024080Y-133548560D01*
X296003760Y-133449500D01*
X295983440Y-133340280D01*
X295963120Y-133220900D01*
X295960580Y-133208200D01*
X295937720Y-133091360D01*
X295914860Y-132979600D01*
X295897080Y-132880540D01*
X295879300Y-132796720D01*
X295864060Y-132730680D01*
X295853900Y-132684960D01*
X295846280Y-132664640D01*
X295846280Y-132664640D01*
X295838660Y-132659560D01*
X295820880Y-132657020D01*
X295795480Y-132651940D01*
X295754840Y-132649400D01*
X295698960Y-132649400D01*
X295625300Y-132646860D01*
X295533860Y-132646860D01*
X295419560Y-132644320D01*
X295279860Y-132644320D01*
X295137620Y-132644320D01*
X295000460Y-132644320D01*
X294870920Y-132646860D01*
X294754080Y-132646860D01*
X294649940Y-132649400D01*
X294561040Y-132649400D01*
X294495000Y-132651940D01*
X294449280Y-132654480D01*
X294426420Y-132657020D01*
X294426420Y-132657020D01*
X294418800Y-132674800D01*
X294408640Y-132715440D01*
X294393400Y-132784020D01*
X294373080Y-132870380D01*
X294352760Y-132979600D01*
X294327360Y-133106600D01*
X294309580Y-133203120D01*
X294286720Y-133322500D01*
X294266400Y-133436800D01*
X294246080Y-133538400D01*
X294230840Y-133624760D01*
X294215600Y-133693340D01*
X294205440Y-133741600D01*
X294200360Y-133767000D01*
X294200360Y-133767000D01*
X294187660Y-133782240D01*
X294157180Y-133800020D01*
X294111460Y-133822880D01*
X294042880Y-133853360D01*
X293953980Y-133894000D01*
X293887940Y-133919400D01*
X293791420Y-133960040D01*
X293717760Y-133987980D01*
X293664420Y-134010840D01*
X293623780Y-134023540D01*
X293598380Y-134028620D01*
X293578060Y-134031160D01*
X293565360Y-134026080D01*
X293552660Y-134021000D01*
X293550120Y-134018460D01*
X293529800Y-134005760D01*
X293489160Y-133977820D01*
X293433280Y-133937180D01*
X293359620Y-133888920D01*
X293278340Y-133833040D01*
X293186900Y-133772080D01*
X293136100Y-133736520D01*
X292760180Y-133477440D01*
X292592540Y-133477440D01*
X292427440Y-133477440D01*
X292036280Y-133868600D01*
X291645120Y-134259760D01*
X291645120Y-134427400D01*
X291645120Y-134595040D01*
X291921980Y-134996360D01*
X292198840Y-135397680D01*
X292066760Y-135710100D01*
X292026120Y-135799000D01*
X291990560Y-135880280D01*
X291957540Y-135946320D01*
X291932140Y-135997120D01*
X291914360Y-136027600D01*
X291909280Y-136032680D01*
X291888960Y-136037760D01*
X291845780Y-136047920D01*
X291782280Y-136063160D01*
X291698460Y-136078400D01*
X291599400Y-136098720D01*
X291490180Y-136119040D01*
X291373340Y-136141900D01*
X291360640Y-136144440D01*
X291223480Y-136169840D01*
X291104100Y-136192700D01*
X291005040Y-136213020D01*
X290923760Y-136230800D01*
X290865340Y-136246040D01*
X290832320Y-136256200D01*
X290824700Y-136261280D01*
X290822160Y-136276520D01*
X290819620Y-136319700D01*
X290817080Y-136385740D01*
X290814540Y-136472100D01*
X290814540Y-136573700D01*
X290812000Y-136688000D01*
X290812000Y-136815000D01*
X290812000Y-136952160D01*
X290812000Y-136969940D01*
X290812000Y-137129960D01*
X290812000Y-137129960D01*
D12*
G36*
X310312380Y-135072560D02*
X312710140Y-135072560D01*
X312710140Y-135804080D01*
X310312380Y-135804080D01*
X310312380Y-137135040D01*
X310312322Y-137297721D01*
X310312153Y-137454699D01*
X310311878Y-137604785D01*
X310311506Y-137746789D01*
X310311043Y-137879525D01*
X310310496Y-138001802D01*
X310309872Y-138112433D01*
X310309178Y-138210230D01*
X310308421Y-138294004D01*
X310307608Y-138362566D01*
X310306745Y-138414728D01*
X310305840Y-138449302D01*
X310304900Y-138465099D01*
X310304614Y-138466000D01*
X310295303Y-138459138D01*
X310274132Y-138440068D01*
X310243498Y-138411056D01*
X310205800Y-138374374D01*
X310165061Y-138333920D01*
X310033274Y-138201840D01*
X307782540Y-138201840D01*
X307782540Y-137480480D01*
X310180300Y-137480480D01*
X310180300Y-133406320D01*
X304577107Y-133406320D01*
X305410181Y-134239440D01*
X306243254Y-135072560D01*
X308503900Y-135072560D01*
X308503900Y-135804080D01*
X307978092Y-135804079D01*
X307452283Y-135804079D01*
X306779212Y-136477208D01*
X306106140Y-137150336D01*
X306106141Y-137841217D01*
X306106141Y-138532097D01*
X306779269Y-139205168D01*
X307452397Y-139878240D01*
X314376539Y-139878240D01*
X314374067Y-137480480D01*
X312710140Y-137480480D01*
X312710140Y-138201840D01*
X312430571Y-138201840D01*
X312204596Y-137975697D01*
X311978620Y-137749554D01*
X311978620Y-137480480D01*
X312710140Y-137480480D01*
X314374067Y-137480480D01*
X314373920Y-137338404D01*
X314371300Y-134798569D01*
X314477980Y-134904452D01*
X314521635Y-134947181D01*
X314555373Y-134978178D01*
X314583267Y-135000448D01*
X314609391Y-135016995D01*
X314637816Y-135030826D01*
X314663665Y-135041447D01*
X314742669Y-135072559D01*
X315593411Y-135072559D01*
X316444152Y-135072560D01*
X316626821Y-135255440D01*
X316809489Y-135438319D01*
X316626820Y-135621199D01*
X316444152Y-135804080D01*
X314508460Y-135804080D01*
X314508460Y-139878240D01*
X319476700Y-139878240D01*
X319476700Y-138201840D01*
X316174700Y-138201840D01*
X316174700Y-137480480D01*
X316705589Y-137480480D01*
X317236478Y-137480479D01*
X317909698Y-136807202D01*
X318582919Y-136133924D01*
X318580230Y-135483862D01*
X318579624Y-135370299D01*
X318578785Y-135262415D01*
X318577744Y-135161983D01*
X318576531Y-135070775D01*
X318575178Y-134990563D01*
X318573716Y-134923119D01*
X318572175Y-134870215D01*
X318570585Y-134833623D01*
X318568979Y-134815116D01*
X318568560Y-134813480D01*
X318572537Y-134813940D01*
X318588852Y-134827033D01*
X318615528Y-134850972D01*
X318650584Y-134883972D01*
X318692043Y-134924245D01*
X318700771Y-134932860D01*
X318841964Y-135072560D01*
X319608780Y-135072560D01*
X319608780Y-139878240D01*
X321275020Y-139878240D01*
X321275020Y-135072560D01*
X322042147Y-135072560D01*
X322875221Y-134239440D01*
X323708294Y-133406320D01*
X310312380Y-133406320D01*
X310312380Y-135072560D01*
X310312380Y-135072560D01*
G37*
X310312380Y-135072560D02*
X312710140Y-135072560D01*
X312710140Y-135804080D01*
X310312380Y-135804080D01*
X310312380Y-137135040D01*
X310312322Y-137297721D01*
X310312153Y-137454699D01*
X310311878Y-137604785D01*
X310311506Y-137746789D01*
X310311043Y-137879525D01*
X310310496Y-138001802D01*
X310309872Y-138112433D01*
X310309178Y-138210230D01*
X310308421Y-138294004D01*
X310307608Y-138362566D01*
X310306745Y-138414728D01*
X310305840Y-138449302D01*
X310304900Y-138465099D01*
X310304614Y-138466000D01*
X310295303Y-138459138D01*
X310274132Y-138440068D01*
X310243498Y-138411056D01*
X310205800Y-138374374D01*
X310165061Y-138333920D01*
X310033274Y-138201840D01*
X307782540Y-138201840D01*
X307782540Y-137480480D01*
X310180300Y-137480480D01*
X310180300Y-133406320D01*
X304577107Y-133406320D01*
X305410181Y-134239440D01*
X306243254Y-135072560D01*
X308503900Y-135072560D01*
X308503900Y-135804080D01*
X307978092Y-135804079D01*
X307452283Y-135804079D01*
X306779212Y-136477208D01*
X306106140Y-137150336D01*
X306106141Y-137841217D01*
X306106141Y-138532097D01*
X306779269Y-139205168D01*
X307452397Y-139878240D01*
X314376539Y-139878240D01*
X314374067Y-137480480D01*
X312710140Y-137480480D01*
X312710140Y-138201840D01*
X312430571Y-138201840D01*
X312204596Y-137975697D01*
X311978620Y-137749554D01*
X311978620Y-137480480D01*
X312710140Y-137480480D01*
X314374067Y-137480480D01*
X314373920Y-137338404D01*
X314371300Y-134798569D01*
X314477980Y-134904452D01*
X314521635Y-134947181D01*
X314555373Y-134978178D01*
X314583267Y-135000448D01*
X314609391Y-135016995D01*
X314637816Y-135030826D01*
X314663665Y-135041447D01*
X314742669Y-135072559D01*
X315593411Y-135072559D01*
X316444152Y-135072560D01*
X316626821Y-135255440D01*
X316809489Y-135438319D01*
X316626820Y-135621199D01*
X316444152Y-135804080D01*
X314508460Y-135804080D01*
X314508460Y-139878240D01*
X319476700Y-139878240D01*
X319476700Y-138201840D01*
X316174700Y-138201840D01*
X316174700Y-137480480D01*
X316705589Y-137480480D01*
X317236478Y-137480479D01*
X317909698Y-136807202D01*
X318582919Y-136133924D01*
X318580230Y-135483862D01*
X318579624Y-135370299D01*
X318578785Y-135262415D01*
X318577744Y-135161983D01*
X318576531Y-135070775D01*
X318575178Y-134990563D01*
X318573716Y-134923119D01*
X318572175Y-134870215D01*
X318570585Y-134833623D01*
X318568979Y-134815116D01*
X318568560Y-134813480D01*
X318572537Y-134813940D01*
X318588852Y-134827033D01*
X318615528Y-134850972D01*
X318650584Y-134883972D01*
X318692043Y-134924245D01*
X318700771Y-134932860D01*
X318841964Y-135072560D01*
X319608780Y-135072560D01*
X319608780Y-139878240D01*
X321275020Y-139878240D01*
X321275020Y-135072560D01*
X322042147Y-135072560D01*
X322875221Y-134239440D01*
X323708294Y-133406320D01*
X310312380Y-133406320D01*
X310312380Y-135072560D01*
D13*
X199600000Y-80700000D03*
X183800000Y-80700000D03*
D14*
X191700000Y-81600000D03*
X192700000Y-81600000D03*
X193700000Y-81600000D03*
X194700000Y-81600000D03*
X195700000Y-81600000D03*
X190700000Y-81600000D03*
X189700000Y-81600000D03*
X188700000Y-81600000D03*
X187700000Y-81600000D03*
D15*
X199370000Y-76700000D03*
X184030000Y-76700000D03*
D16*
X150263885Y-73555885D03*
D17*
X150791924Y-74083924D02*
X149735846Y-73027846D01*
D16*
X150829641Y-72990129D03*
D17*
X151357680Y-73518168D02*
X150301602Y-72462090D01*
D16*
X151395397Y-72424372D03*
D17*
X151923436Y-72952411D02*
X150867358Y-71896333D01*
D16*
X151961153Y-71858616D03*
D17*
X152489192Y-72386655D02*
X151433114Y-71330577D01*
D16*
X152526909Y-71292860D03*
D17*
X153054948Y-71820899D02*
X151998870Y-70764821D01*
D16*
X153092665Y-70727104D03*
D17*
X153620704Y-71255143D02*
X152564626Y-70199065D01*
D16*
X149698129Y-74121641D03*
D17*
X150226168Y-74649680D02*
X149170090Y-73593602D01*
D16*
X149132372Y-74687397D03*
D17*
X149660411Y-75215436D02*
X148604333Y-74159358D01*
D16*
X148566616Y-75253153D03*
D17*
X149094655Y-75781192D02*
X148038577Y-74725114D01*
D16*
X148000860Y-75818909D03*
D17*
X148528899Y-76346948D02*
X147472821Y-75290870D01*
D16*
X147435104Y-76384665D03*
D17*
X147963143Y-76912704D02*
X146907065Y-75856626D01*
D16*
X158346115Y-81638115D03*
D17*
X158874154Y-82166154D02*
X157818076Y-81110076D01*
D16*
X158911871Y-81072359D03*
D17*
X159439910Y-81600398D02*
X158383832Y-80544320D01*
D16*
X159477628Y-80506603D03*
D17*
X160005667Y-81034642D02*
X158949589Y-79978564D01*
D16*
X160043384Y-79940847D03*
D17*
X160571423Y-80468886D02*
X159515345Y-79412808D01*
D16*
X160609140Y-79375091D03*
D17*
X161137179Y-79903130D02*
X160081101Y-78847052D01*
D16*
X161174896Y-78809335D03*
D17*
X161702935Y-79337374D02*
X160646857Y-78281296D01*
D16*
X157780359Y-82203871D03*
D17*
X158308398Y-82731910D02*
X157252320Y-81675832D01*
D16*
X157214603Y-82769628D03*
D17*
X157742642Y-83297667D02*
X156686564Y-82241589D01*
D16*
X156648847Y-83335384D03*
D17*
X157176886Y-83863423D02*
X156120808Y-82807345D01*
D16*
X156083091Y-83901140D03*
D17*
X156611130Y-84429179D02*
X155555052Y-83373101D01*
D16*
X155517335Y-84466896D03*
D17*
X156045374Y-84994935D02*
X154989296Y-83938857D01*
D16*
X158346115Y-73555885D03*
D17*
X158874154Y-73027846D02*
X157818076Y-74083924D01*
D16*
X150263885Y-81638115D03*
D17*
X150791924Y-81110076D02*
X149735846Y-82166154D01*
D16*
X158911871Y-74121641D03*
D17*
X159439910Y-73593602D02*
X158383832Y-74649680D01*
D16*
X150829641Y-82203871D03*
D17*
X151357680Y-81675832D02*
X150301602Y-82731910D01*
D16*
X151395397Y-82769628D03*
D17*
X151923436Y-82241589D02*
X150867358Y-83297667D01*
D16*
X159477628Y-74687397D03*
D17*
X160005667Y-74159358D02*
X158949589Y-75215436D01*
D16*
X160043384Y-75253153D03*
D17*
X160571423Y-74725114D02*
X159515345Y-75781192D01*
D16*
X151961153Y-83335384D03*
D17*
X152489192Y-82807345D02*
X151433114Y-83863423D01*
D16*
X152526909Y-83901140D03*
D17*
X153054948Y-83373101D02*
X151998870Y-84429179D01*
D16*
X160609140Y-75818909D03*
D17*
X161137179Y-75290870D02*
X160081101Y-76346948D01*
D16*
X161174896Y-76384665D03*
D17*
X161702935Y-75856626D02*
X160646857Y-76912704D01*
D16*
X153092665Y-84466896D03*
D17*
X153620704Y-83938857D02*
X152564626Y-84994935D01*
D16*
X149698129Y-81072359D03*
D17*
X150226168Y-80544320D02*
X149170090Y-81600398D01*
D16*
X157780359Y-72990129D03*
D17*
X158308398Y-72462090D02*
X157252320Y-73518168D01*
D16*
X157214603Y-72424372D03*
D17*
X157742642Y-71896333D02*
X156686564Y-72952411D01*
D16*
X149132372Y-80506603D03*
D17*
X149660411Y-79978564D02*
X148604333Y-81034642D01*
D16*
X148566616Y-79940847D03*
D17*
X149094655Y-79412808D02*
X148038577Y-80468886D01*
D16*
X156648847Y-71858616D03*
D17*
X157176886Y-71330577D02*
X156120808Y-72386655D01*
D16*
X156083091Y-71292860D03*
D17*
X156611130Y-70764821D02*
X155555052Y-71820899D01*
D16*
X148000860Y-79375091D03*
D17*
X148528899Y-78847052D02*
X147472821Y-79903130D01*
D16*
X147435104Y-78809335D03*
D17*
X147963143Y-78281296D02*
X146907065Y-79337374D01*
D16*
X155517335Y-70727104D03*
D17*
X156045374Y-70199065D02*
X154989296Y-71255143D01*
D18*
X193548000Y-93472000D03*
D19*
X191008000Y-93472000D03*
D20*
X145304000Y-69088000D03*
X147304000Y-69088000D03*
D21*
X288201100Y-107518200D03*
D22*
X293281100Y-107518200D03*
X283121100Y-107518200D03*
D23*
X292119100Y-110058200D03*
X290809100Y-111518200D03*
X285768100Y-112598200D03*
X285808100Y-112018200D03*
D21*
X259626100Y-88468200D03*
D22*
X264706100Y-88468200D03*
X254546100Y-88468200D03*
D23*
X263544100Y-91008200D03*
X262234100Y-92468200D03*
X257193100Y-93548200D03*
X257233100Y-92968200D03*
D21*
X281057100Y-164668200D03*
D22*
X286137100Y-164668200D03*
X275977100Y-164668200D03*
D24*
X284575100Y-166808200D03*
X283465100Y-168668200D03*
X278424100Y-169748200D03*
X278464100Y-169168200D03*
D21*
X278676100Y-164668200D03*
D22*
X283756100Y-164668200D03*
X273596100Y-164668200D03*
D23*
X282594100Y-167208200D03*
X281284100Y-168668200D03*
X276243100Y-169748200D03*
X276283100Y-169168200D03*
D21*
X316776100Y-164668200D03*
D22*
X321856100Y-164668200D03*
X311696100Y-164668200D03*
D23*
X320694100Y-167208200D03*
D24*
X319684100Y-168968200D03*
X314543100Y-169748200D03*
X314583100Y-169168200D03*
D21*
X197713100Y-164668200D03*
D22*
X202793100Y-164668200D03*
X192633100Y-164668200D03*
D23*
X201631100Y-167208200D03*
X200321100Y-168668200D03*
X195280100Y-169748200D03*
X195320100Y-169168200D03*
D21*
X164376100Y-164668200D03*
D22*
X169456100Y-164668200D03*
D23*
X168294100Y-167208200D03*
D24*
X167284100Y-168968200D03*
X162143100Y-169748200D03*
X162183100Y-169168200D03*
D21*
X161995100Y-164668200D03*
D22*
X156915100Y-164668200D03*
D24*
X165613100Y-166908200D03*
D23*
X164603100Y-168668200D03*
D24*
X159362100Y-169748200D03*
X159402100Y-169168200D03*
D21*
X159614100Y-164668200D03*
D22*
X154534100Y-164668200D03*
D23*
X163532100Y-167208200D03*
X162222100Y-168668200D03*
X157181100Y-169748200D03*
X157221100Y-169168200D03*
D21*
X154851100Y-164668200D03*
D22*
X149771100Y-164668200D03*
D23*
X158769100Y-167208200D03*
X157459100Y-168668200D03*
X152418100Y-169748200D03*
X152458100Y-169168200D03*
D21*
X166757100Y-164668200D03*
D22*
X171837100Y-164668200D03*
D23*
X170675100Y-167208200D03*
X169365100Y-168668200D03*
X164324100Y-169748200D03*
X164364100Y-169168200D03*
D21*
X140564100Y-164668200D03*
D22*
X145644100Y-164668200D03*
D23*
X144482100Y-167208200D03*
D24*
X143472100Y-168968200D03*
X138331100Y-169748200D03*
X138371100Y-169168200D03*
D21*
X190570100Y-164668200D03*
D22*
X195650100Y-164668200D03*
X185490100Y-164668200D03*
D23*
X194488100Y-167208200D03*
X193178100Y-168668200D03*
X188137100Y-169748200D03*
X188177100Y-169168200D03*
D21*
X195332100Y-164668200D03*
D22*
X200412100Y-164668200D03*
D23*
X199250100Y-167208200D03*
X197940100Y-168668200D03*
X192899100Y-169748200D03*
X192939100Y-169168200D03*
D21*
X164376100Y-88468200D03*
D22*
X169456100Y-88468200D03*
X159296100Y-88468200D03*
D23*
X168294100Y-91008200D03*
X166984100Y-92468200D03*
X161943100Y-93548200D03*
X161983100Y-92968200D03*
D21*
X154851100Y-107518200D03*
D22*
X159931100Y-107518200D03*
X149771100Y-107518200D03*
D23*
X158769100Y-110058200D03*
X157459100Y-111518200D03*
X152418100Y-112598200D03*
X152458100Y-112018200D03*
D21*
X131038100Y-164668200D03*
D22*
X125958100Y-164668200D03*
D23*
X134956100Y-167208200D03*
X133646100Y-168668200D03*
X128605100Y-169748200D03*
X128645100Y-169168200D03*
D21*
X90557100Y-164668200D03*
D22*
X95637100Y-164668200D03*
X85477100Y-164668200D03*
D23*
X94475100Y-167208200D03*
X93165100Y-168668200D03*
X88124100Y-169748200D03*
X88164100Y-169168200D03*
D21*
X92939100Y-164668200D03*
D22*
X98019100Y-164668200D03*
X87859100Y-164668200D03*
D23*
X96857100Y-167208200D03*
X95547100Y-168668200D03*
X90506100Y-169748200D03*
X90546100Y-169168200D03*
D21*
X92939100Y-107518200D03*
D22*
X98019100Y-107518200D03*
X87859100Y-107518200D03*
D23*
X96857100Y-110058200D03*
X95547100Y-111518200D03*
X90506100Y-112598200D03*
X90546100Y-112018200D03*
D21*
X183426100Y-88468200D03*
D22*
X188506100Y-88468200D03*
X178346100Y-88468200D03*
D23*
X187344100Y-91008200D03*
X186034100Y-92468200D03*
X180993100Y-93548200D03*
X181033100Y-92968200D03*
D21*
X207238100Y-145618200D03*
D22*
X212318100Y-145618200D03*
X202158100Y-145618200D03*
D23*
X211156100Y-148158200D03*
X209846100Y-149618200D03*
X204805100Y-150698200D03*
X204845100Y-150118200D03*
D21*
X152470100Y-164668200D03*
D22*
X157550100Y-164668200D03*
X147390100Y-164668200D03*
D23*
X156388100Y-167208200D03*
X155078100Y-168668200D03*
X150037100Y-169748200D03*
X150077100Y-169168200D03*
D21*
X188188100Y-145618200D03*
D22*
X193268100Y-145618200D03*
X183108100Y-145618200D03*
D23*
X192106100Y-148158200D03*
X190796100Y-149618200D03*
X185755100Y-150698200D03*
X185795100Y-150118200D03*
D21*
X169139100Y-145618200D03*
D22*
X174219100Y-145618200D03*
X164059100Y-145618200D03*
D23*
X173057100Y-148158200D03*
X171747100Y-149618200D03*
X166706100Y-150698200D03*
X166746100Y-150118200D03*
D21*
X111989100Y-145618200D03*
D22*
X117069100Y-145618200D03*
X106909100Y-145618200D03*
D23*
X115907100Y-148158200D03*
X114597100Y-149618200D03*
X109556100Y-150698200D03*
X109596100Y-150118200D03*
D21*
X100082100Y-145618200D03*
D22*
X105162100Y-145618200D03*
X95002100Y-145618200D03*
D23*
X104000100Y-148158200D03*
X102690100Y-149618200D03*
X97649100Y-150698200D03*
X97689100Y-150118200D03*
D21*
X90557100Y-145618200D03*
D22*
X95637100Y-145618200D03*
X85477100Y-145618200D03*
D23*
X94475100Y-148158200D03*
X93165100Y-149618200D03*
X88124100Y-150698200D03*
X88164100Y-150118200D03*
D21*
X131038100Y-145618200D03*
D22*
X136118100Y-145618200D03*
X125958100Y-145618200D03*
D23*
X134956100Y-148158200D03*
X133646100Y-149618200D03*
X128605100Y-150698200D03*
X128645100Y-150118200D03*
D21*
X150088100Y-145618200D03*
D22*
X155168100Y-145618200D03*
X145008100Y-145618200D03*
D23*
X154006100Y-148158200D03*
X152696100Y-149618200D03*
X147655100Y-150698200D03*
X147695100Y-150118200D03*
D21*
X121514100Y-126568200D03*
D22*
X126594100Y-126568200D03*
X116434100Y-126568200D03*
D23*
X125432100Y-129108200D03*
X124122100Y-130568200D03*
X119081100Y-131648200D03*
X119121100Y-131068200D03*
D21*
X95320100Y-126568200D03*
D22*
X100400100Y-126568200D03*
D23*
X99238100Y-129108200D03*
X97928100Y-130568200D03*
X92887100Y-131648200D03*
X92927100Y-131068200D03*
D21*
X140564100Y-126568200D03*
D22*
X145644100Y-126568200D03*
X135484100Y-126568200D03*
D23*
X144482100Y-129108200D03*
X143172100Y-130568200D03*
X138131100Y-131648200D03*
X138171100Y-131068200D03*
D21*
X159614100Y-126568200D03*
D22*
X164694100Y-126568200D03*
X154534100Y-126568200D03*
D23*
X163532100Y-129108200D03*
X162222100Y-130568200D03*
X157181100Y-131648200D03*
X157221100Y-131068200D03*
D21*
X197713100Y-126568200D03*
D22*
X202793100Y-126568200D03*
X192633100Y-126568200D03*
D23*
X201631100Y-129108200D03*
X200321100Y-130568200D03*
X195280100Y-131648200D03*
X195320100Y-131068200D03*
D21*
X135801100Y-107518200D03*
D22*
X140881100Y-107518200D03*
X130721100Y-107518200D03*
D23*
X139719100Y-110058200D03*
X138409100Y-111518200D03*
X133368100Y-112598200D03*
X133408100Y-112018200D03*
D21*
X173901100Y-107518200D03*
D22*
X178981100Y-107518200D03*
X168821100Y-107518200D03*
D23*
X177819100Y-110058200D03*
X176509100Y-111518200D03*
X171468100Y-112598200D03*
X171508100Y-112018200D03*
D21*
X202476100Y-88468200D03*
D22*
X207556100Y-88468200D03*
X197396100Y-88468200D03*
D23*
X206394100Y-91008200D03*
X205084100Y-92468200D03*
X200043100Y-93548200D03*
X200083100Y-92968200D03*
D21*
X192951100Y-107518200D03*
D22*
X198031100Y-107518200D03*
X187871100Y-107518200D03*
D23*
X196869100Y-110058200D03*
X195559100Y-111518200D03*
X190518100Y-112598200D03*
X190558100Y-112018200D03*
D21*
X178663100Y-126568200D03*
D22*
X183743100Y-126568200D03*
X173583100Y-126568200D03*
D23*
X182581100Y-129108200D03*
X181271100Y-130568200D03*
X176230100Y-131648200D03*
X176270100Y-131068200D03*
D21*
X116751100Y-107448200D03*
D22*
X121831100Y-107448200D03*
X111671100Y-107448200D03*
D23*
X120669100Y-109988200D03*
X119359100Y-111448200D03*
X114318100Y-112528200D03*
X114358100Y-111948200D03*
D21*
X176282100Y-164668200D03*
D22*
X181362100Y-164668200D03*
X171202100Y-164668200D03*
D23*
X180200100Y-167208200D03*
X178890100Y-168668200D03*
X173849100Y-169748200D03*
X173889100Y-169168200D03*
D21*
X207238100Y-164668200D03*
D22*
X212318100Y-164668200D03*
X202158100Y-164668200D03*
D23*
X211156100Y-167208200D03*
X209846100Y-168668200D03*
X204805100Y-169748200D03*
X204845100Y-169168200D03*
D21*
X138182100Y-164668200D03*
D22*
X143262100Y-164668200D03*
X133102100Y-164668200D03*
D24*
X141800100Y-166908200D03*
D23*
X140790100Y-168668200D03*
D24*
X135549100Y-169748200D03*
X135589100Y-169168200D03*
D21*
X135801100Y-164668200D03*
D23*
X139719100Y-167208200D03*
X138409100Y-168668200D03*
X133368100Y-169748200D03*
X133408100Y-169168200D03*
D21*
X111989100Y-164668200D03*
D22*
X106909100Y-164668200D03*
D23*
X115907100Y-167208200D03*
X114597100Y-168668200D03*
X109556100Y-169748200D03*
X109596100Y-169168200D03*
D21*
X116751100Y-164668200D03*
D22*
X121831100Y-164668200D03*
D23*
X120669100Y-167208200D03*
D24*
X119659100Y-168968200D03*
X114518100Y-169748200D03*
X114558100Y-169168200D03*
D21*
X114370100Y-164668200D03*
D22*
X119450100Y-164668200D03*
X109290100Y-164668200D03*
D24*
X117988100Y-166908200D03*
D23*
X116978100Y-168668200D03*
D24*
X111737100Y-169748200D03*
X111777100Y-169168200D03*
D21*
X295345100Y-164668200D03*
D22*
X300425100Y-164668200D03*
X290265100Y-164668200D03*
D23*
X299263100Y-167208200D03*
X297953100Y-168668200D03*
X292912100Y-169748200D03*
X292952100Y-169168200D03*
D21*
X290582100Y-164668200D03*
D22*
X285502100Y-164668200D03*
D23*
X294500100Y-167208200D03*
X293190100Y-168668200D03*
D24*
X288349100Y-169748200D03*
X288389100Y-169368200D03*
D21*
X302489100Y-164668200D03*
D22*
X307569100Y-164668200D03*
X297409100Y-164668200D03*
D23*
X306407100Y-167208200D03*
X305097100Y-168668200D03*
X300056100Y-169748200D03*
X300096100Y-169168200D03*
D21*
X235814100Y-164668200D03*
D22*
X240894100Y-164668200D03*
X230734100Y-164668200D03*
D23*
X239732100Y-167208200D03*
X238422100Y-168668200D03*
X233381100Y-169748200D03*
X233421100Y-169168200D03*
D21*
X269151100Y-164668200D03*
D22*
X274231100Y-164668200D03*
X264071100Y-164668200D03*
D24*
X272769100Y-166908200D03*
D23*
X271759100Y-168668200D03*
D24*
X266518100Y-169748200D03*
X266558100Y-169168200D03*
D21*
X283438100Y-164668200D03*
D25*
X287256100Y-166908200D03*
D26*
X285996100Y-168841405D03*
D27*
X285846100Y-169101213D02*
X286146100Y-168581597D01*
D24*
X281205100Y-169748200D03*
X281245100Y-169168200D03*
D21*
X312013100Y-164668200D03*
D22*
X306933100Y-164668200D03*
D23*
X315931100Y-167208200D03*
X314621100Y-168668200D03*
D24*
X309780100Y-169748200D03*
X309820100Y-169368200D03*
D21*
X328682100Y-164668200D03*
D22*
X333762100Y-164668200D03*
X323602100Y-164668200D03*
D23*
X332600100Y-167208200D03*
X331290100Y-168668200D03*
X326249100Y-169748200D03*
X326289100Y-169168200D03*
D21*
X352495100Y-164668200D03*
D22*
X357575100Y-164668200D03*
X347415100Y-164668200D03*
D23*
X356413100Y-167208200D03*
X355103100Y-168668200D03*
X350062100Y-169748200D03*
X350102100Y-169168200D03*
D21*
X242957100Y-164668200D03*
D22*
X248037100Y-164668200D03*
X237877100Y-164668200D03*
D23*
X246875100Y-167208200D03*
X245565100Y-168668200D03*
X240524100Y-169748200D03*
X240564100Y-169168200D03*
D21*
X297726100Y-164668200D03*
D22*
X292646100Y-164668200D03*
D23*
X301644100Y-167208200D03*
X300334100Y-168668200D03*
X295293100Y-169748200D03*
X295333100Y-169168200D03*
D21*
X297726100Y-88468200D03*
D22*
X302806100Y-88468200D03*
X292646100Y-88468200D03*
D23*
X301644100Y-91008200D03*
X300334100Y-92468200D03*
X295293100Y-93548200D03*
X295333100Y-92968200D03*
D21*
X269151100Y-107518200D03*
D22*
X274231100Y-107518200D03*
X264071100Y-107518200D03*
D23*
X273069100Y-110058200D03*
X271759100Y-111518200D03*
X266718100Y-112598200D03*
X266758100Y-112018200D03*
D21*
X212001100Y-107518200D03*
D22*
X217081100Y-107518200D03*
X206921100Y-107518200D03*
D23*
X215919100Y-110058200D03*
X214609100Y-111518200D03*
X209568100Y-112598200D03*
X209608100Y-112018200D03*
D21*
X278676100Y-88468200D03*
D22*
X283756100Y-88468200D03*
X273596100Y-88468200D03*
D23*
X282594100Y-91008200D03*
X281284100Y-92468200D03*
X276243100Y-93548200D03*
X276283100Y-92968200D03*
D21*
X316776100Y-88468200D03*
D22*
X321856100Y-88468200D03*
X311696100Y-88468200D03*
D23*
X320694100Y-91008200D03*
X319384100Y-92468200D03*
X314343100Y-93548200D03*
X314383100Y-92968200D03*
D21*
X354876100Y-145618200D03*
D22*
X359956100Y-145618200D03*
X349796100Y-145618200D03*
D23*
X358794100Y-148158200D03*
X357484100Y-149618200D03*
X352443100Y-150698200D03*
X352483100Y-150118200D03*
D21*
X328682100Y-145618200D03*
D22*
X333762100Y-145618200D03*
X323602100Y-145618200D03*
D23*
X332600100Y-148158200D03*
X331290100Y-149618200D03*
X326249100Y-150698200D03*
X326289100Y-150118200D03*
D21*
X302489100Y-145618200D03*
D22*
X307569100Y-145618200D03*
X297409100Y-145618200D03*
D23*
X306407100Y-148158200D03*
X305097100Y-149618200D03*
X300056100Y-150698200D03*
X300096100Y-150118200D03*
D21*
X245339100Y-145618200D03*
D22*
X250419100Y-145618200D03*
X240259100Y-145618200D03*
D23*
X249257100Y-148158200D03*
X247947100Y-149618200D03*
X242906100Y-150698200D03*
X242946100Y-150118200D03*
D21*
X226289100Y-145618200D03*
D22*
X231369100Y-145618200D03*
X221209100Y-145618200D03*
D23*
X230207100Y-148158200D03*
X228897100Y-149618200D03*
X223856100Y-150698200D03*
X223896100Y-150118200D03*
D21*
X264388100Y-145618200D03*
D22*
X269468100Y-145618200D03*
X259308100Y-145618200D03*
D23*
X268306100Y-148158200D03*
X266996100Y-149618200D03*
X261955100Y-150698200D03*
X261995100Y-150118200D03*
D21*
X283438100Y-145618200D03*
D22*
X288518100Y-145618200D03*
X278358100Y-145618200D03*
D23*
X287356100Y-148158200D03*
X286046100Y-149618200D03*
X281005100Y-150698200D03*
X281045100Y-150118200D03*
D21*
X235814100Y-126568200D03*
D22*
X240894100Y-126568200D03*
X230734100Y-126568200D03*
D23*
X239732100Y-129108200D03*
X238422100Y-130568200D03*
X233381100Y-131648200D03*
X233421100Y-131068200D03*
D21*
X254864100Y-126568200D03*
D22*
X259944100Y-126568200D03*
X249784100Y-126568200D03*
D23*
X258782100Y-129108200D03*
X257472100Y-130568200D03*
X252431100Y-131648200D03*
X252471100Y-131068200D03*
D21*
X273914100Y-126568200D03*
D22*
X278994100Y-126568200D03*
X268834100Y-126568200D03*
D23*
X277832100Y-129108200D03*
X276522100Y-130568200D03*
X271481100Y-131648200D03*
X271521100Y-131068200D03*
D21*
X312013100Y-126568200D03*
D22*
X317093100Y-126568200D03*
X306933100Y-126568200D03*
D23*
X315931100Y-129108200D03*
X314621100Y-130568200D03*
X309580100Y-131648200D03*
X309620100Y-131068200D03*
D21*
X250101100Y-107518200D03*
D22*
X255181100Y-107518200D03*
X245021100Y-107518200D03*
D23*
X254019100Y-110058200D03*
X252709100Y-111518200D03*
X247668100Y-112598200D03*
X247708100Y-112018200D03*
D21*
X335826100Y-88468200D03*
D22*
X340906100Y-88468200D03*
X330746100Y-88468200D03*
D23*
X339744100Y-91008200D03*
X338434100Y-92468200D03*
X333393100Y-93548200D03*
X333433100Y-92968200D03*
D21*
X307251100Y-107518200D03*
D22*
X312331100Y-107518200D03*
X302171100Y-107518200D03*
D23*
X311169100Y-110058200D03*
X309859100Y-111518200D03*
X304818100Y-112598200D03*
X304858100Y-112018200D03*
D21*
X221526100Y-88468200D03*
D22*
X226606100Y-88468200D03*
X216446100Y-88468200D03*
D23*
X225444100Y-91008200D03*
X224134100Y-92468200D03*
X219093100Y-93548200D03*
X219133100Y-92968200D03*
D21*
X240576100Y-88468200D03*
D22*
X245656100Y-88468200D03*
X235496100Y-88468200D03*
D23*
X244494100Y-91008200D03*
X243184100Y-92468200D03*
X238143100Y-93548200D03*
X238183100Y-92968200D03*
D21*
X292964100Y-126568200D03*
D22*
X298044100Y-126568200D03*
X287884100Y-126568200D03*
D23*
X296882100Y-129108200D03*
X295572100Y-130568200D03*
X290531100Y-131648200D03*
X290571100Y-131068200D03*
D21*
X231051100Y-107448200D03*
D22*
X236131100Y-107448200D03*
X225971100Y-107448200D03*
D23*
X234969100Y-109988200D03*
X233659100Y-111448200D03*
X228618100Y-112528200D03*
X228658100Y-111948200D03*
D21*
X326301100Y-107518200D03*
D22*
X331381100Y-107518200D03*
X321221100Y-107518200D03*
D23*
X330219100Y-110058200D03*
X328909100Y-111518200D03*
X323868100Y-112598200D03*
X323908100Y-112018200D03*
D21*
X373926100Y-145618200D03*
D22*
X379006100Y-145618200D03*
X368846100Y-145618200D03*
D23*
X377844100Y-148158200D03*
X376534100Y-149618200D03*
X371493100Y-150698200D03*
X371533100Y-150118200D03*
D21*
X373926100Y-88468200D03*
D22*
X379006100Y-88468200D03*
X368846100Y-88468200D03*
D23*
X377844100Y-91008200D03*
X376534100Y-92468200D03*
X371493100Y-93548200D03*
X371533100Y-92968200D03*
D21*
X354876100Y-88468200D03*
D22*
X359956100Y-88468200D03*
X349796100Y-88468200D03*
D23*
X358794100Y-91008200D03*
X357484100Y-92468200D03*
X352443100Y-93548200D03*
X352483100Y-92968200D03*
D21*
X373926100Y-107518200D03*
D22*
X379006100Y-107518200D03*
X368846100Y-107518200D03*
D23*
X377844100Y-110058200D03*
X376534100Y-111518200D03*
X371493100Y-112598200D03*
X371533100Y-112018200D03*
D21*
X350113100Y-107645200D03*
D22*
X355193100Y-107645200D03*
X345033100Y-107645200D03*
D23*
X354031100Y-110185200D03*
X352721100Y-111645200D03*
X347680100Y-112725200D03*
X347720100Y-112145200D03*
D21*
X373926100Y-126568200D03*
D22*
X379006100Y-126568200D03*
X368846100Y-126568200D03*
D23*
X377844100Y-129108200D03*
X376534100Y-130568200D03*
X371493100Y-131648200D03*
X371533100Y-131068200D03*
D21*
X342970100Y-126568200D03*
D22*
X348050100Y-126568200D03*
X337890100Y-126568200D03*
D23*
X346888100Y-129108200D03*
X345578100Y-130568200D03*
X340537100Y-131648200D03*
X340577100Y-131068200D03*
D21*
X216763100Y-126568200D03*
D22*
X221843100Y-126568200D03*
X211683100Y-126568200D03*
D23*
X220681100Y-129108200D03*
X219371100Y-130568200D03*
X214330100Y-131648200D03*
X214370100Y-131068200D03*
D21*
X373926100Y-164668200D03*
D22*
X379006100Y-164668200D03*
X368846100Y-164668200D03*
D23*
X377844100Y-167208200D03*
X376534100Y-168668200D03*
X371493100Y-169748200D03*
X371533100Y-169168200D03*
D21*
X354876100Y-164668200D03*
D22*
X359956100Y-164668200D03*
X349796100Y-164668200D03*
D23*
X358794100Y-167208200D03*
X357484100Y-168668200D03*
X352443100Y-169748200D03*
X352483100Y-169168200D03*
D21*
X335826100Y-164668200D03*
D22*
X340906100Y-164668200D03*
X330746100Y-164668200D03*
D23*
X339744100Y-167208200D03*
X338434100Y-168668200D03*
X333393100Y-169748200D03*
X333433100Y-169168200D03*
D21*
X273914100Y-164668200D03*
D23*
X277832100Y-167208200D03*
X276522100Y-168668200D03*
X271481100Y-169748200D03*
X271521100Y-169168200D03*
D21*
X238195100Y-164668200D03*
D22*
X233115100Y-164668200D03*
D23*
X242113100Y-167208200D03*
X240803100Y-168668200D03*
X235762100Y-169748200D03*
X235802100Y-169168200D03*
D21*
X345351100Y-88468200D03*
D22*
X350431100Y-88468200D03*
X340271100Y-88468200D03*
D23*
X349269100Y-91008200D03*
X347959100Y-92468200D03*
X342918100Y-93548200D03*
X342958100Y-92968200D03*
D21*
X331063100Y-126568200D03*
D22*
X336143100Y-126568200D03*
X325983100Y-126568200D03*
D23*
X334981100Y-129108200D03*
X333671100Y-130568200D03*
X328630100Y-131648200D03*
X328670100Y-131068200D03*
D21*
X352495100Y-117043200D03*
D22*
X352495100Y-122123200D03*
D23*
X355035100Y-113125200D03*
X356495100Y-114435200D03*
X357575100Y-119476200D03*
X356995100Y-119436200D03*
D21*
X338207100Y-145618200D03*
D22*
X343287100Y-145618200D03*
X333127100Y-145618200D03*
D23*
X342125100Y-148158200D03*
X340815100Y-149618200D03*
X335774100Y-150698200D03*
X335814100Y-150118200D03*
D21*
X352495100Y-126568200D03*
D22*
X357575100Y-126568200D03*
X347415100Y-126568200D03*
D23*
X356413100Y-129108200D03*
X355103100Y-130568200D03*
X350062100Y-131648200D03*
X350102100Y-131068200D03*
D21*
X266770100Y-164668200D03*
D22*
X271850100Y-164668200D03*
X261690100Y-164668200D03*
D23*
X270688100Y-167208200D03*
X269378100Y-168668200D03*
X264337100Y-169748200D03*
X264377100Y-169168200D03*
D21*
X271532100Y-164668200D03*
D22*
X276612100Y-164668200D03*
D23*
X275450100Y-167208200D03*
D24*
X274440100Y-168968200D03*
X269299100Y-169748200D03*
X269339100Y-169168200D03*
D21*
X145326100Y-88468200D03*
D22*
X150406100Y-88468200D03*
X140246100Y-88468200D03*
D23*
X149244100Y-91008200D03*
X147934100Y-92468200D03*
X142893100Y-93548200D03*
X142933100Y-92968200D03*
D21*
X126276100Y-88468200D03*
D22*
X131356100Y-88468200D03*
X121196100Y-88468200D03*
D23*
X130194100Y-91008200D03*
X128884100Y-92468200D03*
X123843100Y-93548200D03*
X123883100Y-92968200D03*
D21*
X107226100Y-88468200D03*
D22*
X112306100Y-88468200D03*
X102146100Y-88468200D03*
D23*
X111144100Y-91008200D03*
X109834100Y-92468200D03*
X104793100Y-93548200D03*
X104833100Y-92968200D03*
D21*
X88176100Y-88468200D03*
D22*
X93256100Y-88468200D03*
X83096100Y-88468200D03*
D23*
X92094100Y-91008200D03*
X90784100Y-92468200D03*
X85743100Y-93548200D03*
X85783100Y-92968200D03*
D21*
X90557100Y-126568200D03*
D22*
X85477100Y-126568200D03*
D23*
X94475100Y-129108200D03*
X93165100Y-130568200D03*
X88124100Y-131648200D03*
X88164100Y-131068200D03*
D28*
X359480100Y-105105200D03*
X359480100Y-128981200D03*
D29*
X344240100Y-105105200D03*
X344240100Y-128981200D03*
D28*
X188220100Y-171653200D03*
X164344100Y-171653200D03*
D29*
X188220100Y-156413200D03*
X164344100Y-156413200D03*
D28*
X88144100Y-138633200D03*
X112020100Y-138633200D03*
D29*
X88144100Y-153873200D03*
X112020100Y-153873200D03*
D30*
X196443100Y-159588200D03*
D31*
X198983100Y-159588200D03*
D30*
X165487100Y-159588200D03*
D31*
X168027100Y-159588200D03*
D30*
X165646100Y-159588200D03*
D31*
X163106100Y-159588200D03*
D30*
X160725100Y-159588200D03*
D31*
X163265100Y-159588200D03*
D30*
X160884100Y-159588200D03*
D31*
X158344100Y-159588200D03*
D30*
X153581100Y-159588200D03*
D31*
X156121100Y-159588200D03*
D30*
X139294100Y-159588200D03*
D31*
X141834100Y-159588200D03*
D32*
X159004000Y-90576400D03*
X159004000Y-94076520D03*
D30*
X184696100Y-83388200D03*
D31*
X182156100Y-83388200D03*
D30*
X118021100Y-102438200D03*
D31*
X115481100Y-102438200D03*
D30*
X113259100Y-140538200D03*
D31*
X110719100Y-140538200D03*
D30*
X137071100Y-102438200D03*
D31*
X134531100Y-102438200D03*
D30*
X132308100Y-140538200D03*
D31*
X129768100Y-140538200D03*
D30*
X156121100Y-102438200D03*
D31*
X153581100Y-102438200D03*
D30*
X151358100Y-140538200D03*
D31*
X148818100Y-140538200D03*
D30*
X175171100Y-102438200D03*
D31*
X172631100Y-102438200D03*
D30*
X101352100Y-140538200D03*
D31*
X98812100Y-140538200D03*
D30*
X94209100Y-102438200D03*
D31*
X91669100Y-102438200D03*
D30*
X198983100Y-121488200D03*
D31*
X196443100Y-121488200D03*
D30*
X170409100Y-140538200D03*
D31*
X167869100Y-140538200D03*
D30*
X179933100Y-121488200D03*
D31*
X177393100Y-121488200D03*
D30*
X127546100Y-83388200D03*
D31*
X125006100Y-83388200D03*
D30*
X160884100Y-121488200D03*
D31*
X158344100Y-121488200D03*
D30*
X141834100Y-121488200D03*
D31*
X139294100Y-121488200D03*
D30*
X196602100Y-159588200D03*
D31*
X194062100Y-159588200D03*
D30*
X165646100Y-83388200D03*
D31*
X163106100Y-83388200D03*
D30*
X122784100Y-121488200D03*
D31*
X120244100Y-121488200D03*
D30*
X153740100Y-159588200D03*
D31*
X151200100Y-159588200D03*
D30*
X146596100Y-83388200D03*
D31*
X144056100Y-83388200D03*
D30*
X132308100Y-159588200D03*
D31*
X129768100Y-159588200D03*
D30*
X203746100Y-83388200D03*
D31*
X201206100Y-83388200D03*
D30*
X113100100Y-159588200D03*
D31*
X115640100Y-159588200D03*
D30*
X108496600Y-83388200D03*
D31*
X105956600Y-83388200D03*
D30*
X89287100Y-159588200D03*
D31*
X91827100Y-159588200D03*
D30*
X89446100Y-83388200D03*
D31*
X86906100Y-83388200D03*
D30*
X189458100Y-140538200D03*
D31*
X186918100Y-140538200D03*
D30*
X194221100Y-102438200D03*
D31*
X191681100Y-102438200D03*
D32*
X87446100Y-128320800D03*
X87446100Y-124820680D03*
X118403100Y-128320800D03*
X118403100Y-124820680D03*
X137453100Y-128320800D03*
X137453100Y-124820680D03*
X156503100Y-128320800D03*
X156503100Y-124820680D03*
X175569100Y-128320800D03*
X175569100Y-124820680D03*
X194602100Y-128320800D03*
X194602100Y-124820680D03*
X89829100Y-109270800D03*
X89829100Y-105770680D03*
X113640100Y-109200800D03*
X113640100Y-105700680D03*
X132690100Y-109270800D03*
X132690100Y-105770680D03*
X170790100Y-109270800D03*
X170790100Y-105770680D03*
X189836100Y-109270800D03*
X189836100Y-105770680D03*
X85064600Y-90220800D03*
X85064600Y-86720680D03*
X104114600Y-90220800D03*
X104114600Y-86720680D03*
X180315100Y-90220800D03*
X180315100Y-86720680D03*
X142214600Y-90220800D03*
X142214600Y-86720680D03*
X123164600Y-90220800D03*
X123164600Y-86720680D03*
X151740100Y-109270800D03*
X151740100Y-105770680D03*
X100076000Y-171582080D03*
X100076000Y-168081960D03*
X104394000Y-167449500D03*
X104394000Y-163949380D03*
X127914400Y-166611300D03*
X127914400Y-163111180D03*
X146926300Y-171213780D03*
X146926300Y-167713660D03*
X187490100Y-166039800D03*
X187490100Y-162539680D03*
X199365100Y-90220800D03*
X199365100Y-86720680D03*
X87446100Y-147370800D03*
X87446100Y-143870680D03*
X108879100Y-147370800D03*
X108879100Y-143870680D03*
X127927100Y-147370800D03*
X127927100Y-143870680D03*
X146977100Y-147370800D03*
X146977100Y-143870680D03*
X166029100Y-147370800D03*
X166029100Y-143870680D03*
X185077100Y-147370800D03*
X185077100Y-143870680D03*
D30*
X91827100Y-140538200D03*
D31*
X89287100Y-140538200D03*
D32*
X204127100Y-147370800D03*
X204127100Y-143870680D03*
D30*
X208508100Y-140538200D03*
D31*
X205968100Y-140538200D03*
D30*
X191840100Y-159588200D03*
D31*
X189300100Y-159588200D03*
D30*
X177552100Y-159588200D03*
D31*
X175012100Y-159588200D03*
D30*
X208508100Y-159588200D03*
D31*
X205968100Y-159588200D03*
D30*
X139452100Y-159588200D03*
D31*
X136912100Y-159588200D03*
D30*
X134531100Y-159588200D03*
D31*
X137071100Y-159588200D03*
D30*
X113259100Y-159588200D03*
D31*
X110719100Y-159588200D03*
D30*
X94209100Y-159588200D03*
D31*
X91669100Y-159588200D03*
D30*
X118021100Y-159588200D03*
D31*
X115481100Y-159588200D03*
D33*
X107939100Y-121018200D03*
D30*
X268040100Y-159588200D03*
D31*
X265500100Y-159588200D03*
D30*
X267881100Y-159588200D03*
D31*
X270421100Y-159588200D03*
D30*
X272644100Y-159588200D03*
D31*
X275184100Y-159588200D03*
D30*
X237084100Y-159588200D03*
D31*
X234544100Y-159588200D03*
D30*
X291852100Y-159588200D03*
D31*
X289312100Y-159588200D03*
D30*
X313283100Y-159588200D03*
D31*
X310743100Y-159588200D03*
D30*
X313125100Y-159588200D03*
D31*
X315665100Y-159588200D03*
D30*
X329952100Y-159588200D03*
D31*
X327412100Y-159588200D03*
D30*
X351225100Y-159588200D03*
D31*
X353765100Y-159588200D03*
D32*
X294615100Y-90220800D03*
X294615100Y-86720680D03*
D30*
X375196100Y-102438200D03*
D31*
X372656100Y-102438200D03*
D30*
X313283100Y-121488200D03*
D31*
X310743100Y-121488200D03*
D30*
X256134100Y-121488200D03*
D31*
X253594100Y-121488200D03*
D30*
X327571100Y-102438200D03*
D31*
X325031100Y-102438200D03*
D30*
X270421100Y-102438200D03*
D31*
X267881100Y-102438200D03*
D30*
X337096100Y-83388200D03*
D31*
X334556100Y-83388200D03*
D30*
X279946100Y-83388200D03*
D31*
X277406100Y-83388200D03*
D30*
X356146100Y-159588200D03*
D31*
X353606100Y-159588200D03*
D30*
X265658100Y-140538200D03*
D31*
X263118100Y-140538200D03*
D30*
X329952100Y-140538200D03*
D31*
X327412100Y-140538200D03*
D30*
X337096100Y-159588200D03*
D31*
X334556100Y-159588200D03*
D30*
X306140100Y-159588200D03*
D31*
X303600100Y-159588200D03*
D30*
X318046100Y-83388200D03*
D31*
X315506100Y-83388200D03*
D30*
X375196100Y-159588200D03*
D31*
X372656100Y-159588200D03*
D30*
X308521100Y-102438200D03*
D31*
X305981100Y-102438200D03*
D30*
X294234100Y-121488200D03*
D31*
X291694100Y-121488200D03*
D30*
X246609100Y-140538200D03*
D31*
X244069100Y-140538200D03*
D30*
X375196100Y-121488200D03*
D31*
X372656100Y-121488200D03*
D30*
X303759100Y-140538200D03*
D31*
X301219100Y-140538200D03*
D30*
X241846100Y-83388200D03*
D31*
X239306100Y-83388200D03*
D30*
X375196100Y-140538200D03*
D31*
X372656100Y-140538200D03*
D30*
X318046100Y-159588200D03*
D31*
X315506100Y-159588200D03*
D30*
X232321100Y-102438200D03*
D31*
X229781100Y-102438200D03*
D30*
X375196100Y-83388200D03*
D31*
X372656100Y-83388200D03*
D30*
X218033100Y-121488200D03*
D31*
X215493100Y-121488200D03*
D30*
X356146100Y-83388200D03*
D31*
X353606100Y-83388200D03*
D30*
X227559100Y-140538200D03*
D31*
X225019100Y-140538200D03*
D30*
X351383100Y-102438200D03*
D31*
X348843100Y-102438200D03*
D30*
X284708100Y-140538200D03*
D31*
X282168100Y-140538200D03*
D30*
X356146100Y-140538200D03*
D31*
X353606100Y-140538200D03*
D32*
X213652100Y-128447800D03*
X213652100Y-124947680D03*
X232703100Y-128320800D03*
X232703100Y-124820680D03*
X251753600Y-128320800D03*
X251753600Y-124820680D03*
X270803100Y-128320800D03*
X270803100Y-124820680D03*
X289869100Y-128320800D03*
X289869100Y-124820680D03*
X308919100Y-128320800D03*
X308919100Y-124820680D03*
X208919100Y-109270800D03*
X208919100Y-105770680D03*
X227940100Y-109200800D03*
X227940100Y-105700680D03*
X246990100Y-109270800D03*
X246990100Y-105770680D03*
X285090100Y-109270800D03*
X285090100Y-105770680D03*
X304140100Y-109270800D03*
X304140100Y-105770680D03*
X218414600Y-90220800D03*
X218414600Y-86720680D03*
X237464600Y-90220800D03*
X237464600Y-86720680D03*
X313665100Y-90220800D03*
X313665100Y-86720680D03*
X275564600Y-90220800D03*
X275564600Y-86720680D03*
X256514600Y-90220800D03*
X256514600Y-86720680D03*
X266040100Y-109270800D03*
X266040100Y-105770680D03*
X228358700Y-166395400D03*
X228358700Y-162895280D03*
X259803900Y-169519600D03*
X259803900Y-166019480D03*
X322605400Y-172085000D03*
X322605400Y-168584880D03*
D34*
X292493700Y-172250100D03*
X288993580Y-172250100D03*
D32*
X325589900Y-166751000D03*
X325589900Y-163250880D03*
X223179100Y-147370800D03*
X223179100Y-143870680D03*
X242229100Y-147370800D03*
X242229100Y-143870680D03*
X261277100Y-147370800D03*
X261277100Y-143870680D03*
X280327100Y-147370800D03*
X280327100Y-143870680D03*
X299379100Y-147370800D03*
X299379100Y-143870680D03*
X325571100Y-147370800D03*
X325571100Y-143870680D03*
X351765100Y-147370800D03*
X351765100Y-143870680D03*
D30*
X275184100Y-121488200D03*
D31*
X272644100Y-121488200D03*
D32*
X323190100Y-109270800D03*
X323190100Y-105770680D03*
X370815100Y-147370800D03*
X370815100Y-143870680D03*
X370815100Y-90220800D03*
X370815100Y-86720680D03*
X364248700Y-90436700D03*
X364248700Y-86936580D03*
X370815100Y-109270800D03*
X370815100Y-105770680D03*
X346992100Y-109397800D03*
X346992100Y-105897680D03*
X370815100Y-128320800D03*
X370815100Y-124820680D03*
X339869100Y-128320800D03*
X339869100Y-124820680D03*
X332719100Y-90220800D03*
X332719100Y-86720680D03*
X370815100Y-166420800D03*
X370815100Y-162920680D03*
X345109800Y-167068500D03*
X345109800Y-163568380D03*
D30*
X344240100Y-121488200D03*
D31*
X341700100Y-121488200D03*
D30*
X298996100Y-83388200D03*
D31*
X296456100Y-83388200D03*
D30*
X289471100Y-102438200D03*
D31*
X286931100Y-102438200D03*
D30*
X284708100Y-159588200D03*
D31*
X282168100Y-159588200D03*
D30*
X260896100Y-83388200D03*
D31*
X258356100Y-83388200D03*
D30*
X251371100Y-102438200D03*
D31*
X248831100Y-102438200D03*
D30*
X237084100Y-121488200D03*
D31*
X234544100Y-121488200D03*
D30*
X244227100Y-159588200D03*
D31*
X241687100Y-159588200D03*
D30*
X213271100Y-102438200D03*
D31*
X210731100Y-102438200D03*
D30*
X222796100Y-83388200D03*
D31*
X220256100Y-83388200D03*
D30*
X346621100Y-83388200D03*
D31*
X344081100Y-83388200D03*
D30*
X332333100Y-121488200D03*
D31*
X329793100Y-121488200D03*
D30*
X347415100Y-118313200D03*
D31*
X347415100Y-115773200D03*
D30*
X301219100Y-159588200D03*
D31*
X303759100Y-159588200D03*
D30*
X298996100Y-159588200D03*
D31*
X296456100Y-159588200D03*
D30*
X279946100Y-159588200D03*
D31*
X277406100Y-159588200D03*
D30*
X279787100Y-159588200D03*
D31*
X282327100Y-159588200D03*
D30*
X236925100Y-159588200D03*
D31*
X239465100Y-159588200D03*
D30*
X339477100Y-140538200D03*
D31*
X336937100Y-140538200D03*
D33*
X363462100Y-117043200D03*
D30*
X353765100Y-121488200D03*
D31*
X351225100Y-121488200D03*
D32*
X327919100Y-128320800D03*
X327919100Y-124820680D03*
D30*
X294075100Y-159588200D03*
D31*
X296615100Y-159588200D03*
D30*
X272802100Y-159588200D03*
D31*
X270262100Y-159588200D03*
D28*
X207270100Y-171653200D03*
X183394100Y-171653200D03*
D29*
X207270100Y-156413200D03*
X183394100Y-156413200D03*
D28*
X202508100Y-171653200D03*
X178632100Y-171653200D03*
D29*
X202508100Y-156413200D03*
X178632100Y-156413200D03*
D28*
X209651100Y-171653200D03*
X185775100Y-171653200D03*
D29*
X209651100Y-156413200D03*
X185775100Y-156413200D03*
D28*
X354908100Y-133553200D03*
X331032100Y-133553200D03*
D29*
X354908100Y-118313200D03*
X331032100Y-118313200D03*
D28*
X333413100Y-81483200D03*
X357289100Y-81483200D03*
D29*
X333413100Y-96723200D03*
X357289100Y-96723200D03*
D28*
X326269100Y-138633200D03*
X350145100Y-138633200D03*
D29*
X326269100Y-153873200D03*
X350145100Y-153873200D03*
D28*
X250133100Y-171653200D03*
X226257100Y-171653200D03*
D29*
X250133100Y-156413200D03*
X226257100Y-156413200D03*
D28*
X247752100Y-171653200D03*
X223876100Y-171653200D03*
D29*
X247752100Y-156413200D03*
X223876100Y-156413200D03*
D28*
X254895100Y-171653200D03*
X231019100Y-171653200D03*
D29*
X254895100Y-156413200D03*
X231019100Y-156413200D03*
D21*
X304870100Y-164668200D03*
D22*
X309950100Y-164668200D03*
X299790100Y-164668200D03*
D24*
X308588100Y-167008200D03*
X307278100Y-168468200D03*
D23*
X302437100Y-169748200D03*
X302477100Y-169168200D03*
D21*
X314395100Y-164668200D03*
D22*
X319475100Y-164668200D03*
X309315100Y-164668200D03*
D24*
X318013100Y-166908200D03*
D23*
X317003100Y-168668200D03*
D24*
X311762100Y-169748200D03*
X311802100Y-169168200D03*
D35*
X83947000Y-84074000D03*
X200406000Y-73533000D03*
X211328000Y-161544000D03*
X84836000Y-167767000D03*
X223393000Y-72263000D03*
X367792000Y-70104000D03*
X373964200Y-171589700D03*
X224409000Y-168338500D03*
D30*
X96590100Y-121488200D03*
D31*
X94050100Y-121488200D03*
D30*
X91827100Y-121488200D03*
D31*
X89287100Y-121488200D03*
D36*
X91237000Y-94959000D03*
X91237000Y-100113000D03*
X94437000Y-100113000D03*
X94437000Y-94959000D03*
D37*
X128577000Y-97206000D03*
X123423000Y-97206000D03*
X123423000Y-100406000D03*
X128577000Y-100406000D03*
D36*
X158928000Y-97372000D03*
X158928000Y-102526000D03*
X162128000Y-102526000D03*
X162128000Y-97372000D03*
D37*
X194577000Y-97400000D03*
X189423000Y-97400000D03*
X189423000Y-100600000D03*
X194577000Y-100600000D03*
X194146000Y-157100000D03*
X199300000Y-157100000D03*
X199300000Y-153900000D03*
X194146000Y-153900000D03*
D36*
X160477000Y-157263000D03*
X160477000Y-152109000D03*
X157277000Y-152109000D03*
X157277000Y-157263000D03*
D37*
X125423000Y-156600000D03*
X130577000Y-156600000D03*
X130577000Y-153400000D03*
X125423000Y-153400000D03*
D36*
X95072000Y-157263000D03*
X95072000Y-152109000D03*
X91872000Y-152109000D03*
X91872000Y-157263000D03*
D37*
X226577000Y-97400000D03*
X221423000Y-97400000D03*
X221423000Y-100600000D03*
X226577000Y-100600000D03*
D36*
X257400000Y-96423000D03*
X257400000Y-101577000D03*
X260600000Y-101577000D03*
X260600000Y-96423000D03*
D37*
X296577000Y-97400000D03*
X291423000Y-97400000D03*
X291423000Y-100600000D03*
X296577000Y-100600000D03*
D36*
X326314000Y-95213000D03*
X326314000Y-100367000D03*
X329514000Y-100367000D03*
X329514000Y-95213000D03*
D37*
X366577000Y-97400000D03*
X361423000Y-97400000D03*
X361423000Y-100600000D03*
X366577000Y-100600000D03*
D36*
X365600000Y-161577000D03*
X365600000Y-156423000D03*
X362400000Y-156423000D03*
X362400000Y-161577000D03*
D37*
X330163000Y-157302000D03*
X335317000Y-157302000D03*
X335317000Y-154102000D03*
X330163000Y-154102000D03*
D36*
X305384000Y-157390000D03*
X305384000Y-152236000D03*
X302184000Y-152236000D03*
X302184000Y-157390000D03*
D37*
X263742000Y-157175000D03*
X268896000Y-157175000D03*
X268896000Y-153975000D03*
X263742000Y-153975000D03*
D36*
X237693000Y-157263000D03*
X237693000Y-152109000D03*
X234493000Y-152109000D03*
X234493000Y-157263000D03*
D20*
X86487000Y-121539000D03*
X84487000Y-121539000D03*
D38*
X216027000Y-100314000D03*
X216027000Y-98314000D03*
X223647000Y-130810000D03*
X223647000Y-128810000D03*
X241173000Y-156448000D03*
X241173000Y-154448000D03*
X271907000Y-156067000D03*
X271907000Y-154067000D03*
X307975000Y-156067000D03*
X307975000Y-154067000D03*
X339344000Y-156575000D03*
X339344000Y-154575000D03*
X368046000Y-159877000D03*
X368046000Y-157877000D03*
X352806000Y-100314000D03*
X352806000Y-98314000D03*
X323596000Y-97901000D03*
X323596000Y-95901000D03*
X288671000Y-99679000D03*
X288671000Y-97679000D03*
X254000000Y-98917000D03*
X254000000Y-96917000D03*
X218694000Y-100314000D03*
X218694000Y-98314000D03*
X97663000Y-155940000D03*
X97663000Y-153940000D03*
X133477000Y-155940000D03*
X133477000Y-153940000D03*
X168402000Y-155432000D03*
X168402000Y-153432000D03*
X191643000Y-157083000D03*
X191643000Y-155083000D03*
X185039000Y-100060000D03*
X185039000Y-98060000D03*
X154432000Y-99806000D03*
X154432000Y-97806000D03*
X121285000Y-100314000D03*
X121285000Y-98314000D03*
X88646000Y-98282000D03*
X88646000Y-96282000D03*
X229362000Y-135271000D03*
X229362000Y-137271000D03*
X247269000Y-77359000D03*
X247269000Y-79359000D03*
D39*
X232150000Y-69540000D03*
D40*
X234850000Y-72215000D03*
X235500000Y-72215000D03*
X236150000Y-72215000D03*
X234200000Y-72215000D03*
X233550000Y-72215000D03*
X228150000Y-72215000D03*
X228800000Y-72215000D03*
X229450000Y-72215000D03*
X227500000Y-72215000D03*
X226850000Y-72215000D03*
D41*
X226950000Y-69540000D03*
X229350000Y-69540000D03*
D42*
X224550000Y-69540000D03*
D39*
X234650000Y-69540000D03*
D42*
X237100000Y-69540000D03*
D23*
X164338000Y-120392747D03*
D10*
G36*
X164338000Y-122304198D02*
X162426549Y-120392747D01*
X164338000Y-118481296D01*
X166249451Y-120392747D01*
X164338000Y-122304198D01*
X164338000Y-122304198D01*
G37*
D23*
X169287747Y-115443000D03*
D10*
G36*
X169287747Y-117354451D02*
X167376296Y-115443000D01*
X169287747Y-113531549D01*
X171199198Y-115443000D01*
X169287747Y-117354451D01*
X169287747Y-117354451D01*
G37*
D23*
X164338000Y-110493253D03*
D10*
G36*
X164338000Y-112404704D02*
X162426549Y-110493253D01*
X164338000Y-108581802D01*
X166249451Y-110493253D01*
X164338000Y-112404704D01*
X164338000Y-112404704D01*
G37*
D23*
X159388253Y-115443000D03*
D10*
G36*
X159388253Y-117354451D02*
X157476802Y-115443000D01*
X159388253Y-113531549D01*
X161299704Y-115443000D01*
X159388253Y-117354451D01*
X159388253Y-117354451D01*
G37*
D20*
X175911000Y-83693000D03*
X177911000Y-83693000D03*
X157750000Y-69215000D03*
X159750000Y-69215000D03*
X164703000Y-81407000D03*
X162703000Y-81407000D03*
X149114000Y-86233000D03*
X151114000Y-86233000D03*
D38*
X144653000Y-77073000D03*
X144653000Y-75073000D03*
D20*
X173339000Y-118237000D03*
X171339000Y-118237000D03*
X151241000Y-69088000D03*
X149241000Y-69088000D03*
X102473000Y-77343000D03*
X100473000Y-77343000D03*
X96536000Y-77343000D03*
X98536000Y-77343000D03*
X175911000Y-81407000D03*
X177911000Y-81407000D03*
X155083000Y-89281000D03*
X157083000Y-89281000D03*
X155083000Y-86995000D03*
X157083000Y-86995000D03*
D38*
X101981000Y-100981000D03*
X101981000Y-102981000D03*
X107823000Y-107426000D03*
X107823000Y-105426000D03*
X191389000Y-134128000D03*
X191389000Y-136128000D03*
D43*
X173428660Y-75692000D03*
X177599340Y-75692000D03*
D44*
X102107000Y-106553000D03*
X105157000Y-106553000D03*
D45*
X137541000Y-94267020D03*
X137541000Y-92168980D03*
D46*
X107188000Y-129159000D03*
X107188000Y-130429000D03*
X108458000Y-129159000D03*
X108458000Y-130429000D03*
X109728000Y-129159000D03*
X109728000Y-130429000D03*
D47*
X105918000Y-129794000D03*
D48*
X110998000Y-130810000D03*
X110998000Y-128778000D03*
D49*
X105918000Y-132334000D03*
D50*
X109093000Y-132334000D03*
X106045000Y-127254000D03*
X109093000Y-127254000D03*
D20*
X173974000Y-83693000D03*
X171974000Y-83693000D03*
X173974000Y-81407000D03*
X171974000Y-81407000D03*
D38*
X192659000Y-86979000D03*
X192659000Y-84979000D03*
X190373000Y-86979000D03*
X190373000Y-84979000D03*
X185166000Y-124190000D03*
X185166000Y-122190000D03*
D20*
X181245000Y-111633000D03*
X183245000Y-111633000D03*
X88884000Y-100457000D03*
X86884000Y-100457000D03*
D38*
X107823000Y-102981000D03*
X107823000Y-100981000D03*
X185039000Y-134001000D03*
X185039000Y-136001000D03*
X231648000Y-135271000D03*
X231648000Y-137271000D03*
X193675000Y-136128000D03*
X193675000Y-134128000D03*
X223139000Y-137271000D03*
X223139000Y-135271000D03*
X154305000Y-116475000D03*
X154305000Y-118475000D03*
X104775000Y-78343000D03*
X104775000Y-76343000D03*
X93853000Y-76343000D03*
X93853000Y-78343000D03*
X111125000Y-74184000D03*
X111125000Y-76184000D03*
X115062000Y-74184000D03*
X115062000Y-76184000D03*
X118999000Y-74200000D03*
X118999000Y-76200000D03*
X135128000Y-94218000D03*
X135128000Y-92218000D03*
D51*
X186742000Y-114482000D03*
X186742000Y-118182000D03*
X180542000Y-114482000D03*
X180542000Y-118182000D03*
D23*
X104914000Y-73025000D03*
X93714000Y-73025000D03*
D52*
X99314000Y-80525000D03*
X96814000Y-80525000D03*
X101814000Y-80525000D03*
D53*
X251924000Y-78505000D03*
X251924000Y-77855000D03*
X251924000Y-77205000D03*
X251924000Y-76555000D03*
X251924000Y-75905000D03*
X251924000Y-75255000D03*
X251924000Y-74605000D03*
X251924000Y-73955000D03*
X251924000Y-73305000D03*
X251924000Y-72655000D03*
X251924000Y-72005000D03*
X251924000Y-71355000D03*
X259124000Y-71355000D03*
X259124000Y-72005000D03*
X259124000Y-72655000D03*
X259124000Y-73305000D03*
X259124000Y-73955000D03*
X259124000Y-74605000D03*
X259124000Y-75255000D03*
X259124000Y-75905000D03*
X259124000Y-76555000D03*
X259124000Y-77205000D03*
X259124000Y-77855000D03*
X259124000Y-78505000D03*
D54*
X174441000Y-79690000D03*
X174441000Y-78740000D03*
X174441000Y-77790000D03*
X176841000Y-77790000D03*
X176841000Y-78740000D03*
X176841000Y-79690000D03*
D55*
X158920000Y-84671000D03*
X158920000Y-86271000D03*
X161120000Y-86271000D03*
X161120000Y-84671000D03*
D56*
X225298000Y-78486000D03*
D57*
X227838000Y-78486000D03*
X230378000Y-78486000D03*
X232918000Y-78486000D03*
X235458000Y-78486000D03*
X237998000Y-78486000D03*
D58*
X188214000Y-134493000D03*
D59*
X188214000Y-131953000D03*
X188214000Y-129413000D03*
X188214000Y-126873000D03*
X188214000Y-124333000D03*
D58*
X226314000Y-136271000D03*
D59*
X226314000Y-133731000D03*
X226314000Y-131191000D03*
X226314000Y-128651000D03*
X226314000Y-126111000D03*
D18*
X169545000Y-75311000D03*
D19*
X169545000Y-77851000D03*
D18*
X172339000Y-93726000D03*
D19*
X172339000Y-91186000D03*
D18*
X191389000Y-89789000D03*
D19*
X193929000Y-89789000D03*
D58*
X102362000Y-122936000D03*
D59*
X102362000Y-120396000D03*
X102362000Y-117856000D03*
X102362000Y-115316000D03*
X102362000Y-112776000D03*
X102362000Y-110236000D03*
D60*
X133223000Y-70104000D03*
X133223000Y-72644000D03*
X133223000Y-73914000D03*
X133223000Y-75184000D03*
X133223000Y-76454000D03*
X133223000Y-77724000D03*
X133223000Y-78994000D03*
X139573000Y-78994000D03*
X139573000Y-77724000D03*
X139573000Y-76454000D03*
X139573000Y-75184000D03*
X139573000Y-73914000D03*
X139573000Y-72644000D03*
X139573000Y-71374000D03*
X139573000Y-70104000D03*
X133223000Y-71374000D03*
D61*
X105852000Y-103081000D03*
X104902000Y-103081000D03*
X103952000Y-103081000D03*
X103952000Y-100881000D03*
X105852000Y-100881000D03*
D62*
X102000000Y-72000000D03*
D63*
X102000000Y-69460000D03*
D62*
X98000000Y-72000000D03*
D63*
X98000000Y-69460000D03*
D62*
X94000000Y-72000000D03*
D63*
X94000000Y-69460000D03*
D62*
X119000000Y-72000000D03*
D63*
X119000000Y-69460000D03*
D62*
X115000000Y-72000000D03*
D63*
X115000000Y-69460000D03*
D62*
X111000000Y-72000000D03*
D63*
X111000000Y-69460000D03*
D20*
X134496300Y-85509100D03*
X136496300Y-85509100D03*
D64*
X135140700Y-88226900D03*
X136640700Y-88226900D03*
X133640700Y-88226900D03*
D65*
X208750000Y-82600000D03*
X208750000Y-81330000D03*
X208750000Y-80060000D03*
X208750000Y-83870000D03*
X208750000Y-85140000D03*
X214750000Y-82600000D03*
X214750000Y-81330000D03*
X214750000Y-80060000D03*
X214750000Y-83870000D03*
X214750000Y-85140000D03*
X213750000Y-170800000D03*
X213750000Y-169530000D03*
X213750000Y-168260000D03*
X213750000Y-172070000D03*
X213750000Y-173340000D03*
X221650000Y-170800000D03*
X221650000Y-169530000D03*
X221650000Y-168260000D03*
X221650000Y-172070000D03*
X221650000Y-173340000D03*
D66*
X174400000Y-72425000D03*
X175050000Y-72425000D03*
X175700000Y-72425000D03*
X176350000Y-72425000D03*
X177000000Y-72425000D03*
D67*
X172800000Y-72600000D03*
D68*
X178425000Y-70025000D03*
D67*
X178600000Y-72600000D03*
D69*
X178687500Y-71300000D03*
X172712500Y-71300000D03*
D68*
X172975000Y-70025000D03*
D70*
X178425000Y-69600000D03*
X172975000Y-69600000D03*
D71*
X176662500Y-69350000D03*
X174737500Y-69350000D03*
D72*
X178125000Y-72600000D03*
X173275000Y-72600000D03*
D65*
X231250000Y-183663501D03*
X231250000Y-182393501D03*
X231250000Y-181123501D03*
X231250000Y-184933501D03*
X231250000Y-186203501D03*
X231250000Y-183663501D03*
X231250000Y-182393501D03*
X231250000Y-181123501D03*
X231250000Y-184933501D03*
X231250000Y-186203501D03*
M02*
