<?xml version="1.0" standalone="no"?>
 <!DOCTYPE svg PUBLIC "-//W3C//DTD SVG 1.1//EN" 
 "http://www.w3.org/Graphics/SVG/1.1/DTD/svg11.dtd"> 
<svg xmlns="http://www.w3.org/2000/svg" version="1.1" 
    width="41.9989cm" height="29.7002cm" viewBox="0 0 165350 116930 ">
<title>SVG Picture created as TS65-Edge.Cuts.svg date 2017/05/05 17:24:19 </title>
  <desc>Picture generated by PCBNEW </desc>
<g style="fill:#000000; fill-opacity:1;stroke:#000000; stroke-opacity:1;
stroke-linecap:round; stroke-linejoin:round; "
 transform="translate(0 0) scale(1 1)">
</g>
<g style="fill:#000000; fill-opacity:0.0; 
stroke:#000000; stroke-width:-0.000393701; stroke-opacity:1; 
stroke-linecap:round; stroke-linejoin:round;">
</g>
<g style="fill:#000000; fill-opacity:0.0; 
stroke:#000000; stroke-width:39.3701; stroke-opacity:1; 
stroke-linecap:round; stroke-linejoin:round;">
</g>
<g style="fill:#000000; fill-opacity:0.0; 
stroke:#000000; stroke-width:59.0551; stroke-opacity:1; 
stroke-linecap:round; stroke-linejoin:round;">
<rect x="118106" y="99607.2" width="42519.7" height="12598.4" rx="0" />
</g>
<g style="fill:#000000; fill-opacity:0.0; 
stroke:#000000; stroke-width:39.3701; stroke-opacity:1; 
stroke-linecap:round; stroke-linejoin:round;">
</g>
<g style="fill:#000000; fill-opacity:0.0; 
stroke:#000000; stroke-width:59.0551; stroke-opacity:1; 
stroke-linecap:round; stroke-linejoin:round;">
<rect x="3937.01" y="3937.01" width="157476" height="109056" rx="0" />
</g>
<g style="fill:#000000; fill-opacity:0.0; 
stroke:#000000; stroke-width:39.3701; stroke-opacity:1; 
stroke-linecap:round; stroke-linejoin:round;">
</g>
<g style="fill:#000000; fill-opacity:0.0; 
stroke:#000000; stroke-width:59.0551; stroke-opacity:1; 
stroke-linecap:round; stroke-linejoin:round;">
<rect x="4724.41" y="4724.41" width="155901" height="107481" rx="0" />
</g>
<g style="fill:#000000; fill-opacity:0.0; 
stroke:#000000; stroke-width:39.3701; stroke-opacity:1; 
stroke-linecap:round; stroke-linejoin:round;">
</g>
<g style="fill:#000000; fill-opacity:0.0; 
stroke:#000000; stroke-width:59.0551; stroke-opacity:1; 
stroke-linecap:round; stroke-linejoin:round;">
<path d="M23622 4724
L23622 3937
" />
</g>
<g style="fill:#000000; fill-opacity:0.0; 
stroke:#000000; stroke-width:39.3701; stroke-opacity:1; 
stroke-linecap:round; stroke-linejoin:round;">
</g>
<g style="fill:#000000; fill-opacity:0.0; 
stroke:#000000; stroke-width:59.0551; stroke-opacity:1; 
stroke-linecap:round; stroke-linejoin:round;">
<path d="M43307 4724
L43307 3937
" />
</g>
<g style="fill:#000000; fill-opacity:0.0; 
stroke:#000000; stroke-width:39.3701; stroke-opacity:1; 
stroke-linecap:round; stroke-linejoin:round;">
</g>
<g style="fill:#000000; fill-opacity:0.0; 
stroke:#000000; stroke-width:59.0551; stroke-opacity:1; 
stroke-linecap:round; stroke-linejoin:round;">
<path d="M62992 4724
L62992 3937
" />
</g>
<g style="fill:#000000; fill-opacity:0.0; 
stroke:#000000; stroke-width:39.3701; stroke-opacity:1; 
stroke-linecap:round; stroke-linejoin:round;">
</g>
<g style="fill:#000000; fill-opacity:0.0; 
stroke:#000000; stroke-width:59.0551; stroke-opacity:1; 
stroke-linecap:round; stroke-linejoin:round;">
<path d="M82677 4724
L82677 3937
" />
</g>
<g style="fill:#000000; fill-opacity:0.0; 
stroke:#000000; stroke-width:39.3701; stroke-opacity:1; 
stroke-linecap:round; stroke-linejoin:round;">
</g>
<g style="fill:#000000; fill-opacity:0.0; 
stroke:#000000; stroke-width:59.0551; stroke-opacity:1; 
stroke-linecap:round; stroke-linejoin:round;">
<path d="M102362 4724
L102362 3937
" />
</g>
<g style="fill:#000000; fill-opacity:0.0; 
stroke:#000000; stroke-width:39.3701; stroke-opacity:1; 
stroke-linecap:round; stroke-linejoin:round;">
</g>
<g style="fill:#000000; fill-opacity:0.0; 
stroke:#000000; stroke-width:59.0551; stroke-opacity:1; 
stroke-linecap:round; stroke-linejoin:round;">
<path d="M122047 4724
L122047 3937
" />
</g>
<g style="fill:#000000; fill-opacity:0.0; 
stroke:#000000; stroke-width:39.3701; stroke-opacity:1; 
stroke-linecap:round; stroke-linejoin:round;">
</g>
<g style="fill:#000000; fill-opacity:0.0; 
stroke:#000000; stroke-width:59.0551; stroke-opacity:1; 
stroke-linecap:round; stroke-linejoin:round;">
<path d="M141732 4724
L141732 3937
" />
</g>
<g style="fill:#000000; fill-opacity:0.0; 
stroke:#000000; stroke-width:39.3701; stroke-opacity:1; 
stroke-linecap:round; stroke-linejoin:round;">
</g>
<g style="fill:#000000; fill-opacity:0.0; 
stroke:#000000; stroke-width:59.0551; stroke-opacity:1; 
stroke-linecap:round; stroke-linejoin:round;">
<path d="M14199 4562
L13906 4562
" />
<path d="M14052 4562
L14052 4050
L14004 4123
L13955 4172
L13906 4196
" />
</g>
<g style="fill:#000000; fill-opacity:0.0; 
stroke:#000000; stroke-width:39.3701; stroke-opacity:1; 
stroke-linecap:round; stroke-linejoin:round;">
</g>
<g style="fill:#000000; fill-opacity:0.0; 
stroke:#000000; stroke-width:59.0551; stroke-opacity:1; 
stroke-linecap:round; stroke-linejoin:round;">
<path d="M33591 4099
L33615 4074
L33664 4050
L33786 4050
L33835 4074
L33859 4099
L33884 4147
L33884 4196
L33859 4269
L33567 4562
L33884 4562
" />
</g>
<g style="fill:#000000; fill-opacity:0.0; 
stroke:#000000; stroke-width:39.3701; stroke-opacity:1; 
stroke-linecap:round; stroke-linejoin:round;">
</g>
<g style="fill:#000000; fill-opacity:0.0; 
stroke:#000000; stroke-width:59.0551; stroke-opacity:1; 
stroke-linecap:round; stroke-linejoin:round;">
<path d="M53252 4050
L53569 4050
L53398 4245
L53471 4245
L53520 4269
L53544 4294
L53569 4342
L53569 4464
L53544 4513
L53520 4537
L53471 4562
L53325 4562
L53276 4537
L53252 4513
" />
</g>
<g style="fill:#000000; fill-opacity:0.0; 
stroke:#000000; stroke-width:39.3701; stroke-opacity:1; 
stroke-linecap:round; stroke-linejoin:round;">
</g>
<g style="fill:#000000; fill-opacity:0.0; 
stroke:#000000; stroke-width:59.0551; stroke-opacity:1; 
stroke-linecap:round; stroke-linejoin:round;">
<path d="M73205 4221
L73205 4562
" />
<path d="M73083 4026
L72961 4391
L73278 4391
" />
</g>
<g style="fill:#000000; fill-opacity:0.0; 
stroke:#000000; stroke-width:39.3701; stroke-opacity:1; 
stroke-linecap:round; stroke-linejoin:round;">
</g>
<g style="fill:#000000; fill-opacity:0.0; 
stroke:#000000; stroke-width:59.0551; stroke-opacity:1; 
stroke-linecap:round; stroke-linejoin:round;">
<path d="M92914 4050
L92671 4050
L92646 4294
L92671 4269
L92719 4245
L92841 4245
L92890 4269
L92914 4294
L92939 4342
L92939 4464
L92914 4513
L92890 4537
L92841 4562
L92719 4562
L92671 4537
L92646 4513
" />
</g>
<g style="fill:#000000; fill-opacity:0.0; 
stroke:#000000; stroke-width:39.3701; stroke-opacity:1; 
stroke-linecap:round; stroke-linejoin:round;">
</g>
<g style="fill:#000000; fill-opacity:0.0; 
stroke:#000000; stroke-width:59.0551; stroke-opacity:1; 
stroke-linecap:round; stroke-linejoin:round;">
<path d="M112575 4050
L112477 4050
L112429 4074
L112404 4099
L112356 4172
L112331 4269
L112331 4464
L112356 4513
L112380 4537
L112429 4562
L112526 4562
L112575 4537
L112599 4513
L112624 4464
L112624 4342
L112599 4294
L112575 4269
L112526 4245
L112429 4245
L112380 4269
L112356 4294
L112331 4342
" />
</g>
<g style="fill:#000000; fill-opacity:0.0; 
stroke:#000000; stroke-width:39.3701; stroke-opacity:1; 
stroke-linecap:round; stroke-linejoin:round;">
</g>
<g style="fill:#000000; fill-opacity:0.0; 
stroke:#000000; stroke-width:59.0551; stroke-opacity:1; 
stroke-linecap:round; stroke-linejoin:round;">
<path d="M131992 4050
L132333 4050
L132114 4562
" />
</g>
<g style="fill:#000000; fill-opacity:0.0; 
stroke:#000000; stroke-width:39.3701; stroke-opacity:1; 
stroke-linecap:round; stroke-linejoin:round;">
</g>
<g style="fill:#000000; fill-opacity:0.0; 
stroke:#000000; stroke-width:59.0551; stroke-opacity:1; 
stroke-linecap:round; stroke-linejoin:round;">
<path d="M151799 4269
L151750 4245
L151726 4221
L151701 4172
L151701 4147
L151726 4099
L151750 4074
L151799 4050
L151896 4050
L151945 4074
L151969 4099
L151994 4147
L151994 4172
L151969 4221
L151945 4245
L151896 4269
L151799 4269
L151750 4294
L151726 4318
L151701 4367
L151701 4464
L151726 4513
L151750 4537
L151799 4562
L151896 4562
L151945 4537
L151969 4513
L151994 4464
L151994 4367
L151969 4318
L151945 4294
L151896 4269
" />
</g>
<g style="fill:#000000; fill-opacity:0.0; 
stroke:#000000; stroke-width:39.3701; stroke-opacity:1; 
stroke-linecap:round; stroke-linejoin:round;">
</g>
<g style="fill:#000000; fill-opacity:0.0; 
stroke:#000000; stroke-width:59.0551; stroke-opacity:1; 
stroke-linecap:round; stroke-linejoin:round;">
<path d="M23622 112205
L23622 112992
" />
</g>
<g style="fill:#000000; fill-opacity:0.0; 
stroke:#000000; stroke-width:39.3701; stroke-opacity:1; 
stroke-linecap:round; stroke-linejoin:round;">
</g>
<g style="fill:#000000; fill-opacity:0.0; 
stroke:#000000; stroke-width:59.0551; stroke-opacity:1; 
stroke-linecap:round; stroke-linejoin:round;">
<path d="M43307 112205
L43307 112992
" />
</g>
<g style="fill:#000000; fill-opacity:0.0; 
stroke:#000000; stroke-width:39.3701; stroke-opacity:1; 
stroke-linecap:round; stroke-linejoin:round;">
</g>
<g style="fill:#000000; fill-opacity:0.0; 
stroke:#000000; stroke-width:59.0551; stroke-opacity:1; 
stroke-linecap:round; stroke-linejoin:round;">
<path d="M62992 112205
L62992 112992
" />
</g>
<g style="fill:#000000; fill-opacity:0.0; 
stroke:#000000; stroke-width:39.3701; stroke-opacity:1; 
stroke-linecap:round; stroke-linejoin:round;">
</g>
<g style="fill:#000000; fill-opacity:0.0; 
stroke:#000000; stroke-width:59.0551; stroke-opacity:1; 
stroke-linecap:round; stroke-linejoin:round;">
<path d="M82677 112205
L82677 112992
" />
</g>
<g style="fill:#000000; fill-opacity:0.0; 
stroke:#000000; stroke-width:39.3701; stroke-opacity:1; 
stroke-linecap:round; stroke-linejoin:round;">
</g>
<g style="fill:#000000; fill-opacity:0.0; 
stroke:#000000; stroke-width:59.0551; stroke-opacity:1; 
stroke-linecap:round; stroke-linejoin:round;">
<path d="M102362 112205
L102362 112992
" />
</g>
<g style="fill:#000000; fill-opacity:0.0; 
stroke:#000000; stroke-width:39.3701; stroke-opacity:1; 
stroke-linecap:round; stroke-linejoin:round;">
</g>
<g style="fill:#000000; fill-opacity:0.0; 
stroke:#000000; stroke-width:59.0551; stroke-opacity:1; 
stroke-linecap:round; stroke-linejoin:round;">
<path d="M122047 112205
L122047 112992
" />
</g>
<g style="fill:#000000; fill-opacity:0.0; 
stroke:#000000; stroke-width:39.3701; stroke-opacity:1; 
stroke-linecap:round; stroke-linejoin:round;">
</g>
<g style="fill:#000000; fill-opacity:0.0; 
stroke:#000000; stroke-width:59.0551; stroke-opacity:1; 
stroke-linecap:round; stroke-linejoin:round;">
<path d="M141732 112205
L141732 112992
" />
</g>
<g style="fill:#000000; fill-opacity:0.0; 
stroke:#000000; stroke-width:39.3701; stroke-opacity:1; 
stroke-linecap:round; stroke-linejoin:round;">
</g>
<g style="fill:#000000; fill-opacity:0.0; 
stroke:#000000; stroke-width:59.0551; stroke-opacity:1; 
stroke-linecap:round; stroke-linejoin:round;">
<path d="M14199 112830
L13906 112830
" />
<path d="M14052 112830
L14052 112319
L14004 112392
L13955 112440
L13906 112465
" />
</g>
<g style="fill:#000000; fill-opacity:0.0; 
stroke:#000000; stroke-width:39.3701; stroke-opacity:1; 
stroke-linecap:round; stroke-linejoin:round;">
</g>
<g style="fill:#000000; fill-opacity:0.0; 
stroke:#000000; stroke-width:59.0551; stroke-opacity:1; 
stroke-linecap:round; stroke-linejoin:round;">
<path d="M33591 112367
L33615 112343
L33664 112319
L33786 112319
L33835 112343
L33859 112367
L33884 112416
L33884 112465
L33859 112538
L33567 112830
L33884 112830
" />
</g>
<g style="fill:#000000; fill-opacity:0.0; 
stroke:#000000; stroke-width:39.3701; stroke-opacity:1; 
stroke-linecap:round; stroke-linejoin:round;">
</g>
<g style="fill:#000000; fill-opacity:0.0; 
stroke:#000000; stroke-width:59.0551; stroke-opacity:1; 
stroke-linecap:round; stroke-linejoin:round;">
<path d="M53252 112319
L53569 112319
L53398 112513
L53471 112513
L53520 112538
L53544 112562
L53569 112611
L53569 112733
L53544 112782
L53520 112806
L53471 112830
L53325 112830
L53276 112806
L53252 112782
" />
</g>
<g style="fill:#000000; fill-opacity:0.0; 
stroke:#000000; stroke-width:39.3701; stroke-opacity:1; 
stroke-linecap:round; stroke-linejoin:round;">
</g>
<g style="fill:#000000; fill-opacity:0.0; 
stroke:#000000; stroke-width:59.0551; stroke-opacity:1; 
stroke-linecap:round; stroke-linejoin:round;">
<path d="M73205 112489
L73205 112830
" />
<path d="M73083 112294
L72961 112660
L73278 112660
" />
</g>
<g style="fill:#000000; fill-opacity:0.0; 
stroke:#000000; stroke-width:39.3701; stroke-opacity:1; 
stroke-linecap:round; stroke-linejoin:round;">
</g>
<g style="fill:#000000; fill-opacity:0.0; 
stroke:#000000; stroke-width:59.0551; stroke-opacity:1; 
stroke-linecap:round; stroke-linejoin:round;">
<path d="M92914 112319
L92671 112319
L92646 112562
L92671 112538
L92719 112513
L92841 112513
L92890 112538
L92914 112562
L92939 112611
L92939 112733
L92914 112782
L92890 112806
L92841 112830
L92719 112830
L92671 112806
L92646 112782
" />
</g>
<g style="fill:#000000; fill-opacity:0.0; 
stroke:#000000; stroke-width:39.3701; stroke-opacity:1; 
stroke-linecap:round; stroke-linejoin:round;">
</g>
<g style="fill:#000000; fill-opacity:0.0; 
stroke:#000000; stroke-width:59.0551; stroke-opacity:1; 
stroke-linecap:round; stroke-linejoin:round;">
<path d="M112575 112319
L112477 112319
L112429 112343
L112404 112367
L112356 112440
L112331 112538
L112331 112733
L112356 112782
L112380 112806
L112429 112830
L112526 112830
L112575 112806
L112599 112782
L112624 112733
L112624 112611
L112599 112562
L112575 112538
L112526 112513
L112429 112513
L112380 112538
L112356 112562
L112331 112611
" />
</g>
<g style="fill:#000000; fill-opacity:0.0; 
stroke:#000000; stroke-width:39.3701; stroke-opacity:1; 
stroke-linecap:round; stroke-linejoin:round;">
</g>
<g style="fill:#000000; fill-opacity:0.0; 
stroke:#000000; stroke-width:59.0551; stroke-opacity:1; 
stroke-linecap:round; stroke-linejoin:round;">
<path d="M131992 112319
L132333 112319
L132114 112830
" />
</g>
<g style="fill:#000000; fill-opacity:0.0; 
stroke:#000000; stroke-width:39.3701; stroke-opacity:1; 
stroke-linecap:round; stroke-linejoin:round;">
</g>
<g style="fill:#000000; fill-opacity:0.0; 
stroke:#000000; stroke-width:59.0551; stroke-opacity:1; 
stroke-linecap:round; stroke-linejoin:round;">
<path d="M151799 112538
L151750 112513
L151726 112489
L151701 112440
L151701 112416
L151726 112367
L151750 112343
L151799 112319
L151896 112319
L151945 112343
L151969 112367
L151994 112416
L151994 112440
L151969 112489
L151945 112513
L151896 112538
L151799 112538
L151750 112562
L151726 112587
L151701 112635
L151701 112733
L151726 112782
L151750 112806
L151799 112830
L151896 112830
L151945 112806
L151969 112782
L151994 112733
L151994 112635
L151969 112587
L151945 112562
L151896 112538
" />
</g>
<g style="fill:#000000; fill-opacity:0.0; 
stroke:#000000; stroke-width:39.3701; stroke-opacity:1; 
stroke-linecap:round; stroke-linejoin:round;">
</g>
<g style="fill:#000000; fill-opacity:0.0; 
stroke:#000000; stroke-width:59.0551; stroke-opacity:1; 
stroke-linecap:round; stroke-linejoin:round;">
<path d="M3937 23622
L4724 23622
" />
</g>
<g style="fill:#000000; fill-opacity:0.0; 
stroke:#000000; stroke-width:39.3701; stroke-opacity:1; 
stroke-linecap:round; stroke-linejoin:round;">
</g>
<g style="fill:#000000; fill-opacity:0.0; 
stroke:#000000; stroke-width:59.0551; stroke-opacity:1; 
stroke-linecap:round; stroke-linejoin:round;">
<path d="M3937 43307
L4724 43307
" />
</g>
<g style="fill:#000000; fill-opacity:0.0; 
stroke:#000000; stroke-width:39.3701; stroke-opacity:1; 
stroke-linecap:round; stroke-linejoin:round;">
</g>
<g style="fill:#000000; fill-opacity:0.0; 
stroke:#000000; stroke-width:59.0551; stroke-opacity:1; 
stroke-linecap:round; stroke-linejoin:round;">
<path d="M3937 62992
L4724 62992
" />
</g>
<g style="fill:#000000; fill-opacity:0.0; 
stroke:#000000; stroke-width:39.3701; stroke-opacity:1; 
stroke-linecap:round; stroke-linejoin:round;">
</g>
<g style="fill:#000000; fill-opacity:0.0; 
stroke:#000000; stroke-width:59.0551; stroke-opacity:1; 
stroke-linecap:round; stroke-linejoin:round;">
<path d="M3937 82677
L4724 82677
" />
</g>
<g style="fill:#000000; fill-opacity:0.0; 
stroke:#000000; stroke-width:39.3701; stroke-opacity:1; 
stroke-linecap:round; stroke-linejoin:round;">
</g>
<g style="fill:#000000; fill-opacity:0.0; 
stroke:#000000; stroke-width:59.0551; stroke-opacity:1; 
stroke-linecap:round; stroke-linejoin:round;">
<path d="M3937 102362
L4724 102362
" />
</g>
<g style="fill:#000000; fill-opacity:0.0; 
stroke:#000000; stroke-width:39.3701; stroke-opacity:1; 
stroke-linecap:round; stroke-linejoin:round;">
</g>
<g style="fill:#000000; fill-opacity:0.0; 
stroke:#000000; stroke-width:59.0551; stroke-opacity:1; 
stroke-linecap:round; stroke-linejoin:round;">
<path d="M4208 13864
L4452 13864
" />
<path d="M4160 14011
L4330 13499
L4501 14011
" />
</g>
<g style="fill:#000000; fill-opacity:0.0; 
stroke:#000000; stroke-width:39.3701; stroke-opacity:1; 
stroke-linecap:round; stroke-linejoin:round;">
</g>
<g style="fill:#000000; fill-opacity:0.0; 
stroke:#000000; stroke-width:59.0551; stroke-opacity:1; 
stroke-linecap:round; stroke-linejoin:round;">
<path d="M4367 33428
L4440 33452
L4464 33476
L4489 33525
L4489 33598
L4464 33647
L4440 33671
L4391 33696
L4196 33696
L4196 33184
L4367 33184
L4416 33208
L4440 33233
L4464 33281
L4464 33330
L4440 33379
L4416 33403
L4367 33428
L4196 33428
" />
</g>
<g style="fill:#000000; fill-opacity:0.0; 
stroke:#000000; stroke-width:39.3701; stroke-opacity:1; 
stroke-linecap:round; stroke-linejoin:round;">
</g>
<g style="fill:#000000; fill-opacity:0.0; 
stroke:#000000; stroke-width:59.0551; stroke-opacity:1; 
stroke-linecap:round; stroke-linejoin:round;">
<path d="M4489 53332
L4464 53356
L4391 53381
L4342 53381
L4269 53356
L4221 53308
L4196 53259
L4172 53161
L4172 53088
L4196 52991
L4221 52942
L4269 52893
L4342 52869
L4391 52869
L4464 52893
L4489 52918
" />
</g>
<g style="fill:#000000; fill-opacity:0.0; 
stroke:#000000; stroke-width:39.3701; stroke-opacity:1; 
stroke-linecap:round; stroke-linejoin:round;">
</g>
<g style="fill:#000000; fill-opacity:0.0; 
stroke:#000000; stroke-width:59.0551; stroke-opacity:1; 
stroke-linecap:round; stroke-linejoin:round;">
<path d="M4196 73066
L4196 72554
L4318 72554
L4391 72578
L4440 72627
L4464 72676
L4489 72773
L4489 72846
L4464 72944
L4440 72993
L4391 73041
L4318 73066
L4196 73066
" />
</g>
<g style="fill:#000000; fill-opacity:0.0; 
stroke:#000000; stroke-width:39.3701; stroke-opacity:1; 
stroke-linecap:round; stroke-linejoin:round;">
</g>
<g style="fill:#000000; fill-opacity:0.0; 
stroke:#000000; stroke-width:59.0551; stroke-opacity:1; 
stroke-linecap:round; stroke-linejoin:round;">
<path d="M4221 92483
L4391 92483
" />
<path d="M4464 92751
L4221 92751
L4221 92239
L4464 92239
" />
</g>
<g style="fill:#000000; fill-opacity:0.0; 
stroke:#000000; stroke-width:39.3701; stroke-opacity:1; 
stroke-linecap:round; stroke-linejoin:round;">
</g>
<g style="fill:#000000; fill-opacity:0.0; 
stroke:#000000; stroke-width:59.0551; stroke-opacity:1; 
stroke-linecap:round; stroke-linejoin:round;">
<path d="M4403 112168
L4233 112168
" />
<path d="M4233 112436
L4233 111924
L4476 111924
" />
</g>
<g style="fill:#000000; fill-opacity:0.0; 
stroke:#000000; stroke-width:39.3701; stroke-opacity:1; 
stroke-linecap:round; stroke-linejoin:round;">
</g>
<g style="fill:#000000; fill-opacity:0.0; 
stroke:#000000; stroke-width:59.0551; stroke-opacity:1; 
stroke-linecap:round; stroke-linejoin:round;">
<path d="M161412 23622
L160625 23622
" />
</g>
<g style="fill:#000000; fill-opacity:0.0; 
stroke:#000000; stroke-width:39.3701; stroke-opacity:1; 
stroke-linecap:round; stroke-linejoin:round;">
</g>
<g style="fill:#000000; fill-opacity:0.0; 
stroke:#000000; stroke-width:59.0551; stroke-opacity:1; 
stroke-linecap:round; stroke-linejoin:round;">
<path d="M161412 43307
L160625 43307
" />
</g>
<g style="fill:#000000; fill-opacity:0.0; 
stroke:#000000; stroke-width:39.3701; stroke-opacity:1; 
stroke-linecap:round; stroke-linejoin:round;">
</g>
<g style="fill:#000000; fill-opacity:0.0; 
stroke:#000000; stroke-width:59.0551; stroke-opacity:1; 
stroke-linecap:round; stroke-linejoin:round;">
<path d="M161412 62992
L160625 62992
" />
</g>
<g style="fill:#000000; fill-opacity:0.0; 
stroke:#000000; stroke-width:39.3701; stroke-opacity:1; 
stroke-linecap:round; stroke-linejoin:round;">
</g>
<g style="fill:#000000; fill-opacity:0.0; 
stroke:#000000; stroke-width:59.0551; stroke-opacity:1; 
stroke-linecap:round; stroke-linejoin:round;">
<path d="M161412 82677
L160625 82677
" />
</g>
<g style="fill:#000000; fill-opacity:0.0; 
stroke:#000000; stroke-width:39.3701; stroke-opacity:1; 
stroke-linecap:round; stroke-linejoin:round;">
</g>
<g style="fill:#000000; fill-opacity:0.0; 
stroke:#000000; stroke-width:59.0551; stroke-opacity:1; 
stroke-linecap:round; stroke-linejoin:round;">
<path d="M161412 102362
L160625 102362
" />
</g>
<g style="fill:#000000; fill-opacity:0.0; 
stroke:#000000; stroke-width:39.3701; stroke-opacity:1; 
stroke-linecap:round; stroke-linejoin:round;">
</g>
<g style="fill:#000000; fill-opacity:0.0; 
stroke:#000000; stroke-width:59.0551; stroke-opacity:1; 
stroke-linecap:round; stroke-linejoin:round;">
<path d="M160897 13864
L161141 13864
" />
<path d="M160848 14011
L161019 13499
L161189 14011
" />
</g>
<g style="fill:#000000; fill-opacity:0.0; 
stroke:#000000; stroke-width:39.3701; stroke-opacity:1; 
stroke-linecap:round; stroke-linejoin:round;">
</g>
<g style="fill:#000000; fill-opacity:0.0; 
stroke:#000000; stroke-width:59.0551; stroke-opacity:1; 
stroke-linecap:round; stroke-linejoin:round;">
<path d="M161055 33428
L161128 33452
L161153 33476
L161177 33525
L161177 33598
L161153 33647
L161128 33671
L161080 33696
L160885 33696
L160885 33184
L161055 33184
L161104 33208
L161128 33233
L161153 33281
L161153 33330
L161128 33379
L161104 33403
L161055 33428
L160885 33428
" />
</g>
<g style="fill:#000000; fill-opacity:0.0; 
stroke:#000000; stroke-width:39.3701; stroke-opacity:1; 
stroke-linecap:round; stroke-linejoin:round;">
</g>
<g style="fill:#000000; fill-opacity:0.0; 
stroke:#000000; stroke-width:59.0551; stroke-opacity:1; 
stroke-linecap:round; stroke-linejoin:round;">
<path d="M161177 53332
L161153 53356
L161080 53381
L161031 53381
L160958 53356
L160909 53308
L160885 53259
L160860 53161
L160860 53088
L160885 52991
L160909 52942
L160958 52893
L161031 52869
L161080 52869
L161153 52893
L161177 52918
" />
</g>
<g style="fill:#000000; fill-opacity:0.0; 
stroke:#000000; stroke-width:39.3701; stroke-opacity:1; 
stroke-linecap:round; stroke-linejoin:round;">
</g>
<g style="fill:#000000; fill-opacity:0.0; 
stroke:#000000; stroke-width:59.0551; stroke-opacity:1; 
stroke-linecap:round; stroke-linejoin:round;">
<path d="M160885 73066
L160885 72554
L161007 72554
L161080 72578
L161128 72627
L161153 72676
L161177 72773
L161177 72846
L161153 72944
L161128 72993
L161080 73041
L161007 73066
L160885 73066
" />
</g>
<g style="fill:#000000; fill-opacity:0.0; 
stroke:#000000; stroke-width:39.3701; stroke-opacity:1; 
stroke-linecap:round; stroke-linejoin:round;">
</g>
<g style="fill:#000000; fill-opacity:0.0; 
stroke:#000000; stroke-width:59.0551; stroke-opacity:1; 
stroke-linecap:round; stroke-linejoin:round;">
<path d="M160909 92483
L161080 92483
" />
<path d="M161153 92751
L160909 92751
L160909 92239
L161153 92239
" />
</g>
<g style="fill:#000000; fill-opacity:0.0; 
stroke:#000000; stroke-width:39.3701; stroke-opacity:1; 
stroke-linecap:round; stroke-linejoin:round;">
</g>
<g style="fill:#000000; fill-opacity:0.0; 
stroke:#000000; stroke-width:59.0551; stroke-opacity:1; 
stroke-linecap:round; stroke-linejoin:round;">
<path d="M161092 112168
L160921 112168
" />
<path d="M160921 112436
L160921 111924
L161165 111924
" />
</g>
<g style="fill:#000000; fill-opacity:0.0; 
stroke:#000000; stroke-width:39.3701; stroke-opacity:1; 
stroke-linecap:round; stroke-linejoin:round;">
</g>
<g style="fill:#000000; fill-opacity:0.0; 
stroke:#000000; stroke-width:59.0551; stroke-opacity:1; 
stroke-linecap:round; stroke-linejoin:round;">
<path d="M127331 110543
L127331 109953
L127471 109953
L127556 109981
L127612 110037
L127640 110093
L127668 110206
L127668 110290
L127640 110403
L127612 110459
L127556 110515
L127471 110543
L127331 110543
" />
<path d="M128174 110543
L128174 110234
L128146 110178
L128090 110149
L127977 110149
L127921 110178
" />
<path d="M128174 110515
L128118 110543
L127977 110543
L127921 110515
L127893 110459
L127893 110403
L127921 110346
L127977 110318
L128118 110318
L128174 110290
" />
<path d="M128371 110149
L128596 110149
" />
<path d="M128456 109953
L128456 110459
L128484 110515
L128540 110543
L128596 110543
" />
<path d="M129018 110515
L128962 110543
L128849 110543
L128793 110515
L128765 110459
L128765 110234
L128793 110178
L128849 110149
L128962 110149
L129018 110178
L129046 110234
L129046 110290
L128765 110346
" />
<path d="M129299 110487
L129327 110515
L129299 110543
L129271 110515
L129299 110487
L129299 110543
" />
<path d="M129299 110178
L129327 110206
L129299 110234
L129271 110206
L129299 110178
L129299 110234
" />
<path d="M130002 110009
L130030 109981
L130087 109953
L130227 109953
L130283 109981
L130312 110009
L130340 110065
L130340 110121
L130312 110206
L129974 110543
L130340 110543
" />
<path d="M130705 109953
L130761 109953
L130818 109981
L130846 110009
L130874 110065
L130902 110178
L130902 110318
L130874 110431
L130846 110487
L130818 110515
L130761 110543
L130705 110543
L130649 110515
L130621 110487
L130593 110431
L130565 110318
L130565 110178
L130593 110065
L130621 110009
L130649 109981
L130705 109953
" />
<path d="M131465 110543
L131127 110543
" />
<path d="M131296 110543
L131296 109953
L131240 110037
L131183 110093
L131127 110121
" />
<path d="M131971 109953
L131858 109953
L131802 109981
L131774 110009
L131718 110093
L131689 110206
L131689 110431
L131718 110487
L131746 110515
L131802 110543
L131914 110543
L131971 110515
L131999 110487
L132027 110431
L132027 110290
L131999 110234
L131971 110206
L131914 110178
L131802 110178
L131746 110206
L131718 110234
L131689 110290
" />
<path d="M132280 110318
L132730 110318
" />
<path d="M133124 109953
L133180 109953
L133236 109981
L133264 110009
L133292 110065
L133321 110178
L133321 110318
L133292 110431
L133264 110487
L133236 110515
L133180 110543
L133124 110543
L133067 110515
L133039 110487
L133011 110431
L132983 110318
L132983 110178
L133011 110065
L133039 110009
L133067 109981
L133124 109953
" />
<path d="M133855 109953
L133574 109953
L133546 110234
L133574 110206
L133630 110178
L133770 110178
L133827 110206
L133855 110234
L133883 110290
L133883 110431
L133855 110487
L133827 110515
L133770 110543
L133630 110543
L133574 110515
L133546 110487
" />
<path d="M134136 110318
L134586 110318
" />
<path d="M134839 110009
L134867 109981
L134923 109953
L135064 109953
L135120 109981
L135148 110009
L135177 110065
L135177 110121
L135148 110206
L134811 110543
L135177 110543
" />
<path d="M135739 110543
L135402 110543
" />
<path d="M135570 110543
L135570 109953
L135514 110037
L135458 110093
L135402 110121
" />
</g>
<g style="fill:#000000; fill-opacity:0.0; 
stroke:#000000; stroke-width:39.3701; stroke-opacity:1; 
stroke-linecap:round; stroke-linejoin:round;">
</g>
<g style="fill:#000000; fill-opacity:0.0; 
stroke:#000000; stroke-width:59.0551; stroke-opacity:1; 
stroke-linecap:round; stroke-linejoin:round;">
<path d="M118105 110827
L160625 110827
" />
</g>
<g style="fill:#000000; fill-opacity:0.0; 
stroke:#000000; stroke-width:39.3701; stroke-opacity:1; 
stroke-linecap:round; stroke-linejoin:round;">
</g>
<g style="fill:#000000; fill-opacity:0.0; 
stroke:#000000; stroke-width:59.0551; stroke-opacity:1; 
stroke-linecap:round; stroke-linejoin:round;">
<path d="M118669 111645
L118669 111055
" />
<path d="M119007 111645
L118754 111308
" />
<path d="M119007 111055
L118669 111392
" />
<path d="M119260 111645
L119260 111252
" />
<path d="M119260 111055
L119232 111083
L119260 111111
L119288 111083
L119260 111055
L119260 111111
" />
<path d="M119878 111589
L119850 111617
L119766 111645
L119710 111645
L119625 111617
L119569 111561
L119541 111505
L119513 111392
L119513 111308
L119541 111196
L119569 111139
L119625 111083
L119710 111055
L119766 111055
L119850 111083
L119878 111111
" />
<path d="M120385 111645
L120385 111336
L120357 111280
L120300 111252
L120188 111252
L120132 111280
" />
<path d="M120385 111617
L120328 111645
L120188 111645
L120132 111617
L120103 111561
L120103 111505
L120132 111449
L120188 111421
L120328 111421
L120385 111392
" />
<path d="M120919 111645
L120919 111055
" />
<path d="M120919 111617
L120863 111645
L120750 111645
L120694 111617
L120666 111589
L120638 111533
L120638 111364
L120666 111308
L120694 111280
L120750 111252
L120863 111252
L120919 111280
" />
<path d="M121650 111336
L121847 111336
" />
<path d="M121931 111645
L121650 111645
L121650 111055
L121931 111055
" />
<path d="M122184 111589
L122213 111617
L122184 111645
L122156 111617
L122184 111589
L122184 111645
" />
<path d="M122466 111645
L122466 111055
L122606 111055
L122691 111083
L122747 111139
L122775 111196
L122803 111308
L122803 111392
L122775 111505
L122747 111561
L122691 111617
L122606 111645
L122466 111645
" />
<path d="M123056 111589
L123084 111617
L123056 111645
L123028 111617
L123056 111589
L123056 111645
" />
<path d="M123309 111477
L123591 111477
" />
<path d="M123253 111645
L123450 111055
L123647 111645
" />
<path d="M123844 111589
L123872 111617
L123844 111645
L123815 111617
L123844 111589
L123844 111645
" />
<path d="M125025 111645
L125025 111055
" />
<path d="M125081 111421
L125250 111645
" />
<path d="M125250 111252
L125025 111477
" />
<path d="M125503 111645
L125503 111252
" />
<path d="M125503 111055
L125475 111083
L125503 111111
L125531 111083
L125503 111055
L125503 111111
" />
<path d="M126037 111617
L125981 111645
L125868 111645
L125812 111617
L125784 111589
L125756 111533
L125756 111364
L125784 111308
L125812 111280
L125868 111252
L125981 111252
L126037 111280
" />
<path d="M126543 111645
L126543 111336
L126515 111280
L126459 111252
L126346 111252
L126290 111280
" />
<path d="M126543 111617
L126487 111645
L126346 111645
L126290 111617
L126262 111561
L126262 111505
L126290 111449
L126346 111421
L126487 111421
L126543 111392
" />
<path d="M127078 111645
L127078 111055
" />
<path d="M127078 111617
L127021 111645
L126909 111645
L126853 111617
L126824 111589
L126796 111533
L126796 111364
L126824 111308
L126853 111280
L126909 111252
L127021 111252
L127078 111280
" />
<path d="M127977 111870
L127949 111842
L127893 111758
L127865 111702
L127837 111617
L127809 111477
L127809 111364
L127837 111224
L127865 111139
L127893 111083
L127949 110999
L127977 110971
" />
<path d="M128174 111111
L128202 111083
L128259 111055
L128399 111055
L128456 111083
L128484 111111
L128512 111167
L128512 111224
L128484 111308
L128146 111645
L128512 111645
" />
<path d="M128877 111055
L128934 111055
L128990 111083
L129018 111111
L129046 111167
L129074 111280
L129074 111421
L129046 111533
L129018 111589
L128990 111617
L128934 111645
L128877 111645
L128821 111617
L128793 111589
L128765 111533
L128737 111421
L128737 111280
L128765 111167
L128793 111111
L128821 111083
L128877 111055
" />
<path d="M129637 111645
L129299 111645
" />
<path d="M129468 111645
L129468 111055
L129412 111139
L129355 111196
L129299 111224
" />
<path d="M130143 111055
L130030 111055
L129974 111083
L129946 111111
L129890 111196
L129862 111308
L129862 111533
L129890 111589
L129918 111617
L129974 111645
L130087 111645
L130143 111617
L130171 111589
L130199 111533
L130199 111392
L130171 111336
L130143 111308
L130087 111280
L129974 111280
L129918 111308
L129890 111336
L129862 111392
" />
<path d="M130452 111421
L130902 111421
" />
<path d="M131493 111645
L131155 111645
" />
<path d="M131324 111645
L131324 111055
L131268 111139
L131211 111196
L131155 111224
" />
<path d="M131718 111111
L131746 111083
L131802 111055
L131943 111055
L131999 111083
L132027 111111
L132055 111167
L132055 111224
L132027 111308
L131689 111645
L132055 111645
" />
<path d="M132308 111421
L132758 111421
" />
<path d="M133349 111645
L133011 111645
" />
<path d="M133180 111645
L133180 111055
L133124 111139
L133067 111196
L133011 111224
" />
<path d="M133686 111308
L133630 111280
L133602 111252
L133574 111196
L133574 111167
L133602 111111
L133630 111083
L133686 111055
L133799 111055
L133855 111083
L133883 111111
L133911 111167
L133911 111196
L133883 111252
L133855 111280
L133799 111308
L133686 111308
L133630 111336
L133602 111364
L133574 111421
L133574 111533
L133602 111589
L133630 111617
L133686 111645
L133799 111645
L133855 111617
L133883 111589
L133911 111533
L133911 111421
L133883 111364
L133855 111336
L133799 111308
" />
<path d="M134614 111645
L134614 111252
" />
<path d="M134614 111364
L134642 111308
L134670 111280
L134727 111252
L134783 111252
" />
<path d="M135205 111617
L135148 111645
L135036 111645
L134980 111617
L134952 111561
L134952 111336
L134980 111280
L135036 111252
L135148 111252
L135205 111280
L135233 111336
L135233 111392
L134952 111449
" />
<path d="M135430 111252
L135570 111645
L135711 111252
" />
<path d="M135936 111645
L135936 111252
" />
<path d="M135936 111055
L135908 111083
L135936 111111
L135964 111083
L135936 111055
L135936 111111
" />
<path d="M136189 111617
L136245 111645
L136358 111645
L136414 111617
L136442 111561
L136442 111533
L136414 111477
L136358 111449
L136273 111449
L136217 111421
L136189 111364
L136189 111336
L136217 111280
L136273 111252
L136358 111252
L136414 111280
" />
<path d="M136695 111645
L136695 111252
" />
<path d="M136695 111055
L136667 111083
L136695 111111
L136723 111083
L136695 111055
L136695 111111
" />
<path d="M137061 111645
L137004 111617
L136976 111589
L136948 111533
L136948 111364
L136976 111308
L137004 111280
L137061 111252
L137145 111252
L137201 111280
L137229 111308
L137258 111364
L137258 111533
L137229 111589
L137201 111617
L137145 111645
L137061 111645
" />
<path d="M137511 111252
L137511 111645
" />
<path d="M137511 111308
L137539 111280
L137595 111252
L137679 111252
L137736 111280
L137764 111336
L137764 111645
" />
<path d="M138439 111055
L138804 111055
L138607 111280
L138692 111280
L138748 111308
L138776 111336
L138804 111392
L138804 111533
L138776 111589
L138748 111617
L138692 111645
L138523 111645
L138467 111617
L138439 111589
" />
<path d="M138973 111252
L139198 111252
" />
<path d="M139057 111645
L139057 111139
L139085 111083
L139142 111055
L139198 111055
" />
<path d="M139310 111252
L139535 111252
" />
<path d="M139395 111645
L139395 111139
L139423 111083
L139479 111055
L139535 111055
" />
<path d="M139985 111645
L139985 111336
L139957 111280
L139901 111252
L139788 111252
L139732 111280
" />
<path d="M139985 111617
L139929 111645
L139788 111645
L139732 111617
L139704 111561
L139704 111505
L139732 111449
L139788 111421
L139929 111421
L139985 111392
" />
<path d="M140210 111055
L140576 111055
L140379 111280
L140463 111280
L140520 111308
L140548 111336
L140576 111392
L140576 111533
L140548 111589
L140520 111617
L140463 111645
L140295 111645
L140238 111617
L140210 111589
" />
<path d="M140773 111055
L141166 111055
L140913 111645
" />
<path d="M141644 111617
L141588 111645
L141476 111645
L141420 111617
L141391 111589
L141363 111533
L141363 111364
L141391 111308
L141420 111280
L141476 111252
L141588 111252
L141644 111280
" />
<path d="M141841 111870
L141869 111842
L141926 111758
L141954 111702
L141982 111617
L142010 111477
L142010 111364
L141982 111224
L141954 111139
L141926 111083
L141869 110999
L141841 110971
" />
<path d="M142291 111421
L142741 111421
" />
<path d="M143022 111645
L143022 111252
" />
<path d="M143022 111308
L143051 111280
L143107 111252
L143191 111252
L143247 111280
L143276 111336
L143276 111645
" />
<path d="M143276 111336
L143304 111280
L143360 111252
L143444 111252
L143501 111280
L143529 111336
L143529 111645
" />
<path d="M144063 111645
L144063 111336
L144035 111280
L143979 111252
L143866 111252
L143810 111280
" />
<path d="M144063 111617
L144007 111645
L143866 111645
L143810 111617
L143782 111561
L143782 111505
L143810 111449
L143866 111421
L144007 111421
L144063 111392
" />
<path d="M144344 111645
L144344 111055
" />
<path d="M144400 111421
L144569 111645
" />
<path d="M144569 111252
L144344 111477
" />
<path d="M145047 111617
L144991 111645
L144878 111645
L144822 111617
L144794 111561
L144794 111336
L144822 111280
L144878 111252
L144991 111252
L145047 111280
L145075 111336
L145075 111392
L144794 111449
" />
<path d="M145328 111252
L145328 111842
" />
<path d="M145328 111280
L145385 111252
L145497 111252
L145553 111280
L145582 111308
L145610 111364
L145610 111533
L145582 111589
L145553 111617
L145497 111645
L145385 111645
L145328 111617
" />
<path d="M145863 111645
L145863 111055
" />
<path d="M145919 111421
L146088 111645
" />
<path d="M146088 111252
L145863 111477
" />
<path d="M146594 111252
L146594 111730
L146566 111786
L146538 111814
L146481 111842
L146397 111842
L146341 111814
" />
<path d="M146594 111617
L146538 111645
L146425 111645
L146369 111617
L146341 111589
L146313 111533
L146313 111364
L146341 111308
L146369 111280
L146425 111252
L146538 111252
L146594 111280
" />
</g>
<g style="fill:#000000; fill-opacity:0.0; 
stroke:#000000; stroke-width:39.3701; stroke-opacity:1; 
stroke-linecap:round; stroke-linejoin:round;">
</g>
<g style="fill:#000000; fill-opacity:0.0; 
stroke:#000000; stroke-width:59.0551; stroke-opacity:1; 
stroke-linecap:round; stroke-linejoin:round;">
<path d="M118105 109646
L160625 109646
" />
</g>
<g style="fill:#000000; fill-opacity:0.0; 
stroke:#000000; stroke-width:39.3701; stroke-opacity:1; 
stroke-linecap:round; stroke-linejoin:round;">
</g>
<g style="fill:#000000; fill-opacity:0.0; 
stroke:#000000; stroke-width:118.11; stroke-opacity:1; 
stroke-linecap:round; stroke-linejoin:round;">
<path d="M152519 110543
L152322 110262
" />
<path d="M152181 110543
L152181 109953
L152406 109953
L152462 109981
L152490 110009
L152519 110065
L152519 110149
L152490 110206
L152462 110234
L152406 110262
L152181 110262
" />
<path d="M152997 110515
L152940 110543
L152828 110543
L152772 110515
L152743 110459
L152743 110234
L152772 110178
L152828 110149
L152940 110149
L152997 110178
L153025 110234
L153025 110290
L152743 110346
" />
<path d="M153222 110149
L153362 110543
L153503 110149
" />
<path d="M153728 110487
L153756 110515
L153728 110543
L153700 110515
L153728 110487
L153728 110543
" />
<path d="M153728 110178
L153756 110206
L153728 110234
L153700 110206
L153728 110178
L153728 110234
" />
<path d="M154571 109953
L154628 109953
L154684 109981
L154712 110009
L154740 110065
L154768 110178
L154768 110318
L154740 110431
L154712 110487
L154684 110515
L154628 110543
L154571 110543
L154515 110515
L154487 110487
L154459 110431
L154431 110318
L154431 110178
L154459 110065
L154487 110009
L154515 109981
L154571 109953
" />
<path d="M155021 110487
L155049 110515
L155021 110543
L154993 110515
L155021 110487
L155021 110543
" />
<path d="M155246 109953
L155640 109953
L155387 110543
" />
</g>
<g style="fill:#000000; fill-opacity:0.0; 
stroke:#000000; stroke-width:39.3701; stroke-opacity:1; 
stroke-linecap:round; stroke-linejoin:round;">
</g>
<g style="fill:#000000; fill-opacity:0.0; 
stroke:#000000; stroke-width:59.0551; stroke-opacity:1; 
stroke-linecap:round; stroke-linejoin:round;">
<path d="M118641 110515
L118725 110543
L118866 110543
L118922 110515
L118950 110487
L118979 110431
L118979 110374
L118950 110318
L118922 110290
L118866 110262
L118754 110234
L118697 110206
L118669 110178
L118641 110121
L118641 110065
L118669 110009
L118697 109981
L118754 109953
L118894 109953
L118979 109981
" />
<path d="M119232 110543
L119232 110149
" />
<path d="M119232 109953
L119204 109981
L119232 110009
L119260 109981
L119232 109953
L119232 110009
" />
<path d="M119457 110149
L119766 110149
L119457 110543
L119766 110543
" />
<path d="M120216 110515
L120160 110543
L120047 110543
L119991 110515
L119963 110459
L119963 110234
L119991 110178
L120047 110149
L120160 110149
L120216 110178
L120244 110234
L120244 110290
L119963 110346
" />
<path d="M120497 110487
L120525 110515
L120497 110543
L120469 110515
L120497 110487
L120497 110543
" />
<path d="M120497 110178
L120525 110206
L120497 110234
L120469 110206
L120497 110178
L120497 110234
" />
<path d="M121200 110374
L121481 110374
" />
<path d="M121144 110543
L121341 109953
L121538 110543
" />
<path d="M121678 109953
L122044 109953
L121847 110178
L121931 110178
L121988 110206
L122016 110234
L122044 110290
L122044 110431
L122016 110487
L121988 110515
L121931 110543
L121763 110543
L121706 110515
L121678 110487
" />
</g>
<g style="fill:#000000; fill-opacity:0.0; 
stroke:#000000; stroke-width:39.3701; stroke-opacity:1; 
stroke-linecap:round; stroke-linejoin:round;">
</g>
<g style="fill:#000000; fill-opacity:0.0; 
stroke:#000000; stroke-width:59.0551; stroke-opacity:1; 
stroke-linecap:round; stroke-linejoin:round;">
<path d="M152134 111645
L152134 111055
" />
<path d="M152668 111645
L152668 111055
" />
<path d="M152668 111617
L152612 111645
L152499 111645
L152443 111617
L152415 111589
L152387 111533
L152387 111364
L152415 111308
L152443 111280
L152499 111252
L152612 111252
L152668 111280
" />
<path d="M152949 111589
L152977 111617
L152949 111645
L152921 111617
L152949 111589
L152949 111645
" />
<path d="M152949 111280
L152977 111308
L152949 111336
L152921 111308
L152949 111280
L152949 111336
" />
<path d="M153990 111645
L153652 111645
" />
<path d="M153821 111645
L153821 111055
L153765 111139
L153709 111196
L153652 111224
" />
<path d="M154665 111027
L154159 111786
" />
<path d="M155171 111645
L154833 111645
" />
<path d="M155002 111645
L155002 111055
L154946 111139
L154890 111196
L154833 111224
" />
</g>
<g style="fill:#000000; fill-opacity:0.0; 
stroke:#000000; stroke-width:39.3701; stroke-opacity:1; 
stroke-linecap:round; stroke-linejoin:round;">
</g>
<g style="fill:#000000; fill-opacity:0.0; 
stroke:#000000; stroke-width:59.0551; stroke-opacity:1; 
stroke-linecap:round; stroke-linejoin:round;">
<path d="M118105 108071
L160625 108071
" />
</g>
<g style="fill:#000000; fill-opacity:0.0; 
stroke:#000000; stroke-width:39.3701; stroke-opacity:1; 
stroke-linecap:round; stroke-linejoin:round;">
</g>
<g style="fill:#000000; fill-opacity:0.0; 
stroke:#000000; stroke-width:157.48; stroke-opacity:1; 
stroke-linecap:round; stroke-linejoin:round;">
<path d="M118780 108349
L119230 108349
" />
<path d="M118906 109136
L119005 108349
" />
<path d="M119394 109136
L119459 108611
" />
<path d="M119492 108349
L119450 108386
L119483 108424
L119525 108386
L119492 108349
L119483 108424
" />
<path d="M119722 108611
L120022 108611
" />
<path d="M119867 108349
L119783 109024
L119811 109099
L119881 109136
L119956 109136
" />
<path d="M120331 109136
L120261 109099
L120233 109024
L120317 108349
" />
<path d="M120936 109099
L120856 109136
L120706 109136
L120636 109099
L120607 109024
L120645 108724
L120692 108649
L120772 108611
L120921 108611
L120992 108649
L121020 108724
L121011 108799
L120626 108874
" />
<path d="M121315 109061
L121348 109099
L121306 109136
L121273 109099
L121315 109061
L121306 109136
" />
<path d="M121367 108649
L121400 108686
L121357 108724
L121325 108686
L121367 108649
L121357 108724
" />
<path d="M122267 108349
L122717 108349
" />
<path d="M122393 109136
L122492 108349
" />
<path d="M122848 109099
L122956 109136
L123143 109136
L123223 109099
L123265 109061
L123312 108986
L123321 108911
L123293 108836
L123260 108799
L123190 108761
L123045 108724
L122974 108686
L122942 108649
L122913 108574
L122923 108499
L122970 108424
L123012 108386
L123092 108349
L123279 108349
L123387 108386
" />
<path d="M124066 108349
L123916 108349
L123837 108386
L123795 108424
L123706 108536
L123649 108686
L123612 108986
L123640 109061
L123673 109099
L123743 109136
L123893 109136
L123973 109099
L124015 109061
L124062 108986
L124085 108799
L124057 108724
L124024 108686
L123954 108649
L123804 108649
L123724 108686
L123682 108724
L123635 108799
" />
<path d="M124854 108349
L124479 108349
L124394 108724
L124437 108686
L124516 108649
L124704 108649
L124774 108686
L124807 108724
L124835 108799
L124812 108986
L124765 109061
L124723 109099
L124643 109136
L124455 109136
L124385 109099
L124352 109061
" />
</g>
<g style="fill:#000000; fill-opacity:0.0; 
stroke:#000000; stroke-width:39.3701; stroke-opacity:1; 
stroke-linecap:round; stroke-linejoin:round;">
</g>
<g style="fill:#000000; fill-opacity:0.0; 
stroke:#000000; stroke-width:59.0551; stroke-opacity:1; 
stroke-linecap:round; stroke-linejoin:round;">
<path d="M118866 107320
L118669 107320
" />
<path d="M118669 107630
L118669 107039
L118950 107039
" />
<path d="M119175 107630
L119175 107236
" />
<path d="M119175 107039
L119147 107067
L119175 107095
L119204 107067
L119175 107039
L119175 107095
" />
<path d="M119541 107630
L119485 107602
L119457 107545
L119457 107039
" />
<path d="M119991 107602
L119935 107630
L119822 107630
L119766 107602
L119738 107545
L119738 107320
L119766 107264
L119822 107236
L119935 107236
L119991 107264
L120019 107320
L120019 107377
L119738 107433
" />
<path d="M120272 107573
L120300 107602
L120272 107630
L120244 107602
L120272 107573
L120272 107630
" />
<path d="M120272 107264
L120300 107292
L120272 107320
L120244 107292
L120272 107264
L120272 107320
" />
<path d="M120919 107039
L121256 107039
" />
<path d="M121088 107630
L121088 107039
" />
<path d="M121425 107602
L121510 107630
L121650 107630
L121706 107602
L121734 107573
L121763 107517
L121763 107461
L121734 107405
L121706 107377
L121650 107349
L121538 107320
L121481 107292
L121453 107264
L121425 107208
L121425 107152
L121453 107095
L121481 107067
L121538 107039
L121678 107039
L121763 107067
" />
<path d="M122269 107039
L122156 107039
L122100 107067
L122072 107095
L122016 107180
L121988 107292
L121988 107517
L122016 107573
L122044 107602
L122100 107630
L122213 107630
L122269 107602
L122297 107573
L122325 107517
L122325 107377
L122297 107320
L122269 107292
L122213 107264
L122100 107264
L122044 107292
L122016 107320
L121988 107377
" />
<path d="M122859 107039
L122578 107039
L122550 107320
L122578 107292
L122634 107264
L122775 107264
L122831 107292
L122859 107320
L122887 107377
L122887 107517
L122859 107573
L122831 107602
L122775 107630
L122634 107630
L122578 107602
L122550 107573
" />
<path d="M123141 107573
L123169 107602
L123141 107630
L123112 107602
L123141 107573
L123141 107630
" />
<path d="M123422 107630
L123422 107039
" />
<path d="M123478 107405
L123647 107630
" />
<path d="M123647 107236
L123422 107461
" />
<path d="M123900 107630
L123900 107236
" />
<path d="M123900 107039
L123872 107067
L123900 107095
L123928 107067
L123900 107039
L123900 107095
" />
<path d="M124434 107602
L124378 107630
L124265 107630
L124209 107602
L124181 107573
L124153 107517
L124153 107349
L124181 107292
L124209 107264
L124265 107236
L124378 107236
L124434 107264
" />
<path d="M124940 107630
L124940 107320
L124912 107264
L124856 107236
L124743 107236
L124687 107264
" />
<path d="M124940 107602
L124884 107630
L124743 107630
L124687 107602
L124659 107545
L124659 107489
L124687 107433
L124743 107405
L124884 107405
L124940 107377
" />
<path d="M125475 107630
L125475 107039
" />
<path d="M125475 107602
L125418 107630
L125306 107630
L125250 107602
L125222 107573
L125193 107517
L125193 107349
L125222 107292
L125250 107264
L125306 107236
L125418 107236
L125475 107264
" />
<path d="M125615 107686
L126065 107686
" />
<path d="M126206 107236
L126206 107827
" />
<path d="M126206 107264
L126262 107236
L126375 107236
L126431 107264
L126459 107292
L126487 107349
L126487 107517
L126459 107573
L126431 107602
L126375 107630
L126262 107630
L126206 107602
" />
<path d="M126993 107602
L126937 107630
L126824 107630
L126768 107602
L126740 107573
L126712 107517
L126712 107349
L126740 107292
L126768 107264
L126824 107236
L126937 107236
L126993 107264
" />
<path d="M127246 107630
L127246 107039
" />
<path d="M127246 107264
L127303 107236
L127415 107236
L127471 107264
L127499 107292
L127528 107349
L127528 107517
L127499 107573
L127471 107602
L127415 107630
L127303 107630
L127246 107602
" />
</g>
<g style="fill:#000000; fill-opacity:0.0; 
stroke:#000000; stroke-width:39.3701; stroke-opacity:1; 
stroke-linecap:round; stroke-linejoin:round;">
</g>
<g style="fill:#000000; fill-opacity:0.0; 
stroke:#000000; stroke-width:59.0551; stroke-opacity:1; 
stroke-linecap:round; stroke-linejoin:round;">
<path d="M118105 105709
L160625 105709
" />
</g>
<g style="fill:#000000; fill-opacity:0.0; 
stroke:#000000; stroke-width:39.3701; stroke-opacity:1; 
stroke-linecap:round; stroke-linejoin:round;">
</g>
<g style="fill:#000000; fill-opacity:0.0; 
stroke:#000000; stroke-width:59.0551; stroke-opacity:1; 
stroke-linecap:round; stroke-linejoin:round;">
<path d="M118641 106539
L118725 106567
L118866 106567
L118922 106539
L118950 106510
L118979 106454
L118979 106398
L118950 106342
L118922 106314
L118866 106286
L118754 106257
L118697 106229
L118669 106201
L118641 106145
L118641 106089
L118669 106032
L118697 106004
L118754 105976
L118894 105976
L118979 106004
" />
<path d="M119232 106567
L119232 105976
" />
<path d="M119485 106567
L119485 106257
L119457 106201
L119400 106173
L119316 106173
L119260 106201
L119232 106229
" />
<path d="M119991 106539
L119935 106567
L119822 106567
L119766 106539
L119738 106482
L119738 106257
L119766 106201
L119822 106173
L119935 106173
L119991 106201
L120019 106257
L120019 106314
L119738 106370
" />
<path d="M120497 106539
L120441 106567
L120328 106567
L120272 106539
L120244 106482
L120244 106257
L120272 106201
L120328 106173
L120441 106173
L120497 106201
L120525 106257
L120525 106314
L120244 106370
" />
<path d="M120694 106173
L120919 106173
" />
<path d="M120778 105976
L120778 106482
L120806 106539
L120863 106567
L120919 106567
" />
<path d="M121116 106510
L121144 106539
L121116 106567
L121088 106539
L121116 106510
L121116 106567
" />
<path d="M121116 106201
L121144 106229
L121116 106257
L121088 106229
L121116 106201
L121116 106257
" />
</g>
<g style="fill:#000000; fill-opacity:0.0; 
stroke:#000000; stroke-width:39.3701; stroke-opacity:1; 
stroke-linecap:round; stroke-linejoin:round;">
</g>
<g style="fill:#000000; fill-opacity:0.0; 
stroke:#000000; stroke-width:118.11; stroke-opacity:1; 
stroke-linecap:round; stroke-linejoin:round;">
<path d="M118716 105386
L118716 104795
L118913 105217
L119110 104795
L119110 105386
" />
<path d="M119504 104795
L119616 104795
L119673 104823
L119729 104879
L119757 104992
L119757 105189
L119729 105301
L119673 105358
L119616 105386
L119504 105386
L119448 105358
L119391 105301
L119363 105189
L119363 104992
L119391 104879
L119448 104823
L119504 104795
" />
<path d="M119954 104795
L120348 104795
L119954 105386
L120348 105386
" />
</g>
<g style="fill:#000000; fill-opacity:0.0; 
stroke:#000000; stroke-width:39.3701; stroke-opacity:1; 
stroke-linecap:round; stroke-linejoin:round;">
</g>
<g style="fill:#000000; fill-opacity:0.0; 
stroke:#000000; stroke-width:59.0551; stroke-opacity:1; 
stroke-linecap:round; stroke-linejoin:round;">
<path d="M125979 109646
L125979 110827
" />
</g>
<g style="fill:#000000; fill-opacity:0.0; 
stroke:#000000; stroke-width:39.3701; stroke-opacity:1; 
stroke-linecap:round; stroke-linejoin:round;">
</g>
<g style="fill:#000000; fill-opacity:0.0; 
stroke:#000000; stroke-width:59.0551; stroke-opacity:1; 
stroke-linecap:round; stroke-linejoin:round;">
<path d="M151176 109646
L151176 112205
" />
</g>
<g style="fill:#C2C200; fill-opacity:0.0; 
stroke:#C2C200; stroke-width:59.0551; stroke-opacity:1; 
stroke-linecap:round; stroke-linejoin:round;">
</g>
<g style="fill:#C2C200; fill-opacity:0.0; 
stroke:#C2C200; stroke-width:50; stroke-opacity:1; 
stroke-linecap:round; stroke-linejoin:round;">
<path d="M86850.4 66456.7 A314.961 314.961 0.0 0 0 87165.4 66141.7 " />
<path d="M84252 66141.7 A314.961 314.961 0.0 0 0 84566.9 66456.7 " />
<path d="M84566 66456
L86850 66456
" />
<path d="M86732 59842
L86850 59842
" />
<path d="M87165.4 60157.5 A314.961 314.961 0.0 0 0 86850.4 59842.5 " />
<path d="M86417.3 59527.6 A314.961 314.961 0.0 0 0 86732.3 59842.5 " />
<path d="M86417.3 52795.3 A314.961 314.961 0.0 0 0 86102.4 52480.3 " />
<path d="M82559.1 52165.4 A314.961 314.961 0.0 0 0 82874 52480.3 " />
<path d="M82559.1 45275.6 A314.961 314.961 0.0 0 0 82244.1 44960.6 " />
<path d="M80708.7 44645.7 A314.961 314.961 0.0 0 0 81023.6 44960.6 " />
<path d="M81023.6 39685 A314.961 314.961 0.0 0 0 80708.7 40000 " />
<path d="M84133.9 39685 A314.961 314.961 0.0 0 0 84448.8 39370.1 " />
<path d="M104331 68031.5 A314.961 314.961 0.0 0 0 104646 68346.5 " />
<path d="M104331 68031.5 A314.961 314.961 0.0 0 0 104016 67716.5 " />
<path d="M101496 67716.5 A314.961 314.961 0.0 0 0 101181 68031.5 " />
<path d="M100866 68346.5 A314.961 314.961 0.0 0 0 101181 68031.5 " />
<path d="M145669 27007.9 A314.961 314.961 0.0 0 0 145354 26692.9 " />
<path d="M150000 32795.3 A984.252 984.252 0.0 0 0 149016 31811 " />
<path d="M145669 30826.8 A984.252 984.252 0.0 0 0 146654 31811 " />
<path d="M97755.9 26692.9 A314.961 314.961 0.0 0 0 97440.9 27007.9 " />
<path d="M95078.7 27126 A314.961 314.961 0.0 0 0 94763.8 26811 " />
<path d="M87519.7 26811 A314.961 314.961 0.0 0 0 87204.7 27126 " />
<path d="M77952.8 31574.8 A196.85 196.85 0.0 0 0 78149.6 31378 " />
<path d="M72815 31378 A196.85 196.85 0.0 0 0 73011.8 31574.8 " />
<path d="M79724.4 28503.9 A314.961 314.961 0.0 0 0 79409.4 28189 " />
<path d="M78464.6 28189 A314.961 314.961 0.0 0 0 78149.6 28503.9 " />
<path d="M72815 28503.9 A314.961 314.961 0.0 0 0 72500 28189 " />
<path d="M70944.9 27874 A314.961 314.961 0.0 0 0 71259.8 28189 " />
<path d="M70944.9 27007.9 A314.961 314.961 0.0 0 0 70629.9 26692.9 " />
<path d="M66338.6 26692.9 A314.961 314.961 0.0 0 0 66023.6 27007.9 " />
<path d="M63661.4 27007.9 A314.961 314.961 0.0 0 0 63346.5 26692.9 " />
<path d="M36535.4 26692.9 A314.961 314.961 0.0 0 0 36220.5 27007.9 " />
<path d="M33070.9 31811 A984.252 984.252 0.0 0 0 32086.6 32795.3 " />
<path d="M35236.2 31811 A984.252 984.252 0.0 0 0 36220.5 30826.8 " />
<path d="M74881.9 68346.5 A314.961 314.961 0.0 0 0 75196.9 68031.5 " />
<path d="M75511.8 67716.5 A314.961 314.961 0.0 0 0 75196.9 68031.5 " />
<path d="M78346.5 68031.5 A314.961 314.961 0.0 0 0 78031.5 67716.5 " />
<path d="M78346.5 68031.5 A314.961 314.961 0.0 0 0 78661.4 68346.5 " />
<path d="M84252 55157.5 A314.961 314.961 0.0 0 0 83937 54842.5 " />
<path d="M80629.9 54527.6 A314.961 314.961 0.0 0 0 80944.9 54842.5 " />
<path d="M80629.9 47637.8 A314.961 314.961 0.0 0 0 80315 47322.8 " />
<path d="M78740.2 47007.9 A314.961 314.961 0.0 0 0 79055.1 47322.8 " />
<path d="M79055.1 37480.3 A314.961 314.961 0.0 0 0 78740.2 37795.3 " />
<path d="M81968.5 37480.3 A314.961 314.961 0.0 0 0 82283.5 37165.4 " />
<path d="M84448.8 33622 A314.961 314.961 0.0 0 0 84133.9 33307.1 " />
<path d="M82598.4 33307.1 A314.961 314.961 0.0 0 0 82283.5 33622 " />
<path d="M86220.5 31417.3 A984.252 984.252 0.0 0 0 87204.7 30433.1 " />
<path d="M79724.4 30433.1 A984.252 984.252 0.0 0 0 80708.7 31417.3 " />
<path d="M94763 26811
L87519 26811
" />
<path d="M97440 27677
L97440 27007
" />
<path d="M95078.7 27677.2 A1181.1 1181.1 0.0 0 0 97440.9 27677.2 " />
<path d="M95078 27677
L95078 27125
" />
<path d="M36535 26692
L63346 26692
" />
<path d="M63661 27677
L63661 27007
" />
<path d="M66023 27677
L66023 27007
" />
<path d="M63661.4 27677.2 A1181.1 1181.1 0.0 0 0 66023.6 27677.2 " />
<path d="M32086 66771
L34251 68346
" />
<path d="M78661 68346
L100866 68346
" />
<path d="M75511 67716
L78031 67716
" />
<path d="M101496 67716
L104015 67716
" />
<path d="M32086 32795
L32086 66771
" />
<path d="M35236 31811
L33070 31811
" />
<path d="M36220 27007
L36220 30826
" />
<path d="M146653 31811
L149015 31811
" />
<path d="M145669 27007
L145669 30826
" />
<path d="M97755 26692
L145354 26692
" />
<path d="M87204 30433
L87204 27125
" />
<path d="M80708 31417
L86220 31417
" />
<path d="M79724 28503
L79724 30433
" />
<path d="M78464 28188
L79409 28188
" />
<path d="M78149 31377
L78149 28503
" />
<path d="M73011 31574
L77952 31574
" />
<path d="M72814 28503
L72814 31377
" />
<path d="M71259 28188
L72500 28188
" />
<path d="M70944 27007
L70944 27874
" />
<path d="M66338 26692
L70629 26692
" />
<path d="M82598 33307
L84133 33307
" />
<path d="M80314 47322
L79055 47322
" />
<path d="M34251 68346
L74881 68346
" />
<path d="M84251 55157
L84251 66141
" />
<path d="M80944 54842
L83937 54842
" />
<path d="M80629 47637
L80629 54527
" />
<path d="M78740 37795
L78740 47007
" />
<path d="M81968 37480
L79055 37480
" />
<path d="M82283 33622
L82283 37165
" />
<path d="M150000 66535
L147322 68346
" />
<path d="M150000 66535
L150000 32795
" />
<path d="M104645 68346
L147322 68346
" />
<path d="M87165 60157
L87165 66141
" />
<path d="M86417 52795
L86417 59527
" />
<path d="M82874 52480
L86102 52480
" />
<path d="M82559 45275
L82559 52165
" />
<path d="M81023 44960
L82244 44960
" />
<path d="M80708 40000
L80708 44645
" />
<path d="M84133 39685
L81023 39685
" />
<path d="M84448 33622
L84448 39370
" />
</g> 
</svg>
