M48
;DRILL file {KiCad 4.0.1-stable} date 5/21/2016 1:06:25 AM
;FORMAT={-:-/ absolute / metric / decimal}
FMAT,2
METRIC,TZ
T1C0.700
T2C0.986
T3C0.988
T4C1.702
T5C2.370
T6C2.372
T7C2.500
T8C3.048
T9C3.988
T10C6.000
%
G90
G05
M71
T1
X208.75Y-80.06
X208.75Y-81.33
X208.75Y-82.6
X208.75Y-83.87
X208.75Y-85.14
X213.75Y-168.26
X213.75Y-169.53
X213.75Y-170.8
X213.75Y-172.07
X213.75Y-173.34
X214.75Y-80.06
X214.75Y-81.33
X214.75Y-82.6
X214.75Y-83.87
X214.75Y-85.14
X221.65Y-168.26
X221.65Y-169.53
X221.65Y-170.8
X221.65Y-172.07
X221.65Y-173.34
T2
X110.998Y-128.778
X110.998Y-130.81
T3
X105.918Y-129.794
T4
X83.096Y-88.468
X85.477Y-126.568
X85.477Y-145.618
X85.477Y-164.668
X87.859Y-107.518
X87.859Y-164.668
X93.256Y-88.468
X95.002Y-145.618
X95.637Y-145.618
X95.637Y-164.668
X98.019Y-107.518
X98.019Y-164.668
X100.4Y-126.568
X102.146Y-88.468
X105.162Y-145.618
X106.909Y-145.618
X106.909Y-164.668
X109.29Y-164.668
X111.671Y-107.448
X112.306Y-88.468
X116.434Y-126.568
X117.069Y-145.618
X119.45Y-164.668
X121.196Y-88.468
X121.831Y-107.448
X121.831Y-164.668
X125.958Y-145.618
X125.958Y-164.668
X126.594Y-126.568
X130.721Y-107.518
X131.356Y-88.468
X133.102Y-164.668
X135.484Y-126.568
X136.118Y-145.618
X140.246Y-88.468
X140.881Y-107.518
X143.262Y-164.668
X145.008Y-145.618
X145.644Y-126.568
X145.644Y-164.668
X147.39Y-164.668
X149.771Y-107.518
X149.771Y-164.668
X150.406Y-88.468
X154.534Y-126.568
X154.534Y-164.668
X155.168Y-145.618
X156.915Y-164.668
X157.55Y-164.668
X159.296Y-88.468
X159.931Y-107.518
X164.059Y-145.618
X164.694Y-126.568
X168.821Y-107.518
X169.456Y-88.468
X169.456Y-164.668
X171.202Y-164.668
X171.837Y-164.668
X173.583Y-126.568
X174.219Y-145.618
X178.346Y-88.468
X178.981Y-107.518
X181.362Y-164.668
X183.108Y-145.618
X183.743Y-126.568
X185.49Y-164.668
X187.871Y-107.518
X188.506Y-88.468
X192.633Y-126.568
X192.633Y-164.668
X193.268Y-145.618
X195.65Y-164.668
X197.396Y-88.468
X198.031Y-107.518
X200.412Y-164.668
X202.158Y-145.618
X202.158Y-164.668
X202.793Y-126.568
X202.793Y-164.668
X206.921Y-107.518
X207.556Y-88.468
X211.683Y-126.568
X212.318Y-145.618
X212.318Y-164.668
X216.446Y-88.468
X217.081Y-107.518
X221.209Y-145.618
X221.843Y-126.568
X225.971Y-107.448
X226.606Y-88.468
X230.734Y-126.568
X230.734Y-164.668
X231.369Y-145.618
X233.115Y-164.668
X235.496Y-88.468
X236.131Y-107.448
X237.877Y-164.668
X240.259Y-145.618
X240.894Y-126.568
X240.894Y-164.668
X245.021Y-107.518
X245.656Y-88.468
X248.037Y-164.668
X249.784Y-126.568
X250.419Y-145.618
X254.546Y-88.468
X255.181Y-107.518
X259.308Y-145.618
X259.944Y-126.568
X261.69Y-164.668
X264.071Y-107.518
X264.071Y-164.668
X264.706Y-88.468
X268.834Y-126.568
X269.468Y-145.618
X271.85Y-164.668
X273.596Y-88.468
X273.596Y-164.668
X274.231Y-107.518
X274.231Y-164.668
X275.977Y-164.668
X276.612Y-164.668
X278.358Y-145.618
X278.994Y-126.568
X283.121Y-107.518
X283.756Y-88.468
X283.756Y-164.668
X285.502Y-164.668
X286.137Y-164.668
X287.884Y-126.568
X288.518Y-145.618
X290.265Y-164.668
X292.646Y-88.468
X292.646Y-164.668
X293.281Y-107.518
X297.409Y-145.618
X297.409Y-164.668
X298.044Y-126.568
X299.79Y-164.668
X300.425Y-164.668
X302.171Y-107.518
X302.806Y-88.468
X306.933Y-126.568
X306.933Y-164.668
X307.569Y-145.618
X307.569Y-164.668
X309.315Y-164.668
X309.95Y-164.668
X311.696Y-88.468
X311.696Y-164.668
X312.331Y-107.518
X317.093Y-126.568
X319.475Y-164.668
X321.221Y-107.518
X321.856Y-88.468
X321.856Y-164.668
X323.602Y-145.618
X323.602Y-164.668
X325.983Y-126.568
X330.746Y-88.468
X330.746Y-164.668
X331.381Y-107.518
X333.127Y-145.618
X333.762Y-145.618
X333.762Y-164.668
X336.143Y-126.568
X337.89Y-126.568
X340.271Y-88.468
X340.906Y-88.468
X340.906Y-164.668
X343.287Y-145.618
X345.033Y-107.645
X347.415Y-126.568
X347.415Y-164.668
X348.05Y-126.568
X349.796Y-88.468
X349.796Y-145.618
X349.796Y-164.668
X350.431Y-88.468
X352.495Y-122.123
X355.193Y-107.645
X357.575Y-126.568
X357.575Y-164.668
X359.956Y-88.468
X359.956Y-145.618
X359.956Y-164.668
X368.846Y-88.468
X368.846Y-107.518
X368.846Y-126.568
X368.846Y-145.618
X368.846Y-164.668
X379.006Y-88.468
X379.006Y-107.518
X379.006Y-126.568
X379.006Y-145.618
X379.006Y-164.668
T5
X106.045Y-127.254
X109.093Y-127.254
X109.093Y-132.334
T6
X105.918Y-132.334
T7
X93.714Y-73.025
X104.914Y-73.025
T8
X88.144Y-138.633
X112.02Y-138.633
X164.344Y-171.653
X178.632Y-171.653
X183.394Y-171.653
X185.775Y-171.653
X188.22Y-171.653
X202.508Y-171.653
X207.27Y-171.653
X209.651Y-171.653
X223.876Y-171.653
X226.257Y-171.653
X231.019Y-171.653
X247.752Y-171.653
X250.133Y-171.653
X254.895Y-171.653
X326.269Y-138.633
X331.032Y-133.553
X333.413Y-81.483
X350.145Y-138.633
X354.908Y-133.553
X357.289Y-81.483
X359.48Y-105.105
X359.48Y-128.981
T9
X88.144Y-153.873
X88.176Y-88.468
X90.557Y-126.568
X90.557Y-145.618
X90.557Y-164.668
X92.939Y-107.518
X92.939Y-164.668
X95.32Y-126.568
X100.082Y-145.618
X107.226Y-88.468
X111.989Y-145.618
X111.989Y-164.668
X112.02Y-153.873
X114.37Y-164.668
X116.751Y-107.448
X116.751Y-164.668
X121.514Y-126.568
X126.276Y-88.468
X131.038Y-145.618
X131.038Y-164.668
X135.801Y-107.518
X135.801Y-164.668
X138.182Y-164.668
X140.564Y-126.568
X140.564Y-164.668
X145.326Y-88.468
X150.088Y-145.618
X152.47Y-164.668
X154.851Y-107.518
X154.851Y-164.668
X159.614Y-126.568
X159.614Y-164.668
X161.995Y-164.668
X164.344Y-156.413
X164.376Y-88.468
X164.376Y-164.668
X166.757Y-164.668
X169.139Y-145.618
X173.901Y-107.518
X176.282Y-164.668
X178.632Y-156.413
X178.663Y-126.568
X183.394Y-156.413
X183.426Y-88.468
X185.775Y-156.413
X188.188Y-145.618
X188.22Y-156.413
X190.57Y-164.668
X192.951Y-107.518
X195.332Y-164.668
X197.713Y-126.568
X197.713Y-164.668
X202.476Y-88.468
X202.508Y-156.413
X207.238Y-145.618
X207.238Y-164.668
X207.27Y-156.413
X209.651Y-156.413
X212.001Y-107.518
X216.763Y-126.568
X221.526Y-88.468
X223.876Y-156.413
X226.257Y-156.413
X226.289Y-145.618
X231.019Y-156.413
X231.051Y-107.448
X235.814Y-126.568
X235.814Y-164.668
X238.195Y-164.668
X240.576Y-88.468
X242.957Y-164.668
X245.339Y-145.618
X247.752Y-156.413
X250.101Y-107.518
X250.133Y-156.413
X254.864Y-126.568
X254.895Y-156.413
X259.626Y-88.468
X264.388Y-145.618
X266.77Y-164.668
X269.151Y-107.518
X269.151Y-164.668
X271.532Y-164.668
X273.914Y-126.568
X273.914Y-164.668
X278.676Y-88.468
X278.676Y-164.668
X281.057Y-164.668
X283.438Y-145.618
X283.438Y-164.668
X288.201Y-107.518
X290.582Y-164.668
X292.964Y-126.568
X295.345Y-164.668
X297.726Y-88.468
X297.726Y-164.668
X302.489Y-145.618
X302.489Y-164.668
X304.87Y-164.668
X307.251Y-107.518
X312.013Y-126.568
X312.013Y-164.668
X314.395Y-164.668
X316.776Y-88.468
X316.776Y-164.668
X326.269Y-153.873
X326.301Y-107.518
X328.682Y-145.618
X328.682Y-164.668
X331.032Y-118.313
X331.063Y-126.568
X333.413Y-96.723
X335.826Y-88.468
X335.826Y-164.668
X338.207Y-145.618
X342.97Y-126.568
X344.24Y-105.105
X344.24Y-128.981
X345.351Y-88.468
X350.113Y-107.645
X350.145Y-153.873
X352.495Y-117.043
X352.495Y-126.568
X352.495Y-164.668
X354.876Y-88.468
X354.876Y-145.618
X354.876Y-164.668
X354.908Y-118.313
X357.289Y-96.723
X373.926Y-88.468
X373.926Y-107.518
X373.926Y-126.568
X373.926Y-145.618
X373.926Y-164.668
T10
X107.939Y-121.018
X363.462Y-117.043
T0
M30
