M48
;DRILL file {KiCad 4.0.1-stable} date 5/21/2016 3:34:09 PM
;FORMAT={-:-/ absolute / metric / decimal}
FMAT,2
METRIC,TZ
T1C0.305
T2C0.450
T3C0.600
T4C0.650
T5C0.700
T6C0.800
T7C1.001
T8C1.016
T9C1.400
T10C1.500
%
G90
G05
M71
T1
X85.344Y-100.457
X86.055Y-98.057
X86.906Y-97.168
X95.046Y-85.394
X95.885Y-85.598
X97.028Y-93.853
X97.79Y-95.987
X100.076Y-134.239
X100.076Y-153.924
X100.076Y-155.956
X103.124Y-97.282
X105.004Y-99.822
X105.029Y-142.494
X107.315Y-77.597
X107.569Y-143.129
X109.347Y-125.222
X109.855Y-80.137
X111.125Y-124.587
X111.76Y-85.003
X111.983Y-81.483
X112.903Y-130.048
X113.284Y-82.423
X115.57Y-86.868
X115.951Y-123.317
X116.84Y-104.267
X118.237Y-90.932
X118.872Y-91.948
X119.507Y-89.789
X120.523Y-95.25
X121.285Y-96.012
X121.666Y-114.046
X122.174Y-77.47
X122.428Y-103.505
X123.317Y-77.47
X124.46Y-113.03
X124.587Y-77.47
X125.603Y-161.925
X125.705Y-93.98
X126.492Y-77.597
X127.635Y-77.343
X127.889Y-130.175
X128.016Y-78.232
X129.667Y-78.867
X130.175Y-70.485
X130.352Y-73.837
X130.937Y-79.248
X131.318Y-84.963
X132.118Y-86.589
X138.557Y-97.536
X138.811Y-84.836
X140.208Y-90.805
X141.224Y-78.486
X141.986Y-95.885
X142.621Y-70.104
X143.637Y-86.487
X143.764Y-79.248
X147.574Y-114.935
X150.241Y-78.74
X150.241Y-115.189
X151.384Y-79.502
X151.511Y-90.297
X151.892Y-117.856
X152.4Y-79.248
X152.908Y-68.707
X153.797Y-89.408
X153.924Y-74.041
X154.686Y-80.264
X154.94Y-69.596
X155.194Y-81.915
X155.829Y-74.549
X155.956Y-75.692
X156.337Y-78.994
X156.464Y-80.01
X156.464Y-98.806
X157.099Y-93.218
X157.226Y-80.01
X158.623Y-76.708
X159.131Y-71.755
X159.639Y-150.368
X160.274Y-72.39
X160.528Y-83.058
X160.782Y-90.17
X160.909Y-69.723
X161.163Y-73.406
X162.306Y-76.835
X162.56Y-78.486
X163.449Y-105.029
X165.354Y-75.692
X165.608Y-105.029
X166.116Y-85.471
X169.545Y-84.709
X170.561Y-71.247
X170.942Y-104.14
X171.45Y-77.216
X172.593Y-85.598
X173.634Y-162.814
X174.396Y-90.424
X174.752Y-93.98
X174.879Y-85.344
X175.641Y-154.432
X177.038Y-86.233
X177.927Y-77.851
X178.308Y-113.665
X178.431Y-93.222
X178.943Y-86.995
X179.07Y-90.932
X180.213Y-74.041
X180.467Y-108.966
X181.356Y-169.672
X181.991Y-98.171
X182.753Y-106.934
X183.642Y-95.504
X185.928Y-82.169
X186.309Y-85.344
X187.325Y-87.249
X188.087Y-122.301
X188.849Y-117.602
X188.976Y-85.725
X189.484Y-90.678
X189.738Y-83.566
X190.246Y-103.124
X190.5Y-126.238
X191.643Y-83.566
X193.929Y-84.455
X195.834Y-137.287
X195.961Y-85.217
X195.961Y-123.825
X196.469Y-105.537
X196.494Y-89.916
X196.723Y-157.099
X197.104Y-85.217
X199.136Y-84.328
X223.901Y-100.076
X229.108Y-85.852
X231.013Y-75.057
X232.664Y-152.654
X232.791Y-86.106
X235.204Y-95.504
X236.093Y-155.829
X237.49Y-73.152
X238.125Y-74.168
X238.76Y-76.327
X238.887Y-75.057
X243.84Y-85.09
X244.602Y-77.851
X254.Y-75.057
X254.Y-77.855
X254.254Y-73.279
X254.889Y-75.565
X255.143Y-76.581
X255.905Y-77.089
X258.318Y-80.01
X260.35Y-124.714
X261.112Y-73.787
X262.636Y-74.549
X263.017Y-105.664
X263.525Y-75.184
X264.668Y-86.614
X271.018Y-144.018
X285.242Y-75.819
X288.417Y-163.322
X304.927Y-76.581
X326.009Y-77.322
X340.614Y-77.724
X361.95Y-78.359
X364.236Y-94.361
X364.871Y-159.131
X365.379Y-154.305
X365.633Y-78.613
X369.443Y-100.203
T6
X86.906Y-83.388
X89.287Y-121.488
X89.287Y-140.538
X89.287Y-159.588
X89.446Y-83.388
X91.669Y-102.438
X91.669Y-159.588
X91.827Y-121.488
X91.827Y-140.538
X91.827Y-159.588
X94.05Y-121.488
X94.209Y-102.438
X94.209Y-159.588
X96.59Y-121.488
X98.812Y-140.538
X101.352Y-140.538
X105.957Y-83.388
X108.497Y-83.388
X110.719Y-140.538
X110.719Y-159.588
X113.1Y-159.588
X113.259Y-140.538
X113.259Y-159.588
X115.481Y-102.438
X115.481Y-159.588
X115.64Y-159.588
X118.021Y-102.438
X118.021Y-159.588
X120.244Y-121.488
X122.784Y-121.488
X125.006Y-83.388
X127.546Y-83.388
X129.768Y-140.538
X129.768Y-159.588
X132.308Y-140.538
X132.308Y-159.588
X134.531Y-102.438
X134.531Y-159.588
X136.912Y-159.588
X137.071Y-102.438
X137.071Y-159.588
X139.294Y-121.488
X139.294Y-159.588
X139.452Y-159.588
X141.834Y-121.488
X141.834Y-159.588
X144.056Y-83.388
X146.596Y-83.388
X148.818Y-140.538
X151.2Y-159.588
X151.358Y-140.538
X153.581Y-102.438
X153.581Y-159.588
X153.74Y-159.588
X156.121Y-102.438
X156.121Y-159.588
X158.344Y-121.488
X158.344Y-159.588
X160.725Y-159.588
X160.884Y-121.488
X160.884Y-159.588
X163.106Y-83.388
X163.106Y-159.588
X163.265Y-159.588
X165.487Y-159.588
X165.646Y-83.388
X165.646Y-159.588
X167.869Y-140.538
X168.027Y-159.588
X170.409Y-140.538
X172.631Y-102.438
X175.012Y-159.588
X175.171Y-102.438
X177.393Y-121.488
X177.552Y-159.588
X179.933Y-121.488
X182.156Y-83.388
X184.696Y-83.388
X186.918Y-140.538
X189.3Y-159.588
X189.458Y-140.538
X191.681Y-102.438
X191.84Y-159.588
X194.062Y-159.588
X194.221Y-102.438
X196.443Y-121.488
X196.443Y-159.588
X196.602Y-159.588
X198.983Y-121.488
X198.983Y-159.588
X201.206Y-83.388
X203.746Y-83.388
X205.968Y-140.538
X205.968Y-159.588
X208.508Y-140.538
X208.508Y-159.588
X210.731Y-102.438
X213.271Y-102.438
X215.493Y-121.488
X218.033Y-121.488
X220.256Y-83.388
X222.796Y-83.388
X225.019Y-140.538
X227.559Y-140.538
X229.781Y-102.438
X232.321Y-102.438
X234.544Y-121.488
X234.544Y-159.588
X236.925Y-159.588
X237.084Y-121.488
X237.084Y-159.588
X239.306Y-83.388
X239.465Y-159.588
X241.687Y-159.588
X241.846Y-83.388
X244.069Y-140.538
X244.227Y-159.588
X246.609Y-140.538
X248.831Y-102.438
X251.371Y-102.438
X253.594Y-121.488
X256.134Y-121.488
X258.356Y-83.388
X260.896Y-83.388
X263.118Y-140.538
X265.5Y-159.588
X265.658Y-140.538
X267.881Y-102.438
X267.881Y-159.588
X268.04Y-159.588
X270.262Y-159.588
X270.421Y-102.438
X270.421Y-159.588
X272.644Y-121.488
X272.644Y-159.588
X272.802Y-159.588
X275.184Y-121.488
X275.184Y-159.588
X277.406Y-83.388
X277.406Y-159.588
X279.787Y-159.588
X279.946Y-83.388
X279.946Y-159.588
X282.168Y-140.538
X282.168Y-159.588
X282.327Y-159.588
X284.708Y-140.538
X284.708Y-159.588
X286.931Y-102.438
X289.312Y-159.588
X289.471Y-102.438
X291.694Y-121.488
X291.852Y-159.588
X294.075Y-159.588
X294.234Y-121.488
X296.456Y-83.388
X296.456Y-159.588
X296.615Y-159.588
X298.996Y-83.388
X298.996Y-159.588
X301.219Y-140.538
X301.219Y-159.588
X303.6Y-159.588
X303.759Y-140.538
X303.759Y-159.588
X305.981Y-102.438
X306.14Y-159.588
X308.521Y-102.438
X310.743Y-121.488
X310.743Y-159.588
X313.125Y-159.588
X313.283Y-121.488
X313.283Y-159.588
X315.506Y-83.388
X315.506Y-159.588
X315.665Y-159.588
X318.046Y-83.388
X318.046Y-159.588
X325.031Y-102.438
X327.412Y-140.538
X327.412Y-159.588
X327.571Y-102.438
X329.793Y-121.488
X329.952Y-140.538
X329.952Y-159.588
X332.333Y-121.488
X334.556Y-83.388
X334.556Y-159.588
X336.937Y-140.538
X337.096Y-83.388
X337.096Y-159.588
X339.477Y-140.538
X341.7Y-121.488
X344.081Y-83.388
X344.24Y-121.488
X346.621Y-83.388
X347.415Y-115.773
X347.415Y-118.313
X348.843Y-102.438
X351.225Y-121.488
X351.225Y-159.588
X351.383Y-102.438
X353.606Y-83.388
X353.606Y-140.538
X353.606Y-159.588
X353.765Y-121.488
X353.765Y-159.588
X356.146Y-83.388
X356.146Y-140.538
X356.146Y-159.588
X372.656Y-83.388
X372.656Y-102.438
X372.656Y-121.488
X372.656Y-140.538
X372.656Y-159.588
X375.196Y-83.388
X375.196Y-102.438
X375.196Y-121.488
X375.196Y-140.538
X375.196Y-159.588
T7
X94.Y-69.46
X94.Y-72.
X98.Y-69.46
X98.Y-72.
X102.Y-69.46
X102.Y-72.
X111.Y-69.46
X111.Y-72.
X115.Y-69.46
X115.Y-72.
X119.Y-69.46
X119.Y-72.
T8
X96.814Y-80.525
X99.314Y-80.525
X101.814Y-80.525
X102.362Y-110.236
X102.362Y-112.776
X102.362Y-115.316
X102.362Y-117.856
X102.362Y-120.396
X102.362Y-122.936
X169.545Y-75.311
X169.545Y-77.851
X172.339Y-91.186
X172.339Y-93.726
X188.214Y-124.333
X188.214Y-126.873
X188.214Y-129.413
X188.214Y-131.953
X188.214Y-134.493
X191.008Y-93.472
X191.389Y-89.789
X193.548Y-93.472
X193.929Y-89.789
X225.298Y-78.486
X226.314Y-126.111
X226.314Y-128.651
X226.314Y-131.191
X226.314Y-133.731
X226.314Y-136.271
X227.838Y-78.486
X230.378Y-78.486
X232.918Y-78.486
X235.458Y-78.486
X237.998Y-78.486
T9
X284.875Y-167.108
X286.096Y-168.668
T10
X85.743Y-93.548
X85.783Y-92.968
X88.124Y-131.648
X88.124Y-150.698
X88.124Y-169.748
X88.164Y-131.068
X88.164Y-150.118
X88.164Y-169.168
X90.506Y-112.598
X90.506Y-169.748
X90.546Y-112.018
X90.546Y-169.168
X90.784Y-92.468
X92.094Y-91.008
X92.887Y-131.648
X92.927Y-131.068
X93.165Y-130.568
X93.165Y-149.618
X93.165Y-168.668
X94.475Y-129.108
X94.475Y-148.158
X94.475Y-167.208
X95.547Y-111.518
X95.547Y-168.668
X96.857Y-110.058
X96.857Y-167.208
X97.649Y-150.698
X97.689Y-150.118
X97.928Y-130.568
X99.238Y-129.108
X102.69Y-149.618
X104.Y-148.158
X104.793Y-93.548
X104.833Y-92.968
X109.556Y-150.698
X109.556Y-169.748
X109.596Y-150.118
X109.596Y-169.168
X109.834Y-92.468
X111.144Y-91.008
X111.937Y-169.748
X111.977Y-169.168
X114.318Y-112.528
X114.318Y-169.748
X114.358Y-111.948
X114.358Y-169.168
X114.597Y-149.618
X114.597Y-168.668
X115.907Y-148.158
X115.907Y-167.208
X116.978Y-168.668
X118.188Y-167.108
X119.081Y-131.648
X119.121Y-131.068
X119.359Y-111.448
X119.459Y-168.768
X120.669Y-109.988
X120.669Y-167.208
X123.843Y-93.548
X123.883Y-92.968
X124.122Y-130.568
X125.432Y-129.108
X128.605Y-150.698
X128.605Y-169.748
X128.645Y-150.118
X128.645Y-169.168
X128.884Y-92.468
X130.194Y-91.008
X133.368Y-112.598
X133.368Y-169.748
X133.408Y-112.018
X133.408Y-169.168
X133.646Y-149.618
X133.646Y-168.668
X134.956Y-148.158
X134.956Y-167.208
X135.749Y-169.748
X135.789Y-169.168
X138.131Y-131.648
X138.131Y-169.748
X138.171Y-131.068
X138.171Y-169.168
X138.409Y-111.518
X138.409Y-168.668
X139.719Y-110.058
X139.719Y-167.208
X140.79Y-168.668
X142.Y-167.108
X142.893Y-93.548
X142.933Y-92.968
X143.172Y-130.568
X143.272Y-168.768
X144.482Y-129.108
X144.482Y-167.208
X147.655Y-150.698
X147.695Y-150.118
X147.934Y-92.468
X149.244Y-91.008
X150.037Y-169.748
X150.077Y-169.168
X152.418Y-112.598
X152.418Y-169.748
X152.458Y-112.018
X152.458Y-169.168
X152.696Y-149.618
X154.006Y-148.158
X155.078Y-168.668
X156.388Y-167.208
X157.181Y-131.648
X157.181Y-169.748
X157.221Y-131.068
X157.221Y-169.168
X157.459Y-111.518
X157.459Y-168.668
X158.769Y-110.058
X158.769Y-167.208
X159.562Y-169.748
X159.602Y-169.168
X161.943Y-93.548
X161.943Y-169.748
X161.983Y-92.968
X161.983Y-169.168
X162.222Y-130.568
X162.222Y-168.668
X163.532Y-129.108
X163.532Y-167.208
X164.324Y-169.748
X164.364Y-169.168
X164.603Y-168.668
X165.813Y-167.108
X166.706Y-150.698
X166.746Y-150.118
X166.984Y-92.468
X167.084Y-168.768
X168.294Y-91.008
X168.294Y-167.208
X169.365Y-168.668
X170.675Y-167.208
X171.468Y-112.598
X171.508Y-112.018
X171.747Y-149.618
X173.057Y-148.158
X173.849Y-169.748
X173.889Y-169.168
X176.23Y-131.648
X176.27Y-131.068
X176.509Y-111.518
X177.819Y-110.058
X178.89Y-168.668
X180.2Y-167.208
X180.993Y-93.548
X181.033Y-92.968
X181.271Y-130.568
X182.581Y-129.108
X185.755Y-150.698
X185.795Y-150.118
X186.034Y-92.468
X187.344Y-91.008
X188.137Y-169.748
X188.177Y-169.168
X190.518Y-112.598
X190.558Y-112.018
X190.796Y-149.618
X192.106Y-148.158
X192.899Y-169.748
X192.939Y-169.168
X193.178Y-168.668
X194.488Y-167.208
X195.28Y-131.648
X195.28Y-169.748
X195.32Y-131.068
X195.32Y-169.168
X195.559Y-111.518
X196.869Y-110.058
X197.94Y-168.668
X199.25Y-167.208
X200.043Y-93.548
X200.083Y-92.968
X200.321Y-130.568
X200.321Y-168.668
X201.631Y-129.108
X201.631Y-167.208
X204.805Y-150.698
X204.805Y-169.748
X204.845Y-150.118
X204.845Y-169.168
X205.084Y-92.468
X206.394Y-91.008
X209.568Y-112.598
X209.608Y-112.018
X209.846Y-149.618
X209.846Y-168.668
X211.156Y-148.158
X211.156Y-167.208
X214.33Y-131.648
X214.37Y-131.068
X214.609Y-111.518
X215.919Y-110.058
X219.093Y-93.548
X219.133Y-92.968
X219.371Y-130.568
X220.681Y-129.108
X223.856Y-150.698
X223.896Y-150.118
X224.134Y-92.468
X225.444Y-91.008
X228.618Y-112.528
X228.658Y-111.948
X228.897Y-149.618
X230.207Y-148.158
X233.381Y-131.648
X233.381Y-169.748
X233.421Y-131.068
X233.421Y-169.168
X233.659Y-111.448
X234.969Y-109.988
X235.762Y-169.748
X235.802Y-169.168
X238.143Y-93.548
X238.183Y-92.968
X238.422Y-130.568
X238.422Y-168.668
X239.732Y-129.108
X239.732Y-167.208
X240.524Y-169.748
X240.564Y-169.168
X240.803Y-168.668
X242.113Y-167.208
X242.906Y-150.698
X242.946Y-150.118
X243.184Y-92.468
X244.494Y-91.008
X245.565Y-168.668
X246.875Y-167.208
X247.668Y-112.598
X247.708Y-112.018
X247.947Y-149.618
X249.257Y-148.158
X252.431Y-131.648
X252.471Y-131.068
X252.709Y-111.518
X254.019Y-110.058
X257.193Y-93.548
X257.233Y-92.968
X257.472Y-130.568
X258.782Y-129.108
X261.955Y-150.698
X261.995Y-150.118
X262.234Y-92.468
X263.544Y-91.008
X264.337Y-169.748
X264.377Y-169.168
X266.718Y-112.598
X266.718Y-169.748
X266.758Y-112.018
X266.758Y-169.168
X266.996Y-149.618
X268.306Y-148.158
X269.099Y-169.748
X269.139Y-169.168
X269.378Y-168.668
X270.688Y-167.208
X271.481Y-131.648
X271.481Y-169.748
X271.521Y-131.068
X271.521Y-169.168
X271.759Y-111.518
X271.759Y-168.668
X272.969Y-167.108
X273.069Y-110.058
X274.24Y-168.768
X275.45Y-167.208
X276.243Y-93.548
X276.243Y-169.748
X276.283Y-92.968
X276.283Y-169.168
X276.522Y-130.568
X276.522Y-168.668
X277.832Y-129.108
X277.832Y-167.208
X278.624Y-169.748
X278.664Y-169.168
X281.005Y-150.698
X281.005Y-169.748
X281.045Y-150.118
X281.045Y-169.168
X281.284Y-92.468
X281.284Y-168.668
X282.594Y-91.008
X282.594Y-167.208
X283.665Y-168.668
X285.768Y-112.598
X285.808Y-112.018
X286.046Y-149.618
X287.256Y-167.108
X287.356Y-148.158
X288.149Y-169.748
X288.189Y-169.168
X290.531Y-131.648
X290.571Y-131.068
X290.809Y-111.518
X292.119Y-110.058
X292.912Y-169.748
X292.952Y-169.168
X293.19Y-168.668
X294.5Y-167.208
X295.293Y-93.548
X295.293Y-169.748
X295.333Y-92.968
X295.333Y-169.168
X295.572Y-130.568
X296.882Y-129.108
X297.953Y-168.668
X299.263Y-167.208
X300.056Y-150.698
X300.056Y-169.748
X300.096Y-150.118
X300.096Y-169.168
X300.334Y-92.468
X300.334Y-168.668
X301.644Y-91.008
X301.644Y-167.208
X302.437Y-169.748
X302.477Y-169.168
X304.818Y-112.598
X304.858Y-112.018
X305.097Y-149.618
X305.097Y-168.668
X306.407Y-148.158
X306.407Y-167.208
X307.478Y-168.668
X308.788Y-167.208
X309.58Y-131.648
X309.58Y-169.748
X309.62Y-131.068
X309.62Y-169.168
X309.859Y-111.518
X311.169Y-110.058
X311.962Y-169.748
X312.002Y-169.168
X314.343Y-93.548
X314.343Y-169.748
X314.383Y-92.968
X314.383Y-169.168
X314.621Y-130.568
X314.621Y-168.668
X315.931Y-129.108
X315.931Y-167.208
X317.003Y-168.668
X318.213Y-167.108
X319.384Y-92.468
X319.484Y-168.768
X320.694Y-91.008
X320.694Y-167.208
X323.868Y-112.598
X323.908Y-112.018
X326.249Y-150.698
X326.249Y-169.748
X326.289Y-150.118
X326.289Y-169.168
X328.63Y-131.648
X328.67Y-131.068
X328.909Y-111.518
X330.219Y-110.058
X331.29Y-149.618
X331.29Y-168.668
X332.6Y-148.158
X332.6Y-167.208
X333.393Y-93.548
X333.393Y-169.748
X333.433Y-92.968
X333.433Y-169.168
X333.671Y-130.568
X334.981Y-129.108
X335.774Y-150.698
X335.814Y-150.118
X338.434Y-92.468
X338.434Y-168.668
X339.744Y-91.008
X339.744Y-167.208
X340.537Y-131.648
X340.577Y-131.068
X340.815Y-149.618
X342.125Y-148.158
X342.918Y-93.548
X342.958Y-92.968
X345.578Y-130.568
X346.888Y-129.108
X347.68Y-112.725
X347.72Y-112.145
X347.959Y-92.468
X349.269Y-91.008
X350.062Y-131.648
X350.062Y-169.748
X350.102Y-131.068
X350.102Y-169.168
X352.443Y-93.548
X352.443Y-150.698
X352.443Y-169.748
X352.483Y-92.968
X352.483Y-150.118
X352.483Y-169.168
X352.721Y-111.645
X354.031Y-110.185
X355.035Y-113.125
X355.103Y-130.568
X355.103Y-168.668
X356.413Y-129.108
X356.413Y-167.208
X356.495Y-114.435
X356.995Y-119.436
X357.484Y-92.468
X357.484Y-149.618
X357.484Y-168.668
X357.575Y-119.476
X358.794Y-91.008
X358.794Y-148.158
X358.794Y-167.208
X371.493Y-93.548
X371.493Y-112.598
X371.493Y-131.648
X371.493Y-150.698
X371.493Y-169.748
X371.533Y-92.968
X371.533Y-112.018
X371.533Y-131.068
X371.533Y-150.118
X371.533Y-169.168
X376.534Y-92.468
X376.534Y-111.518
X376.534Y-130.568
X376.534Y-149.618
X376.534Y-168.668
X377.844Y-91.008
X377.844Y-110.058
X377.844Y-129.108
X377.844Y-148.158
X377.844Y-167.208
T2
X224.55Y-69.115G85X224.55Y-69.965
G05
X237.1Y-69.165G85X237.1Y-69.915
G05
T3
X183.8Y-79.9G85X183.8Y-81.5
G05
X199.6Y-79.9G85X199.6Y-81.5
G05
T4
X173.275Y-72.4G85X173.275Y-72.8
G05
X178.125Y-72.4G85X178.125Y-72.8
G05
T5
X172.975Y-69.35G85X172.975Y-69.85
G05
X178.425Y-69.35G85X178.425Y-69.85
G05
T0
M30
