G04 #@! TF.FileFunction,Paste,Bot*
%FSLAX46Y46*%
G04 Gerber Fmt 4.6, Leading zero omitted, Abs format (unit mm)*
G04 Created by KiCad (PCBNEW 4.0.1-stable) date 5/21/2016 3:34:07 PM*
%MOMM*%
G01*
G04 APERTURE LIST*
%ADD10C,0.150000*%
%ADD11C,0.406400*%
%ADD12R,1.000000X1.250000*%
%ADD13R,0.850900X1.000760*%
%ADD14R,1.000760X0.850900*%
%ADD15R,1.000000X1.651000*%
%ADD16R,1.651000X1.000000*%
%ADD17R,1.250000X1.000000*%
%ADD18O,1.800000X3.500000*%
%ADD19R,0.700000X1.800000*%
%ADD20R,1.640000X2.200000*%
%ADD21R,1.800000X1.900000*%
%ADD22R,0.400000X1.350000*%
%ADD23R,1.900000X1.900000*%
%ADD24O,1.050000X1.900000*%
%ADD25R,2.651760X2.029460*%
%ADD26R,1.500000X3.600000*%
%ADD27R,1.198880X1.198880*%
%ADD28R,1.800000X1.100000*%
%ADD29R,1.750000X0.450000*%
%ADD30R,0.800000X0.550000*%
%ADD31R,1.400000X1.200000*%
%ADD32R,1.143000X0.508000*%
%ADD33R,0.650000X1.060000*%
%ADD34R,1.000000X1.500000*%
%ADD35R,0.400000X1.750000*%
%ADD36R,2.000000X1.400000*%
%ADD37R,1.300000X3.250000*%
%ADD38R,1.825000X0.700000*%
%ADD39R,1.425000X2.500000*%
G04 APERTURE END LIST*
D10*
D11*
X150791924Y-74083924D02*
X149735846Y-73027846D01*
X151357680Y-73518168D02*
X150301602Y-72462090D01*
X151923436Y-72952411D02*
X150867358Y-71896333D01*
X152489192Y-72386655D02*
X151433114Y-71330577D01*
X153054948Y-71820899D02*
X151998870Y-70764821D01*
X153620704Y-71255143D02*
X152564626Y-70199065D01*
X150226168Y-74649680D02*
X149170090Y-73593602D01*
X149660411Y-75215436D02*
X148604333Y-74159358D01*
X149094655Y-75781192D02*
X148038577Y-74725114D01*
X148528899Y-76346948D02*
X147472821Y-75290870D01*
X147963143Y-76912704D02*
X146907065Y-75856626D01*
X158874154Y-82166154D02*
X157818076Y-81110076D01*
X159439910Y-81600398D02*
X158383832Y-80544320D01*
X160005667Y-81034642D02*
X158949589Y-79978564D01*
X160571423Y-80468886D02*
X159515345Y-79412808D01*
X161137179Y-79903130D02*
X160081101Y-78847052D01*
X161702935Y-79337374D02*
X160646857Y-78281296D01*
X158308398Y-82731910D02*
X157252320Y-81675832D01*
X157742642Y-83297667D02*
X156686564Y-82241589D01*
X157176886Y-83863423D02*
X156120808Y-82807345D01*
X156611130Y-84429179D02*
X155555052Y-83373101D01*
X156045374Y-84994935D02*
X154989296Y-83938857D01*
X158874154Y-73027846D02*
X157818076Y-74083924D01*
X150791924Y-81110076D02*
X149735846Y-82166154D01*
X159439910Y-73593602D02*
X158383832Y-74649680D01*
X151357680Y-81675832D02*
X150301602Y-82731910D01*
X151923436Y-82241589D02*
X150867358Y-83297667D01*
X160005667Y-74159358D02*
X158949589Y-75215436D01*
X160571423Y-74725114D02*
X159515345Y-75781192D01*
X152489192Y-82807345D02*
X151433114Y-83863423D01*
X153054948Y-83373101D02*
X151998870Y-84429179D01*
X161137179Y-75290870D02*
X160081101Y-76346948D01*
X161702935Y-75856626D02*
X160646857Y-76912704D01*
X153620704Y-83938857D02*
X152564626Y-84994935D01*
X150226168Y-80544320D02*
X149170090Y-81600398D01*
X158308398Y-72462090D02*
X157252320Y-73518168D01*
X157742642Y-71896333D02*
X156686564Y-72952411D01*
X149660411Y-79978564D02*
X148604333Y-81034642D01*
X149094655Y-79412808D02*
X148038577Y-80468886D01*
X157176886Y-71330577D02*
X156120808Y-72386655D01*
X156611130Y-70764821D02*
X155555052Y-71820899D01*
X148528899Y-78847052D02*
X147472821Y-79903130D01*
X147963143Y-78281296D02*
X146907065Y-79337374D01*
X156045374Y-70199065D02*
X154989296Y-71255143D01*
D12*
X145304000Y-69088000D03*
X147304000Y-69088000D03*
D13*
X159004000Y-90576400D03*
X159004000Y-94076520D03*
X87446100Y-128320800D03*
X87446100Y-124820680D03*
X118403100Y-128320800D03*
X118403100Y-124820680D03*
X137453100Y-128320800D03*
X137453100Y-124820680D03*
X156503100Y-128320800D03*
X156503100Y-124820680D03*
X175569100Y-128320800D03*
X175569100Y-124820680D03*
X194602100Y-128320800D03*
X194602100Y-124820680D03*
X89829100Y-109270800D03*
X89829100Y-105770680D03*
X113640100Y-109200800D03*
X113640100Y-105700680D03*
X132690100Y-109270800D03*
X132690100Y-105770680D03*
X170790100Y-109270800D03*
X170790100Y-105770680D03*
X189836100Y-109270800D03*
X189836100Y-105770680D03*
X85064600Y-90220800D03*
X85064600Y-86720680D03*
X104114600Y-90220800D03*
X104114600Y-86720680D03*
X180315100Y-90220800D03*
X180315100Y-86720680D03*
X142214600Y-90220800D03*
X142214600Y-86720680D03*
X123164600Y-90220800D03*
X123164600Y-86720680D03*
X151740100Y-109270800D03*
X151740100Y-105770680D03*
X100076000Y-171582080D03*
X100076000Y-168081960D03*
X104394000Y-167449500D03*
X104394000Y-163949380D03*
X127914400Y-166611300D03*
X127914400Y-163111180D03*
X146926300Y-171213780D03*
X146926300Y-167713660D03*
X187490100Y-166039800D03*
X187490100Y-162539680D03*
X199365100Y-90220800D03*
X199365100Y-86720680D03*
X87446100Y-147370800D03*
X87446100Y-143870680D03*
X108879100Y-147370800D03*
X108879100Y-143870680D03*
X127927100Y-147370800D03*
X127927100Y-143870680D03*
X146977100Y-147370800D03*
X146977100Y-143870680D03*
X166029100Y-147370800D03*
X166029100Y-143870680D03*
X185077100Y-147370800D03*
X185077100Y-143870680D03*
X204127100Y-147370800D03*
X204127100Y-143870680D03*
X294615100Y-90220800D03*
X294615100Y-86720680D03*
X213652100Y-128447800D03*
X213652100Y-124947680D03*
X232703100Y-128320800D03*
X232703100Y-124820680D03*
X251753600Y-128320800D03*
X251753600Y-124820680D03*
X270803100Y-128320800D03*
X270803100Y-124820680D03*
X289869100Y-128320800D03*
X289869100Y-124820680D03*
X308919100Y-128320800D03*
X308919100Y-124820680D03*
X208919100Y-109270800D03*
X208919100Y-105770680D03*
X227940100Y-109200800D03*
X227940100Y-105700680D03*
X246990100Y-109270800D03*
X246990100Y-105770680D03*
X285090100Y-109270800D03*
X285090100Y-105770680D03*
X304140100Y-109270800D03*
X304140100Y-105770680D03*
X218414600Y-90220800D03*
X218414600Y-86720680D03*
X237464600Y-90220800D03*
X237464600Y-86720680D03*
X313665100Y-90220800D03*
X313665100Y-86720680D03*
X275564600Y-90220800D03*
X275564600Y-86720680D03*
X256514600Y-90220800D03*
X256514600Y-86720680D03*
X266040100Y-109270800D03*
X266040100Y-105770680D03*
X228358700Y-166395400D03*
X228358700Y-162895280D03*
X259803900Y-169519600D03*
X259803900Y-166019480D03*
X322605400Y-172085000D03*
X322605400Y-168584880D03*
D14*
X292493700Y-172250100D03*
X288993580Y-172250100D03*
D13*
X325589900Y-166751000D03*
X325589900Y-163250880D03*
X223179100Y-147370800D03*
X223179100Y-143870680D03*
X242229100Y-147370800D03*
X242229100Y-143870680D03*
X261277100Y-147370800D03*
X261277100Y-143870680D03*
X280327100Y-147370800D03*
X280327100Y-143870680D03*
X299379100Y-147370800D03*
X299379100Y-143870680D03*
X325571100Y-147370800D03*
X325571100Y-143870680D03*
X351765100Y-147370800D03*
X351765100Y-143870680D03*
X323190100Y-109270800D03*
X323190100Y-105770680D03*
X370815100Y-147370800D03*
X370815100Y-143870680D03*
X370815100Y-90220800D03*
X370815100Y-86720680D03*
X364248700Y-90436700D03*
X364248700Y-86936580D03*
X370815100Y-109270800D03*
X370815100Y-105770680D03*
X346992100Y-109397800D03*
X346992100Y-105897680D03*
X370815100Y-128320800D03*
X370815100Y-124820680D03*
X339869100Y-128320800D03*
X339869100Y-124820680D03*
X332719100Y-90220800D03*
X332719100Y-86720680D03*
X370815100Y-166420800D03*
X370815100Y-162920680D03*
X345109800Y-167068500D03*
X345109800Y-163568380D03*
X327919100Y-128320800D03*
X327919100Y-124820680D03*
D15*
X91237000Y-94959000D03*
X91237000Y-100113000D03*
X94437000Y-100113000D03*
X94437000Y-94959000D03*
D16*
X128577000Y-97206000D03*
X123423000Y-97206000D03*
X123423000Y-100406000D03*
X128577000Y-100406000D03*
D15*
X158928000Y-97372000D03*
X158928000Y-102526000D03*
X162128000Y-102526000D03*
X162128000Y-97372000D03*
D16*
X194577000Y-97400000D03*
X189423000Y-97400000D03*
X189423000Y-100600000D03*
X194577000Y-100600000D03*
X194146000Y-157100000D03*
X199300000Y-157100000D03*
X199300000Y-153900000D03*
X194146000Y-153900000D03*
D15*
X160477000Y-157263000D03*
X160477000Y-152109000D03*
X157277000Y-152109000D03*
X157277000Y-157263000D03*
D16*
X125423000Y-156600000D03*
X130577000Y-156600000D03*
X130577000Y-153400000D03*
X125423000Y-153400000D03*
D15*
X95072000Y-157263000D03*
X95072000Y-152109000D03*
X91872000Y-152109000D03*
X91872000Y-157263000D03*
D16*
X226577000Y-97400000D03*
X221423000Y-97400000D03*
X221423000Y-100600000D03*
X226577000Y-100600000D03*
D15*
X257400000Y-96423000D03*
X257400000Y-101577000D03*
X260600000Y-101577000D03*
X260600000Y-96423000D03*
D16*
X296577000Y-97400000D03*
X291423000Y-97400000D03*
X291423000Y-100600000D03*
X296577000Y-100600000D03*
D15*
X326314000Y-95213000D03*
X326314000Y-100367000D03*
X329514000Y-100367000D03*
X329514000Y-95213000D03*
D16*
X366577000Y-97400000D03*
X361423000Y-97400000D03*
X361423000Y-100600000D03*
X366577000Y-100600000D03*
D15*
X365600000Y-161577000D03*
X365600000Y-156423000D03*
X362400000Y-156423000D03*
X362400000Y-161577000D03*
D16*
X330163000Y-157302000D03*
X335317000Y-157302000D03*
X335317000Y-154102000D03*
X330163000Y-154102000D03*
D15*
X305384000Y-157390000D03*
X305384000Y-152236000D03*
X302184000Y-152236000D03*
X302184000Y-157390000D03*
D16*
X263742000Y-157175000D03*
X268896000Y-157175000D03*
X268896000Y-153975000D03*
X263742000Y-153975000D03*
D15*
X237693000Y-157263000D03*
X237693000Y-152109000D03*
X234493000Y-152109000D03*
X234493000Y-157263000D03*
D12*
X86487000Y-121539000D03*
X84487000Y-121539000D03*
D17*
X216027000Y-100314000D03*
X216027000Y-98314000D03*
X223647000Y-130810000D03*
X223647000Y-128810000D03*
X241173000Y-156448000D03*
X241173000Y-154448000D03*
X271907000Y-156067000D03*
X271907000Y-154067000D03*
X307975000Y-156067000D03*
X307975000Y-154067000D03*
X339344000Y-156575000D03*
X339344000Y-154575000D03*
X368046000Y-159877000D03*
X368046000Y-157877000D03*
X352806000Y-100314000D03*
X352806000Y-98314000D03*
X323596000Y-97901000D03*
X323596000Y-95901000D03*
X288671000Y-99679000D03*
X288671000Y-97679000D03*
X254000000Y-98917000D03*
X254000000Y-96917000D03*
X218694000Y-100314000D03*
X218694000Y-98314000D03*
X97663000Y-155940000D03*
X97663000Y-153940000D03*
X133477000Y-155940000D03*
X133477000Y-153940000D03*
X168402000Y-155432000D03*
X168402000Y-153432000D03*
X191643000Y-157083000D03*
X191643000Y-155083000D03*
X185039000Y-100060000D03*
X185039000Y-98060000D03*
X154432000Y-99806000D03*
X154432000Y-97806000D03*
X121285000Y-100314000D03*
X121285000Y-98314000D03*
X88646000Y-98282000D03*
X88646000Y-96282000D03*
X229362000Y-135271000D03*
X229362000Y-137271000D03*
X247269000Y-77359000D03*
X247269000Y-79359000D03*
D18*
X199600000Y-80700000D03*
X183800000Y-80700000D03*
D19*
X191700000Y-81600000D03*
X192700000Y-81600000D03*
X193700000Y-81600000D03*
X194700000Y-81600000D03*
X195700000Y-81600000D03*
X190700000Y-81600000D03*
X189700000Y-81600000D03*
X188700000Y-81600000D03*
X187700000Y-81600000D03*
D20*
X199370000Y-76700000D03*
X184030000Y-76700000D03*
D21*
X232150000Y-69540000D03*
D22*
X234850000Y-72215000D03*
X235500000Y-72215000D03*
X236150000Y-72215000D03*
X234200000Y-72215000D03*
X233550000Y-72215000D03*
X228150000Y-72215000D03*
X228800000Y-72215000D03*
X229450000Y-72215000D03*
X227500000Y-72215000D03*
X226850000Y-72215000D03*
D23*
X226950000Y-69540000D03*
X229350000Y-69540000D03*
D24*
X224550000Y-69540000D03*
D21*
X234650000Y-69540000D03*
D24*
X237100000Y-69540000D03*
D10*
G36*
X164338000Y-122160514D02*
X162570233Y-120392747D01*
X164338000Y-118624980D01*
X166105767Y-120392747D01*
X164338000Y-122160514D01*
X164338000Y-122160514D01*
G37*
G36*
X169287747Y-117210767D02*
X167519980Y-115443000D01*
X169287747Y-113675233D01*
X171055514Y-115443000D01*
X169287747Y-117210767D01*
X169287747Y-117210767D01*
G37*
G36*
X164338000Y-112261020D02*
X162570233Y-110493253D01*
X164338000Y-108725486D01*
X166105767Y-110493253D01*
X164338000Y-112261020D01*
X164338000Y-112261020D01*
G37*
G36*
X159388253Y-117210767D02*
X157620486Y-115443000D01*
X159388253Y-113675233D01*
X161156020Y-115443000D01*
X159388253Y-117210767D01*
X159388253Y-117210767D01*
G37*
D12*
X175911000Y-83693000D03*
X177911000Y-83693000D03*
X157750000Y-69215000D03*
X159750000Y-69215000D03*
X164703000Y-81407000D03*
X162703000Y-81407000D03*
X149114000Y-86233000D03*
X151114000Y-86233000D03*
D17*
X144653000Y-77073000D03*
X144653000Y-75073000D03*
D12*
X173339000Y-118237000D03*
X171339000Y-118237000D03*
X151241000Y-69088000D03*
X149241000Y-69088000D03*
X102473000Y-77343000D03*
X100473000Y-77343000D03*
X96536000Y-77343000D03*
X98536000Y-77343000D03*
X175911000Y-81407000D03*
X177911000Y-81407000D03*
X155083000Y-89281000D03*
X157083000Y-89281000D03*
X155083000Y-86995000D03*
X157083000Y-86995000D03*
D17*
X101981000Y-100981000D03*
X101981000Y-102981000D03*
X107823000Y-107426000D03*
X107823000Y-105426000D03*
X191389000Y-134128000D03*
X191389000Y-136128000D03*
D25*
X173428660Y-75692000D03*
X177599340Y-75692000D03*
D26*
X102107000Y-106553000D03*
X105157000Y-106553000D03*
D27*
X137541000Y-94267020D03*
X137541000Y-92168980D03*
D12*
X173974000Y-83693000D03*
X171974000Y-83693000D03*
X173974000Y-81407000D03*
X171974000Y-81407000D03*
D17*
X192659000Y-86979000D03*
X192659000Y-84979000D03*
X190373000Y-86979000D03*
X190373000Y-84979000D03*
X185166000Y-124190000D03*
X185166000Y-122190000D03*
D12*
X181245000Y-111633000D03*
X183245000Y-111633000D03*
X88884000Y-100457000D03*
X86884000Y-100457000D03*
D17*
X107823000Y-102981000D03*
X107823000Y-100981000D03*
X185039000Y-134001000D03*
X185039000Y-136001000D03*
X231648000Y-135271000D03*
X231648000Y-137271000D03*
X193675000Y-136128000D03*
X193675000Y-134128000D03*
X223139000Y-137271000D03*
X223139000Y-135271000D03*
X154305000Y-116475000D03*
X154305000Y-118475000D03*
X104775000Y-78343000D03*
X104775000Y-76343000D03*
X93853000Y-76343000D03*
X93853000Y-78343000D03*
X111125000Y-74184000D03*
X111125000Y-76184000D03*
X115062000Y-74184000D03*
X115062000Y-76184000D03*
X118999000Y-74200000D03*
X118999000Y-76200000D03*
X135128000Y-94218000D03*
X135128000Y-92218000D03*
D28*
X186742000Y-114482000D03*
X186742000Y-118182000D03*
X180542000Y-114482000D03*
X180542000Y-118182000D03*
D29*
X251924000Y-78505000D03*
X251924000Y-77855000D03*
X251924000Y-77205000D03*
X251924000Y-76555000D03*
X251924000Y-75905000D03*
X251924000Y-75255000D03*
X251924000Y-74605000D03*
X251924000Y-73955000D03*
X251924000Y-73305000D03*
X251924000Y-72655000D03*
X251924000Y-72005000D03*
X251924000Y-71355000D03*
X259124000Y-71355000D03*
X259124000Y-72005000D03*
X259124000Y-72655000D03*
X259124000Y-73305000D03*
X259124000Y-73955000D03*
X259124000Y-74605000D03*
X259124000Y-75255000D03*
X259124000Y-75905000D03*
X259124000Y-76555000D03*
X259124000Y-77205000D03*
X259124000Y-77855000D03*
X259124000Y-78505000D03*
D30*
X174441000Y-79690000D03*
X174441000Y-78740000D03*
X174441000Y-77790000D03*
X176841000Y-77790000D03*
X176841000Y-78740000D03*
X176841000Y-79690000D03*
D31*
X158920000Y-84671000D03*
X158920000Y-86271000D03*
X161120000Y-86271000D03*
X161120000Y-84671000D03*
D32*
X133223000Y-70104000D03*
X133223000Y-72644000D03*
X133223000Y-73914000D03*
X133223000Y-75184000D03*
X133223000Y-76454000D03*
X133223000Y-77724000D03*
X133223000Y-78994000D03*
X139573000Y-78994000D03*
X139573000Y-77724000D03*
X139573000Y-76454000D03*
X139573000Y-75184000D03*
X139573000Y-73914000D03*
X139573000Y-72644000D03*
X139573000Y-71374000D03*
X139573000Y-70104000D03*
X133223000Y-71374000D03*
D33*
X105852000Y-103081000D03*
X104902000Y-103081000D03*
X103952000Y-103081000D03*
X103952000Y-100881000D03*
X105852000Y-100881000D03*
D12*
X134496300Y-85509100D03*
X136496300Y-85509100D03*
D34*
X135140700Y-88226900D03*
X136640700Y-88226900D03*
X133640700Y-88226900D03*
D35*
X174400000Y-72425000D03*
X175050000Y-72425000D03*
X175700000Y-72425000D03*
X176350000Y-72425000D03*
X177000000Y-72425000D03*
D36*
X172800000Y-72600000D03*
D37*
X178425000Y-70025000D03*
D36*
X178600000Y-72600000D03*
D38*
X178687500Y-71300000D03*
X172712500Y-71300000D03*
D37*
X172975000Y-70025000D03*
D39*
X176662500Y-69350000D03*
X174737500Y-69350000D03*
M02*
